<?xml version="1.0" standalone="no"?>
<!DOCTYPE svg PUBLIC "-//W3C//DTD SVG 1.1//EN" "http://www.w3.org/Graphics/SVG/1.1/DTD/svg11.dtd" >
<svg>
<metadata>
Created by FontForge 20120731 at Tue Apr 22 05:49:34 2014
 By World Wide Web Server
Created by Nathan Willis,,, with FontForge 2.0 (http://fontforge.sf.net)
</metadata>
<defs>
<font id="NewsCycle" horiz-adv-x="1062" >
  <font-face 
    font-family="News Cycle"
    font-weight="500"
    font-stretch="normal"
    units-per-em="2048"
    panose-1="2 0 5 3 0 0 0 0 0 0"
    ascent="1638"
    descent="-410"
    x-height="1055"
    cap-height="1515"
    bbox="-479 -538 2288 2510"
    underline-thickness="102"
    underline-position="-204"
    unicode-range="U+000D-FB06"
  />
<missing-glyph horiz-adv-x="748" 
d="M68 0v1365h544v-1365h-544zM136 68h408v1229h-408v-1229z" />
    <glyph glyph-name=".notdef" horiz-adv-x="748" 
d="M68 0v1365h544v-1365h-544zM136 68h408v1229h-408v-1229z" />
    <glyph glyph-name=".null" horiz-adv-x="0" 
 />
    <glyph glyph-name="nonmarkingreturn" unicode="&#xd;" horiz-adv-x="2048" 
 />
    <glyph glyph-name="space" unicode=" " horiz-adv-x="475" 
 />
    <glyph glyph-name="space" unicode="&#x202f;" horiz-adv-x="475" 
 />
    <glyph glyph-name="exclam" unicode="!" horiz-adv-x="334" 
d="M92 1446h150l-23 -1146h-104zM92 0v150h150v-150h-150z" />
    <glyph glyph-name="quotedbl" unicode="&#x22;" horiz-adv-x="577" 
d="M335 1046l87 250h-65v150h150v-150q-27 -57 -76 -152t-52 -98h-44zM70 1046l87 250h-65v150h150v-150q-27 -57 -76 -152t-52 -98h-44z" />
    <glyph glyph-name="quotedbl" unicode="&#x201d;" horiz-adv-x="577" 
d="M335 1046l87 250h-65v150h150v-150q-27 -57 -76 -152t-52 -98h-44zM70 1046l87 250h-65v150h150v-150q-27 -57 -76 -152t-52 -98h-44z" />
    <glyph glyph-name="quotedbl" unicode="&#x201c;" horiz-adv-x="577" 
d="M335 1046l87 250h-65v150h150v-150q-27 -57 -76 -152t-52 -98h-44zM70 1046l87 250h-65v150h150v-150q-27 -57 -76 -152t-52 -98h-44z" />
    <glyph glyph-name="quotedbl" unicode="&#x30e;" horiz-adv-x="577" 
d="M335 1046l87 250h-65v150h150v-150q-27 -57 -76 -152t-52 -98h-44zM70 1046l87 250h-65v150h150v-150q-27 -57 -76 -152t-52 -98h-44z" />
    <glyph glyph-name="quotedbl" unicode="&#x30b;" horiz-adv-x="577" 
d="M335 1046l87 250h-65v150h150v-150q-27 -57 -76 -152t-52 -98h-44zM70 1046l87 250h-65v150h150v-150q-27 -57 -76 -152t-52 -98h-44z" />
    <glyph glyph-name="quotedbl" unicode="&#x2ba;" horiz-adv-x="577" 
d="M335 1046l87 250h-65v150h150v-150q-27 -57 -76 -152t-52 -98h-44zM70 1046l87 250h-65v150h150v-150q-27 -57 -76 -152t-52 -98h-44z" />
    <glyph glyph-name="numbersign" unicode="#" horiz-adv-x="1328" 
d="M516 612h282v319h-282v-319zM147 488v124h237v319h-237v124h237v462h132v-462h282v462h132v-462h246v-124h-246v-319h246v-124h-246v-488h-132v488h-282v-488h-132v488h-237z" />
    <glyph glyph-name="dollar" unicode="$" horiz-adv-x="1201" 
d="M654 114q134 2 201.5 77t67.5 185.5t-43.5 175t-152.5 109.5l-73 28v-575zM359 1307q-54 -65 -54 -146q0 -144 55.5 -192.5t145.5 -81.5v504q-93 -19 -147 -84zM157 1150q0 76 41 154.5t122 137.5t186 75v47h148v-45q223 -23 325 -223q9 -18 11 -21l-120 -64
q-16 51 -52 91q-67 74 -164 91v-555l80 -26q140 -48 238.5 -144.5t98.5 -282.5q0 -93 -40.5 -168.5t-85 -120.5t-120.5 -75.5t-171 -30.5v-203h-148v216q-201 41 -328 204l-13 18l118 78q1 1 7 -13q18 -37 66.5 -85.5t149.5 -74.5v610q-200 78 -274.5 173.5t-74.5 236.5z
" />
    <glyph glyph-name="percent" unicode="%" horiz-adv-x="1075" 
d="M67 66l837 1449l114 -66l-836 -1449zM608 267q0 -65 46.5 -111.5t111.5 -46.5t111.5 46.5t46.5 111.5t-46.5 111.5t-111.5 46.5t-111.5 -46.5t-46.5 -111.5zM512 267q0 106 74.5 180.5t180.5 74.5t180.5 -74.5t74.5 -180.5t-74.5 -180.5t-180.5 -74.5t-180.5 74.5
t-74.5 180.5zM177 1242q0 -65 46.5 -111.5t111.5 -46.5t111.5 46.5t46.5 111.5t-46.5 111.5t-111.5 46.5t-111.5 -46.5t-46.5 -111.5zM81 1242q0 106 74.5 180.5t180.5 74.5t180.5 -74.5t74.5 -180.5t-74.5 -180.5t-180.5 -74.5t-180.5 74.5t-74.5 180.5z" />
    <glyph glyph-name="ampersand" unicode="&#x26;" horiz-adv-x="1407" 
d="M452 1197q0 -98 76 -255q142 80 180 109q92 72 92 181q0 73 -48 131.5t-124 58.5t-126 -63.5t-50 -161.5zM242 416q0 -127 92.5 -215t220.5 -88q164 0 309 147q-240 264 -383 501l-77 -59q-84 -66 -109 -110q-53 -89 -53 -176zM110 411.5q0 177.5 124 303.5
q65 66 187 155q-101 202 -101 339.5t87 232t218 94.5t212.5 -91.5t81 -233t-128.5 -245.5q-90 -73 -202 -134q137 -228 362 -470q79 109 101 188t22 162h132q0 -141 -46.5 -246.5t-113.5 -202.5q101 -97 170 -112q33 -7 82 -7v-144h-82q-49 0 -102 29.5t-153 129.5
q-167 -170 -409 -170q-184 0 -312.5 122.5t-128.5 300z" />
    <glyph glyph-name="quotesingle" unicode="'" horiz-adv-x="334" 
d="M70 1046l87 250h-65v150h150v-150q-27 -57 -76 -152t-52 -98h-44z" />
    <glyph glyph-name="quotesingle" unicode="&#x2032;" horiz-adv-x="334" 
d="M70 1046l87 250h-65v150h150v-150q-27 -57 -76 -152t-52 -98h-44z" />
    <glyph glyph-name="quotesingle" unicode="&#x2019;" horiz-adv-x="334" 
d="M70 1046l87 250h-65v150h150v-150q-27 -57 -76 -152t-52 -98h-44z" />
    <glyph glyph-name="quotesingle" unicode="&#x2c8;" horiz-adv-x="334" 
d="M70 1046l87 250h-65v150h150v-150q-27 -57 -76 -152t-52 -98h-44z" />
    <glyph glyph-name="quotesingle" unicode="&#x2bc;" horiz-adv-x="334" 
d="M70 1046l87 250h-65v150h150v-150q-27 -57 -76 -152t-52 -98h-44z" />
    <glyph glyph-name="quotesingle" unicode="&#x2b9;" horiz-adv-x="334" 
d="M70 1046l87 250h-65v150h150v-150q-27 -57 -76 -152t-52 -98h-44z" />
    <glyph glyph-name="parenleft" unicode="(" horiz-adv-x="546" 
d="M92 678q0 125 18.5 238t45 201t64.5 179q38 90 68 146q65 124 112 184l19 27l116 -78q-44 -63 -100 -170.5t-94 -205t-69.5 -237.5t-31.5 -268q0 -336 180 -704q59 -120 110 -200l-116 -78l-36 56q-22 35 -77.5 145t-97.5 220t-76.5 265t-34.5 280z" />
    <glyph glyph-name="parenright" unicode=")" horiz-adv-x="546" 
d="M92 1575l116 78l20 -27q91 -124 154.5 -273t89.5 -236q64 -212 63.5 -387.5t-34.5 -330.5q-56 -253 -175 -486q-55 -109 -78 -145l-35 -56l-116 78l1 1q112 173 200.5 418.5t88.5 483.5q1 129 -31 269q-50 224 -135 387t-129 226z" />
    <glyph glyph-name="asterisk" unicode="*" horiz-adv-x="688" 
d="M90 712l29 88l179 -58v188h92v-188l179 58l29 -88l-179 -58l111 -153l-75 -55l-111 153l-111 -153l-75 55l111 153z" />
    <glyph glyph-name="plus" unicode="+" horiz-adv-x="707" 
d="M90 694v92h218v218h92v-218h217v-92h-217v-218h-92v218h-218z" />
    <glyph glyph-name="plus" unicode="&#x207a;" horiz-adv-x="707" 
d="M90 694v92h218v218h92v-218h217v-92h-217v-218h-92v218h-218z" />
    <glyph glyph-name="comma" unicode="," horiz-adv-x="334" 
d="M70 -250l87 250h-65v150h150v-150q-27 -57 -76 -152t-52 -98h-44z" />
    <glyph glyph-name="hyphen" unicode="-" horiz-adv-x="708" 
d="M92 694v92h524v-92h-524z" />
    <glyph glyph-name="period" unicode="." horiz-adv-x="334" 
d="M92 0v150h150v-150h-150z" />
    <glyph glyph-name="period" unicode="&#x2024;" horiz-adv-x="334" 
d="M92 0v150h150v-150h-150z" />
    <glyph glyph-name="slash" unicode="/" horiz-adv-x="1003" 
d="M70 -12l744 1591l108 -51l-743 -1591z" />
    <glyph glyph-name="zero" unicode="0" horiz-adv-x="1255" 
d="M288 739q0 -351 106 -503q85 -122 253.5 -122.5t242.5 135.5q77 141 77 454q0 346 -59 491q-24 57 -60 106q-73 98 -209 98q-351 0 -351 -659zM140 741.5q0 113.5 14 219t50 210t90.5 180.5t143 123.5t198.5 47.5t194 -47t136 -123q148 -214 149 -613q0 -557 -283 -705
q-86 -45 -195.5 -45t-196.5 45t-142.5 117.5t-92 172.5t-51 202t-14.5 215.5z" />
    <glyph glyph-name="zero" unicode="&#x2070;" horiz-adv-x="1255" 
d="M288 739q0 -351 106 -503q85 -122 253.5 -122.5t242.5 135.5q77 141 77 454q0 346 -59 491q-24 57 -60 106q-73 98 -209 98q-351 0 -351 -659zM140 741.5q0 113.5 14 219t50 210t90.5 180.5t143 123.5t198.5 47.5t194 -47t136 -123q148 -214 149 -613q0 -557 -283 -705
q-86 -45 -195.5 -45t-196.5 45t-142.5 117.5t-92 172.5t-51 202t-14.5 215.5z" />
    <glyph glyph-name="one" unicode="1" horiz-adv-x="839" 
d="M106 1400l327 115h106v-1373h220v-142h-612v142h244v1210l-237 -69z" />
    <glyph glyph-name="two" unicode="2" horiz-adv-x="1180" 
d="M90 0q1 123 18 187q42 151 230 325q90 83 172 143l182 133q74 54 101 82q61 64 85 120t24 126q0 127 -73 203t-223 76q-83 0 -148 -30.5t-101 -78.5q-72 -96 -76 -198h-148q0 125 69.5 227t181.5 157t233 55t219 -54t156 -149t58 -207t-51.5 -199.5t-107 -136.5
t-85.5 -73l-162 -126q-376 -303 -392 -440h777v-142h-939z" />
    <glyph glyph-name="three" unicode="3" horiz-adv-x="1171" 
d="M70 237l101 87q82 -84 117 -111q106 -81 263 -81q201 0 297 121q50 64 51 154q0 145 -88 229.5t-232 84.5h-213v141h213q133 0 202.5 78.5t69.5 196.5t-90.5 182.5t-202.5 64.5t-208 -45t-143 -106l-96 93q73 84 188 142.5t246.5 58.5t229.5 -51t157.5 -138.5
t59.5 -188.5q0 -159 -99 -276q-44 -52 -89 -81q122 -74 179 -165t58 -210q0 -208 -134 -318t-356 -110q-286 0 -481 248z" />
    <glyph glyph-name="four" unicode="4" horiz-adv-x="1225" 
d="M221 514h535v826zM70 390v120l656 1005h178v-1001h231v-124h-231v-390h-148v390h-686z" />
    <glyph glyph-name="four" unicode="&#x2074;" horiz-adv-x="1225" 
d="M221 514h535v826zM70 390v120l656 1005h178v-1001h231v-124h-231v-390h-148v390h-686z" />
    <glyph glyph-name="five" unicode="5" horiz-adv-x="1053" 
d="M60 276l98 75q20 -58 78 -117q115 -114 233 -114t214 86q122 110 122 339t-151 313q-73 40 -161 40l-1 1q-87 0 -164 -64t-84 -113h-136v790h762v-131h-614v-450q62 58 160 82q42 10 84 9q197 0 325 -135.5t128 -365t-132 -381.5q-133 -150 -331 -150t-340 146
q-72 74 -90 140z" />
    <glyph glyph-name="five" unicode="&#x2075;" horiz-adv-x="1053" 
d="M60 276l98 75q20 -58 78 -117q115 -114 233 -114t214 86q122 110 122 339t-151 313q-73 40 -161 40l-1 1q-87 0 -164 -64t-84 -113h-136v790h762v-131h-614v-450q62 58 160 82q42 10 84 9q197 0 325 -135.5t128 -365t-132 -381.5q-133 -150 -331 -150t-340 146
q-72 74 -90 140z" />
    <glyph glyph-name="six" unicode="6" horiz-adv-x="1163" 
d="M904 478q0 156 -87.5 247t-228 91t-232.5 -93q-68 -69 -100 -192q-5 -18 -5 -52t27 -115q46 -138 129 -194t158 -56q132 0 231.5 85.5t107.5 278.5zM1042 478q-4 -144 -78.5 -274.5t-211.5 -184.5q-76 -30 -166 -30q-223 0 -349.5 181t-126.5 508q0 398 155.5 617
t433.5 219q70 0 152 -32t112 -69l-58 -107q-107 76 -207 76q-185 0 -310.5 -161t-147.5 -477q1 1 12.5 18t19.5 28q10 11 28 31q110 119 281 119h6q203 0 329 -126.5t126 -335.5z" />
    <glyph glyph-name="six" unicode="&#x2076;" horiz-adv-x="1163" 
d="M904 478q0 156 -87.5 247t-228 91t-232.5 -93q-68 -69 -100 -192q-5 -18 -5 -52t27 -115q46 -138 129 -194t158 -56q132 0 231.5 85.5t107.5 278.5zM1042 478q-4 -144 -78.5 -274.5t-211.5 -184.5q-76 -30 -166 -30q-223 0 -349.5 181t-126.5 508q0 398 155.5 617
t433.5 219q70 0 152 -32t112 -69l-58 -107q-107 76 -207 76q-185 0 -310.5 -161t-147.5 -477q1 1 12.5 18t19.5 28q10 11 28 31q110 119 281 119h6q203 0 329 -126.5t126 -335.5z" />
    <glyph glyph-name="seven" unicode="7" horiz-adv-x="1057" 
d="M84 1376v139h873v-141l-593 -1374h-164l607 1376h-723z" />
    <glyph glyph-name="seven" unicode="&#x2077;" horiz-adv-x="1057" 
d="M84 1376v139h873v-141l-593 -1374h-164l607 1376h-723z" />
    <glyph glyph-name="eight" unicode="8" horiz-adv-x="1204" 
d="M303 1136.5q0 -83.5 62.5 -140.5t110.5 -80l112 -54q152 61 200 91q119 73 119 191.5t-89 187.5t-188 69t-168.5 -31t-114 -90.5t-44.5 -143zM242 393.5q0 -83.5 56 -150.5q108 -130 321 -130q84 0 150.5 31t104.5 63q88 75 88 195t-82 190t-206 121l-76 31
q-196 -51 -302 -194q-54 -73 -54 -156.5zM110 400q0 178 164 307q80 63 172 98q-121 42 -198 130t-77 204t60 204t160 135t219 47q180 0 304.5 -106.5t124.5 -264.5q0 -119 -84 -211t-208 -146q285 -123 329 -277q18 -64 18 -121q0 -118 -67.5 -213.5t-174.5 -146
t-235.5 -50.5t-244 48.5t-189 144t-73.5 218.5z" />
    <glyph glyph-name="eight" unicode="&#x2078;" horiz-adv-x="1204" 
d="M303 1136.5q0 -83.5 62.5 -140.5t110.5 -80l112 -54q152 61 200 91q119 73 119 191.5t-89 187.5t-188 69t-168.5 -31t-114 -90.5t-44.5 -143zM242 393.5q0 -83.5 56 -150.5q108 -130 321 -130q84 0 150.5 31t104.5 63q88 75 88 195t-82 190t-206 121l-76 31
q-196 -51 -302 -194q-54 -73 -54 -156.5zM110 400q0 178 164 307q80 63 172 98q-121 42 -198 130t-77 204t60 204t160 135t219 47q180 0 304.5 -106.5t124.5 -264.5q0 -119 -84 -211t-208 -146q285 -123 329 -277q18 -64 18 -121q0 -118 -67.5 -213.5t-174.5 -146
t-235.5 -50.5t-244 48.5t-189 144t-73.5 218.5z" />
    <glyph glyph-name="nine" unicode="9" horiz-adv-x="1163" 
d="M248 1025q0 -156 87.5 -247t228 -91t232.5 93q68 69 100 192q5 18 5 52t-27 115q-46 138 -129 194t-158 56q-132 0 -231.5 -85.5t-107.5 -278.5zM110 1025q4 144 78.5 274.5t211.5 184.5q76 30 166 30q223 0 349.5 -181t126.5 -508q0 -398 -155.5 -617t-433.5 -219
q-70 0 -152 32t-112 69l58 107q107 -76 207 -76q185 0 310.5 161t147.5 477q-1 -1 -12.5 -18t-19.5 -28q-10 -11 -28 -31q-110 -119 -281 -119h-6q-203 0 -329 126.5t-126 335.5z" />
    <glyph glyph-name="nine" unicode="&#x2079;" horiz-adv-x="1163" 
d="M248 1025q0 -156 87.5 -247t228 -91t232.5 93q68 69 100 192q5 18 5 52t-27 115q-46 138 -129 194t-158 56q-132 0 -231.5 -85.5t-107.5 -278.5zM110 1025q4 144 78.5 274.5t211.5 184.5q76 30 166 30q223 0 349.5 -181t126.5 -508q0 -398 -155.5 -617t-433.5 -219
q-70 0 -152 32t-112 69l58 107q107 -76 207 -76q185 0 310.5 161t147.5 477q-1 -1 -12.5 -18t-19.5 -28q-10 -11 -28 -31q-110 -119 -281 -119h-6q-203 0 -329 126.5t-126 335.5z" />
    <glyph glyph-name="colon" unicode=":" horiz-adv-x="334" 
d="M92 905v150h150v-150h-150zM92 0v150h150v-150h-150z" />
    <glyph glyph-name="semicolon" unicode=";" horiz-adv-x="334" 
d="M92 905v150h150v-150h-150zM70 -250l87 250h-65v150h150v-150q-27 -57 -76 -152t-52 -98h-44z" />
    <glyph glyph-name="semicolon" unicode="&#x37e;" horiz-adv-x="334" 
d="M92 905v150h150v-150h-150zM70 -250l87 250h-65v150h150v-150q-27 -57 -76 -152t-52 -98h-44z" />
    <glyph glyph-name="less" unicode="&#x3c;" horiz-adv-x="960" 
d="M64 744l762 640l68 -85l-662 -555l662 -555l-68 -85z" />
    <glyph glyph-name="less" unicode="&#x2039;" horiz-adv-x="960" 
d="M64 744l762 640l68 -85l-662 -555l662 -555l-68 -85z" />
    <glyph glyph-name="equal" unicode="=" horiz-adv-x="797" 
d="M90 808v92h617v-92h-617zM90 542v92h617v-92h-617z" />
    <glyph glyph-name="greater" unicode="&#x3e;" horiz-adv-x="960" 
d="M64 189l662 555l-662 555l68 85l762 -640l-762 -640z" />
    <glyph glyph-name="greater" unicode="&#x203a;" horiz-adv-x="960" 
d="M64 189l662 555l-662 555l68 85l762 -640l-762 -640z" />
    <glyph glyph-name="question" unicode="?" horiz-adv-x="863" 
d="M273 0v150h150v-150h-150zM93 1314q81 153 213 187q52 14 136 14t164.5 -55t123 -143t42.5 -179q0 -164 -124 -312l-104 -122q-124 -141 -124 -235v-149h-132v149q0 123 123 269l102 121q123 146 123 261.5t-69 190.5t-139.5 75t-112.5 -15.5t-65 -41.5t-57 -83z" />
    <glyph glyph-name="at" unicode="@" horiz-adv-x="1609" 
d="M584 568q0 -81 48 -144t124 -63q115 0 238 143v306q-76 56 -150.5 56t-133.5 -40.5t-92.5 -108.5t-33.5 -149zM80 631q0 90 24 184q22 93 64 165q121 208 359 300q140 54 284.5 54t275 -53.5t228 -143.5t156 -216.5t58.5 -264.5q0 -410 -216 -486q-45 -16 -101 -16
q-112 0 -165 75.5t-53 177.5q-1 0 -11 -19q-22 -43 -80 -91t-146 -48q-151 1 -223 79q-30 33 -56.5 94t-26.5 142.5t32.5 158.5t84.5 134t120.5 92.5t149 35.5t156.5 -63l21 76h110v-623q0 -51 37.5 -80t79.5 -29t76 36.5t64 125t30 218t-46.5 236t-125.5 183.5t-188.5 122
t-230.5 45q-173 0 -331 -85q-204 -110 -267 -348q-24 -90 -24 -189q-1 -98 27 -185q56 -177 213 -299.5t385 -122.5q154 0 243 66l60 -90q5 -3 -31 -24q-60 -35 -116.5 -50.5t-149.5 -15.5t-193.5 22.5t-177.5 62t-140.5 94.5t-107.5 119t-74 136t-43.5 145t-13.5 163z" />
    <glyph glyph-name="A" unicode="A" horiz-adv-x="1130" 
d="M346 602h440l-221 787zM25 0l432 1515h216l432 -1515h-154l-130 478h-509l-133 -478h-154z" />
    <glyph glyph-name="A" unicode="&#x410;" horiz-adv-x="1130" 
d="M346 602h440l-221 787zM25 0l432 1515h216l432 -1515h-154l-130 478h-509l-133 -478h-154z" />
    <glyph glyph-name="A" unicode="&#x391;" horiz-adv-x="1130" 
d="M346 602h440l-221 787zM25 0l432 1515h216l432 -1515h-154l-130 478h-509l-133 -478h-154z" />
    <glyph glyph-name="B" unicode="B" horiz-adv-x="1132" 
d="M283 850l325 3q140 1 212 71q30 30 52.5 88.5t22.5 139.5q0 117 -73.5 178t-213.5 61h-325v-541zM283 124h325q162 0 238 68q32 28 55 84.5t23 133.5q0 142 -87 229t-229 87h-325v-602zM135 0v1515h473q183 0 302 -104.5t119 -258.5q0 -254 -178 -326q-31 -12 -77 -26
q164 -42 246 -197q44 -85 44 -193q0 -187 -117 -298.5t-339 -111.5h-473z" />
    <glyph glyph-name="B" unicode="&#x412;" horiz-adv-x="1132" 
d="M283 850l325 3q140 1 212 71q30 30 52.5 88.5t22.5 139.5q0 117 -73.5 178t-213.5 61h-325v-541zM283 124h325q162 0 238 68q32 28 55 84.5t23 133.5q0 142 -87 229t-229 87h-325v-602zM135 0v1515h473q183 0 302 -104.5t119 -258.5q0 -254 -178 -326q-31 -12 -77 -26
q164 -42 246 -197q44 -85 44 -193q0 -187 -117 -298.5t-339 -111.5h-473z" />
    <glyph glyph-name="B" unicode="&#x392;" horiz-adv-x="1132" 
d="M283 850l325 3q140 1 212 71q30 30 52.5 88.5t22.5 139.5q0 117 -73.5 178t-213.5 61h-325v-541zM283 124h325q162 0 238 68q32 28 55 84.5t23 133.5q0 142 -87 229t-229 87h-325v-602zM135 0v1515h473q183 0 302 -104.5t119 -258.5q0 -254 -178 -326q-31 -12 -77 -26
q164 -42 246 -197q44 -85 44 -193q0 -187 -117 -298.5t-339 -111.5h-473z" />
    <glyph glyph-name="C" unicode="C" horiz-adv-x="1174" 
d="M932 1046q-51 362 -314 362q-390 0 -390 -649q0 -278 82 -454q44 -93 122 -145t171 -52q226 0 313 186q41 88 44 169l146 -23q-4 -11 -18.5 -54t-24.5 -70t-32.5 -73.5t-44.5 -77.5q-131 -181 -347 -181q-189 0 -305 90q-254 196 -254 702q0 226 76 414q86 214 256 296
q92 46 188 46t163.5 -24.5t113.5 -63.5q99 -84 143.5 -182t57.5 -150l6 -24v-1z" />
    <glyph glyph-name="C" unicode="&#x421;" horiz-adv-x="1174" 
d="M932 1046q-51 362 -314 362q-390 0 -390 -649q0 -278 82 -454q44 -93 122 -145t171 -52q226 0 313 186q41 88 44 169l146 -23q-4 -11 -18.5 -54t-24.5 -70t-32.5 -73.5t-44.5 -77.5q-131 -181 -347 -181q-189 0 -305 90q-254 196 -254 702q0 226 76 414q86 214 256 296
q92 46 188 46t163.5 -24.5t113.5 -63.5q99 -84 143.5 -182t57.5 -150l6 -24v-1z" />
    <glyph glyph-name="D" unicode="D" horiz-adv-x="1214" 
d="M283 124h213q328 0 444 279q58 140 58 342q0 359 -138 512q-54 59 -146.5 96.5t-217.5 37.5h-213v-1267zM135 0v1515h361q502 0 614 -446q36 -144 36 -294t-21 -255q-46 -233 -199 -376.5t-430 -143.5h-361z" />
    <glyph glyph-name="E" unicode="E" 
d="M135 0v1515h821v-124h-673v-533h483v-124h-483v-601h711v-133h-859z" />
    <glyph glyph-name="E" unicode="&#x415;" 
d="M135 0v1515h821v-124h-673v-533h483v-124h-483v-601h711v-133h-859z" />
    <glyph glyph-name="E" unicode="&#x395;" 
d="M135 0v1515h821v-124h-673v-533h483v-124h-483v-601h711v-133h-859z" />
    <glyph glyph-name="F" unicode="F" horiz-adv-x="1024" 
d="M135 0v1515h821v-124h-673v-533h483v-124h-483v-734h-148z" />
    <glyph glyph-name="G" unicode="G" horiz-adv-x="1246" 
d="M639 108q334 0 334 467v16h-337v124h482v-715h-120v192q-113 -156 -239 -192q-56 -16 -148 -16t-187.5 46t-158.5 122t-105.5 178.5t-61 211.5t-18.5 214.5t14 196.5q30 201 116 335q151 244 426 244q141 0 265 -85q145 -99 211 -348l-145 -36q-1 7 -3 19q0 13 -10 49
q-34 130 -116 203.5t-198 73.5t-198 -54t-127 -148q-87 -181 -87 -463.5t80 -434.5q105 -200 331 -200z" />
    <glyph glyph-name="H" unicode="H" horiz-adv-x="1254" 
d="M135 0v1515h148v-657h688v657h148v-1515h-148v734h-688v-734h-148z" />
    <glyph glyph-name="H" unicode="&#x41d;" horiz-adv-x="1254" 
d="M135 0v1515h148v-657h688v657h148v-1515h-148v734h-688v-734h-148z" />
    <glyph glyph-name="H" unicode="&#x397;" horiz-adv-x="1254" 
d="M135 0v1515h148v-657h688v657h148v-1515h-148v734h-688v-734h-148z" />
    <glyph glyph-name="I" unicode="I" horiz-adv-x="418" 
d="M135 0v1515h148v-1515h-148z" />
    <glyph glyph-name="I" unicode="&#x4c0;" horiz-adv-x="418" 
d="M135 0v1515h148v-1515h-148z" />
    <glyph glyph-name="I" unicode="&#x406;" horiz-adv-x="418" 
d="M135 0v1515h148v-1515h-148z" />
    <glyph glyph-name="I" unicode="&#x399;" horiz-adv-x="418" 
d="M135 0v1515h148v-1515h-148z" />
    <glyph glyph-name="J" unicode="J" horiz-adv-x="896" 
d="M25 244l103 53l14 -29q50 -98 152 -142q44 -18 92 -18q122 0 174.5 83.5t52.5 237.5v1086h148v-1086q0 -327 -217 -417q-68 -28 -152.5 -28t-150.5 26.5t-103 59.5t-71 86q-34 52 -42 88z" />
    <glyph glyph-name="J" unicode="&#x408;" horiz-adv-x="896" 
d="M25 244l103 53l14 -29q50 -98 152 -142q44 -18 92 -18q122 0 174.5 83.5t52.5 237.5v1086h148v-1086q0 -327 -217 -417q-68 -28 -152.5 -28t-150.5 26.5t-103 59.5t-71 86q-34 52 -42 88z" />
    <glyph glyph-name="K" unicode="K" horiz-adv-x="1140" 
d="M135 0v1515h149v-824l617 824h159l-434 -569l489 -946h-166l-417 822l-248 -327v-495h-149z" />
    <glyph glyph-name="K" unicode="&#x41a;" horiz-adv-x="1140" 
d="M135 0v1515h149v-824l617 824h159l-434 -569l489 -946h-166l-417 822l-248 -327v-495h-149z" />
    <glyph glyph-name="K" unicode="&#x39a;" horiz-adv-x="1140" 
d="M135 0v1515h149v-824l617 824h159l-434 -569l489 -946h-166l-417 822l-248 -327v-495h-149z" />
    <glyph glyph-name="L" unicode="L" horiz-adv-x="980" 
d="M135 0v1515h148v-1373h672v-142h-820z" />
    <glyph glyph-name="M" unicode="M" horiz-adv-x="1457" 
d="M128 0v1515h268l324 -1163h10l324 1163h268v-1515h-148v1374h-10l-382 -1374h-114l-382 1374h-10v-1374h-148z" />
    <glyph glyph-name="M" unicode="&#x41c;" horiz-adv-x="1457" 
d="M128 0v1515h268l324 -1163h10l324 1163h268v-1515h-148v1374h-10l-382 -1374h-114l-382 1374h-10v-1374h-148z" />
    <glyph glyph-name="M" unicode="&#x39c;" horiz-adv-x="1457" 
d="M128 0v1515h268l324 -1163h10l324 1163h268v-1515h-148v1374h-10l-382 -1374h-114l-382 1374h-10v-1374h-148z" />
    <glyph glyph-name="N" unicode="N" horiz-adv-x="1251" 
d="M128 0v1515h236l611 -1154v1154h148v-1515h-127l-720 1368v-1368h-148z" />
    <glyph glyph-name="N" unicode="&#x39d;" horiz-adv-x="1251" 
d="M128 0v1515h236l611 -1154v1154h148v-1515h-127l-720 1368v-1368h-148z" />
    <glyph glyph-name="O" unicode="O" horiz-adv-x="1263" 
d="M228 739q0 -119 24 -231q22 -113 70 -204q48 -92 130 -144t180 -52q186 0 282 142q121 180 121 505t-121 507q-43 64 -113 105t-160 41t-161.5 -36t-118 -96.5t-77 -145.5t-43.5 -178.5t-13 -212.5zM80 753q0 115 19 224t62 211t106.5 177.5t159.5 121t211.5 45.5
t207.5 -46q168 -85 252.5 -289.5t84.5 -444.5q-1 -439 -227 -652q-123 -116 -315 -116q-111 0 -205 44.5t-158.5 119t-110 174t-66.5 208t-21 223.5z" />
    <glyph glyph-name="O" unicode="&#x41e;" horiz-adv-x="1263" 
d="M228 739q0 -119 24 -231q22 -113 70 -204q48 -92 130 -144t180 -52q186 0 282 142q121 180 121 505t-121 507q-43 64 -113 105t-160 41t-161.5 -36t-118 -96.5t-77 -145.5t-43.5 -178.5t-13 -212.5zM80 753q0 115 19 224t62 211t106.5 177.5t159.5 121t211.5 45.5
t207.5 -46q168 -85 252.5 -289.5t84.5 -444.5q-1 -439 -227 -652q-123 -116 -315 -116q-111 0 -205 44.5t-158.5 119t-110 174t-66.5 208t-21 223.5z" />
    <glyph glyph-name="O" unicode="&#x39f;" horiz-adv-x="1263" 
d="M228 739q0 -119 24 -231q22 -113 70 -204q48 -92 130 -144t180 -52q186 0 282 142q121 180 121 505t-121 507q-43 64 -113 105t-160 41t-161.5 -36t-118 -96.5t-77 -145.5t-43.5 -178.5t-13 -212.5zM80 753q0 115 19 224t62 211t106.5 177.5t159.5 121t211.5 45.5
t207.5 -46q168 -85 252.5 -289.5t84.5 -444.5q-1 -439 -227 -652q-123 -116 -315 -116q-111 0 -205 44.5t-158.5 119t-110 174t-66.5 208t-21 223.5z" />
    <glyph glyph-name="P" unicode="P" horiz-adv-x="1136" 
d="M283 816h280q162 0 259.5 71t97.5 217t-98 216.5t-259 70.5h-280v-575zM135 0v1515h529q236 0 346 -186q58 -98 58 -195.5t-22 -170t-67.5 -135t-126.5 -99.5t-188 -37h-381v-692h-148z" />
    <glyph glyph-name="P" unicode="&#x420;" horiz-adv-x="1136" 
d="M283 816h280q162 0 259.5 71t97.5 217t-98 216.5t-259 70.5h-280v-575zM135 0v1515h529q236 0 346 -186q58 -98 58 -195.5t-22 -170t-67.5 -135t-126.5 -99.5t-188 -37h-381v-692h-148z" />
    <glyph glyph-name="P" unicode="&#x3a1;" horiz-adv-x="1136" 
d="M283 816h280q162 0 259.5 71t97.5 217t-98 216.5t-259 70.5h-280v-575zM135 0v1515h529q236 0 346 -186q58 -98 58 -195.5t-22 -170t-67.5 -135t-126.5 -99.5t-188 -37h-381v-692h-148z" />
    <glyph glyph-name="Q" unicode="Q" horiz-adv-x="1263" 
d="M228 739q0 -119 23.5 -231.5t71 -203.5t129.5 -144q82 -52 180 -52q186 0 282 142q121 180 121 505t-121 507q-43 64 -113 105t-160 41t-161.5 -36t-118 -96.5t-77 -145.5t-43.5 -178.5t-13 -212.5zM80 743.5q0 124.5 19 233.5t62 211t106.5 177.5t159.5 121t211.5 45.5
t207.5 -46q168 -85 252.5 -289.5t84.5 -457.5t-107 -469q-53 -106 -142 -181t-204 -98q2 -89 28.5 -113.5t96.5 -24.5h264v-124l-129 -1q-270 0 -331 39t-72 119q-5 40 -5 102q-120 17 -218 90t-158.5 180t-93 234t-32.5 251.5z" />
    <glyph glyph-name="R" unicode="R" horiz-adv-x="1093" 
d="M283 816h376q105 0 183 70t78 224q0 206 -222 264q-66 17 -144 17h-271v-575zM135 0v1515h510q239 0 358 -186q65 -101 65 -223t-68 -240q-68 -116 -224 -150l286 -716h-162l-276 692h-341v-692h-148z" />
    <glyph glyph-name="S" unicode="S" horiz-adv-x="1033" 
d="M40 368l137 48q1 0 4.5 -17t13 -44t25.5 -60q33 -69 117 -128t224.5 -59t209.5 77t69 189.5t-43.5 177t-152.5 109.5q-31 13 -84 31l-95 33q-246 82 -332 210q-59 88 -59 218.5t112 252.5q52 56 134.5 91t173 35t160.5 -24q114 -40 188 -144q34 -46 49 -84l45 -115
l-130 -50q-2 5 -9.5 31.5t-13 43.5t-19.5 47q-23 52 -55.5 85.5t-79.5 59.5t-130 26q-123 0 -200 -72.5t-77 -198t68 -178.5q54 -43 122 -67l51 -20l147 -46q233 -72 319 -211q59 -95 59 -211t-62 -224q-112 -196 -372 -196q-222 0 -374 151q-85 84 -132 212z" />
    <glyph glyph-name="S" unicode="&#x405;" horiz-adv-x="1033" 
d="M40 368l137 48q1 0 4.5 -17t13 -44t25.5 -60q33 -69 117 -128t224.5 -59t209.5 77t69 189.5t-43.5 177t-152.5 109.5q-31 13 -84 31l-95 33q-246 82 -332 210q-59 88 -59 218.5t112 252.5q52 56 134.5 91t173 35t160.5 -24q114 -40 188 -144q34 -46 49 -84l45 -115
l-130 -50q-2 5 -9.5 31.5t-13 43.5t-19.5 47q-23 52 -55.5 85.5t-79.5 59.5t-130 26q-123 0 -200 -72.5t-77 -198t68 -178.5q54 -43 122 -67l51 -20l147 -46q233 -72 319 -211q59 -95 59 -211t-62 -224q-112 -196 -372 -196q-222 0 -374 151q-85 84 -132 212z" />
    <glyph glyph-name="T" unicode="T" 
d="M25 1391v124h1012v-124h-432v-1391h-148v1391h-432z" />
    <glyph glyph-name="T" unicode="&#x422;" 
d="M25 1391v124h1012v-124h-432v-1391h-148v1391h-432z" />
    <glyph glyph-name="T" unicode="&#x3a4;" 
d="M25 1391v124h1012v-124h-432v-1391h-148v1391h-432z" />
    <glyph glyph-name="U" unicode="U" horiz-adv-x="1213" 
d="M135 455v1060h148v-1060q0 -135 66 -229q83 -118 260 -118q87 0 151 28t96 66q79 96 81 253l-6 1060h154v-1060q-1 -163 -89 -293q-121 -178 -387 -178q-319 0 -429 254q-45 104 -45 217z" />
    <glyph glyph-name="V" unicode="V" horiz-adv-x="1104" 
d="M25 1515h154l373 -1256l373 1256h154l-450 -1515h-154z" />
    <glyph glyph-name="W" unicode="W" horiz-adv-x="1614" 
d="M25 1515h154l259 -1198h10l274 1198h170l274 -1198h10l259 1198h154l-351 -1515h-152l-274 1198h-10l-274 -1198h-152z" />
    <glyph glyph-name="X" unicode="X" horiz-adv-x="1083" 
d="M25 0l437 773l-419 742h154l359 -634l348 634h154l-428 -765l425 -750h-156l-359 636l-359 -636h-156z" />
    <glyph glyph-name="X" unicode="&#x425;" horiz-adv-x="1083" 
d="M25 0l437 773l-419 742h154l359 -634l348 634h154l-428 -765l425 -750h-156l-359 636l-359 -636h-156z" />
    <glyph glyph-name="X" unicode="&#x3a7;" horiz-adv-x="1083" 
d="M25 0l437 773l-419 742h154l359 -634l348 634h154l-428 -765l425 -750h-156l-359 636l-359 -636h-156z" />
    <glyph glyph-name="Y" unicode="Y" horiz-adv-x="1122" 
d="M25 1515h154l382 -713l382 713h154l-462 -855v-660h-148v660z" />
    <glyph glyph-name="Y" unicode="&#x4ae;" horiz-adv-x="1122" 
d="M25 1515h154l382 -713l382 713h154l-462 -855v-660h-148v660z" />
    <glyph glyph-name="Y" unicode="&#x3d2;" horiz-adv-x="1122" 
d="M25 1515h154l382 -713l382 713h154l-462 -855v-660h-148v660z" />
    <glyph glyph-name="Y" unicode="&#x3a5;" horiz-adv-x="1122" 
d="M25 1515h154l382 -713l382 713h154l-462 -855v-660h-148v660z" />
    <glyph glyph-name="Z" unicode="Z" horiz-adv-x="1142" 
d="M68 0v107l825 1280h-771v132l952 -4v-123l-794 -1250h788v-142h-1000z" />
    <glyph glyph-name="Z" unicode="&#x396;" horiz-adv-x="1142" 
d="M68 0v107l825 1280h-771v132l952 -4v-123l-794 -1250h788v-142h-1000z" />
    <glyph glyph-name="bracketleft" unicode="[" horiz-adv-x="607" 
d="M100 -285v1923h437v-92h-289v-1739h289v-92h-437z" />
    <glyph glyph-name="backslash" unicode="\" horiz-adv-x="783" 
d="M-139 1528l108 51l744 -1591l-109 -51z" />
    <glyph glyph-name="bracketright" unicode="]" horiz-adv-x="607" 
d="M100 -193h289v1739h-289v92h437v-1923h-437v92z" />
    <glyph glyph-name="asciicircum" unicode="^" horiz-adv-x="624" 
d="M90 1197l222 222l222 -222l-66 -64l-156 156l-157 -157z" />
    <glyph glyph-name="asciicircum" unicode="&#x302;" horiz-adv-x="624" 
d="M90 1197l222 222l222 -222l-66 -64l-156 156l-157 -157z" />
    <glyph glyph-name="asciicircum" unicode="&#x2c6;" horiz-adv-x="624" 
d="M90 1197l222 222l222 -222l-66 -64l-156 156l-157 -157z" />
    <glyph glyph-name="asciicircum" unicode="&#x2c4;" horiz-adv-x="624" 
d="M90 1197l222 222l222 -222l-66 -64l-156 156l-157 -157z" />
    <glyph glyph-name="underscore" unicode="_" horiz-adv-x="1112" 
d="M92 0v92h928v-92h-928z" />
    <glyph glyph-name="grave" unicode="`" horiz-adv-x="683" 
d="M179 1368l87 87l295 -295l-66 -65z" />
    <glyph glyph-name="grave" unicode="&#x2035;" horiz-adv-x="683" 
d="M179 1368l87 87l295 -295l-66 -65z" />
    <glyph glyph-name="grave" unicode="&#x2018;" horiz-adv-x="683" 
d="M179 1368l87 87l295 -295l-66 -65z" />
    <glyph glyph-name="grave" unicode="&#x1fef;" horiz-adv-x="683" 
d="M179 1368l87 87l295 -295l-66 -65z" />
    <glyph glyph-name="a" unicode="a" horiz-adv-x="928" 
d="M204 254q0 -74 52 -113.5t116 -39.5q110 0 191.5 61.5t117.5 104.5v317q-190 -49 -225 -60q-176 -57 -227 -150q-25 -46 -25 -120zM478 1066q335 0 335 -367v-549q0 -29 11 -79t20 -69h-133q-30 15 -30 168q-141 -181 -320 -181t-252 132q-37 67 -37 138.5t18 125
t56 95.5q79 85 211 131.5t324 84.5q0 158 -57.5 208t-171.5 50t-206 -96q-38 -40 -54 -70l-95 63q112 215 381 215z" />
    <glyph glyph-name="a" unicode="&#x430;" horiz-adv-x="928" 
d="M204 254q0 -74 52 -113.5t116 -39.5q110 0 191.5 61.5t117.5 104.5v317q-190 -49 -225 -60q-176 -57 -227 -150q-25 -46 -25 -120zM478 1066q335 0 335 -367v-549q0 -29 11 -79t20 -69h-133q-30 15 -30 168q-141 -181 -320 -181t-252 132q-37 67 -37 138.5t18 125
t56 95.5q79 85 211 131.5t324 84.5q0 158 -57.5 208t-171.5 50t-206 -96q-38 -40 -54 -70l-95 63q112 215 381 215z" />
    <glyph glyph-name="b" unicode="b" horiz-adv-x="994" 
d="M252 278q101 -138 178 -164q40 -13 98 -13q60 -1 112 31q146 88 147 378q0 444 -298 444q-131 0 -237 -151v-525zM94 0q26 55 26 146v1369h132v-598q19 41 99 95t172 54q180 0 288 -154.5t108 -401.5q-1 -145 -57 -276q-103 -240 -326 -245q-146 3 -250 129
q-20 25 -34 48q0 -154 -25 -166h-133z" />
    <glyph glyph-name="c" unicode="c" horiz-adv-x="926" 
d="M75 520q0 546 425 546q104 0 176 -50q108 -76 150 -203l-106 -48q-2 20 -21.5 59t-41.5 64t-63.5 45.5t-93.5 20.5q-293 0 -293 -425q0 -206 77.5 -317t215.5 -111h3q92 0 150 67t79 118l9 22l104 -50q0 -21 -38.5 -78.5t-76 -96t-99 -66.5t-131.5 -28
q-218 0 -321.5 139.5t-103.5 391.5z" />
    <glyph glyph-name="c" unicode="&#x1d9c;" horiz-adv-x="926" 
d="M75 520q0 546 425 546q104 0 176 -50q108 -76 150 -203l-106 -48q-2 20 -21.5 59t-41.5 64t-63.5 45.5t-93.5 20.5q-293 0 -293 -425q0 -206 77.5 -317t215.5 -111h3q92 0 150 67t79 118l9 22l104 -50q0 -21 -38.5 -78.5t-76 -96t-99 -66.5t-131.5 -28
q-218 0 -321.5 139.5t-103.5 391.5z" />
    <glyph glyph-name="c" unicode="&#x441;" horiz-adv-x="926" 
d="M75 520q0 546 425 546q104 0 176 -50q108 -76 150 -203l-106 -48q-2 20 -21.5 59t-41.5 64t-63.5 45.5t-93.5 20.5q-293 0 -293 -425q0 -206 77.5 -317t215.5 -111h3q92 0 150 67t79 118l9 22l104 -50q0 -21 -38.5 -78.5t-76 -96t-99 -66.5t-131.5 -28
q-218 0 -321.5 139.5t-103.5 391.5z" />
    <glyph glyph-name="d" unicode="d" horiz-adv-x="984" 
d="M207 510q1 -178 65 -294t207 -115q95 0 150 49t113 128v525q-106 151 -237 151q-298 0 -298 -444zM75 510q0 147 47.5 273t139.5 204.5t196.5 78.5t184.5 -54t99 -95v598h132v-1369q0 -30 8.5 -78.5t17.5 -67.5h-133q-25 12 -25 166q-102 -177 -284 -177q-91 0 -166 45.5
t-121 120.5q-96 157 -96 355z" />
    <glyph glyph-name="e" unicode="e" horiz-adv-x="925" 
d="M213 625h496q-2 107 -46 207q-24 54 -72.5 88t-114.5 34q-176 0 -233 -162q-28 -79 -30 -167zM75 500q0 99 14 180.5t37 138.5q64 159 200 217q71 30 135 30t109 -12q44 -10 96 -46q174 -120 175 -495h-634q-1 -265 135 -363q67 -48 149 -49q154 0 262 191l91 -63
q-39 -72 -102 -130q-120 -110 -237 -110t-199 43t-131 116t-74.5 163t-25.5 189z" />
    <glyph glyph-name="e" unicode="&#x435;" horiz-adv-x="925" 
d="M213 625h496q-2 107 -46 207q-24 54 -72.5 88t-114.5 34q-176 0 -233 -162q-28 -79 -30 -167zM75 500q0 99 14 180.5t37 138.5q64 159 200 217q71 30 135 30t109 -12q44 -10 96 -46q174 -120 175 -495h-634q-1 -265 135 -363q67 -48 149 -49q154 0 262 191l91 -63
q-39 -72 -102 -130q-120 -110 -237 -110t-199 43t-131 116t-74.5 163t-25.5 189z" />
    <glyph glyph-name="f" unicode="f" horiz-adv-x="570" 
d="M13 943v112h173v223q0 164 141 220q66 26 143.5 26t86.5 -9v-111h-89q-150 0 -150 -126v-223h239v-112h-239v-943h-132v943h-173z" />
    <glyph glyph-name="f" unicode="&#x1da0;" horiz-adv-x="570" 
d="M13 943v112h173v223q0 164 141 220q66 26 143.5 26t86.5 -9v-111h-89q-150 0 -150 -126v-223h239v-112h-239v-943h-132v943h-173z" />
    <glyph glyph-name="g" unicode="g" horiz-adv-x="1005" 
d="M238 689q0 -117 70 -194.5t190.5 -77.5t183 79t62.5 192t-61.5 189.5t-178.5 76.5t-191.5 -74t-74.5 -191zM272.5 -299q98.5 -33 158 -33.5t86 -0.5t46 0.5t60.5 4.5t67 10q148 37 148 152q0 60 -40 95.5t-101.5 50.5t-121.5 21.5t-114.5 9t-65.5 5.5q-106 -40 -139 -59
q-82 -48 -82 -135.5t98.5 -120.5zM42 -188q0 54 15 84t45.5 54t53 38.5t61.5 34t47 24.5q-82 17 -124 60t-42 79q0 70 49 114t78 61.5t32 19.5q-60 51 -105.5 133.5t-45.5 181t54.5 185.5t146 136t177.5 49t138.5 -21t112.5 -62q76 62 131.5 72.5t106.5 12.5v-120h-2
q-171 0 -171 -31q51 -94 63.5 -138.5t12.5 -89.5q0 -161 -103.5 -272.5t-268.5 -111.5q-87 0 -178 38q-8 -7 -36 -27q-60 -43 -60 -86.5t37 -58.5q83 -34 205.5 -35t277.5 -38q97 -23 158.5 -92t61.5 -165q0 -286 -479 -286q-169 0 -301 61q-67 31 -107.5 86.5t-40.5 109.5z
" />
    <glyph glyph-name="h" unicode="h" horiz-adv-x="979" 
d="M129 0v1515h132v-633q147 142 243 170q48 14 102 14q115 0 189 -70t74 -210v-786h-132v786q0 75 -53.5 121.5t-115.5 46.5q-148 0 -307 -173v-781h-132z" />
    <glyph glyph-name="h" unicode="&#x2b0;" horiz-adv-x="979" 
d="M129 0v1515h132v-633q147 142 243 170q48 14 102 14q115 0 189 -70t74 -210v-786h-132v786q0 75 -53.5 121.5t-115.5 46.5q-148 0 -307 -173v-781h-132z" />
    <glyph glyph-name="i" unicode="i" horiz-adv-x="462" 
d="M156 1188v150h150v-150h-150zM165 -2v1057h132v-1057h-132z" />
    <glyph glyph-name="i" unicode="&#x2071;" horiz-adv-x="462" 
d="M156 1188v150h150v-150h-150zM165 -2v1057h132v-1057h-132z" />
    <glyph glyph-name="i" unicode="&#x456;" horiz-adv-x="462" 
d="M156 1188v150h150v-150h-150zM165 -2v1057h132v-1057h-132z" />
    <glyph glyph-name="j" unicode="j" horiz-adv-x="362" 
d="M111 1188v150h150v-150h-150zM-63 -225q97 0 140 34t43 162v1084h132v-1055q0 -168 -37.5 -229t-65.5 -75q-65 -33 -165 -33h-39z" />
    <glyph glyph-name="j" unicode="&#x458;" horiz-adv-x="362" 
d="M111 1188v150h150v-150h-150zM-63 -225q97 0 140 34t43 162v1084h132v-1055q0 -168 -37.5 -229t-65.5 -75q-65 -33 -165 -33h-39z" />
    <glyph glyph-name="j" unicode="&#x2b2;" horiz-adv-x="362" 
d="M111 1188v150h150v-150h-150zM-63 -225q97 0 140 34t43 162v1084h132v-1055q0 -168 -37.5 -229t-65.5 -75q-65 -33 -165 -33h-39z" />
    <glyph glyph-name="k" unicode="k" horiz-adv-x="911" 
d="M130 0v1515h141v-971l395 511h158l-276 -359l338 -696h-146l-282 582l-187 -232v-350h-141z" />
    <glyph glyph-name="l" unicode="l" horiz-adv-x="392" 
d="M129 -2v1517h132v-1517h-132z" />
    <glyph glyph-name="l" unicode="&#x2e1;" horiz-adv-x="392" 
d="M129 -2v1517h132v-1517h-132z" />
    <glyph glyph-name="m" unicode="m" horiz-adv-x="1577" 
d="M120 0v1055h132v-174q138 138 243 170q49 15 123 15t142.5 -48t90.5 -145q145 145 249 177q50 16 104 16q115 0 189 -70t74 -210v-786h-132v786q0 75 -53.5 121.5t-115.5 46.5q-147 0 -306 -173v-781h-132v786q0 75 -53.5 121.5t-115.5 46.5q-148 0 -307 -173v-781h-132z
" />
    <glyph glyph-name="n" unicode="n" horiz-adv-x="970" 
d="M120 0v1055h132v-173q88 87 167 135.5t186 48.5t181 -70t74 -210v-786h-132v786q0 75 -53.5 121.5t-115.5 46.5q-148 0 -307 -173v-781h-132z" />
    <glyph glyph-name="o" unicode="o" horiz-adv-x="972" 
d="M207 528q1 -317 165 -402q50 -26 115 -26t115 26q162 84 163 401q0 427 -279 427t-279 -426zM75 534.5q0 241.5 108.5 386.5t303.5 145t302.5 -146t107.5 -390t-108.5 -393t-303.5 -149t-302.5 152.5t-107.5 394z" />
    <glyph glyph-name="o" unicode="&#x43e;" horiz-adv-x="972" 
d="M207 528q1 -317 165 -402q50 -26 115 -26t115 26q162 84 163 401q0 427 -279 427t-279 -426zM75 534.5q0 241.5 108.5 386.5t303.5 145t302.5 -146t107.5 -390t-108.5 -393t-303.5 -149t-302.5 152.5t-107.5 394z" />
    <glyph glyph-name="o" unicode="&#x3bf;" horiz-adv-x="972" 
d="M207 528q1 -317 165 -402q50 -26 115 -26t115 26q162 84 163 401q0 427 -279 427t-279 -426zM75 534.5q0 241.5 108.5 386.5t303.5 145t302.5 -146t107.5 -390t-108.5 -393t-303.5 -149t-302.5 152.5t-107.5 394z" />
    <glyph glyph-name="p" unicode="p" horiz-adv-x="1015" 
d="M261 254q46 -66 112 -110q65 -44 125 -43q60 -1 100 11q93 26 151.5 128t58.5 329.5t-116 329.5q-62 55 -156 55q-126 0 -220 -106q-24 -28 -55 -69v-525zM129 -411v1466h132v-164q24 45 79 90q103 85 217 85q210 0 320 -230q63 -132 63 -289q0 -275 -135 -439
q-98 -119 -261 -119q-92 0 -178 55.5t-105 95.5v-551h-132z" />
    <glyph glyph-name="p" unicode="&#x440;" horiz-adv-x="1015" 
d="M261 254q46 -66 112 -110q65 -44 125 -43q60 -1 100 11q93 26 151.5 128t58.5 329.5t-116 329.5q-62 55 -156 55q-126 0 -220 -106q-24 -28 -55 -69v-525zM129 -411v1466h132v-164q24 45 79 90q103 85 217 85q210 0 320 -230q63 -132 63 -289q0 -275 -135 -439
q-98 -119 -261 -119q-92 0 -178 55.5t-105 95.5v-551h-132z" />
    <glyph glyph-name="p" unicode="&#x3f1;" horiz-adv-x="1015" 
d="M261 254q46 -66 112 -110q65 -44 125 -43q60 -1 100 11q93 26 151.5 128t58.5 329.5t-116 329.5q-62 55 -156 55q-126 0 -220 -106q-24 -28 -55 -69v-525zM129 -411v1466h132v-164q24 45 79 90q103 85 217 85q210 0 320 -230q63 -132 63 -289q0 -275 -135 -439
q-98 -119 -261 -119q-92 0 -178 55.5t-105 95.5v-551h-132z" />
    <glyph glyph-name="p" unicode="&#x3c1;" horiz-adv-x="1015" 
d="M261 254q46 -66 112 -110q65 -44 125 -43q60 -1 100 11q93 26 151.5 128t58.5 329.5t-116 329.5q-62 55 -156 55q-126 0 -220 -106q-24 -28 -55 -69v-525zM129 -411v1466h132v-164q24 45 79 90q103 85 217 85q210 0 320 -230q63 -132 63 -289q0 -275 -135 -439
q-98 -119 -261 -119q-92 0 -178 55.5t-105 95.5v-551h-132z" />
    <glyph glyph-name="q" unicode="q" horiz-adv-x="996" 
d="M269 234q27 -50 67 -80q68 -53 152 -53h3q156 0 263 153v525q-60 82 -104 115q-77 60 -171 60q-95 0 -157 -55q-116 -102 -115.5 -329.5t62.5 -335.5zM75 543q-1 79 15 153q32 153 127 261.5t239.5 108.5t261.5 -127q24 -26 36 -48l17 164h115v-1466h-132v551
q-19 -40 -105 -95.5t-172.5 -55.5t-154 32t-112.5 86.5t-76 127t-45 151t-14 157.5z" />
    <glyph glyph-name="r" unicode="r" horiz-adv-x="639" 
d="M120 0v1055h132v-284q47 104 72 143q98 152 254 152q12 0 36 -2v-112q-68 -9 -113 -25t-88 -53q-75 -63 -161 -247v-627h-132z" />
    <glyph glyph-name="r" unicode="&#x2b3;" horiz-adv-x="639" 
d="M120 0v1055h132v-284q47 104 72 143q98 152 254 152q12 0 36 -2v-112q-68 -9 -113 -25t-88 -53q-75 -63 -161 -247v-627h-132z" />
    <glyph glyph-name="s" unicode="s" horiz-adv-x="878" 
d="M80 200l99 64q53 -82 118 -122.5t161 -40.5t152 48.5t56 112.5q0 114 -76 158t-148 62t-114 32q-98 34 -166 100t-68 182.5t93.5 193t251.5 76.5t276 -123q22 -23 37 -45l-91 -68q-7 7 -28 29.5t-27 28.5l-26 21q-18 17 -30 21l-34 12q-32 12 -108 12t-131 -43.5
t-55 -95.5q0 -92 64.5 -133t141 -64t101 -31t66 -24.5t65.5 -31.5q75 -48 106.5 -103.5t31.5 -135.5q0 -133 -101 -218t-234 -85t-223.5 50.5t-159.5 160.5z" />
    <glyph glyph-name="s" unicode="&#x455;" horiz-adv-x="878" 
d="M80 200l99 64q53 -82 118 -122.5t161 -40.5t152 48.5t56 112.5q0 114 -76 158t-148 62t-114 32q-98 34 -166 100t-68 182.5t93.5 193t251.5 76.5t276 -123q22 -23 37 -45l-91 -68q-7 7 -28 29.5t-27 28.5l-26 21q-18 17 -30 21l-34 12q-32 12 -108 12t-131 -43.5
t-55 -95.5q0 -92 64.5 -133t141 -64t101 -31t66 -24.5t65.5 -31.5q75 -48 106.5 -103.5t31.5 -135.5q0 -133 -101 -218t-234 -85t-223.5 50.5t-159.5 160.5z" />
    <glyph glyph-name="s" unicode="&#x2e2;" horiz-adv-x="878" 
d="M80 200l99 64q53 -82 118 -122.5t161 -40.5t152 48.5t56 112.5q0 114 -76 158t-148 62t-114 32q-98 34 -166 100t-68 182.5t93.5 193t251.5 76.5t276 -123q22 -23 37 -45l-91 -68q-7 7 -28 29.5t-27 28.5l-26 21q-18 17 -30 21l-34 12q-32 12 -108 12t-131 -43.5
t-55 -95.5q0 -92 64.5 -133t141 -64t101 -31t66 -24.5t65.5 -31.5q75 -48 106.5 -103.5t31.5 -135.5q0 -133 -101 -218t-234 -85t-223.5 50.5t-159.5 160.5z" />
    <glyph glyph-name="t" unicode="t" horiz-adv-x="606" 
d="M36 943v112h178v385h132v-385h242v-112h-242v-669q0 -101 31 -138t102 -37q29 0 69 5t40 6v-99q-66 -24 -128.5 -24t-85.5 3q-22 4 -56 20q-104 51 -104 264v669h-178z" />
    <glyph glyph-name="u" unicode="u" horiz-adv-x="979" 
d="M129 269v786h132v-786q0 -75 53.5 -121.5t115.5 -46.5q148 0 307 173v781h132v-1055h-132v174q-140 -138 -243 -170q-49 -15 -102 -15q-115 0 -189 70t-74 210z" />
    <glyph glyph-name="v" unicode="v" horiz-adv-x="901" 
d="M25 1055h138l278 -909h19l278 909h138l-324 -1055h-203z" />
    <glyph glyph-name="w" unicode="w" horiz-adv-x="1316" 
d="M25 1055h123l232 -795l208 795h120l226 -800l222 800h135l-301 -1055h-118l-224 809l-201 -809h-135z" />
    <glyph glyph-name="w" unicode="&#x2b7;" horiz-adv-x="1316" 
d="M25 1055h123l232 -795l208 795h120l226 -800l222 800h135l-301 -1055h-118l-224 809l-201 -809h-135z" />
    <glyph glyph-name="x" unicode="x" horiz-adv-x="870" 
d="M25 0l330 544l-320 511h148l245 -390l256 390h148l-332 -505l345 -550h-148l-267 425l-257 -425h-148z" />
    <glyph glyph-name="x" unicode="&#x445;" horiz-adv-x="870" 
d="M25 0l330 544l-320 511h148l245 -390l256 390h148l-332 -505l345 -550h-148l-267 425l-257 -425h-148z" />
    <glyph glyph-name="x" unicode="&#x3c7;" horiz-adv-x="870" 
d="M25 0l330 544l-320 511h148l245 -390l256 390h148l-332 -505l345 -550h-148l-267 425l-257 -425h-148z" />
    <glyph glyph-name="x" unicode="&#x2e3;" horiz-adv-x="870" 
d="M25 0l330 544l-320 511h148l245 -390l256 390h148l-332 -505l345 -550h-148l-267 425l-257 -425h-148z" />
    <glyph glyph-name="y" unicode="y" horiz-adv-x="905" 
d="M25 1055h142l299 -859l280 859h134l-368 -1119q-56 -171 -116 -234.5t-121.5 -79t-124.5 -15.5t-123 8l10 121q36 -17 96 -17t99 15.5t64 39.5q87 86 108 223z" />
    <glyph glyph-name="y" unicode="&#x443;" horiz-adv-x="905" 
d="M25 1055h142l299 -859l280 859h134l-368 -1119q-56 -171 -116 -234.5t-121.5 -79t-124.5 -15.5t-123 8l10 121q36 -17 96 -17t99 15.5t64 39.5q87 86 108 223z" />
    <glyph glyph-name="y" unicode="&#x2b8;" horiz-adv-x="905" 
d="M25 1055h142l299 -859l280 859h134l-368 -1119q-56 -171 -116 -234.5t-121.5 -79t-124.5 -15.5t-123 8l10 121q36 -17 96 -17t99 15.5t64 39.5q87 86 108 223z" />
    <glyph glyph-name="z" unicode="z" horiz-adv-x="779" 
d="M25 0v85l560 858h-507v112h676v-74l-568 -861h568v-120h-729z" />
    <glyph glyph-name="z" unicode="&#x1dbb;" horiz-adv-x="779" 
d="M25 0v85l560 858h-507v112h676v-74l-568 -861h568v-120h-729z" />
    <glyph glyph-name="braceleft" unicode="{" horiz-adv-x="772" 
d="M80 614v122q193 0 193 245q0 36 -15 73q-45 111 -45 212q0 368 381 372v-105q-66 0 -120 -25t-84 -64q-63 -80 -63 -159q0 -23 30 -125.5t30 -208t-42 -174t-138 -102.5q96 -34 138 -102.5t42 -174t-30 -208t-30 -132.5t16.5 -72t47 -80.5t84 -63.5t119.5 -25v-105
q-381 4 -381 372q0 101 45 212q15 37 15 73q0 245 -193 245z" />
    <glyph glyph-name="bar" unicode="|" horiz-adv-x="348" 
d="M100 -132v1695h148v-1695h-148z" />
    <glyph glyph-name="bar" unicode="&#x1c0;" horiz-adv-x="348" 
d="M100 -132v1695h148v-1695h-148z" />
    <glyph glyph-name="braceright" unicode="}" horiz-adv-x="772" 
d="M80 -183q66 0 120 25t84 64q63 80 63 159q0 23 -30 125.5t-30 208t42 174t138 102.5q-96 34 -138 102.5t-42 174t30 208t30 132.5t-16.5 72t-47 80.5t-84 63.5t-119.5 25v105q381 -4 381 -372q0 -101 -45 -212q-15 -37 -15 -73q0 -245 193 -245v-122q-193 0 -193 -245
q0 -36 15 -73q45 -111 45 -212q0 -368 -381 -372v105z" />
    <glyph glyph-name="asciitilde" unicode="~" horiz-adv-x="789" 
d="M92 1182q61 130 175 130q82 0 140 -56.5t121 -56.5t100 86l69 -40q-62 -130 -175 -130q-80 0 -139.5 56.5t-122 56.5t-99.5 -86z" />
    <glyph glyph-name="asciitilde" unicode="&#x303;" horiz-adv-x="789" 
d="M92 1182q61 130 175 130q82 0 140 -56.5t121 -56.5t100 86l69 -40q-62 -130 -175 -130q-80 0 -139.5 56.5t-122 56.5t-99.5 -86z" />
    <glyph glyph-name="exclamdown" unicode="&#xa1;" horiz-adv-x="334" 
d="M92 1128v150h150v-150h-150zM92 -168l23 1146h104l23 -1146h-150z" />
    <glyph glyph-name="cent" unicode="&#xa2;" horiz-adv-x="970" 
d="M242 529q0 -171 54.5 -277.5t153.5 -138.5v830q-208 -53 -208 -414zM110 529.5q0 479.5 340 530.5v221h132v-218q62 -8 113.5 -36.5t95.5 -81.5q45 -54 63 -109l7 -23l-106 -48q-15 95 -99 153q-32 22 -74 31v-842q127 33 194 201l104 -50q0 -16 -34 -69t-66 -89
q-80 -90 -198 -108v-228h-132v231q-340 55 -340 534.5z" />
    <glyph glyph-name="sterling" unicode="&#xa3;" horiz-adv-x="1153" 
d="M42 633v135h135v111q0 325 77 455t205 169q73 22 180 22t111 -10v-112q-68 2 -136 2t-132 -28.5t-100.5 -95t-50.5 -160.5t-14 -242v-111h325v-135h-325v-126q0 -97 -8.5 -219t-23.5 -150h327q238 0 300 66q10 11 10 17l78 -88q-61 -133 -388 -133h-467v138
q13 34 22.5 154.5t9.5 214.5v126h-135z" />
    <glyph glyph-name="currency" unicode="&#xa4;" horiz-adv-x="688" 
d="M198 745q0 -65 44 -113t110 -48t110.5 48.5t44.5 112.5q1 64 -43 112t-110 48t-111 -47.5t-45 -112.5zM43 498l100 100q-45 64 -45 146t44 148l-99 99l65 65l98 -98q64 48 148 48t147 -49l99 99l65 -65l-100 -100q44 -67 44 -147t-44 -146l100 -100l-65 -65l-98 98
q-66 -48 -148 -48t-148 48l-98 -98z" />
    <glyph glyph-name="yen" unicode="&#xa5;" horiz-adv-x="1122" 
d="M25 1515h154l382 -713l382 713h154l-462 -855h240v-92h-240v-174h240v-92h-240v-302h-148v302h-229v92h229v174h-229v92h229z" />
    <glyph glyph-name="brokenbar" unicode="&#xa6;" horiz-adv-x="348" 
d="M100 778v785h148v-785h-148zM100 -132v778h148v-778h-148z" />
    <glyph glyph-name="section" unicode="&#xa7;" horiz-adv-x="918" 
d="M242 796q0 -73 64.5 -114t189 -78.5t186.5 -74.5q4 24 4 57.5t-22 71.5t-75.5 69.5t-157.5 56t-179 70.5q-10 -25 -10 -58zM100 200l99 64q53 -82 118 -122.5t161 -40.5t152 48.5t56 112.5q0 114 -75.5 158.5t-148.5 61.5q-72 18 -114 32q-98 34 -166 100t-68 161t45 162
q-45 63 -45 141q0 129 93.5 205.5t251.5 76.5t276 -123q22 -23 37 -45l-91 -68q-7 7 -28 29.5t-27 28.5l-26 21q-18 17 -30 21l-34 12q-32 12 -108 12t-131 -43.5t-55 -95.5q0 -92 64.5 -133t141 -64t100.5 -31q24 -9 66 -25q62 -24 105 -59q99 -79 99 -210q0 -80 -40 -147
q40 -63 40 -148q0 -133 -101 -218t-234 -85t-223.5 50.5t-159.5 160.5z" />
    <glyph glyph-name="dieresis" unicode="&#xa8;" horiz-adv-x="653" 
d="M411 1203v150h150v-150h-150zM92 1203v150h150v-150h-150z" />
    <glyph glyph-name="dieresis" unicode="&#x308;" horiz-adv-x="653" 
d="M411 1203v150h150v-150h-150zM92 1203v150h150v-150h-150z" />
    <glyph glyph-name="copyright" unicode="&#xa9;" horiz-adv-x="1142" 
d="M421.5 940q50.5 88 149.5 88t156 -109q13 -25 23 -60l-66 -13q-17 66 -35 82q-33 29 -71 29q-98 0 -124 -95q-12 -46 -12 -108q0 -110 27 -170.5t105 -60.5q99 0 118 111l66 -8q-2 -28 -32 -77q-58 -96 -152 -96q-68 1 -116 45q-86 81 -86.5 217.5t50 224.5zM167 744
q0 -167 119 -285.5t286 -118.5t285.5 118.5t118.5 285.5t-118.5 285.5t-285.5 118.5t-286 -118.5t-119 -285.5zM102 744q0 194 138 332t332 138t332 -138t138 -332t-138 -332t-332 -138t-332 138t-138 332z" />
    <glyph glyph-name="ordfeminine" unicode="&#xaa;" horiz-adv-x="928" 
d="M160.697 1170.95q0 -31.4492 22.0996 -48.2363t49.2988 -16.7871q46.748 0 81.3848 26.1367t49.9365 44.4111v134.722q-80.748 -20.8252 -95.6221 -25.5q-74.7988 -24.2236 -96.4727 -63.748q-10.625 -19.5488 -10.625 -50.998zM277.145 1516.04
q142.37 0 142.37 -155.971v-233.318q0 -12.3242 4.6748 -33.5742q4.67578 -21.249 8.5 -29.3242h-56.5234q-12.749 6.375 -12.749 71.3984q-59.9238 -76.9229 -135.996 -76.9229q-76.0732 0 -107.098 56.0986q-15.7236 28.4736 -15.7236 58.8604t7.64941 53.124
q7.64941 22.7363 23.7988 40.5859q33.5742 36.124 89.6729 55.8857t137.696 35.9111q0 67.1484 -24.4375 88.3984q-24.4365 21.249 -72.8848 21.249q-48.4492 0 -87.5479 -40.7988q-16.1494 -17 -22.9492 -29.749l-40.374 26.7744q47.5986 91.3721 161.921 91.3721z" />
    <glyph glyph-name="guillemotleft" unicode="&#xab;" horiz-adv-x="755" 
d="M368 1276l222 222l64 -66l-156 -156l157 -157l-65 -65zM100 1276l222 222l64 -66l-156 -156l157 -157l-65 -65z" />
    <glyph glyph-name="logicalnot" unicode="&#xac;" horiz-adv-x="1112" 
d="M92 704v92l928 -1v-429h-92v337z" />
    <glyph glyph-name="uni00AD" unicode="&#xad;" horiz-adv-x="1112" 
d="M92 694v92h928v-92h-928z" />
    <glyph glyph-name="registered" unicode="&#xae;" horiz-adv-x="1142" 
d="M481 765h122q86 0 86 89q0 44 -31 59.5t-88 15.5h-89v-164zM410 500v492h212q65 0 101 -44.5t36 -93t-22.5 -90t-71.5 -51.5l93 -213h-76l-90 202h-111v-202h-71zM168 744q0 -163 119 -279t284.5 -116t284 115.5t118.5 280t-118 279.5t-285 115t-285 -116t-118 -279z
M100 744q0 191 138 326.5t334 135.5t332 -134q138 -136 138 -344q0 -111 -63.5 -217.5t-172 -167.5t-235.5 -61t-235.5 62t-172 168.5t-63.5 231.5z" />
    <glyph glyph-name="macron" unicode="&#xaf;" horiz-adv-x="707" 
d="M90 1231v92h527v-92h-527z" />
    <glyph glyph-name="degree" unicode="&#xb0;" horiz-adv-x="688" 
d="M188 1242q0 -65 46.5 -111.5t111.5 -46.5t111.5 46.5t46.5 111.5t-46.5 111.5t-111.5 46.5t-111.5 -46.5t-46.5 -111.5zM92 1242q0 106 74.5 180.5t180.5 74.5t180.5 -74.5t74.5 -180.5t-74.5 -180.5t-180.5 -74.5t-180.5 74.5t-74.5 180.5z" />
    <glyph glyph-name="degree" unicode="&#x30a;" horiz-adv-x="688" 
d="M188 1242q0 -65 46.5 -111.5t111.5 -46.5t111.5 46.5t46.5 111.5t-46.5 111.5t-111.5 46.5t-111.5 -46.5t-46.5 -111.5zM92 1242q0 106 74.5 180.5t180.5 74.5t180.5 -74.5t74.5 -180.5t-74.5 -180.5t-180.5 -74.5t-180.5 74.5t-74.5 180.5z" />
    <glyph glyph-name="plusminus" unicode="&#xb1;" horiz-adv-x="707" 
d="M90 817v92h218v218h92v-218h217v-92h-217v-218h-92v218h-218zM90 414v92h527v-92h-527z" />
    <glyph glyph-name="uni00B2" unicode="&#xb2;" horiz-adv-x="489" 
d="M94.999 1056q0.299805 36.8984 5.39941 56.0977q12.5996 45.2979 68.9971 97.4961q26.999 24.8994 51.5986 42.8984l54.5977 39.8984q22.1992 16.1992 30.2988 24.5986q18.2988 19.1992 25.499 35.999q7.19922 16.7988 7.19922 37.7979q0 38.0986 -21.8994 60.8975
q-21.8984 22.7998 -66.8965 22.7998q-24.8994 0 -44.3984 -9.15039q-19.499 -9.14941 -30.2988 -23.5488q-21.5996 -28.7988 -22.7988 -59.3975h-44.3984q0 37.498 20.8486 68.0977q20.8496 30.5986 54.4482 47.0977t69.8975 16.499q36.2979 0 65.6973 -16.1992
q29.3984 -16.1992 46.7979 -44.6982t17.3994 -62.0977t-15.4492 -59.8467q-15.4492 -26.249 -32.0986 -40.9492q-16.6494 -14.6992 -25.6494 -21.8984l-48.5977 -37.7988q-112.796 -90.8965 -117.596 -131.994h233.091v-42.5986h-281.688z" />
    <glyph glyph-name="uni00B3" unicode="&#xb3;" horiz-adv-x="1171" 
d="M101.999 1126.1l30.2988 26.0996q24.5986 -25.1992 35.0986 -33.2988q31.7988 -24.2988 78.8965 -24.2988q60.2979 0 89.0967 36.2979q14.999 19.1992 15.2998 46.1982q0 43.499 -26.3994 68.8477q-26.3984 25.3486 -69.5967 25.3486h-63.8975v42.2988h63.8975
q39.8984 0 60.7471 23.5488q20.8496 23.5488 20.8496 58.9473t-27.1494 54.748q-27.1484 19.3496 -60.7471 19.3496t-62.3975 -13.5q-28.7988 -13.499 -42.8984 -31.7988l-28.7988 27.8994q21.8984 25.1982 56.3975 42.748q34.499 17.5488 73.9473 17.5488t68.8467 -15.2988
q29.3994 -15.2998 47.248 -41.5488q17.8496 -26.249 17.8496 -56.5479q0 -47.6973 -29.6992 -82.7959q-13.1992 -15.5996 -26.6982 -24.2998q36.5986 -22.1982 53.6973 -49.4971q17.0996 -27.2998 17.3994 -62.998q0 -62.3975 -40.1982 -95.3955
q-40.1982 -32.999 -106.796 -32.999q-85.7959 0 -144.294 74.3965z" />
    <glyph glyph-name="acute" unicode="&#xb4;" horiz-adv-x="683" 
d="M122 1160l295 295l87 -87l-316 -273z" />
    <glyph glyph-name="acute" unicode="&#x1ffd;" horiz-adv-x="683" 
d="M122 1160l295 295l87 -87l-316 -273z" />
    <glyph glyph-name="acute" unicode="&#x341;" horiz-adv-x="683" 
d="M122 1160l295 295l87 -87l-316 -273z" />
    <glyph glyph-name="acute" unicode="&#x301;" horiz-adv-x="683" 
d="M122 1160l295 295l87 -87l-316 -273z" />
    <glyph glyph-name="uni00B5" unicode="&#xb5;" horiz-adv-x="979" 
d="M129 -411v1466h132v-786q0 -75 53.5 -121.5t115.5 -46.5q148 0 307 173v781h132v-1055h-132v174q-140 -138 -243 -170q-48 -15 -110 -15t-119 26v-426h-136z" />
    <glyph glyph-name="paragraph" unicode="&#xb6;" horiz-adv-x="1115" 
d="M614 816h218v575h-218v-575zM216 1105q0 -120 66.5 -190t183.5 -90v557q-116 -20 -183 -88.5t-67 -188.5zM68 1102q0 66 14 120q29 117 125.5 205t264.5 88h508v-1515h-148v692h-218v-692h-148v692q-107 0 -187 37t-124.5 99.5t-65.5 135t-21 138.5z" />
    <glyph glyph-name="periodcentered" unicode="&#xb7;" horiz-adv-x="653" 
d="M92 786v150h150v-150h-150z" />
    <glyph glyph-name="periodcentered" unicode="&#x387;" horiz-adv-x="653" 
d="M92 786v150h150v-150h-150z" />
    <glyph glyph-name="cedilla" unicode="&#xb8;" horiz-adv-x="350" 
d="M22 -227q153 0 153 44q0 87 -79 183h90q8 -14 12 -18q13 -16 20 -31l11 -21q25 -50 25 -113q0 -120 -214 -120h-18v76z" />
    <glyph glyph-name="cedilla" unicode="&#x327;" horiz-adv-x="350" 
d="M22 -227q153 0 153 44q0 87 -79 183h90q8 -14 12 -18q13 -16 20 -31l11 -21q25 -50 25 -113q0 -120 -214 -120h-18v76z" />
    <glyph glyph-name="uni00B9" unicode="&#xb9;" horiz-adv-x="839" 
d="M119.799 1480.98l98.0957 34.499h31.7988v-411.883h65.9971v-42.5986h-183.592v42.5986h73.1963v362.985l-71.0967 -20.6992z" />
    <glyph glyph-name="ordmasculine" unicode="&#xba;" horiz-adv-x="972" 
d="M171 1286q0 -166 104.5 -166t104.5 166q0 83 -23.5 124.5t-80.5 41.5t-81 -41t-24 -125zM101 1288.5q0 103.5 46 165t129 61.5t128.5 -62t45.5 -165.5t-46 -167t-128 -63.5t-128.5 64t-46.5 167.5z" />
    <glyph glyph-name="guillemotright" unicode="&#xbb;" horiz-adv-x="755" 
d="M368 1119l157 157l-156 156l64 66l222 -222l-222 -222zM100 1119l157 157l-156 156l64 66l222 -222l-222 -222z" />
    <glyph glyph-name="onequarter" unicode="&#xbc;" horiz-adv-x="1265" 
d="M148 -41l744 1592h108l-743 -1592h-109zM67 1460l163.5 57.5h53v-686.5h110v-71h-306v71h122v605l-118.5 -34.5zM620.5 255h267.5v413zM545 193v60l328 502.5h89v-500.5h115.5v-62h-115.5v-195h-74v195h-343z" />
    <glyph glyph-name="onehalf" unicode="&#xbd;" horiz-adv-x="1196" 
d="M121 -38l744 1592h108l-743 -1592h-109zM617 -8q0.5 61.5 9 93.5q21 75.5 115 162.5q45 41.5 86 71.5l91 66.5q37 27 50.5 41q30.5 32 42.5 60t12 63q0 63.5 -36.5 101.5t-111.5 38q-41.5 0 -74 -15.25t-50.5 -39.25q-36 -48 -38 -99h-74q0 62.5 34.75 113.5t90.75 78.5
t116.5 27.5t109.5 -27t78 -74.5t29 -103.5t-25.75 -99.75t-53.5 -68.25t-42.75 -36.5l-81 -63q-188 -151.5 -196 -220h388.5v-71h-469.5zM67 1463l163.5 57.5h53v-686.5h110v-71h-306v71h122v605l-118.5 -34.5z" />
    <glyph glyph-name="threequarters" unicode="&#xbe;" horiz-adv-x="1219" 
d="M240 -38l744 1592h108l-743 -1592h-109zM67 884.5l50.5 43.5q41 -42 58.5 -55.5q53 -40.5 131.5 -40.5q100.5 0 148.5 60.5q25 32 25.5 77q0 72.5 -44 114.75t-116 42.25h-106.5v70.5h106.5q66.5 0 101.25 39.25t34.75 98.25t-45.25 91.25t-101.25 32.25t-104 -22.5
t-71.5 -53l-48 46.5q36.5 42 94 71.25t123.25 29.25t114.75 -25.5t78.75 -69.25t29.75 -94.25q0 -79.5 -49.5 -138q-22 -26 -44.5 -40.5q61 -37 89.5 -82.5t29 -105q0 -104 -67 -159t-178 -55q-143 0 -240.5 124zM695.5 255h267.5v413zM620 193v60l328 502.5h89v-500.5
h115.5v-62h-115.5v-195h-74v195h-343z" />
    <glyph glyph-name="questiondown" unicode="&#xbf;" horiz-adv-x="863" 
d="M442 1347v150h150v-150h-150zM218 672l102 120q124 141 125 236v149h132v-149q0 -117 -123 -264l-102 -122q-123 -148 -122.5 -265t62 -189.5t133.5 -72.5q103 0 160.5 32.5t96.5 110.5l90 -57q-50 -93 -141 -147t-206 -54q-150 0 -241 109t-91 260t125 303z" />
    <glyph glyph-name="Agrave" unicode="&#xc0;" horiz-adv-x="1130" 
d="M197 1880l87 87l295 -295l-66 -65zM346 602h440l-221 787zM25 0l432 1515h216l432 -1515h-154l-130 478h-509l-133 -478h-154z" />
    <glyph glyph-name="Aacute" unicode="&#xc1;" horiz-adv-x="1130" 
d="M551 1672l295 295l87 -87l-316 -273zM346 602h440l-221 787zM25 0l432 1515h216l432 -1515h-154l-130 478h-509l-133 -478h-154z" />
    <glyph glyph-name="Acircumflex" unicode="&#xc2;" horiz-adv-x="1130" 
d="M343 1719l222 222l222 -222l-66 -64l-156 156l-157 -157zM346 602h440l-221 787zM25 0l432 1515h216l432 -1515h-154l-130 478h-509l-133 -478h-154z" />
    <glyph glyph-name="Atilde" unicode="&#xc3;" horiz-adv-x="1130" 
d="M262 1721q61 130 175 130q82 0 140 -56.5t121 -56.5t100 86l69 -40q-62 -130 -175 -130q-80 0 -139.5 56.5t-122 56.5t-99.5 -86zM346 602h440l-221 787zM25 0l432 1515h216l432 -1515h-154l-130 478h-509l-133 -478h-154z" />
    <glyph glyph-name="Adieresis" unicode="&#xc4;" horiz-adv-x="1130" 
d="M649 1654v150h150v-150h-150zM330 1654v150h150v-150h-150zM346 602h440l-221 787zM25 0l432 1515h216l432 -1515h-154l-130 478h-509l-133 -478h-154z" />
    <glyph glyph-name="Aring" unicode="&#xc5;" horiz-adv-x="1130" 
d="M407 1752q0 -65 46 -111.5t111.5 -46.5t112 46.5t46.5 111.5t-46.5 111.5t-112 46.5t-111.5 -46.5t-46 -111.5zM311 1752q0 106 74.5 180.5t180 74.5t180.5 -74.5t75 -180.5t-75 -180.5t-180.5 -74.5t-180 74.5t-74.5 180.5zM346 602h440l-221 787zM25 0l432 1515h216
l432 -1515h-154l-130 478h-509l-133 -478h-154z" />
    <glyph glyph-name="AE" unicode="&#xc6;" horiz-adv-x="1600" 
d="M346 602h327v787h-108zM25 0l432 1515h1037v-124h-673v-533h483v-124h-483v-601h711v-133h-859v478h-361l-133 -478h-154z" />
    <glyph glyph-name="AE" unicode="&#x4d4;" horiz-adv-x="1600" 
d="M346 602h327v787h-108zM25 0l432 1515h1037v-124h-673v-533h483v-124h-483v-601h711v-133h-859v478h-361l-133 -478h-154z" />
    <glyph glyph-name="Ccedilla" unicode="&#xc7;" horiz-adv-x="1174" 
d="M499 -233q153 0 153 44q0 87 -79 183h90q8 -14 12 -18q13 -16 20 -31l11 -21q25 -50 25 -113q0 -120 -214 -120h-18v76zM932 1046q-51 362 -314 362q-390 0 -390 -649q0 -278 82 -454q44 -93 122 -145t171 -52q226 0 313 186q41 88 44 169l146 -23q-4 -11 -18.5 -54
t-24.5 -70t-32.5 -73.5t-44.5 -77.5q-131 -181 -347 -181q-189 0 -305 90q-254 196 -254 702q0 226 76 414q86 214 256 296q92 46 188 46t163.5 -24.5t113.5 -63.5q99 -84 143.5 -182t57.5 -150l6 -24v-1z" />
    <glyph glyph-name="Egrave" unicode="&#xc8;" 
d="M177 1880l87 87l295 -295l-66 -65zM135 0v1515h821v-124h-673v-533h483v-124h-483v-601h711v-133h-859z" />
    <glyph glyph-name="Eacute" unicode="&#xc9;" 
d="M532 1672l295 295l87 -87l-316 -273zM135 0v1515h821v-124h-673v-533h483v-124h-483v-601h711v-133h-859z" />
    <glyph glyph-name="Ecircumflex" unicode="&#xca;" 
d="M324 1719l222 222l222 -222l-66 -64l-156 156l-157 -157zM135 0v1515h821v-124h-673v-533h483v-124h-483v-601h711v-133h-859z" />
    <glyph glyph-name="Edieresis" unicode="&#xcb;" 
d="M630 1654v150h150v-150h-150zM311 1654v150h150v-150h-150zM135 0v1515h821v-124h-673v-533h483v-124h-483v-601h711v-133h-859z" />
    <glyph glyph-name="Igrave" unicode="&#xcc;" horiz-adv-x="418" 
d="M-159 1880l87 87l295 -295l-66 -65zM135 0v1515h148v-1515h-148z" />
    <glyph glyph-name="Iacute" unicode="&#xcd;" horiz-adv-x="418" 
d="M195 1672l295 295l87 -87l-316 -273zM135 0v1515h148v-1515h-148z" />
    <glyph glyph-name="Icircumflex" unicode="&#xce;" horiz-adv-x="418" 
d="M-13 1719l222 222l222 -222l-66 -64l-156 156l-157 -157zM135 0v1515h148v-1515h-148z" />
    <glyph glyph-name="Idieresis" unicode="&#xcf;" horiz-adv-x="418" 
d="M293 1654v150h150v-150h-150zM-26 1654v150h150v-150h-150zM135 0v1515h148v-1515h-148z" />
    <glyph glyph-name="Eth" unicode="&#xd0;" horiz-adv-x="1284" 
d="M285 124h213q256 0 383 168.5t127 452.5q0 434 -220 574q-113 72 -290 72h-213v-579h324v-136h-324v-552zM9 676v136h128v703h361q155 0 273 -43q118 -44 190 -114q195 -191 195 -599t-218 -609q-162 -150 -440 -150h-361v676h-128z" />
    <glyph glyph-name="Eth" unicode="&#x189;" horiz-adv-x="1284" 
d="M285 124h213q256 0 383 168.5t127 452.5q0 434 -220 574q-113 72 -290 72h-213v-579h324v-136h-324v-552zM9 676v136h128v703h361q155 0 273 -43q118 -44 190 -114q195 -191 195 -599t-218 -609q-162 -150 -440 -150h-361v676h-128z" />
    <glyph glyph-name="Ntilde" unicode="&#xd1;" horiz-adv-x="1251" 
d="M323 1721q61 130 175 130q82 0 140 -56.5t121 -56.5t100 86l69 -40q-62 -130 -175 -130q-80 0 -139.5 56.5t-122 56.5t-99.5 -86zM128 0v1515h236l611 -1154v1154h148v-1515h-127l-720 1368v-1368h-148z" />
    <glyph glyph-name="Ograve" unicode="&#xd2;" horiz-adv-x="1263" 
d="M273 1880l87 87l295 -295l-66 -65zM228 739q0 -119 24 -231q22 -113 70 -204q48 -92 130 -144t180 -52q186 0 282 142q121 180 121 505t-121 507q-43 64 -113 105t-160 41t-161.5 -36t-118 -96.5t-77 -145.5t-43.5 -178.5t-13 -212.5zM80 753q0 115 19 224t62 211
t106.5 177.5t159.5 121t211.5 45.5t207.5 -46q168 -85 252.5 -289.5t84.5 -444.5q-1 -439 -227 -652q-123 -116 -315 -116q-111 0 -205 44.5t-158.5 119t-110 174t-66.5 208t-21 223.5z" />
    <glyph glyph-name="Oacute" unicode="&#xd3;" horiz-adv-x="1263" 
d="M627 1672l295 295l87 -87l-316 -273zM228 739q0 -119 24 -231q22 -113 70 -204q48 -92 130 -144t180 -52q186 0 282 142q121 180 121 505t-121 507q-43 64 -113 105t-160 41t-161.5 -36t-118 -96.5t-77 -145.5t-43.5 -178.5t-13 -212.5zM80 753q0 115 19 224t62 211
t106.5 177.5t159.5 121t211.5 45.5t207.5 -46q168 -85 252.5 -289.5t84.5 -444.5q-1 -439 -227 -652q-123 -116 -315 -116q-111 0 -205 44.5t-158.5 119t-110 174t-66.5 208t-21 223.5z" />
    <glyph glyph-name="Ocircumflex" unicode="&#xd4;" horiz-adv-x="1263" 
d="M419 1719l222 222l222 -222l-66 -64l-156 156l-157 -157zM228 739q0 -119 24 -231q22 -113 70 -204q48 -92 130 -144t180 -52q186 0 282 142q121 180 121 505t-121 507q-43 64 -113 105t-160 41t-161.5 -36t-118 -96.5t-77 -145.5t-43.5 -178.5t-13 -212.5zM80 753
q0 115 19 224t62 211t106.5 177.5t159.5 121t211.5 45.5t207.5 -46q168 -85 252.5 -289.5t84.5 -444.5q-1 -439 -227 -652q-123 -116 -315 -116q-111 0 -205 44.5t-158.5 119t-110 174t-66.5 208t-21 223.5z" />
    <glyph glyph-name="Otilde" unicode="&#xd5;" horiz-adv-x="1263" 
d="M338 1721q61 130 175 130q82 0 140 -56.5t121 -56.5t100 86l69 -40q-62 -130 -175 -130q-80 0 -139.5 56.5t-122 56.5t-99.5 -86zM228 739q0 -119 24 -231q22 -113 70 -204q48 -92 130 -144t180 -52q186 0 282 142q121 180 121 505t-121 507q-43 64 -113 105t-160 41
t-161.5 -36t-118 -96.5t-77 -145.5t-43.5 -178.5t-13 -212.5zM80 753q0 115 19 224t62 211t106.5 177.5t159.5 121t211.5 45.5t207.5 -46q168 -85 252.5 -289.5t84.5 -444.5q-1 -439 -227 -652q-123 -116 -315 -116q-111 0 -205 44.5t-158.5 119t-110 174t-66.5 208
t-21 223.5z" />
    <glyph glyph-name="Odieresis" unicode="&#xd6;" horiz-adv-x="1263" 
d="M725 1654v150h150v-150h-150zM406 1654v150h150v-150h-150zM228 739q0 -119 24 -231q22 -113 70 -204q48 -92 130 -144t180 -52q186 0 282 142q121 180 121 505t-121 507q-43 64 -113 105t-160 41t-161.5 -36t-118 -96.5t-77 -145.5t-43.5 -178.5t-13 -212.5zM80 753
q0 115 19 224t62 211t106.5 177.5t159.5 121t211.5 45.5t207.5 -46q168 -85 252.5 -289.5t84.5 -444.5q-1 -439 -227 -652q-123 -116 -315 -116q-111 0 -205 44.5t-158.5 119t-110 174t-66.5 208t-21 223.5z" />
    <glyph glyph-name="multiply" unicode="&#xd7;" horiz-adv-x="707" 
d="M93 544l196 196l-196 197l65 65l196 -197l195 196l65 -65l-195 -196l196 -196l-65 -65l-196 196l-196 -196z" />
    <glyph glyph-name="Oslash" unicode="&#xd8;" horiz-adv-x="1251" 
d="M387 204q101 -96 244 -96q89 0 160 39.5t115 102.5q126 182 127 532q0 226 -81 401zM218 732.5q0 -240.5 85 -410.5l568 984q-97 102 -240 102q-257 0 -357 -278q-56 -157 -56 -397.5zM70 733q0 135 19 244t62 211t106.5 177.5t159.5 121t214 45.5q174 0 306 -112l74 129
l114 -66l-97 -167q75 -111 114 -260.5t38.5 -284.5t-19 -243t-61.5 -208t-105.5 -174t-156 -118t-207.5 -44q-175 0 -308 110l-76 -132l-115 66l97 168q-78 109 -118.5 255.5t-40.5 281.5z" />
    <glyph glyph-name="Ugrave" unicode="&#xd9;" horiz-adv-x="1213" 
d="M241 1880l87 87l295 -295l-66 -65zM135 455v1060h148v-1060q0 -135 66 -229q83 -118 260 -118q87 0 151 28t96 66q79 96 81 253l-6 1060h154v-1060q-1 -163 -89 -293q-121 -178 -387 -178q-319 0 -429 254q-45 104 -45 217z" />
    <glyph glyph-name="Uacute" unicode="&#xda;" horiz-adv-x="1213" 
d="M594 1672l295 295l87 -87l-316 -273zM135 455v1060h148v-1060q0 -135 66 -229q83 -118 260 -118q87 0 151 28t96 66q79 96 81 253l-6 1060h154v-1060q-1 -163 -89 -293q-121 -178 -387 -178q-319 0 -429 254q-45 104 -45 217z" />
    <glyph glyph-name="Ucircumflex" unicode="&#xdb;" horiz-adv-x="1213" 
d="M386 1719l222 222l222 -222l-66 -64l-156 156l-157 -157zM135 455v1060h148v-1060q0 -135 66 -229q83 -118 260 -118q87 0 151 28t96 66q79 96 81 253l-6 1060h154v-1060q-1 -163 -89 -293q-121 -178 -387 -178q-319 0 -429 254q-45 104 -45 217z" />
    <glyph glyph-name="Udieresis" unicode="&#xdc;" horiz-adv-x="1213" 
d="M693 1654v150h150v-150h-150zM374 1654v150h150v-150h-150zM135 455v1060h148v-1060q0 -135 66 -229q83 -118 260 -118q87 0 151 28t96 66q79 96 81 253l-6 1060h154v-1060q-1 -163 -89 -293q-121 -178 -387 -178q-319 0 -429 254q-45 104 -45 217z" />
    <glyph glyph-name="Yacute" unicode="&#xdd;" horiz-adv-x="1122" 
d="M547 1672l295 295l87 -87l-316 -273zM25 1515h154l382 -713l382 713h154l-462 -855v-660h-148v660z" />
    <glyph glyph-name="Thorn" unicode="&#xde;" horiz-adv-x="1113" 
d="M238 481h280q162 0 259.5 71t97.5 217t-98 216.5t-259 70.5h-280v-575zM90 0v1515h148v-335h381q235 0 345 -186q58 -98 58 -197q0 -98 -21 -169q-22 -72 -67.5 -134.5t-126.5 -99.5t-188 -37h-381v-357h-148z" />
    <glyph glyph-name="germandbls" unicode="&#xdf;" horiz-adv-x="1226" 
d="M160 0v879q0 307 41.5 422t116.5 160q104 64 259.5 64t249 -85t93.5 -196.5t-54 -185.5t-134 -105q-17 -7 -47.5 -18t-42.5 -16q-48 -19 -60 -31l-16 -20q-16 -20 -16 -62q0 -82 64.5 -123.5t141 -64.5t100.5 -31q24 -9 66 -25q62 -24 105.5 -59t59.5 -63q39 -68 39 -148
q0 -133 -101 -218t-230 -85t-207 39t-144 145l99 64q52 -81 99 -108.5t143.5 -27.5t152.5 48.5t56 112.5q0 114 -75.5 158.5t-148.5 61.5q-72 18 -114 32q-98 34 -166 100t-68 181t65.5 174t172 88.5t126.5 95.5q9 28 9 50v26q0 83 -63.5 129.5t-142.5 46.5
q-143 -1 -208 -77q-31 -38 -56 -130t-25 -319v-879h-140z" />
    <glyph glyph-name="agrave" unicode="&#xe0;" horiz-adv-x="928" 
d="M110 1414l87 87l295 -295l-66 -65zM204 254q0 -74 52 -113.5t116 -39.5q110 0 191.5 61.5t117.5 104.5v317q-190 -49 -225 -60q-176 -57 -227 -150q-25 -46 -25 -120zM478 1066q335 0 335 -367v-549q0 -29 11 -79t20 -69h-133q-30 15 -30 168q-141 -181 -320 -181
t-252 132q-37 67 -37 138.5t18 125t56 95.5q79 85 211 131.5t324 84.5q0 158 -57.5 208t-171.5 50t-206 -96q-38 -40 -54 -70l-95 63q112 215 381 215z" />
    <glyph glyph-name="aacute" unicode="&#xe1;" horiz-adv-x="928" 
d="M464 1206l295 295l87 -87l-316 -273zM204 254q0 -74 52 -113.5t116 -39.5q110 0 191.5 61.5t117.5 104.5v317q-190 -49 -225 -60q-176 -57 -227 -150q-25 -46 -25 -120zM478 1066q335 0 335 -367v-549q0 -29 11 -79t20 -69h-133q-30 15 -30 168q-141 -181 -320 -181
t-252 132q-37 67 -37 138.5t18 125t56 95.5q79 85 211 131.5t324 84.5q0 158 -57.5 208t-171.5 50t-206 -96q-38 -40 -54 -70l-95 63q112 215 381 215z" />
    <glyph glyph-name="acircumflex" unicode="&#xe2;" horiz-adv-x="928" 
d="M256 1253l222 222l222 -222l-66 -64l-156 156l-157 -157zM204 254q0 -74 52 -113.5t116 -39.5q110 0 191.5 61.5t117.5 104.5v317q-190 -49 -225 -60q-176 -57 -227 -150q-25 -46 -25 -120zM478 1066q335 0 335 -367v-549q0 -29 11 -79t20 -69h-133q-30 15 -30 168
q-141 -181 -320 -181t-252 132q-37 67 -37 138.5t18 125t56 95.5q79 85 211 131.5t324 84.5q0 158 -57.5 208t-171.5 50t-206 -96q-38 -40 -54 -70l-95 63q112 215 381 215z" />
    <glyph glyph-name="atilde" unicode="&#xe3;" horiz-adv-x="928" 
d="M176 1255q61 130 175 130q82 0 140 -56.5t121 -56.5t100 86l69 -40q-62 -130 -175 -130q-80 0 -139.5 56.5t-122 56.5t-99.5 -86zM204 254q0 -74 52 -113.5t116 -39.5q110 0 191.5 61.5t117.5 104.5v317q-190 -49 -225 -60q-176 -57 -227 -150q-25 -46 -25 -120z
M478 1066q335 0 335 -367v-549q0 -29 11 -79t20 -69h-133q-30 15 -30 168q-141 -181 -320 -181t-252 132q-37 67 -37 138.5t18 125t56 95.5q79 85 211 131.5t324 84.5q0 158 -57.5 208t-171.5 50t-206 -96q-38 -40 -54 -70l-95 63q112 215 381 215z" />
    <glyph glyph-name="adieresis" unicode="&#xe4;" horiz-adv-x="928" 
d="M563 1188v150h150v-150h-150zM244 1188v150h150v-150h-150zM204 254q0 -74 52 -113.5t116 -39.5q110 0 191.5 61.5t117.5 104.5v317q-190 -49 -225 -60q-176 -57 -227 -150q-25 -46 -25 -120zM478 1066q335 0 335 -367v-549q0 -29 11 -79t20 -69h-133q-30 15 -30 168
q-141 -181 -320 -181t-252 132q-37 67 -37 138.5t18 125t56 95.5q79 85 211 131.5t324 84.5q0 158 -57.5 208t-171.5 50t-206 -96q-38 -40 -54 -70l-95 63q112 215 381 215z" />
    <glyph glyph-name="aring" unicode="&#xe5;" horiz-adv-x="928" 
d="M318 1413q0 -65 46.5 -111.5t111.5 -46.5t111.5 46.5t46.5 111.5t-46.5 111.5t-111.5 46.5t-111.5 -46.5t-46.5 -111.5zM222 1413q0 106 74.5 180.5t180.5 74.5t180.5 -74.5t74.5 -180.5t-74.5 -180.5t-180.5 -74.5t-180.5 74.5t-74.5 180.5zM204 254q0 -74 52 -113.5
t116 -39.5q110 0 191.5 61.5t117.5 104.5v317q-190 -49 -225 -60q-176 -57 -227 -150q-25 -46 -25 -120zM478 1066q335 0 335 -367v-549q0 -29 11 -79t20 -69h-133q-30 15 -30 168q-141 -181 -320 -181t-252 132q-37 67 -37 138.5t18 125t56 95.5q79 85 211 131.5t324 84.5
q0 158 -57.5 208t-171.5 50t-206 -96q-38 -40 -54 -70l-95 63q112 215 381 215z" />
    <glyph glyph-name="ae" unicode="&#xe6;" horiz-adv-x="1527" 
d="M815 625h496q-2 107 -46 207q-24 54 -72.5 88t-114.5 34q-176 0 -233 -162q-28 -79 -30 -167zM204 254q0 -74 52 -113.5t113 -39.5q61 1 105 17q124 47 230 176q-26 69 -26 139.5t1.5 104.5t1.5 46q-190 -49 -225 -60q-176 -57 -227 -150q-25 -46 -25 -120zM72 259.5
q0 71.5 18 125t56 95.5q79 85 211 131.5t324 84.5q0 158 -57.5 208t-171.5 50t-206 -96q-38 -40 -54 -70l-95 63q112 215 381 215q221 0 296 -157q104 157 296 157q373 0 373 -553h-634q-1 -265 135 -363q68 -49 136 -49q122 0 190 72.5t86 118.5l90 -63q-37 -74 -101 -132
q-119 -108 -248 -108t-222 64.5t-145 178.5q-163 -243 -355.5 -243t-265.5 132q-37 67 -37 138.5z" />
    <glyph glyph-name="ae" unicode="&#x4d5;" horiz-adv-x="1527" 
d="M815 625h496q-2 107 -46 207q-24 54 -72.5 88t-114.5 34q-176 0 -233 -162q-28 -79 -30 -167zM204 254q0 -74 52 -113.5t113 -39.5q61 1 105 17q124 47 230 176q-26 69 -26 139.5t1.5 104.5t1.5 46q-190 -49 -225 -60q-176 -57 -227 -150q-25 -46 -25 -120zM72 259.5
q0 71.5 18 125t56 95.5q79 85 211 131.5t324 84.5q0 158 -57.5 208t-171.5 50t-206 -96q-38 -40 -54 -70l-95 63q112 215 381 215q221 0 296 -157q104 157 296 157q373 0 373 -553h-634q-1 -265 135 -363q68 -49 136 -49q122 0 190 72.5t86 118.5l90 -63q-37 -74 -101 -132
q-119 -108 -248 -108t-222 64.5t-145 178.5q-163 -243 -355.5 -243t-265.5 132q-37 67 -37 138.5z" />
    <glyph glyph-name="ccedilla" unicode="&#xe7;" horiz-adv-x="926" 
d="M381 -228q153 0 153 44q0 87 -79 183h90q8 -14 12 -18q13 -16 20 -31l11 -21q25 -50 25 -113q0 -120 -214 -120h-18v76zM75 520q0 546 425 546q104 0 176 -50q108 -76 150 -203l-106 -48q-2 20 -21.5 59t-41.5 64t-63.5 45.5t-93.5 20.5q-293 0 -293 -425
q0 -206 77.5 -317t215.5 -111h3q92 0 150 67t79 118l9 22l104 -50q0 -21 -38.5 -78.5t-76 -96t-99 -66.5t-131.5 -28q-218 0 -321.5 139.5t-103.5 391.5z" />
    <glyph glyph-name="egrave" unicode="&#xe8;" horiz-adv-x="925" 
d="M107 1414l87 87l295 -295l-66 -65zM213 625h496q-2 107 -46 207q-24 54 -72.5 88t-114.5 34q-176 0 -233 -162q-28 -79 -30 -167zM75 500q0 99 14 180.5t37 138.5q64 159 200 217q71 30 135 30t109 -12q44 -10 96 -46q174 -120 175 -495h-634q-1 -265 135 -363
q67 -48 149 -49q154 0 262 191l91 -63q-39 -72 -102 -130q-120 -110 -237 -110t-199 43t-131 116t-74.5 163t-25.5 189z" />
    <glyph glyph-name="eacute" unicode="&#xe9;" horiz-adv-x="925" 
d="M461 1206l295 295l87 -87l-316 -273zM213 625h496q-2 107 -46 207q-24 54 -72.5 88t-114.5 34q-176 0 -233 -162q-28 -79 -30 -167zM75 500q0 99 14 180.5t37 138.5q64 159 200 217q71 30 135 30t109 -12q44 -10 96 -46q174 -120 175 -495h-634q-1 -265 135 -363
q67 -48 149 -49q154 0 262 191l91 -63q-39 -72 -102 -130q-120 -110 -237 -110t-199 43t-131 116t-74.5 163t-25.5 189z" />
    <glyph glyph-name="ecircumflex" unicode="&#xea;" horiz-adv-x="925" 
d="M253 1253l222 222l222 -222l-66 -64l-156 156l-157 -157zM213 625h496q-2 107 -46 207q-24 54 -72.5 88t-114.5 34q-176 0 -233 -162q-28 -79 -30 -167zM75 500q0 99 14 180.5t37 138.5q64 159 200 217q71 30 135 30t109 -12q44 -10 96 -46q174 -120 175 -495h-634
q-1 -265 135 -363q67 -48 149 -49q154 0 262 191l91 -63q-39 -72 -102 -130q-120 -110 -237 -110t-199 43t-131 116t-74.5 163t-25.5 189z" />
    <glyph glyph-name="edieresis" unicode="&#xeb;" horiz-adv-x="925" 
d="M559 1188v150h150v-150h-150zM240 1188v150h150v-150h-150zM213 625h496q-2 107 -46 207q-24 54 -72.5 88t-114.5 34q-176 0 -233 -162q-28 -79 -30 -167zM75 500q0 99 14 180.5t37 138.5q64 159 200 217q71 30 135 30t109 -12q44 -10 96 -46q174 -120 175 -495h-634
q-1 -265 135 -363q67 -48 149 -49q154 0 262 191l91 -63q-39 -72 -102 -130q-120 -110 -237 -110t-199 43t-131 116t-74.5 163t-25.5 189z" />
    <glyph glyph-name="igrave" unicode="&#xec;" horiz-adv-x="462" 
d="M-137 1414l87 87l295 -295l-66 -65zM165 -2v1057h132v-1057h-132z" />
    <glyph glyph-name="iacute" unicode="&#xed;" horiz-adv-x="462" 
d="M217 1206l295 295l87 -87l-316 -273zM165 -2v1057h132v-1057h-132z" />
    <glyph glyph-name="icircumflex" unicode="&#xee;" horiz-adv-x="462" 
d="M9 1253l222 222l222 -222l-66 -64l-156 156l-157 -157zM165 -2v1057h132v-1057h-132z" />
    <glyph glyph-name="idieresis" unicode="&#xef;" horiz-adv-x="462" 
d="M315 1188v150h150v-150h-150zM-4 1188v150h150v-150h-150zM165 -2v1057h132v-1057h-132z" />
    <glyph glyph-name="eth" unicode="&#xf0;" horiz-adv-x="1022" 
d="M232 528q0 -316 164 -401q50 -26 116 -26q183 0 245 191q33 100 33 235q0 427 -279 427t-279 -426zM100 533q0 243 108.5 388t303.5 145q147 0 232 -70q-79 206 -91 228l-17 34l-203 -116l-46 80l199 114q-57 77 -111.5 127t-56.5 52h139q50 -31 125 -123l162 94l46 -80
l-155 -90q187 -301 187 -789q0 -329 -188 -469q-93 -69 -222 -69q-194 0 -303 150.5t-109 393.5z" />
    <glyph glyph-name="eth" unicode="&#x1d9e;" horiz-adv-x="1022" 
d="M232 528q0 -316 164 -401q50 -26 116 -26q183 0 245 191q33 100 33 235q0 427 -279 427t-279 -426zM100 533q0 243 108.5 388t303.5 145q147 0 232 -70q-79 206 -91 228l-17 34l-203 -116l-46 80l199 114q-57 77 -111.5 127t-56.5 52h139q50 -31 125 -123l162 94l46 -80
l-155 -90q187 -301 187 -789q0 -329 -188 -469q-93 -69 -222 -69q-194 0 -303 150.5t-109 393.5z" />
    <glyph glyph-name="ntilde" unicode="&#xf1;" horiz-adv-x="970" 
d="M188 1255q61 130 175 130q82 0 140 -56.5t121 -56.5t100 86l69 -40q-62 -130 -175 -130q-80 0 -139.5 56.5t-122 56.5t-99.5 -86zM120 0v1055h132v-173q88 87 167 135.5t186 48.5t181 -70t74 -210v-786h-132v786q0 75 -53.5 121.5t-115.5 46.5q-148 0 -307 -173v-781
h-132z" />
    <glyph glyph-name="ograve" unicode="&#xf2;" horiz-adv-x="972" 
d="M119 1414l87 87l295 -295l-66 -65zM207 528q1 -317 165 -402q50 -26 115 -26t115 26q162 84 163 401q0 427 -279 427t-279 -426zM75 534.5q0 241.5 108.5 386.5t303.5 145t302.5 -146t107.5 -390t-108.5 -393t-303.5 -149t-302.5 152.5t-107.5 394z" />
    <glyph glyph-name="oacute" unicode="&#xf3;" horiz-adv-x="972" 
d="M473 1206l295 295l87 -87l-316 -273zM207 528q1 -317 165 -402q50 -26 115 -26t115 26q162 84 163 401q0 427 -279 427t-279 -426zM75 534.5q0 241.5 108.5 386.5t303.5 145t302.5 -146t107.5 -390t-108.5 -393t-303.5 -149t-302.5 152.5t-107.5 394z" />
    <glyph glyph-name="ocircumflex" unicode="&#xf4;" horiz-adv-x="972" 
d="M265 1253l222 222l222 -222l-66 -64l-156 156l-157 -157zM207 528q1 -317 165 -402q50 -26 115 -26t115 26q162 84 163 401q0 427 -279 427t-279 -426zM75 534.5q0 241.5 108.5 386.5t303.5 145t302.5 -146t107.5 -390t-108.5 -393t-303.5 -149t-302.5 152.5t-107.5 394z
" />
    <glyph glyph-name="otilde" unicode="&#xf5;" horiz-adv-x="972" 
d="M184 1255q61 130 175 130q82 0 140 -56.5t121 -56.5t100 86l69 -40q-62 -130 -175 -130q-80 0 -139.5 56.5t-122 56.5t-99.5 -86zM207 528q1 -317 165 -402q50 -26 115 -26t115 26q162 84 163 401q0 427 -279 427t-279 -426zM75 534.5q0 241.5 108.5 386.5t303.5 145
t302.5 -146t107.5 -390t-108.5 -393t-303.5 -149t-302.5 152.5t-107.5 394z" />
    <glyph glyph-name="odieresis" unicode="&#xf6;" horiz-adv-x="972" 
d="M571 1188v150h150v-150h-150zM252 1188v150h150v-150h-150zM207 528q1 -317 165 -402q50 -26 115 -26t115 26q162 84 163 401q0 427 -279 427t-279 -426zM75 534.5q0 241.5 108.5 386.5t303.5 145t302.5 -146t107.5 -390t-108.5 -393t-303.5 -149t-302.5 152.5
t-107.5 394z" />
    <glyph glyph-name="divide" unicode="&#xf7;" horiz-adv-x="707" 
d="M279 936v150h150v-150h-150zM279 394v150h150v-150h-150zM90 694v92h527v-92h-527z" />
    <glyph glyph-name="oslash" unicode="&#xf8;" horiz-adv-x="1022" 
d="M357 152q65 -52 143 -52t128 26q90 47 126 157t36 268t-50 264zM232 528q0 -152 41 -257l375 649q-58 34 -136 34q-280 0 -280 -426zM100 536q0 240 108.5 385t303.5 145q107 0 193 -48l48 84l114 -66l-60 -106q115 -148 115 -396t-108.5 -397t-301.5 -149
q-119 0 -213 63l-50 -87l-115 66l68 118q-102 148 -102 388z" />
    <glyph glyph-name="ugrave" unicode="&#xf9;" horiz-adv-x="979" 
d="M131 1414l87 87l295 -295l-66 -65zM129 269v786h132v-786q0 -75 53.5 -121.5t115.5 -46.5q148 0 307 173v781h132v-1055h-132v174q-140 -138 -243 -170q-49 -15 -102 -15q-115 0 -189 70t-74 210z" />
    <glyph glyph-name="uacute" unicode="&#xfa;" horiz-adv-x="979" 
d="M485 1206l295 295l87 -87l-316 -273zM129 269v786h132v-786q0 -75 53.5 -121.5t115.5 -46.5q148 0 307 173v781h132v-1055h-132v174q-140 -138 -243 -170q-49 -15 -102 -15q-115 0 -189 70t-74 210z" />
    <glyph glyph-name="ucircumflex" unicode="&#xfb;" horiz-adv-x="979" 
d="M277 1253l222 222l222 -222l-66 -64l-156 156l-157 -157zM129 269v786h132v-786q0 -75 53.5 -121.5t115.5 -46.5q148 0 307 173v781h132v-1055h-132v174q-140 -138 -243 -170q-49 -15 -102 -15q-115 0 -189 70t-74 210z" />
    <glyph glyph-name="udieresis" unicode="&#xfc;" horiz-adv-x="979" 
d="M583 1188v150h150v-150h-150zM264 1188v150h150v-150h-150zM129 269v786h132v-786q0 -75 53.5 -121.5t115.5 -46.5q148 0 307 173v781h132v-1055h-132v174q-140 -138 -243 -170q-49 -15 -102 -15q-115 0 -189 70t-74 210z" />
    <glyph glyph-name="yacute" unicode="&#xfd;" horiz-adv-x="905" 
d="M438 1206l295 295l87 -87l-316 -273zM25 1055h142l299 -859l280 859h134l-368 -1119q-56 -171 -116 -234.5t-121.5 -79t-124.5 -15.5t-123 8l10 121q36 -17 96 -17t99 15.5t64 39.5q87 86 108 223z" />
    <glyph glyph-name="thorn" unicode="&#xfe;" horiz-adv-x="1081" 
d="M292 254q46 -66 112 -109.5t126 -43.5q60 -1 100 11q93 26 151 128t58 329.5t-115 329.5q-62 55 -157 55q-125 0 -219 -106q-24 -28 -56 -69v-525zM160 -411v1926h132v-624q24 45 79 90q103 85 217 85q210 0 320 -230q63 -132 63 -289q0 -275 -135 -439
q-98 -119 -261 -119q-92 0 -178 55.5t-105 95.5v-551h-132z" />
    <glyph glyph-name="ydieresis" unicode="&#xff;" horiz-adv-x="905" 
d="M537 1193v150h150v-150h-150zM218 1193v150h150v-150h-150zM25 1055h142l299 -859l280 859h134l-368 -1119q-56 -171 -116 -234.5t-121.5 -79t-124.5 -15.5t-123 8l10 121q36 -17 96 -17t99 15.5t64 39.5q87 86 108 223z" />
    <glyph glyph-name="Amacron" unicode="&#x100;" horiz-adv-x="1130" 
d="M302 1654v92h527v-92h-527zM346 602h440l-221 787zM25 0l432 1515h216l432 -1515h-154l-130 478h-509l-133 -478h-154z" />
    <glyph glyph-name="amacron" unicode="&#x101;" horiz-adv-x="928" 
d="M214 1188v92h527v-92h-527zM204 254q0 -74 52 -113.5t116 -39.5q110 0 191.5 61.5t117.5 104.5v317q-190 -49 -225 -60q-176 -57 -227 -150q-25 -46 -25 -120zM478 1066q335 0 335 -367v-549q0 -29 11 -79t20 -69h-133q-30 15 -30 168q-141 -181 -320 -181t-252 132
q-37 67 -37 138.5t18 125t56 95.5q79 85 211 131.5t324 84.5q0 158 -57.5 208t-171.5 50t-206 -96q-38 -40 -54 -70l-95 63q112 215 381 215z" />
    <glyph glyph-name="Abreve" unicode="&#x102;" horiz-adv-x="1130" 
d="M359 1789l69 40q18 -42 57 -69t80 -27t80 27t57 69l69 -40q-65 -135 -206 -135t-206 135zM346 602h440l-221 787zM25 0l432 1515h216l432 -1515h-154l-130 478h-509l-133 -478h-154z" />
    <glyph glyph-name="abreve" unicode="&#x103;" horiz-adv-x="928" 
d="M272 1323l69 40q18 -42 57 -69t80 -27t80 27t57 69l69 -40q-65 -135 -206 -135t-206 135zM204 254q0 -74 52 -113.5t116 -39.5q110 0 191.5 61.5t117.5 104.5v317q-190 -49 -225 -60q-176 -57 -227 -150q-25 -46 -25 -120zM478 1066q335 0 335 -367v-549q0 -29 11 -79
t20 -69h-133q-30 15 -30 168q-141 -181 -320 -181t-252 132q-37 67 -37 138.5t18 125t56 95.5q79 85 211 131.5t324 84.5q0 158 -57.5 208t-171.5 50t-206 -96q-38 -40 -54 -70l-95 63q112 215 381 215z" />
    <glyph glyph-name="Aogonek" unicode="&#x104;" horiz-adv-x="1130" 
d="M890 -173q0 63 16 94l20 40q8 16 16 26l16 23h90q-79 -96 -79 -183q0 -44 153 -44v-76h-18q-214 0 -214 120zM346 602h440l-221 787zM25 0l432 1515h216l432 -1515h-154l-130 478h-509l-133 -478h-154z" />
    <glyph glyph-name="aogonek" unicode="&#x105;" horiz-adv-x="928" 
d="M634 -184q0 63 16 94l20 40q8 16 16 26l16 23h90q-79 -96 -79 -183q0 -44 153 -44v-76h-18q-214 0 -214 120zM204 254q0 -74 52 -113.5t116 -39.5q110 0 191.5 61.5t117.5 104.5v317q-190 -49 -225 -60q-176 -57 -227 -150q-25 -46 -25 -120zM478 1066q335 0 335 -367
v-549q0 -29 11 -79t20 -69h-133q-30 15 -30 168q-141 -181 -320 -181t-252 132q-37 67 -37 138.5t18 125t56 95.5q79 85 211 131.5t324 84.5q0 158 -57.5 208t-171.5 50t-206 -96q-38 -40 -54 -70l-95 63q112 215 381 215z" />
    <glyph glyph-name="Cacute" unicode="&#x106;" horiz-adv-x="1174" 
d="M604 1672l295 295l87 -87l-316 -273zM932 1046q-51 362 -314 362q-390 0 -390 -649q0 -278 82 -454q44 -93 122 -145t171 -52q226 0 313 186q41 88 44 169l146 -23q-4 -11 -18.5 -54t-24.5 -70t-32.5 -73.5t-44.5 -77.5q-131 -181 -347 -181q-189 0 -305 90
q-254 196 -254 702q0 226 76 414q86 214 256 296q92 46 188 46t163.5 -24.5t113.5 -63.5q99 -84 143.5 -182t57.5 -150l6 -24v-1z" />
    <glyph glyph-name="cacute" unicode="&#x107;" horiz-adv-x="926" 
d="M486 1206l295 295l87 -87l-316 -273zM75 520q0 546 425 546q104 0 176 -50q108 -76 150 -203l-106 -48q-2 20 -21.5 59t-41.5 64t-63.5 45.5t-93.5 20.5q-293 0 -293 -425q0 -206 77.5 -317t215.5 -111h3q92 0 150 67t79 118l9 22l104 -50q0 -21 -38.5 -78.5t-76 -96
t-99 -66.5t-131.5 -28q-218 0 -321.5 139.5t-103.5 391.5z" />
    <glyph glyph-name="Ccircumflex" unicode="&#x108;" horiz-adv-x="1174" 
d="M396 1719l222 222l222 -222l-66 -64l-156 156l-157 -157zM932 1046q-51 362 -314 362q-390 0 -390 -649q0 -278 82 -454q44 -93 122 -145t171 -52q226 0 313 186q41 88 44 169l146 -23q-4 -11 -18.5 -54t-24.5 -70t-32.5 -73.5t-44.5 -77.5q-131 -181 -347 -181
q-189 0 -305 90q-254 196 -254 702q0 226 76 414q86 214 256 296q92 46 188 46t163.5 -24.5t113.5 -63.5q99 -84 143.5 -182t57.5 -150l6 -24v-1z" />
    <glyph glyph-name="ccircumflex" unicode="&#x109;" horiz-adv-x="926" 
d="M278 1253l222 222l222 -222l-66 -64l-156 156l-157 -157zM75 520q0 546 425 546q104 0 176 -50q108 -76 150 -203l-106 -48q-2 20 -21.5 59t-41.5 64t-63.5 45.5t-93.5 20.5q-293 0 -293 -425q0 -206 77.5 -317t215.5 -111h3q92 0 150 67t79 118l9 22l104 -50
q0 -21 -38.5 -78.5t-76 -96t-99 -66.5t-131.5 -28q-218 0 -321.5 139.5t-103.5 391.5z" />
    <glyph glyph-name="Cdotaccent" unicode="&#x10a;" horiz-adv-x="1174" 
d="M543 1654v150h150v-150h-150zM932 1046q-51 362 -314 362q-390 0 -390 -649q0 -278 82 -454q44 -93 122 -145t171 -52q226 0 313 186q41 88 44 169l146 -23q-4 -11 -18.5 -54t-24.5 -70t-32.5 -73.5t-44.5 -77.5q-131 -181 -347 -181q-189 0 -305 90q-254 196 -254 702
q0 226 76 414q86 214 256 296q92 46 188 46t163.5 -24.5t113.5 -63.5q99 -84 143.5 -182t57.5 -150l6 -24v-1z" />
    <glyph glyph-name="cdotaccent" unicode="&#x10b;" horiz-adv-x="926" 
d="M425 1188v150h150v-150h-150zM75 520q0 546 425 546q104 0 176 -50q108 -76 150 -203l-106 -48q-2 20 -21.5 59t-41.5 64t-63.5 45.5t-93.5 20.5q-293 0 -293 -425q0 -206 77.5 -317t215.5 -111h3q92 0 150 67t79 118l9 22l104 -50q0 -21 -38.5 -78.5t-76 -96t-99 -66.5
t-131.5 -28q-218 0 -321.5 139.5t-103.5 391.5z" />
    <glyph glyph-name="Ccaron" unicode="&#x10c;" horiz-adv-x="1174" 
d="M396 1876l65 65l157 -157l156 156l66 -64l-222 -222zM932 1046q-51 362 -314 362q-390 0 -390 -649q0 -278 82 -454q44 -93 122 -145t171 -52q226 0 313 186q41 88 44 169l146 -23q-4 -11 -18.5 -54t-24.5 -70t-32.5 -73.5t-44.5 -77.5q-131 -181 -347 -181
q-189 0 -305 90q-254 196 -254 702q0 226 76 414q86 214 256 296q92 46 188 46t163.5 -24.5t113.5 -63.5q99 -84 143.5 -182t57.5 -150l6 -24v-1z" />
    <glyph glyph-name="ccaron" unicode="&#x10d;" horiz-adv-x="926" 
d="M278 1410l65 65l157 -157l156 156l66 -64l-222 -222zM75 520q0 546 425 546q104 0 176 -50q108 -76 150 -203l-106 -48q-2 20 -21.5 59t-41.5 64t-63.5 45.5t-93.5 20.5q-293 0 -293 -425q0 -206 77.5 -317t215.5 -111h3q92 0 150 67t79 118l9 22l104 -50
q0 -21 -38.5 -78.5t-76 -96t-99 -66.5t-131.5 -28q-218 0 -321.5 139.5t-103.5 391.5z" />
    <glyph glyph-name="Dcaron" unicode="&#x10e;" horiz-adv-x="1214" 
d="M310 1876l65 65l157 -157l156 156l66 -64l-222 -222zM283 124h213q328 0 444 279q58 140 58 342q0 359 -138 512q-54 59 -146.5 96.5t-217.5 37.5h-213v-1267zM135 0v1515h361q502 0 614 -446q36 -144 36 -294t-21 -255q-46 -233 -199 -376.5t-430 -143.5h-361z" />
    <glyph glyph-name="dcaron" unicode="&#x10f;" horiz-adv-x="1345" 
d="M977 1114l87 250h-65v150h150v-150q-27 -57 -76 -152t-52 -98h-44zM207 510q1 -178 65 -294t207 -115q95 0 150 49t113 128v525q-106 151 -237 151q-298 0 -298 -444zM75 510q0 147 47.5 273t139.5 204.5t196.5 78.5t184.5 -54t99 -95v598h132v-1369q0 -30 8.5 -78.5
t17.5 -67.5h-133q-25 12 -25 166q-102 -177 -284 -177q-91 0 -166 45.5t-121 120.5q-96 157 -96 355z" />
    <glyph glyph-name="Dcroat" unicode="&#x110;" horiz-adv-x="1284" 
d="M285 124h213q256 0 383 168.5t127 452.5q0 434 -220 574q-113 72 -290 72h-213v-579h324v-136h-324v-552zM9 676v136h128v703h361q155 0 273 -43q118 -44 190 -114q195 -191 195 -599t-218 -609q-162 -150 -440 -150h-361v676h-128z" />
    <glyph glyph-name="dcroat" unicode="&#x111;" horiz-adv-x="984" 
d="M438 1178v92h524v-92h-524zM207 510q1 -178 65 -294t207 -115q95 0 150 49t113 128v525q-106 151 -237 151q-298 0 -298 -444zM75 510q0 147 47.5 273t139.5 204.5t196.5 78.5t184.5 -54t99 -95v598h132v-1369q0 -30 8.5 -78.5t17.5 -67.5h-133q-25 12 -25 166
q-102 -177 -284 -177q-91 0 -166 45.5t-121 120.5q-96 157 -96 355z" />
    <glyph glyph-name="Emacron" unicode="&#x112;" 
d="M282 1654v92h527v-92h-527zM135 0v1515h821v-124h-673v-533h483v-124h-483v-601h711v-133h-859z" />
    <glyph glyph-name="emacron" unicode="&#x113;" horiz-adv-x="925" 
d="M212 1188v92h527v-92h-527zM213 625h496q-2 107 -46 207q-24 54 -72.5 88t-114.5 34q-176 0 -233 -162q-28 -79 -30 -167zM75 500q0 99 14 180.5t37 138.5q64 159 200 217q71 30 135 30t109 -12q44 -10 96 -46q174 -120 175 -495h-634q-1 -265 135 -363q67 -48 149 -49
q154 0 262 191l91 -63q-39 -72 -102 -130q-120 -110 -237 -110t-199 43t-131 116t-74.5 163t-25.5 189z" />
    <glyph glyph-name="Ebreve" unicode="&#x114;" 
d="M339 1789l69 40q18 -42 57 -69t80 -27t80 27t57 69l69 -40q-65 -135 -206 -135t-206 135zM135 0v1515h821v-124h-673v-533h483v-124h-483v-601h711v-133h-859z" />
    <glyph glyph-name="ebreve" unicode="&#x115;" horiz-adv-x="925" 
d="M269 1323l69 40q18 -42 57 -69t80 -27t80 27t57 69l69 -40q-65 -135 -206 -135t-206 135zM213 625h496q-2 107 -46 207q-24 54 -72.5 88t-114.5 34q-176 0 -233 -162q-28 -79 -30 -167zM75 500q0 99 14 180.5t37 138.5q64 159 200 217q71 30 135 30t109 -12
q44 -10 96 -46q174 -120 175 -495h-634q-1 -265 135 -363q67 -48 149 -49q154 0 262 191l91 -63q-39 -72 -102 -130q-120 -110 -237 -110t-199 43t-131 116t-74.5 163t-25.5 189z" />
    <glyph glyph-name="Edotaccent" unicode="&#x116;" 
d="M471 1654v150h150v-150h-150zM135 0v1515h821v-124h-673v-533h483v-124h-483v-601h711v-133h-859z" />
    <glyph glyph-name="edotaccent" unicode="&#x117;" horiz-adv-x="925" 
d="M400 1188v150h150v-150h-150zM213 625h496q-2 107 -46 207q-24 54 -72.5 88t-114.5 34q-176 0 -233 -162q-28 -79 -30 -167zM75 500q0 99 14 180.5t37 138.5q64 159 200 217q71 30 135 30t109 -12q44 -10 96 -46q174 -120 175 -495h-634q-1 -265 135 -363q67 -48 149 -49
q154 0 262 191l91 -63q-39 -72 -102 -130q-120 -110 -237 -110t-199 43t-131 116t-74.5 163t-25.5 189z" />
    <glyph glyph-name="Eogonek" unicode="&#x118;" 
d="M782 -179q0 63 16 94l20 40q8 16 16 26l16 23h90q-79 -96 -79 -183q0 -44 153 -44v-76h-18q-214 0 -214 120zM135 0v1515h821v-124h-673v-533h483v-124h-483v-601h711v-133h-859z" />
    <glyph glyph-name="eogonek" unicode="&#x119;" horiz-adv-x="925" 
d="M378 -184q0 63 16 94l20 40q8 16 16 26l16 23h90q-79 -96 -79 -183q0 -44 153 -44v-76h-18q-214 0 -214 120zM213 625h496q-2 107 -46 207q-24 54 -72.5 88t-114.5 34q-176 0 -233 -162q-28 -79 -30 -167zM75 500q0 99 14 180.5t37 138.5q64 159 200 217q71 30 135 30
t109 -12q44 -10 96 -46q174 -120 175 -495h-634q-1 -265 135 -363q67 -48 149 -49q154 0 262 191l91 -63q-39 -72 -102 -130q-120 -110 -237 -110t-199 43t-131 116t-74.5 163t-25.5 189z" />
    <glyph glyph-name="Ecaron" unicode="&#x11a;" 
d="M324 1876l65 65l157 -157l156 156l66 -64l-222 -222zM135 0v1515h821v-124h-673v-533h483v-124h-483v-601h711v-133h-859z" />
    <glyph glyph-name="ecaron" unicode="&#x11b;" horiz-adv-x="925" 
d="M253 1410l65 65l157 -157l156 156l66 -64l-222 -222zM213 625h496q-2 107 -46 207q-24 54 -72.5 88t-114.5 34q-176 0 -233 -162q-28 -79 -30 -167zM75 500q0 99 14 180.5t37 138.5q64 159 200 217q71 30 135 30t109 -12q44 -10 96 -46q174 -120 175 -495h-634
q-1 -265 135 -363q67 -48 149 -49q154 0 262 191l91 -63q-39 -72 -102 -130q-120 -110 -237 -110t-199 43t-131 116t-74.5 163t-25.5 189z" />
    <glyph glyph-name="Gcircumflex" unicode="&#x11c;" horiz-adv-x="1246" 
d="M414 1719l222 222l222 -222l-66 -64l-156 156l-157 -157zM639 108q334 0 334 467v16h-337v124h482v-715h-120v192q-113 -156 -239 -192q-56 -16 -148 -16t-187.5 46t-158.5 122t-105.5 178.5t-61 211.5t-18.5 214.5t14 196.5q30 201 116 335q151 244 426 244
q141 0 265 -85q145 -99 211 -348l-145 -36q-1 7 -3 19q0 13 -10 49q-34 130 -116 203.5t-198 73.5t-198 -54t-127 -148q-87 -181 -87 -463.5t80 -434.5q105 -200 331 -200z" />
    <glyph glyph-name="gcircumflex" unicode="&#x11d;" horiz-adv-x="1005" 
d="M295 1246l222 222l222 -222l-66 -64l-156 156l-157 -157zM238 689q0 -117 70 -194.5t190.5 -77.5t183 79t62.5 192t-61.5 189.5t-178.5 76.5t-191.5 -74t-74.5 -191zM272.5 -299q98.5 -33 158 -33.5t86 -0.5t46 0.5t60.5 4.5t67 10q148 37 148 152q0 60 -40 95.5
t-101.5 50.5t-121.5 21.5t-114.5 9t-65.5 5.5q-106 -40 -139 -59q-82 -48 -82 -135.5t98.5 -120.5zM42 -188q0 54 15 84t45.5 54t53 38.5t61.5 34t47 24.5q-82 17 -124 60t-42 79q0 70 49 114t78 61.5t32 19.5q-60 51 -105.5 133.5t-45.5 181t54.5 185.5t146 136t177.5 49
t138.5 -21t112.5 -62q76 62 131.5 72.5t106.5 12.5v-120h-2q-171 0 -171 -31q51 -94 63.5 -138.5t12.5 -89.5q0 -161 -103.5 -272.5t-268.5 -111.5q-87 0 -178 38q-8 -7 -36 -27q-60 -43 -60 -86.5t37 -58.5q83 -34 205.5 -35t277.5 -38q97 -23 158.5 -92t61.5 -165
q0 -286 -479 -286q-169 0 -301 61q-67 31 -107.5 86.5t-40.5 109.5z" />
    <glyph glyph-name="Gbreve" unicode="&#x11e;" horiz-adv-x="1246" 
d="M430 1789l69 40q18 -42 57 -69t80 -27t80 27t57 69l69 -40q-65 -135 -206 -135t-206 135zM639 108q334 0 334 467v16h-337v124h482v-715h-120v192q-113 -156 -239 -192q-56 -16 -148 -16t-187.5 46t-158.5 122t-105.5 178.5t-61 211.5t-18.5 214.5t14 196.5
q30 201 116 335q151 244 426 244q141 0 265 -85q145 -99 211 -348l-145 -36q-1 7 -3 19q0 13 -10 49q-34 130 -116 203.5t-198 73.5t-198 -54t-127 -148q-87 -181 -87 -463.5t80 -434.5q105 -200 331 -200z" />
    <glyph glyph-name="gbreve" unicode="&#x11f;" horiz-adv-x="1005" 
d="M305 1325l69 40q18 -42 57 -69t80 -27t80 27t57 69l69 -40q-65 -135 -206 -135t-206 135zM238 689q0 -117 70 -194.5t190.5 -77.5t183 79t62.5 192t-61.5 189.5t-178.5 76.5t-191.5 -74t-74.5 -191zM272.5 -299q98.5 -33 158 -33.5t86 -0.5t46 0.5t60.5 4.5t67 10
q148 37 148 152q0 60 -40 95.5t-101.5 50.5t-121.5 21.5t-114.5 9t-65.5 5.5q-106 -40 -139 -59q-82 -48 -82 -135.5t98.5 -120.5zM42 -188q0 54 15 84t45.5 54t53 38.5t61.5 34t47 24.5q-82 17 -124 60t-42 79q0 70 49 114t78 61.5t32 19.5q-60 51 -105.5 133.5t-45.5 181
t54.5 185.5t146 136t177.5 49t138.5 -21t112.5 -62q76 62 131.5 72.5t106.5 12.5v-120h-2q-171 0 -171 -31q51 -94 63.5 -138.5t12.5 -89.5q0 -161 -103.5 -272.5t-268.5 -111.5q-87 0 -178 38q-8 -7 -36 -27q-60 -43 -60 -86.5t37 -58.5q83 -34 205.5 -35t277.5 -38
q97 -23 158.5 -92t61.5 -165q0 -286 -479 -286q-169 0 -301 61q-67 31 -107.5 86.5t-40.5 109.5z" />
    <glyph glyph-name="Gdotaccent" unicode="&#x120;" horiz-adv-x="1246" 
d="M561 1654v150h150v-150h-150zM639 108q334 0 334 467v16h-337v124h482v-715h-120v192q-113 -156 -239 -192q-56 -16 -148 -16t-187.5 46t-158.5 122t-105.5 178.5t-61 211.5t-18.5 214.5t14 196.5q30 201 116 335q151 244 426 244q141 0 265 -85q145 -99 211 -348
l-145 -36q-1 7 -3 19q0 13 -10 49q-34 130 -116 203.5t-198 73.5t-198 -54t-127 -148q-87 -181 -87 -463.5t80 -434.5q105 -200 331 -200z" />
    <glyph glyph-name="gdotaccent" unicode="&#x121;" horiz-adv-x="1005" 
d="M433 1190v150h150v-150h-150zM238 689q0 -117 70 -194.5t190.5 -77.5t183 79t62.5 192t-61.5 189.5t-178.5 76.5t-191.5 -74t-74.5 -191zM272.5 -299q98.5 -33 158 -33.5t86 -0.5t46 0.5t60.5 4.5t67 10q148 37 148 152q0 60 -40 95.5t-101.5 50.5t-121.5 21.5t-114.5 9
t-65.5 5.5q-106 -40 -139 -59q-82 -48 -82 -135.5t98.5 -120.5zM42 -188q0 54 15 84t45.5 54t53 38.5t61.5 34t47 24.5q-82 17 -124 60t-42 79q0 70 49 114t78 61.5t32 19.5q-60 51 -105.5 133.5t-45.5 181t54.5 185.5t146 136t177.5 49t138.5 -21t112.5 -62
q76 62 131.5 72.5t106.5 12.5v-120h-2q-171 0 -171 -31q51 -94 63.5 -138.5t12.5 -89.5q0 -161 -103.5 -272.5t-268.5 -111.5q-87 0 -178 38q-8 -7 -36 -27q-60 -43 -60 -86.5t37 -58.5q83 -34 205.5 -35t277.5 -38q97 -23 158.5 -92t61.5 -165q0 -286 -479 -286
q-169 0 -301 61q-67 31 -107.5 86.5t-40.5 109.5z" />
    <glyph glyph-name="Gcommaaccent" unicode="&#x122;" horiz-adv-x="1246" 
d="M550 -538l87 250h-65v150h150v-150q-27 -57 -76 -152t-52 -98h-44zM639 108q334 0 334 467v16h-337v124h482v-715h-120v192q-113 -156 -239 -192q-56 -16 -148 -16t-187.5 46t-158.5 122t-105.5 178.5t-61 211.5t-18.5 214.5t14 196.5q30 201 116 335q151 244 426 244
q141 0 265 -85q145 -99 211 -348l-145 -36q-1 7 -3 19q0 13 -10 49q-34 130 -116 203.5t-198 73.5t-198 -54t-127 -148q-87 -181 -87 -463.5t80 -434.5q105 -200 331 -200z" />
    <glyph glyph-name="gcommaaccent" unicode="&#x123;" horiz-adv-x="1005" 
d="M475 1115l87 250h-65v150h150v-150q-27 -57 -76 -152t-52 -98h-44zM238 689q0 -117 70 -194.5t190.5 -77.5t183 79t62.5 192t-61.5 189.5t-178.5 76.5t-191.5 -74t-74.5 -191zM272.5 -299q98.5 -33 158 -33.5t86 -0.5t46 0.5t60.5 4.5t67 10q148 37 148 152
q0 60 -40 95.5t-101.5 50.5t-121.5 21.5t-114.5 9t-65.5 5.5q-106 -40 -139 -59q-82 -48 -82 -135.5t98.5 -120.5zM42 -188q0 54 15 84t45.5 54t53 38.5t61.5 34t47 24.5q-82 17 -124 60t-42 79q0 70 49 114t78 61.5t32 19.5q-60 51 -105.5 133.5t-45.5 181t54.5 185.5
t146 136t177.5 49t138.5 -21t112.5 -62q76 62 131.5 72.5t106.5 12.5v-120h-2q-171 0 -171 -31q51 -94 63.5 -138.5t12.5 -89.5q0 -161 -103.5 -272.5t-268.5 -111.5q-87 0 -178 38q-8 -7 -36 -27q-60 -43 -60 -86.5t37 -58.5q83 -34 205.5 -35t277.5 -38q97 -23 158.5 -92
t61.5 -165q0 -286 -479 -286q-169 0 -301 61q-67 31 -107.5 86.5t-40.5 109.5z" />
    <glyph glyph-name="Hcircumflex" unicode="&#x124;" horiz-adv-x="1254" 
d="M405 1719l222 222l222 -222l-66 -64l-156 156l-157 -157zM135 0v1515h148v-657h688v657h148v-1515h-148v734h-688v-734h-148z" />
    <glyph glyph-name="hcircumflex" unicode="&#x125;" horiz-adv-x="979" 
d="M277 1702l222 222l222 -222l-66 -64l-156 156l-157 -157zM129 0v1515h132v-633q147 142 243 170q48 14 102 14q115 0 189 -70t74 -210v-786h-132v786q0 75 -53.5 121.5t-115.5 46.5q-148 0 -307 -173v-781h-132z" />
    <glyph glyph-name="Hbar" unicode="&#x126;" horiz-adv-x="1254" 
d="M85.4648 1056v111.996h1083.99v-111.996h-1083.99zM135 0v1515h148v-657h688v657h148v-1515h-148v734h-688v-734h-148z" />
    <glyph glyph-name="hbar" unicode="&#x127;" horiz-adv-x="979" 
d="M22 1168.46v92.3252h524v-92.3252h-524zM129 0v1515h132v-633q147 142 243 170q48 14 102 14q115 0 189 -70t74 -210v-786h-132v786q0 75 -53.5 121.5t-115.5 46.5q-148 0 -307 -173v-781h-132z" />
    <glyph glyph-name="Itilde" unicode="&#x128;" horiz-adv-x="418" 
d="M-94 1721q61 130 175 130q82 0 140 -56.5t121 -56.5t100 86l69 -40q-62 -130 -175 -130q-80 0 -139.5 56.5t-122 56.5t-99.5 -86zM135 0v1515h148v-1515h-148z" />
    <glyph glyph-name="itilde" unicode="&#x129;" horiz-adv-x="462" 
d="M-72 1255q61 130 175 130q82 0 140 -56.5t121 -56.5t100 86l69 -40q-62 -130 -175 -130q-80 0 -139.5 56.5t-122 56.5t-99.5 -86zM165 -2v1057h132v-1057h-132z" />
    <glyph glyph-name="Imacron" unicode="&#x12a;" horiz-adv-x="418" 
d="M-54 1654v92h527v-92h-527zM135 0v1515h148v-1515h-148z" />
    <glyph glyph-name="imacron" unicode="&#x12b;" horiz-adv-x="462" 
d="M-32 1188v92h527v-92h-527zM165 -2v1057h132v-1057h-132z" />
    <glyph glyph-name="Ibreve" unicode="&#x12c;" horiz-adv-x="418" 
d="M3 1789l69 40q18 -42 57 -69t80 -27t80 27t57 69l69 -40q-65 -135 -206 -135t-206 135zM135 0v1515h148v-1515h-148z" />
    <glyph glyph-name="ibreve" unicode="&#x12d;" horiz-adv-x="462" 
d="M25 1323l69 40q18 -42 57 -69t80 -27t80 27t57 69l69 -40q-65 -135 -206 -135t-206 135zM165 -2v1057h132v-1057h-132z" />
    <glyph glyph-name="Iogonek" unicode="&#x12e;" horiz-adv-x="418" 
d="M96 -173q0 63 16 94l20 40q8 16 16 26l16 23h90q-79 -96 -79 -183q0 -44 153 -44v-76h-18q-214 0 -214 120zM135 0v1515h148v-1515h-148z" />
    <glyph glyph-name="iogonek" unicode="&#x12f;" horiz-adv-x="462" 
d="M82 -175q0 63 16 94l20 40q8 16 16 26l16 23h90q-79 -96 -79 -183q0 -44 153 -44v-76h-18q-214 0 -214 120zM156 1188v150h150v-150h-150zM165 -2v1057h132v-1057h-132z" />
    <glyph glyph-name="Idotaccent" unicode="&#x130;" horiz-adv-x="418" 
d="M134 1654v150h150v-150h-150zM135 0v1515h148v-1515h-148z" />
    <glyph glyph-name="dotlessi" unicode="&#x131;" horiz-adv-x="462" 
d="M165 -2v1057h132v-1057h-132z" />
    <glyph glyph-name="IJ" unicode="&#x132;" horiz-adv-x="1314" 
d="M443 244l103 53l14 -29q50 -98 152 -142q44 -18 92 -18q122 0 174.5 83.5t52.5 237.5v1086h148v-1086q0 -327 -217 -417q-68 -28 -152.5 -28t-150.5 26.5t-103 59.5t-71 86q-34 52 -42 88zM135 0v1515h148v-1515h-148z" />
    <glyph glyph-name="ij" unicode="&#x133;" horiz-adv-x="733" 
d="M482 1188v150h150v-150h-150zM308 -225q97 0 140 34t43 162v1084h132v-1055q0 -168 -37.5 -229t-65.5 -75q-65 -33 -165 -33h-39zM156 1188v150h150v-150h-150zM165 -2v1057h132v-1057h-132z" />
    <glyph glyph-name="Jcircumflex" unicode="&#x134;" horiz-adv-x="896" 
d="M465 1719l222 222l222 -222l-66 -64l-156 156l-157 -157zM25 244l103 53l14 -29q50 -98 152 -142q44 -18 92 -18q122 0 174.5 83.5t52.5 237.5v1086h148v-1086q0 -327 -217 -417q-68 -28 -152.5 -28t-150.5 26.5t-103 59.5t-71 86q-34 52 -42 88z" />
    <glyph glyph-name="jcircumflex" unicode="&#x135;" horiz-adv-x="362" 
d="M-40 1253l222 222l222 -222l-66 -64l-156 156l-157 -157zM-63 -225q97 0 140 34t43 162v1084h132v-1055q0 -168 -37.5 -229t-65.5 -75q-65 -33 -165 -33h-39z" />
    <glyph glyph-name="Kcommaaccent" unicode="&#x136;" horiz-adv-x="1140" 
d="M539 -522l87 250h-65v150h150v-150q-27 -57 -76 -152t-52 -98h-44zM135 0v1515h149v-824l617 824h159l-434 -569l489 -946h-166l-417 822l-248 -327v-495h-149z" />
    <glyph glyph-name="kcommaaccent" unicode="&#x137;" horiz-adv-x="911" 
d="M422 -522l87 250h-65v150h150v-150q-27 -57 -76 -152t-52 -98h-44zM130 0v1515h141v-971l395 511h158l-276 -359l338 -696h-146l-282 582l-187 -232v-350h-141z" />
    <glyph glyph-name="kgreenlandic" unicode="&#x138;" horiz-adv-x="795" 
d="M84 2v1053h132v-506l382 506h134l-304 -398l342 -655l-142 -2l-280 553l-132 -176v-375h-132z" />
    <glyph glyph-name="kgreenlandic" unicode="&#x3f0;" horiz-adv-x="795" 
d="M84 2v1053h132v-506l382 506h134l-304 -398l342 -655l-142 -2l-280 553l-132 -176v-375h-132z" />
    <glyph glyph-name="kgreenlandic" unicode="&#x3ba;" horiz-adv-x="795" 
d="M84 2v1053h132v-506l382 506h134l-304 -398l342 -655l-142 -2l-280 553l-132 -176v-375h-132z" />
    <glyph glyph-name="Lacute" unicode="&#x139;" horiz-adv-x="980" 
d="M195 1672l295 295l87 -87l-316 -273zM135 0v1515h148v-1373h672v-142h-820z" />
    <glyph glyph-name="lacute" unicode="&#x13a;" horiz-adv-x="392" 
d="M181 1655l295 295l87 -87l-316 -273zM129 -2v1517h132v-1517h-132z" />
    <glyph glyph-name="Lcommaaccent" unicode="&#x13b;" horiz-adv-x="980" 
d="M459 -522l87 250h-65v150h150v-150q-27 -57 -76 -152t-52 -98h-44zM135 0v1515h148v-1373h672v-142h-820z" />
    <glyph glyph-name="lcommaaccent" unicode="&#x13c;" horiz-adv-x="392" 
d="M109 -524l87 250h-65v150h150v-150q-27 -57 -76 -152t-52 -98h-44zM129 -2v1517h132v-1517h-132z" />
    <glyph glyph-name="Lcaron" unicode="&#x13d;" horiz-adv-x="980" 
d="M415 1093l87 250h-65v150h150v-150q-27 -57 -76 -152t-52 -98h-44zM135 0v1515h148v-1373h672v-142h-820z" />
    <glyph glyph-name="lcaron" unicode="&#x13e;" horiz-adv-x="679" 
d="M378 1115l87 250h-65v150h150v-150q-27 -57 -76 -152t-52 -98h-44zM129 -2v1517h132v-1517h-132z" />
    <glyph glyph-name="Ldot" unicode="&#x13f;" horiz-adv-x="980" 
d="M470 691v150h150v-150h-150zM135 0v1515h148v-1373h672v-142h-820z" />
    <glyph glyph-name="ldot" unicode="&#x140;" horiz-adv-x="665" 
d="M484 786v150h150v-150h-150zM129 -2v1517h132v-1517h-132z" />
    <glyph glyph-name="Lslash" unicode="&#x141;" horiz-adv-x="980" 
d="M-156 348v108l744 744v-109zM135 0v1515h148v-1373h672v-142h-820z" />
    <glyph glyph-name="lslash" unicode="&#x142;" horiz-adv-x="392" 
d="M-192 271v108l744 744v-109zM129 -2v1517h132v-1517h-132z" />
    <glyph glyph-name="Nacute" unicode="&#x143;" horiz-adv-x="1251" 
d="M612 1672l295 295l87 -87l-316 -273zM128 0v1515h236l611 -1154v1154h148v-1515h-127l-720 1368v-1368h-148z" />
    <glyph glyph-name="nacute" unicode="&#x144;" horiz-adv-x="970" 
d="M476 1206l295 295l87 -87l-316 -273zM120 0v1055h132v-173q88 87 167 135.5t186 48.5t181 -70t74 -210v-786h-132v786q0 75 -53.5 121.5t-115.5 46.5q-148 0 -307 -173v-781h-132z" />
    <glyph glyph-name="Ncommaaccent" unicode="&#x145;" horiz-adv-x="1251" 
d="M540 -522l87 250h-65v150h150v-150q-27 -57 -76 -152t-52 -98h-44zM128 0v1515h236l611 -1154v1154h148v-1515h-127l-720 1368v-1368h-148z" />
    <glyph glyph-name="ncommaaccent" unicode="&#x146;" horiz-adv-x="970" 
d="M404 -522l87 250h-65v150h150v-150q-27 -57 -76 -152t-52 -98h-44zM120 0v1055h132v-173q88 87 167 135.5t186 48.5t181 -70t74 -210v-786h-132v786q0 75 -53.5 121.5t-115.5 46.5q-148 0 -307 -173v-781h-132z" />
    <glyph glyph-name="Ncaron" unicode="&#x147;" horiz-adv-x="1251" 
d="M404 1876l65 65l157 -157l156 156l66 -64l-222 -222zM128 0v1515h236l611 -1154v1154h148v-1515h-127l-720 1368v-1368h-148z" />
    <glyph glyph-name="ncaron" unicode="&#x148;" horiz-adv-x="970" 
d="M268 1410l65 65l157 -157l156 156l66 -64l-222 -222zM120 0v1055h132v-173q88 87 167 135.5t186 48.5t181 -70t74 -210v-786h-132v786q0 75 -53.5 121.5t-115.5 46.5q-148 0 -307 -173v-781h-132z" />
    <glyph glyph-name="napostrophe" unicode="&#x149;" horiz-adv-x="1127" 
d="M277 0v1055h132v-173q88 87 167 135.5t186 48.5t181 -70t74 -210v-786h-132v786q0 75 -53.5 121.5t-115.5 46.5q-148 0 -307 -173v-781h-132zM70 1046l87 250h-65v150h150v-150q-27 -57 -76 -152t-52 -98h-44z" />
    <glyph glyph-name="Eng" unicode="&#x14a;" horiz-adv-x="1195" 
d="M100 0v1515h236l611 -1154v1154h148v-1515q0 -164 -37 -228q-38 -63 -66 -77q-66 -33 -166 -33h-38l-8 112q97 0 140 35t43 181v19l-715 1359v-1368h-148z" />
    <glyph glyph-name="eng" unicode="&#x14b;" horiz-adv-x="1010" 
d="M160 0v1055h132v-173q88 87 167 135.5t186 48.5t181 -70t74 -210v-786q0 -168 -37.5 -229t-65.5 -75q-65 -33 -165 -33h-39l-8 112q97 0 140 33.5t43 191.5v786q0 75 -53.5 121.5t-115.5 46.5q-148 0 -307 -173v-781h-132z" />
    <glyph glyph-name="Omacron" unicode="&#x14c;" horiz-adv-x="1263" 
d="M378 1654v92h527v-92h-527zM228 739q0 -119 24 -231q22 -113 70 -204q48 -92 130 -144t180 -52q186 0 282 142q121 180 121 505t-121 507q-43 64 -113 105t-160 41t-161.5 -36t-118 -96.5t-77 -145.5t-43.5 -178.5t-13 -212.5zM80 753q0 115 19 224t62 211t106.5 177.5
t159.5 121t211.5 45.5t207.5 -46q168 -85 252.5 -289.5t84.5 -444.5q-1 -439 -227 -652q-123 -116 -315 -116q-111 0 -205 44.5t-158.5 119t-110 174t-66.5 208t-21 223.5z" />
    <glyph glyph-name="omacron" unicode="&#x14d;" horiz-adv-x="972" 
d="M224 1188v92h527v-92h-527zM207 528q1 -317 165 -402q50 -26 115 -26t115 26q162 84 163 401q0 427 -279 427t-279 -426zM75 534.5q0 241.5 108.5 386.5t303.5 145t302.5 -146t107.5 -390t-108.5 -393t-303.5 -149t-302.5 152.5t-107.5 394z" />
    <glyph glyph-name="Obreve" unicode="&#x14e;" horiz-adv-x="1263" 
d="M435 1789l69 40q18 -42 57 -69t80 -27t80 27t57 69l69 -40q-65 -135 -206 -135t-206 135zM228 739q0 -119 24 -231q22 -113 70 -204q48 -92 130 -144t180 -52q186 0 282 142q121 180 121 505t-121 507q-43 64 -113 105t-160 41t-161.5 -36t-118 -96.5t-77 -145.5
t-43.5 -178.5t-13 -212.5zM80 753q0 115 19 224t62 211t106.5 177.5t159.5 121t211.5 45.5t207.5 -46q168 -85 252.5 -289.5t84.5 -444.5q-1 -439 -227 -652q-123 -116 -315 -116q-111 0 -205 44.5t-158.5 119t-110 174t-66.5 208t-21 223.5z" />
    <glyph glyph-name="obreve" unicode="&#x14f;" horiz-adv-x="972" 
d="M281 1323l69 40q18 -42 57 -69t80 -27t80 27t57 69l69 -40q-65 -135 -206 -135t-206 135zM207 528q1 -317 165 -402q50 -26 115 -26t115 26q162 84 163 401q0 427 -279 427t-279 -426zM75 534.5q0 241.5 108.5 386.5t303.5 145t302.5 -146t107.5 -390t-108.5 -393
t-303.5 -149t-302.5 152.5t-107.5 394z" />
    <glyph glyph-name="Ohungarumlaut" unicode="&#x150;" horiz-adv-x="1263" 
d="M697 1601l87 250h-65v150h150v-150q-27 -57 -76 -152t-52 -98h-44zM432 1601l87 250h-65v150h150v-150q-27 -57 -76 -152t-52 -98h-44zM228 739q0 -119 24 -231q22 -113 70 -204q48 -92 130 -144t180 -52q186 0 282 142q121 180 121 505t-121 507q-43 64 -113 105
t-160 41t-161.5 -36t-118 -96.5t-77 -145.5t-43.5 -178.5t-13 -212.5zM80 753q0 115 19 224t62 211t106.5 177.5t159.5 121t211.5 45.5t207.5 -46q168 -85 252.5 -289.5t84.5 -444.5q-1 -439 -227 -652q-123 -116 -315 -116q-111 0 -205 44.5t-158.5 119t-110 174t-66.5 208
t-21 223.5z" />
    <glyph glyph-name="ohungarumlaut" unicode="&#x151;" horiz-adv-x="972" 
d="M541 1117l87 250h-65v150h150v-150q-27 -57 -76 -152t-52 -98h-44zM276 1117l87 250h-65v150h150v-150q-27 -57 -76 -152t-52 -98h-44zM207 528q1 -317 165 -402q50 -26 115 -26t115 26q162 84 163 401q0 427 -279 427t-279 -426zM75 534.5q0 241.5 108.5 386.5
t303.5 145t302.5 -146t107.5 -390t-108.5 -393t-303.5 -149t-302.5 152.5t-107.5 394z" />
    <glyph glyph-name="OE" unicode="&#x152;" horiz-adv-x="1718" 
d="M228 752q0 -514 291 -596q82 -23 209 -23h63v1258q-155 -1 -213 -10q-177 -29 -263.5 -176.5t-86.5 -452.5zM80 753.5q0 113.5 19 220t62 206t106.5 173.5t159.5 118t214 44h971v-124h-673v-533h483v-124h-483v-601h711v-133h-1009q-111 0 -205 43t-158.5 116t-110 170
t-66.5 204t-21 220.5z" />
    <glyph glyph-name="oe" unicode="&#x153;" horiz-adv-x="1615" 
d="M903 625h496q-2 107 -46 207q-24 54 -72.5 88t-114.5 34q-176 0 -233 -162q-28 -79 -30 -167zM207 528q1 -317 165 -402q50 -26 115 -26t115 26q162 84 163 401q0 427 -279 427t-279 -426zM75 534.5q0 241.5 108.5 386.5t303.5 145q117 0 205.5 -56t138.5 -158
q78 165 247 204q43 10 90 10t92 -12q44 -10 96 -46q174 -120 175 -495h-634q-1 -265 135 -363q67 -48 149 -49q154 0 262 191l91 -63q-39 -72 -102 -130q-120 -110 -251 -110q-236 0 -350 216q-52 -103 -139.5 -160t-195.5 -57q-206 0 -313.5 152.5t-107.5 394z" />
    <glyph glyph-name="Racute" unicode="&#x154;" horiz-adv-x="1093" 
d="M376 1672l295 295l87 -87l-316 -273zM283 816h376q105 0 183 70t78 224q0 206 -222 264q-66 17 -144 17h-271v-575zM135 0v1515h510q239 0 358 -186q65 -101 65 -223t-68 -240q-68 -116 -224 -150l286 -716h-162l-276 692h-341v-692h-148z" />
    <glyph glyph-name="racute" unicode="&#x155;" horiz-adv-x="639" 
d="M353 1206l295 295l87 -87l-316 -273zM120 0v1055h132v-284q47 104 72 143q98 152 254 152q12 0 36 -2v-112q-68 -9 -113 -25t-88 -53q-75 -63 -161 -247v-627h-132z" />
    <glyph glyph-name="Rcommaaccent" unicode="&#x156;" horiz-adv-x="1093" 
d="M512 -522l87 250h-65v150h150v-150q-27 -57 -76 -152t-52 -98h-44zM283 816h376q105 0 183 70t78 224q0 206 -222 264q-66 17 -144 17h-271v-575zM135 0v1515h510q239 0 358 -186q65 -101 65 -223t-68 -240q-68 -116 -224 -150l286 -716h-162l-276 692h-341v-692h-148z
" />
    <glyph glyph-name="rcommaaccent" unicode="&#x157;" horiz-adv-x="639" 
d="M100 -522l87 250h-65v150h150v-150q-27 -57 -76 -152t-52 -98h-44zM120 0v1055h132v-284q47 104 72 143q98 152 254 152q12 0 36 -2v-112q-68 -9 -113 -25t-88 -53q-75 -63 -161 -247v-627h-132z" />
    <glyph glyph-name="Rcaron" unicode="&#x158;" horiz-adv-x="1093" 
d="M336 1876l65 65l157 -157l156 156l66 -64l-222 -222zM283 816h376q105 0 183 70t78 224q0 206 -222 264q-66 17 -144 17h-271v-575zM135 0v1515h510q239 0 358 -186q65 -101 65 -223t-68 -240q-68 -116 -224 -150l286 -716h-162l-276 692h-341v-692h-148z" />
    <glyph glyph-name="rcaron" unicode="&#x159;" horiz-adv-x="639" 
d="M145 1410l65 65l157 -157l156 156l66 -64l-222 -222zM120 0v1055h132v-284q47 104 72 143q98 152 254 152q12 0 36 -2v-112q-68 -9 -113 -25t-88 -53q-75 -63 -161 -247v-627h-132z" />
    <glyph glyph-name="Sacute" unicode="&#x15a;" horiz-adv-x="1033" 
d="M433 1719l295 295l87 -87l-316 -273zM40 368l137 48q1 0 4.5 -17t13 -44t25.5 -60q33 -69 117 -128t224.5 -59t209.5 77t69 189.5t-43.5 177t-152.5 109.5q-31 13 -84 31l-95 33q-246 82 -332 210q-59 88 -59 218.5t112 252.5q52 56 134.5 91t173 35t160.5 -24
q114 -40 188 -144q34 -46 49 -84l45 -115l-130 -50q-2 5 -9.5 31.5t-13 43.5t-19.5 47q-23 52 -55.5 85.5t-79.5 59.5t-130 26q-123 0 -200 -72.5t-77 -198t68 -178.5q54 -43 122 -67l51 -20l147 -46q233 -72 319 -211q59 -95 59 -211t-62 -224q-112 -196 -372 -196
q-222 0 -374 151q-85 84 -132 212z" />
    <glyph glyph-name="sacute" unicode="&#x15b;" horiz-adv-x="878" 
d="M412 1206l295 295l87 -87l-316 -273zM80 200l99 64q53 -82 118 -122.5t161 -40.5t152 48.5t56 112.5q0 114 -76 158t-148 62t-114 32q-98 34 -166 100t-68 182.5t93.5 193t251.5 76.5t276 -123q22 -23 37 -45l-91 -68q-7 7 -28 29.5t-27 28.5l-26 21q-18 17 -30 21
l-34 12q-32 12 -108 12t-131 -43.5t-55 -95.5q0 -92 64.5 -133t141 -64t101 -31t66 -24.5t65.5 -31.5q75 -48 106.5 -103.5t31.5 -135.5q0 -133 -101 -218t-234 -85t-223.5 50.5t-159.5 160.5z" />
    <glyph glyph-name="Scircumflex" unicode="&#x15c;" horiz-adv-x="1033" 
d="M277 1719l222 222l222 -222l-66 -64l-156 156l-157 -157zM40 368l137 48q1 0 4.5 -17t13 -44t25.5 -60q33 -69 117 -128t224.5 -59t209.5 77t69 189.5t-43.5 177t-152.5 109.5q-31 13 -84 31l-95 33q-246 82 -332 210q-59 88 -59 218.5t112 252.5q52 56 134.5 91t173 35
t160.5 -24q114 -40 188 -144q34 -46 49 -84l45 -115l-130 -50q-2 5 -9.5 31.5t-13 43.5t-19.5 47q-23 52 -55.5 85.5t-79.5 59.5t-130 26q-123 0 -200 -72.5t-77 -198t68 -178.5q54 -43 122 -67l51 -20l147 -46q233 -72 319 -211q59 -95 59 -211t-62 -224
q-112 -196 -372 -196q-222 0 -374 151q-85 84 -132 212z" />
    <glyph glyph-name="scircumflex" unicode="&#x15d;" horiz-adv-x="878" 
d="M204 1253l222 222l222 -222l-66 -64l-156 156l-157 -157zM80 200l99 64q53 -82 118 -122.5t161 -40.5t152 48.5t56 112.5q0 114 -76 158t-148 62t-114 32q-98 34 -166 100t-68 182.5t93.5 193t251.5 76.5t276 -123q22 -23 37 -45l-91 -68q-7 7 -28 29.5t-27 28.5l-26 21
q-18 17 -30 21l-34 12q-32 12 -108 12t-131 -43.5t-55 -95.5q0 -92 64.5 -133t141 -64t101 -31t66 -24.5t65.5 -31.5q75 -48 106.5 -103.5t31.5 -135.5q0 -133 -101 -218t-234 -85t-223.5 50.5t-159.5 160.5z" />
    <glyph glyph-name="Scedilla" unicode="&#x15e;" horiz-adv-x="1033" 
d="M445 -233q153 0 153 44q0 87 -79 183h90q8 -14 12 -18q13 -16 20 -31l11 -21q25 -50 25 -113q0 -120 -214 -120h-18v76zM40 368l137 48q1 0 4.5 -17t13 -44t25.5 -60q33 -69 117 -128t224.5 -59t209.5 77t69 189.5t-43.5 177t-152.5 109.5q-31 13 -84 31l-95 33
q-246 82 -332 210q-59 88 -59 218.5t112 252.5q52 56 134.5 91t173 35t160.5 -24q114 -40 188 -144q34 -46 49 -84l45 -115l-130 -50q-2 5 -9.5 31.5t-13 43.5t-19.5 47q-23 52 -55.5 85.5t-79.5 59.5t-130 26q-123 0 -200 -72.5t-77 -198t68 -178.5q54 -43 122 -67l51 -20
l147 -46q233 -72 319 -211q59 -95 59 -211t-62 -224q-112 -196 -372 -196q-222 0 -374 151q-85 84 -132 212z" />
    <glyph glyph-name="scedilla" unicode="&#x15f;" horiz-adv-x="878" 
d="M339 -228q153 0 153 44q0 87 -79 183h90q8 -14 12 -18q13 -16 20 -31l11 -21q25 -50 25 -113q0 -120 -214 -120h-18v76zM80 200l99 64q53 -82 118 -122.5t161 -40.5t152 48.5t56 112.5q0 114 -76 158t-148 62t-114 32q-98 34 -166 100t-68 182.5t93.5 193t251.5 76.5
t276 -123q22 -23 37 -45l-91 -68q-7 7 -28 29.5t-27 28.5l-26 21q-18 17 -30 21l-34 12q-32 12 -108 12t-131 -43.5t-55 -95.5q0 -92 64.5 -133t141 -64t101 -31t66 -24.5t65.5 -31.5q75 -48 106.5 -103.5t31.5 -135.5q0 -133 -101 -218t-234 -85t-223.5 50.5t-159.5 160.5z
" />
    <glyph glyph-name="Scaron" unicode="&#x160;" horiz-adv-x="1033" 
d="M277 1876l65 65l157 -157l156 156l66 -64l-222 -222zM40 368l137 48q1 0 4.5 -17t13 -44t25.5 -60q33 -69 117 -128t224.5 -59t209.5 77t69 189.5t-43.5 177t-152.5 109.5q-31 13 -84 31l-95 33q-246 82 -332 210q-59 88 -59 218.5t112 252.5q52 56 134.5 91t173 35
t160.5 -24q114 -40 188 -144q34 -46 49 -84l45 -115l-130 -50q-2 5 -9.5 31.5t-13 43.5t-19.5 47q-23 52 -55.5 85.5t-79.5 59.5t-130 26q-123 0 -200 -72.5t-77 -198t68 -178.5q54 -43 122 -67l51 -20l147 -46q233 -72 319 -211q59 -95 59 -211t-62 -224
q-112 -196 -372 -196q-222 0 -374 151q-85 84 -132 212z" />
    <glyph glyph-name="scaron" unicode="&#x161;" horiz-adv-x="878" 
d="M204 1410l65 65l157 -157l156 156l66 -64l-222 -222zM80 200l99 64q53 -82 118 -122.5t161 -40.5t152 48.5t56 112.5q0 114 -76 158t-148 62t-114 32q-98 34 -166 100t-68 182.5t93.5 193t251.5 76.5t276 -123q22 -23 37 -45l-91 -68q-7 7 -28 29.5t-27 28.5l-26 21
q-18 17 -30 21l-34 12q-32 12 -108 12t-131 -43.5t-55 -95.5q0 -92 64.5 -133t141 -64t101 -31t66 -24.5t65.5 -31.5q75 -48 106.5 -103.5t31.5 -135.5q0 -133 -101 -218t-234 -85t-223.5 50.5t-159.5 160.5z" />
    <glyph glyph-name="Tcommaaccent" unicode="&#x162;" 
d="M412 -217q153 0 153 44q0 87 -79 183h90q8 -14 12 -18q13 -16 20 -31l11 -21q25 -50 25 -113q0 -120 -214 -120h-18v76zM25 1391v124h1012v-124h-432v-1391h-148v1391h-432z" />
    <glyph glyph-name="tcommaaccent" unicode="&#x163;" horiz-adv-x="606" 
d="M312 -230q153 0 153 44q0 87 -79 183h90q8 -14 12 -18q13 -16 20 -31l11 -21q25 -50 25 -113q0 -120 -214 -120h-18v76zM36 943v112h178v385h132v-385h242v-112h-242v-669q0 -101 31 -138t102 -37q29 0 69 5t40 6v-99q-66 -24 -128.5 -24t-85.5 3q-22 4 -56 20
q-104 51 -104 264v669h-178z" />
    <glyph glyph-name="Tcaron" unicode="&#x164;" 
d="M309 1876l65 65l157 -157l156 156l66 -64l-222 -222zM25 1391v124h1012v-124h-432v-1391h-148v1391h-432z" />
    <glyph glyph-name="tcaron" unicode="&#x165;" horiz-adv-x="606" 
d="M603 1115l87 250h-65v150h150v-150q-27 -57 -76 -152t-52 -98h-44zM36 943v112h178v385h132v-385h242v-112h-242v-669q0 -101 31 -138t102 -37q29 0 69 5t40 6v-99q-66 -24 -128.5 -24t-85.5 3q-22 4 -56 20q-104 51 -104 264v669h-178z" />
    <glyph glyph-name="Tbar" unicode="&#x166;" 
d="M25 1391v124h1012v-124h-432v-506h221v-112h-221v-773h-148v773h-224v112h224v506h-432z" />
    <glyph glyph-name="tbar" unicode="&#x167;" horiz-adv-x="606" 
d="M47 591.838v111.996h524v-111.996h-524zM36 943v112h178v385h132v-385h242v-112h-242v-669q0 -101 31 -138t102 -37q29 0 69 5t40 6v-99q-66 -24 -128.5 -24t-85.5 3q-22 4 -56 20q-104 51 -104 264v669h-178z" />
    <glyph glyph-name="Utilde" unicode="&#x168;" horiz-adv-x="1213" 
d="M306 1721q61 130 175 130q82 0 140 -56.5t121 -56.5t100 86l69 -40q-62 -130 -175 -130q-80 0 -139.5 56.5t-122 56.5t-99.5 -86zM135 455v1060h148v-1060q0 -135 66 -229q83 -118 260 -118q87 0 151 28t96 66q79 96 81 253l-6 1060h154v-1060q-1 -163 -89 -293
q-121 -178 -387 -178q-319 0 -429 254q-45 104 -45 217z" />
    <glyph glyph-name="utilde" unicode="&#x169;" horiz-adv-x="979" 
d="M196 1255q61 130 175 130q82 0 140 -56.5t121 -56.5t100 86l69 -40q-62 -130 -175 -130q-80 0 -139.5 56.5t-122 56.5t-99.5 -86zM129 269v786h132v-786q0 -75 53.5 -121.5t115.5 -46.5q148 0 307 173v781h132v-1055h-132v174q-140 -138 -243 -170q-49 -15 -102 -15
q-115 0 -189 70t-74 210z" />
    <glyph glyph-name="Umacron" unicode="&#x16a;" horiz-adv-x="1213" 
d="M345 1654v92h527v-92h-527zM135 455v1060h148v-1060q0 -135 66 -229q83 -118 260 -118q87 0 151 28t96 66q79 96 81 253l-6 1060h154v-1060q-1 -163 -89 -293q-121 -178 -387 -178q-319 0 -429 254q-45 104 -45 217z" />
    <glyph glyph-name="umacron" unicode="&#x16b;" horiz-adv-x="979" 
d="M236 1188v92h527v-92h-527zM129 269v786h132v-786q0 -75 53.5 -121.5t115.5 -46.5q148 0 307 173v781h132v-1055h-132v174q-140 -138 -243 -170q-49 -15 -102 -15q-115 0 -189 70t-74 210z" />
    <glyph glyph-name="Ubreve" unicode="&#x16c;" horiz-adv-x="1213" 
d="M403 1789l69 40q18 -42 57 -69t80 -27t80 27t57 69l69 -40q-65 -135 -206 -135t-206 135zM135 455v1060h148v-1060q0 -135 66 -229q83 -118 260 -118q87 0 151 28t96 66q79 96 81 253l-6 1060h154v-1060q-1 -163 -89 -293q-121 -178 -387 -178q-319 0 -429 254
q-45 104 -45 217z" />
    <glyph glyph-name="ubreve" unicode="&#x16d;" horiz-adv-x="979" 
d="M293 1323l69 40q18 -42 57 -69t80 -27t80 27t57 69l69 -40q-65 -135 -206 -135t-206 135zM129 269v786h132v-786q0 -75 53.5 -121.5t115.5 -46.5q148 0 307 173v781h132v-1055h-132v174q-140 -138 -243 -170q-49 -15 -102 -15q-115 0 -189 70t-74 210z" />
    <glyph glyph-name="Uring" unicode="&#x16e;" horiz-adv-x="1213" 
d="M450 1916q0 -65 46.5 -111.5t111.5 -46.5t111.5 46.5t46.5 111.5t-46.5 111.5t-111.5 46.5t-111.5 -46.5t-46.5 -111.5zM354 1916q0 106 74.5 180.5t180.5 74.5t180.5 -74.5t74.5 -180.5t-74.5 -180.5t-180.5 -74.5t-180.5 74.5t-74.5 180.5zM135 455v1060h148v-1060
q0 -135 66 -229q83 -118 260 -118q87 0 151 28t96 66q79 96 81 253l-6 1060h154v-1060q-1 -163 -89 -293q-121 -178 -387 -178q-319 0 -429 254q-45 104 -45 217z" />
    <glyph glyph-name="uring" unicode="&#x16f;" horiz-adv-x="979" 
d="M340 1375q0 -65 46.5 -111.5t111.5 -46.5t111.5 46.5t46.5 111.5t-46.5 111.5t-111.5 46.5t-111.5 -46.5t-46.5 -111.5zM244 1375q0 106 74.5 180.5t180.5 74.5t180.5 -74.5t74.5 -180.5t-74.5 -180.5t-180.5 -74.5t-180.5 74.5t-74.5 180.5zM129 269v786h132v-786
q0 -75 53.5 -121.5t115.5 -46.5q148 0 307 173v781h132v-1055h-132v174q-140 -138 -243 -170q-49 -15 -102 -15q-115 0 -189 70t-74 210z" />
    <glyph glyph-name="Uhungarumlaut" unicode="&#x170;" horiz-adv-x="1213" 
d="M670 1531l87 250h-65v150h150v-150q-27 -57 -76 -152t-52 -98h-44zM405 1531l87 250h-65v150h150v-150q-27 -57 -76 -152t-52 -98h-44zM135 455v1060h148v-1060q0 -135 66 -229q83 -118 260 -118q87 0 151 28t96 66q79 96 81 253l-6 1060h154v-1060q-1 -163 -89 -293
q-121 -178 -387 -178q-319 0 -429 254q-45 104 -45 217z" />
    <glyph glyph-name="uhungarumlaut" unicode="&#x171;" horiz-adv-x="979" 
d="M585 1115l87 250h-65v150h150v-150q-27 -57 -76 -152t-52 -98h-44zM320 1115l87 250h-65v150h150v-150q-27 -57 -76 -152t-52 -98h-44zM129 269v786h132v-786q0 -75 53.5 -121.5t115.5 -46.5q148 0 307 173v781h132v-1055h-132v174q-140 -138 -243 -170q-49 -15 -102 -15
q-115 0 -189 70t-74 210z" />
    <glyph glyph-name="Uogonek" unicode="&#x172;" horiz-adv-x="1213" 
d="M496 -189q0 63 16 94l20 40q8 16 16 26l16 23h90q-79 -96 -79 -183q0 -44 153 -44v-76h-18q-214 0 -214 120zM135 455v1060h148v-1060q0 -135 66 -229q83 -118 260 -118q87 0 151 28t96 66q79 96 81 253l-6 1060h154v-1060q-1 -163 -89 -293q-121 -178 -387 -178
q-319 0 -429 254q-45 104 -45 217z" />
    <glyph glyph-name="uogonek" unicode="&#x173;" horiz-adv-x="979" 
d="M690 -184q0 63 16 94l20 40q8 16 16 26l16 23h90q-79 -96 -79 -183q0 -44 153 -44v-76h-18q-214 0 -214 120zM129 269v786h132v-786q0 -75 53.5 -121.5t115.5 -46.5q148 0 307 173v781h132v-1055h-132v174q-140 -138 -243 -170q-49 -15 -102 -15q-115 0 -189 70t-74 210z
" />
    <glyph glyph-name="Wcircumflex" unicode="&#x174;" horiz-adv-x="1614" 
d="M585 1719l222 222l222 -222l-66 -64l-156 156l-157 -157zM25 1515h154l259 -1198h10l274 1198h170l274 -1198h10l259 1198h154l-351 -1515h-152l-274 1198h-10l-274 -1198h-152z" />
    <glyph glyph-name="wcircumflex" unicode="&#x175;" horiz-adv-x="1316" 
d="M436 1253l222 222l222 -222l-66 -64l-156 156l-157 -157zM25 1055h123l232 -795l208 795h120l226 -800l222 800h135l-301 -1055h-118l-224 809l-201 -809h-135z" />
    <glyph glyph-name="Ycircumflex" unicode="&#x176;" horiz-adv-x="1122" 
d="M339 1719l222 222l222 -222l-66 -64l-156 156l-157 -157zM25 1515h154l382 -713l382 713h154l-462 -855v-660h-148v660z" />
    <glyph glyph-name="ycircumflex" unicode="&#x177;" horiz-adv-x="905" 
d="M230 1253l222 222l222 -222l-66 -64l-156 156l-157 -157zM25 1055h142l299 -859l280 859h134l-368 -1119q-56 -171 -116 -234.5t-121.5 -79t-124.5 -15.5t-123 8l10 121q36 -17 96 -17t99 15.5t64 39.5q87 86 108 223z" />
    <glyph glyph-name="Ydieresis" unicode="&#x178;" horiz-adv-x="1122" 
d="M645 1654v150h150v-150h-150zM326 1654v150h150v-150h-150zM25 1515h154l382 -713l382 713h154l-462 -855v-660h-148v660z" />
    <glyph glyph-name="Zacute" unicode="&#x179;" horiz-adv-x="1142" 
d="M532 1672l295 295l87 -87l-316 -273zM68 0v107l825 1280h-771v132l952 -4v-123l-794 -1250h788v-142h-1000z" />
    <glyph glyph-name="zacute" unicode="&#x17a;" horiz-adv-x="779" 
d="M402 1206l295 295l87 -87l-316 -273zM25 0v85l560 858h-507v112h676v-74l-568 -861h568v-120h-729z" />
    <glyph glyph-name="Zdotaccent" unicode="&#x17b;" horiz-adv-x="1142" 
d="M521 1654v150h150v-150h-150zM68 0v107l825 1280h-771v132l952 -4v-123l-794 -1250h788v-142h-1000z" />
    <glyph glyph-name="zdotaccent" unicode="&#x17c;" horiz-adv-x="779" 
d="M341 1188v150h150v-150h-150zM25 0v85l560 858h-507v112h676v-74l-568 -861h568v-120h-729z" />
    <glyph glyph-name="Zcaron" unicode="&#x17d;" horiz-adv-x="1142" 
d="M376 1876l65 65l157 -157l156 156l66 -64l-222 -222zM68 0v107l825 1280h-771v132l952 -4v-123l-794 -1250h788v-142h-1000z" />
    <glyph glyph-name="zcaron" unicode="&#x17e;" horiz-adv-x="779" 
d="M194 1410l65 65l157 -157l156 156l66 -64l-222 -222zM25 0v85l560 858h-507v112h676v-74l-568 -861h568v-120h-729z" />
    <glyph glyph-name="longs" unicode="&#x17f;" horiz-adv-x="617" 
d="M13 943v112h173q12 281 120 375t298 95v-120q-134 -1 -199 -77q-81 -95 -81 -449v-879h-139v943h-172z" />
    <glyph glyph-name="uni0180" unicode="&#x180;" horiz-adv-x="994" 
d="M22 1178v92h524v-92h-524zM252 278q101 -138 178 -164q40 -13 98 -13q60 -1 112 31q146 88 147 378q0 444 -298 444q-131 0 -237 -151v-525zM94 0q26 55 26 146v1369h132v-598q19 41 99 95t172 54q180 0 288 -154.5t108 -401.5q-1 -145 -57 -276q-103 -240 -326 -245
q-146 3 -250 129q-20 25 -34 48q0 -154 -25 -166h-133z" />
    <glyph glyph-name="uni0181" unicode="&#x181;" horiz-adv-x="1132" 
d="M283 850l325 3q140 1 212 71q30 30 52.5 88.5t22.5 139.5q0 117 -73.5 178t-213.5 61h-325v-541zM283 124h325q162 0 238 68q32 28 55 84.5t23 133.5q0 142 -87 229t-229 87h-325v-602zM-58 1350q0 92 48.5 128.5t144.5 36.5h473q183 0 302 -104.5t119 -258.5
q0 -254 -178 -326q-31 -12 -77 -26q164 -42 246 -197q44 -85 44 -193q0 -187 -117 -298.5t-339 -111.5h-473v1419q-59 0 -75 -13.5t-16 -60t6 -68.5l-102 13q-6 26 -6 60z" />
    <glyph glyph-name="uni0182" unicode="&#x182;" horiz-adv-x="1132" 
d="M283 124h325q162 0 238 68q32 28 55 84.5t23 133.5q0 142 -87 229t-229 87h-325v-602zM135 0v1515h906v-124h-758v-541l325 3h7q185 0 317 -107t132 -336q0 -187 -117 -298.5t-339 -111.5h-473z" />
    <glyph glyph-name="uni0183" unicode="&#x183;" horiz-adv-x="994" 
d="M252 1423v92h524v-92h-524zM252 278q101 -138 178 -164q40 -13 98 -13q60 -1 112 31q146 88 147 378q0 444 -298 444q-131 0 -237 -151v-525zM94 0q26 55 26 146v1369h132v-598q19 41 99 95t172 54q180 0 288 -154.5t108 -401.5q-1 -145 -57 -276q-103 -240 -326 -245
q-146 3 -250 129q-20 25 -34 48q0 -154 -25 -166h-133z" />
    <glyph glyph-name="uni0184" unicode="&#x184;" horiz-adv-x="1163" 
d="M256 531q-15 -56 17 -152t64.5 -140t92.5 -84.5t135 -40.5q132 0 231.5 85.5t107.5 278.5q0 156 -87.5 247t-228 91t-232.5 -93q-67 -68 -100 -192zM110 678v837h130v-771q1 1 12.5 18t20 28t27.5 31q18 21 36 35q51 41 111.5 62.5t139.5 21.5q203 0 329 -126.5
t126 -335.5q-4 -143 -78.5 -273.5t-211.5 -185.5q-76 -30 -166 -30q-223 0 -349.5 181t-126.5 508z" />
    <glyph glyph-name="uni0185" unicode="&#x185;" horiz-adv-x="1163" 
d="M256 447q-14 -52 16 -124t63 -107t94 -68.5t132.5 -33.5t109.5 6q222 32 233 297q0 154 -86 234.5t-228 80.5q-258 0 -334 -285zM110 594v921h130v-855q12 43 51 81t77 61q89 54 219 54q205 0 330 -116t125 -323q-7 -219 -163 -341q-111 -87 -293 -87q-232 0 -354 144
t-122 461z" />
    <glyph glyph-name="uni0186" unicode="&#x186;" horiz-adv-x="1174" 
d="M254 470q51 -362 314 -362q390 0 390 649q0 278 -82 454q-44 93 -122 145t-171 52q-226 0 -313 -186q-41 -88 -44 -169l-146 23q4 11 18.5 54t24.5 70t32.5 73.5t44.5 77.5q131 181 347 181q189 0 305 -90q254 -196 254 -702q0 -226 -76 -414q-86 -214 -256 -296
q-92 -46 -188 -46t-163.5 24.5t-113.5 63.5q-99 84 -143.5 182t-57.5 150l-6 24v1z" />
    <glyph glyph-name="uni0187" unicode="&#x187;" horiz-adv-x="1174" 
d="M1042.02 1508.97q-71.0098 -41 -79.3701 -140.515q-6.04004 -63.5332 -2.39551 -101.845l67.2002 -22.3994q-18.7021 132.388 44.5137 168.888q23.3809 13.5 71.8057 1.62207t68.4512 -24.5645l14.0557 101.648q-33.8193 18.5791 -89.9893 28.8721t-94.2715 -11.707z
M932 1046q-51 362 -314 362q-390 0 -390 -649q0 -278 82 -454q44 -93 122 -145t171 -52q226 0 313 186q41 88 44 169l146 -23q-4 -11 -18.5 -54t-24.5 -70t-32.5 -73.5t-44.5 -77.5q-131 -181 -347 -181q-189 0 -305 90q-254 196 -254 702q0 226 76 414q86 214 256 296
q92 46 188 46t163.5 -24.5t113.5 -63.5q99 -84 143.5 -182t57.5 -150l6 -24v-1z" />
    <glyph glyph-name="uni0188" unicode="&#x188;" horiz-adv-x="926" 
d="M830.021 1106.97q-71.0098 -41 -79.3701 -140.515q-6.04004 -63.5332 -2.39551 -101.845l67.2002 -22.3994q-18.7021 132.388 44.5137 168.888q23.3809 13.5 71.8057 1.62207t68.4512 -24.5645l14.0557 101.648q-33.8193 18.5791 -89.9893 28.8721t-94.2715 -11.707z
M75 520q0 546 425 546q104 0 176 -50q108 -76 150 -203l-106 -48q-2 20 -21.5 59t-41.5 64t-63.5 45.5t-93.5 20.5q-293 0 -293 -425q0 -206 77.5 -317t215.5 -111h3q92 0 150 67t79 118l9 22l104 -50q0 -21 -38.5 -78.5t-76 -96t-99 -66.5t-131.5 -28q-218 0 -321.5 139.5
t-103.5 391.5z" />
    <glyph glyph-name="uni018A" unicode="&#x18a;" horiz-adv-x="1214" 
d="M237.979 1420.52q-123.044 52.3223 -174.667 0.700195q-19.0928 -19.0938 -20.1533 -68.2383q-1.06055 -49.1455 6.01074 -73.1875l-101.83 12.7236q-17.6787 74.2471 6.36426 139.304q10.6074 28.9922 30.4072 48.793q19.8008 19.7998 53.0371 28.9941
q56.5723 15.5596 112.791 3.89453q56.2188 -11.666 83.7979 -22.2715zM283 124h213q328 0 444 279q58 140 58 342q0 359 -138 512q-54 59 -146.5 96.5t-217.5 37.5h-213v-1267zM135 0v1515h361q502 0 614 -446q36 -144 36 -294t-21 -255q-46 -233 -199 -376.5t-430 -143.5
h-361z" />
    <glyph glyph-name="uni018B" unicode="&#x18b;" horiz-adv-x="1214" 
d="M785 931q-214 0 -324 -57.5t-144 -145t-34 -171t4.5 -125.5t18.5 -86q14 -43 36 -75q103 -147 443 -147h213v807h-213zM135 517q0 115 16 192q36 174 182.5 259.5t451.5 86.5h213v334h-758v126h906v-1515h-361q-354 0 -502 138t-148 379z" />
    <glyph glyph-name="uni018C" unicode="&#x18c;" horiz-adv-x="984" 
d="M218 1423v92h524v-92h-524zM207 510q1 -178 65 -294t207 -115q95 0 150 49t113 128v525q-106 151 -237 151q-298 0 -298 -444zM75 510q0 147 47.5 273t139.5 204.5t196.5 78.5t184.5 -54t99 -95v598h132v-1369q0 -30 8.5 -78.5t17.5 -67.5h-133q-25 12 -25 166
q-102 -177 -284 -177q-91 0 -166 45.5t-121 120.5q-96 157 -96 355z" />
    <glyph glyph-name="uni018D" unicode="&#x18d;" horiz-adv-x="1022" 
d="M864 992q0 195 -120 321q-86 90 -217 90q-81 0 -146 -36.5t-104 -97.5q-80 -125 -80 -297.5t87 -286.5t242.5 -114t246.5 113t91 308zM996 981q0 -236 -130 -379t-339 -143h-5l401 -346v-124h-777v124h603l-514 445q-44 39 -87 119q-83 157 -83 311q0 206 132 366
q62 73 148 117t182 44q201 0 335 -149t134 -385z" />
    <glyph glyph-name="uni018E" unicode="&#x18e;" 
d="M135 0v133h711v601h-483v124h483v533h-673v124h821v-1515h-859z" />
    <glyph glyph-name="uni018F" unicode="&#x18f;" horiz-adv-x="1299" 
d="M1002.33 620.963h-707.127q2.85059 -152.545 65.5801 -295.111q34.2158 -76.9854 103.36 -125.458t163.238 -48.4727q250.916 0 332.178 230.957q39.9189 112.627 42.7705 238.085zM1199.08 799.17q0 -141.14 -19.959 -257.331t-52.749 -197.454
q-91.2422 -226.68 -285.132 -309.367q-101.222 -42.7705 -192.464 -42.7705t-155.397 17.1084q-62.7285 14.2559 -136.863 65.5801q-248.064 171.079 -249.49 705.701h903.868q1.42578 377.8 -192.464 517.515q-95.5195 68.4316 -212.424 69.8574
q-219.551 0 -373.522 -272.302l-129.734 89.8174q55.6006 102.647 145.417 185.335q171.079 156.823 337.881 156.823t283.706 -61.3037t186.762 -165.377q69.8574 -104.072 106.212 -232.382q36.3535 -128.31 36.3535 -269.45z" />
    <glyph glyph-name="uni0190" unicode="&#x190;" horiz-adv-x="1171" 
d="M204 99q-134 110 -134 329.5t237 363.5q-131 86 -173 244q-14 54 -14.5 134t59 167.5t157.5 138.5t229.5 51t246.5 -58.5t188 -142.5l-96 -93q-47 61 -143 106t-208 45t-202.5 -64.5t-90.5 -182.5t69.5 -196.5t202.5 -78.5h213v-141h-213q-144 0 -232 -84.5t-88 -229.5
q0 -90 50 -154q95 -121 298 -121q91 0 164 28.5t106.5 57t69.5 64.5l40 42l101 -87q-195 -248 -481 -248q-222 0 -356 110z" />
    <glyph glyph-name="uni0191" unicode="&#x191;" horiz-adv-x="1024" 
d="M-41 -155l5 102q41 -20 69 -20h30q72 0 72 73v1515h821v-124h-673v-533h483v-124h-483v-734q0 -92 -50.5 -134t-170.5 -42q-56 0 -103 21z" />
    <glyph glyph-name="florin" unicode="&#x192;" horiz-adv-x="570" 
d="M493 1524q-307 0 -307 -246v-223h-173v-112h173v-943q0 -87 -70 -105q-35 -9 -80 -9h-89v-111q9 -9 82 -9q289 0 289 234v943h239v112h-239v223q0 80 46.5 103t103.5 23h89v111q-9 9 -64 9z" />
    <glyph glyph-name="uni0193" unicode="&#x193;" horiz-adv-x="1246" 
d="M1022 1265q124 50 124 123q0 27 -34 62.5t-56 47.5l81 63q65 -40 94 -103q13 -28 13 -56t-17 -58q-29 -51 -77 -82.5t-75 -43.5zM639 108q334 0 334 467v16h-337v124h482v-715h-120v192q-113 -156 -239 -192q-56 -16 -148 -16t-187.5 46t-158.5 122t-105.5 178.5
t-61 211.5t-18.5 214.5t14 196.5q30 201 116 335q151 244 426 244q141 0 265 -85q145 -99 211 -348l-145 -36q-1 7 -3 19q0 13 -10 49q-34 130 -116 203.5t-198 73.5t-198 -54t-127 -148q-87 -181 -87 -463.5t80 -434.5q105 -200 331 -200z" />
    <glyph glyph-name="uni0194" unicode="&#x194;" horiz-adv-x="901" 
d="M20 1479.5q0 29.5 5 34.5h138q-6 -6 -6 -38.5t34 -170t104 -305.5l155 -334l156 334q113 269 138 451q3 22 3 41q0 20 -9 22h138q5 -5 5 -35.5t-32.5 -169.5t-98.5 -309l-197 -450q73 -48 128.5 -130t55.5 -159q0 -117 -83 -194.5t-203 -77.5t-203 77.5t-83 194.5
q0 77 55.5 159t128.5 130l-196 450q-66 170 -99.5 310t-33.5 169.5zM282 267.5q0 -73.5 47 -117t121 -43.5t121 43.5t47 117t-48.5 133t-119.5 59.5t-119.5 -59.5t-48.5 -133z" />
    <glyph glyph-name="uni0195" unicode="&#x195;" horiz-adv-x="1587" 
d="M1347 355q0 237 -77 700h131q78 -453 77 -719q0 -169 -111 -258t-260 -89q-215 0 -288 108q-51 76 -62.5 170.5t-11.5 243.5v106q0 192 -46.5 264.5t-130.5 72.5q-148 0 -307 -173v-781h-132v1515h132v-633q147 142 243 170q48 14 99.5 14t91.5 -13t67.5 -34.5
t47.5 -55.5q63 -107 63 -356v-112q-1 -159 11 -205q23 -92 46.5 -117t58.5 -48.5t92.5 -23.5t89.5 8q72 18 124 74t52 172z" />
    <glyph glyph-name="uni0196" unicode="&#x196;" horiz-adv-x="418" 
d="M135 0v1515h148v-1515h-148z" />
    <glyph glyph-name="uni0197" unicode="&#x197;" horiz-adv-x="418" 
d="M-55 784v92h524v-92h-524zM135 0v1515h148v-1515h-148z" />
    <glyph glyph-name="uni0198" unicode="&#x198;" horiz-adv-x="1174" 
d="M1110 1642q-82 0 -139 -82q-37 -52 -53 -87l47 -53q50 124 123 124q27 0 63 -34.5t47 -55.5l63 81q-20 33 -63.5 70t-87.5 37zM135 0v1515h149v-824l617 824h159l-434 -569l489 -946h-166l-417 822l-248 -327v-495h-149z" />
    <glyph glyph-name="uni0199" unicode="&#x199;" horiz-adv-x="911" 
d="M237.252 1663.2q-67.166 -47.0303 -66.8232 -146.894q-0.481445 -63.8174 6.4873 -101.664l68.8945 -16.458q-30.165 130.252 29.6289 172.121q22.1152 15.4854 71.3896 7.87305q49.2754 -7.61328 70.3291 -18.5068l5.14551 102.485q-35.3086 15.5605 -92.1602 20.9199
t-92.8916 -19.877zM130 0v1515h141v-971l395 511h158l-276 -359l338 -696h-146l-282 582l-187 -232v-350h-141z" />
    <glyph glyph-name="uni019A" unicode="&#x19a;" horiz-adv-x="392" 
d="M-66 694v92h524v-92h-524zM129 -2v1517h132v-1517h-132z" />
    <glyph glyph-name="uni019B" unicode="&#x19b;" horiz-adv-x="905" 
d="M25 0l376 1050l-68 208l-149 -86l-46 79l165 95l-55 169h135l34 -103l175 101l46 -79l-192 -111l434 -1323h-134l-280 859l-299 -859h-142z" />
    <glyph glyph-name="uni019C" unicode="&#x19c;" horiz-adv-x="1577" 
d="M120 269v1246h132v-1246q0 -75 53.5 -121.5t115.5 -46.5q147 0 306 173v1241h132v-1246q0 -75 53.5 -121.5t115.5 -46.5q148 0 307 173v1241h132v-1515h-132v174q-138 -138 -243 -170q-49 -15 -123 -15t-142.5 48t-90.5 145q-144 -146 -248 -178q-47 -15 -74 -15h-31
q-115 0 -189 70t-74 210z" />
    <glyph glyph-name="uni019D" unicode="&#x19d;" horiz-adv-x="1251" 
d="M165.555 -164.884q62.8164 52.7119 53.7695 152.163q-5.08203 63.6162 -15.3242 100.711l-70.0742 10.3848q41.4072 -127.123 -14.5146 -174.05q-20.6836 -17.3564 -70.4385 -14.0713t-71.6807 12.3008l3.80664 -102.544q36.5342 -12.4209 93.6426 -12.7998
q57.1074 -0.378906 90.8135 27.9053zM128 0v1515h236l611 -1154v1154h148v-1515h-127l-720 1368v-1368h-148z" />
    <glyph glyph-name="uni019E" unicode="&#x19e;" horiz-adv-x="970" 
d="M120 0v1055h132v-173q88 87 167 135.5t186 48.5t181 -70t74 -210v-1196h-132v1196q0 75 -53.5 121.5t-115.5 46.5q-148 0 -307 -173v-781h-132z" />
    <glyph glyph-name="uni019F" unicode="&#x19f;" horiz-adv-x="1263" 
d="M173 702v92h928v-92h-928zM228 739q0 -119 24 -231q22 -113 70 -204q48 -92 130 -144t180 -52q186 0 282 142q121 180 121 505t-121 507q-43 64 -113 105t-160 41t-161.5 -36t-118 -96.5t-77 -145.5t-43.5 -178.5t-13 -212.5zM80 753q0 115 19 224t62 211t106.5 177.5
t159.5 121t211.5 45.5t207.5 -46q168 -85 252.5 -289.5t84.5 -444.5q-1 -439 -227 -652q-123 -116 -315 -116q-111 0 -205 44.5t-158.5 119t-110 174t-66.5 208t-21 223.5z" />
    <glyph glyph-name="Ohorn" unicode="&#x1a0;" horiz-adv-x="1263" 
d="M1028 1283q124 50 124 123q0 27 -34 62.5t-56 47.5l81 63q65 -40 94 -103q13 -28 13 -56t-17 -58q-29 -51 -77 -82.5t-75 -43.5zM228 739q0 -119 24 -231q22 -113 70 -204q48 -92 130 -144t180 -52q186 0 282 142q121 180 121 505t-121 507q-43 64 -113 105t-160 41
t-161.5 -36t-118 -96.5t-77 -145.5t-43.5 -178.5t-13 -212.5zM80 753q0 115 19 224t62 211t106.5 177.5t159.5 121t211.5 45.5t207.5 -46q168 -85 252.5 -289.5t84.5 -444.5q-1 -439 -227 -652q-123 -116 -315 -116q-111 0 -205 44.5t-158.5 119t-110 174t-66.5 208
t-21 223.5z" />
    <glyph glyph-name="ohorn" unicode="&#x1a1;" horiz-adv-x="972" 
d="M793 870q124 50 124 123q0 27 -34 62.5t-56 47.5l81 63q65 -40 94 -103q13 -28 13 -56t-17 -58q-29 -51 -77 -82.5t-75 -43.5zM207 528q1 -317 165 -402q50 -26 115 -26t115 26q162 84 163 401q0 427 -279 427t-279 -426zM75 534.5q0 241.5 108.5 386.5t303.5 145
t302.5 -146t107.5 -390t-108.5 -393t-303.5 -149t-302.5 152.5t-107.5 394z" />
    <glyph glyph-name="uni01A2" unicode="&#x1a2;" horiz-adv-x="1582" 
d="M80 753q0 115 19 224t62 211t106.5 177.5t159.5 121t214 45.5q172 0 297 -106q87 107 239 107t238.5 -92t86.5 -229v-1209h-148v1209q0 77 -52 139t-128.5 62t-151.5 -79q81 -111 121 -265t40 -283.5t-13 -220.5q-43 -303 -214 -465q-123 -116 -315 -116
q-111 0 -205 44.5t-158.5 119t-110 174t-66.5 208t-21 223.5zM228 739q0 -119 23.5 -231.5t71 -203.5t129.5 -144q82 -52 180 -52q186 0 282 142q121 180 121 505t-121 507q-43 64 -113 105t-160 41t-161.5 -36t-118 -96.5t-77 -145.5t-43.5 -178.5t-13 -212.5z" />
    <glyph glyph-name="uni01A3" unicode="&#x1a3;" horiz-adv-x="1268" 
d="M207 528q1 -317 165 -402q50 -26 115 -26t115 26q162 84 163 401q0 427 -279 427t-279 -426zM75 534.5q0 241.5 108.5 386.5t303.5 145q68 0 146.5 -26.5t120.5 -76.5q13 26 45 53q62 52 149 52q151 0 207.5 -67t64.5 -115l3 -21v-1057h-132v1057q-23 93 -121 93
q-44 0 -86.5 -24.5t-59.5 -67.5q73 -142 73 -361t-108.5 -368t-303.5 -149t-302.5 152.5t-107.5 394z" />
    <glyph glyph-name="uni01A4" unicode="&#x1a4;" horiz-adv-x="1136" 
d="M237.979 1420.52q-123.044 52.3223 -174.667 0.700195q-19.0928 -19.0938 -20.1533 -68.2383q-1.06055 -49.1455 6.01074 -73.1875l-101.83 12.7236q-17.6787 74.2471 6.36426 139.304q10.6074 28.9922 30.4072 48.793q19.8008 19.7998 53.0371 28.9941
q56.5723 15.5596 112.791 3.89453q56.2188 -11.666 83.7979 -22.2715zM283 816h280q162 0 259.5 71t97.5 217t-98 216.5t-259 70.5h-280v-575zM135 0v1515h529q236 0 346 -186q58 -98 58 -195.5t-22 -170t-67.5 -135t-126.5 -99.5t-188 -37h-381v-692h-148z" />
    <glyph glyph-name="uni01A5" unicode="&#x1a5;" horiz-adv-x="1015" 
d="M831.252 1171.2q-67.166 -47.0303 -66.8232 -146.894q-0.481445 -63.8174 6.4873 -101.664l68.8945 -16.458q-30.165 130.252 29.6289 172.121q22.1152 15.4854 71.3896 7.87305q49.2754 -7.61328 70.3291 -18.5068l5.14551 102.485q-35.3086 15.5605 -92.1602 20.9199
t-92.8916 -19.877zM261 254q46 -66 112 -110q65 -44 125 -43q60 -1 100 11q93 26 151.5 128t58.5 329.5t-116 329.5q-62 55 -156 55q-126 0 -220 -106q-24 -28 -55 -69v-525zM129 -411v1466h132v-164q24 45 79 90q103 85 217 85q210 0 320 -230q63 -132 63 -289
q0 -275 -135 -439q-98 -119 -261 -119q-92 0 -178 55.5t-105 95.5v-551h-132z" />
    <glyph glyph-name="uni01A6" unicode="&#x1a6;" horiz-adv-x="1093" 
d="M283 816h376q105 0 183 70t78 224q0 206 -222 264q-66 17 -144 17h-271v-575zM135 0v1648h148v-134h362q238 0 358 -186q65 -100 65 -222t-68 -240q-68 -116 -224 -150l451 -1130h-162l-441 1106h-341v-692h-148z" />
    <glyph glyph-name="uni01A7" unicode="&#x1a7;" horiz-adv-x="1033" 
d="M40 407q0 48 16.5 107t42.5 101t65.5 77.5t77.5 57.5q80 46 176 76l84 26q139 43 199 78q105 63 105 198t-77 207.5t-214 72.5t-223 -120q-33 -47 -50.5 -107.5t-19.5 -65.5l-130 50l45 115q37 92 131.5 172t260.5 80q96 0 178.5 -35t134.5 -91q112 -121 112 -263
q0 -224 -205 -337q-88 -48 -158 -72l-123 -42q-52 -18 -84 -31q-109 -45 -152.5 -109.5t-43.5 -177t69 -189.5t207 -77q189 0 298 121q64 71 84 170q4 17 5 17l137 -48l-8 -21q-64 -181 -224 -287q-115 -76 -299.5 -76t-300.5 123t-116 300z" />
    <glyph glyph-name="uni01A8" unicode="&#x1a8;" horiz-adv-x="878" 
d="M80 290.5q0 131.5 82.5 199t259.5 120.5t216 122q18 32 18 83.5t-55 95t-131 43.5t-103 -10l-39 -14q-12 -4 -30 -21l-26 -21q-6 -6 -27 -28.5t-28 -29.5l-91 68q32 47 85 88q103 80 244.5 80t234.5 -76q94 -76 94 -214t-149 -223q-72 -41 -147.5 -59t-113.5 -31t-78 -37
q-84 -48 -84 -154t102 -150q48 -21 119 -21h7q154 0 259 163l99 -64q-69 -110 -159.5 -160.5t-223.5 -50.5t-234 85t-101 216.5z" />
    <glyph glyph-name="uni01A9" unicode="&#x1a9;" horiz-adv-x="1142" 
d="M68 0h1000v142h-788l384 602l-415 643h771v132l-952 -4v-123l412 -648l-412 -637v-107z" />
    <glyph glyph-name="uni01AA" unicode="&#x1aa;" horiz-adv-x="664" 
d="M111 1541q0 25 22.5 43.5t59.5 18.5t55.5 -31.5t25.5 -94.5q-24 -9 -72 -9t-69.5 24t-21.5 49zM13 1539.5q0 -66.5 47 -117t117 -50.5t102 6q1 -33 1 -100v-1278q0 -234 289 -234q73 0 82 9v111h-89q-86 0 -118 27t-32 87v1258q0 6 2 48v63l-1 58q-2 69 -20 125l1 2l-2 1
q-48 150 -204 150q-82 0 -128.5 -49.5t-46.5 -116z" />
    <glyph glyph-name="uni01AB" unicode="&#x1ab;" horiz-adv-x="606" 
d="M579.45 -212.595q52.7109 62.8164 26.5361 159.188q-16.0508 61.7676 -32.5771 96.5215l-70.8135 -1.93848q62.8496 -118.005 15.9229 -173.927q-17.3555 -20.6836 -66.9258 -26.0859q-49.5713 -5.40332 -72.7295 -0.331055l21.5527 -100.325
q38.1367 -5.89062 94.4434 3.65137q56.3066 9.54102 84.5908 43.2471zM36 943v112h178v385h132v-385h242v-112h-242v-669q0 -101 31 -138t102 -37q29 0 69 5t40 6v-99q-66 -24 -128.5 -24t-85.5 3q-22 4 -56 20q-104 51 -104 264v669h-178z" />
    <glyph glyph-name="uni01AC" unicode="&#x1ac;" 
d="M133.797 1434.06q-129.125 34.6924 -173.062 -23.6094q-16.25 -21.5635 -10.4629 -70.377q5.78809 -48.8125 16.1357 -71.6367l-102.607 -1.56836q-27.8379 71.0635 -13.0811 138.831q6.46973 30.1855 23.3223 52.5469q16.8525 22.3623 48.4854 36.0908
q53.8564 23.2783 111.15 19.5498q57.293 -3.72949 86.0791 -10.3945zM25 1391v124h1012v-124h-432v-1391h-148v1391h-432z" />
    <glyph glyph-name="uni01AD" unicode="&#x1ad;" horiz-adv-x="606" 
d="M36 943v112h178v385q1 101 52 134t120.5 32.5t117.5 -20.5l-5 -102q-42 21 -86 21l-2 -1q-45 0 -55 -14t-10 -50v-385h242v-112h-242v-669q0 -101 31 -138t102 -37q29 0 69 5t40 6v-99q-66 -24 -128.5 -24t-85.5 3q-22 4 -56 20q-104 51 -104 264v669h-178z" />
    <glyph glyph-name="uni01AE" unicode="&#x1ae;" 
d="M565.426 107.785q-41.2109 -130.255 40.4766 -172.129q30.2139 -15.4873 96.5801 -7.99902q66.3672 7.48828 97.0332 18.626l7.0293 -102.488q-95.6924 -30.3008 -188.914 -17.9189q-41.5195 5.41211 -72.8516 21.4736q-31.332 16.0605 -51.582 47.1943
q-34.3467 53.0098 -31.9844 110.397q2.3623 57.3887 10.0898 86.3887zM25 1391v124h1012v-124h-432v-1391h-148v1391h-432z" />
    <glyph glyph-name="Uhorn" unicode="&#x1af;" horiz-adv-x="1423" 
d="M1043.94 1438.51q132.709 16.1963 151.601 86.7061q6.9873 26.0781 -16.666 69.168q-23.6523 43.0898 -41.7969 60.375l94.54 39.8838q52.4316 -55.46 64.1377 -123.817q5.31055 -30.4102 -1.93555 -57.4551q-7.24609 -27.0439 -31.4297 -51.6201
q-41.209 -41.7529 -95.7227 -59.7539q-54.5146 -18 -83.6982 -22.6016zM135 455v1060h148v-1060q0 -135 66 -229q83 -118 260 -118q87 0 151 28t96 66q79 96 81 253l-6 1060h154v-1060q-1 -163 -89 -293q-121 -178 -387 -178q-319 0 -429 254q-45 104 -45 217z" />
    <glyph glyph-name="uhorn" unicode="&#x1b0;" horiz-adv-x="979" 
d="M827.938 991.511q132.709 16.1963 151.601 86.7061q6.9873 26.0781 -16.666 69.168q-23.6523 43.0898 -41.7969 60.375l94.54 39.8838q52.4316 -55.46 64.1377 -123.817q5.31055 -30.4102 -1.93555 -57.4551q-7.24609 -27.0439 -31.4297 -51.6201
q-41.209 -41.7529 -95.7227 -59.7539q-54.5146 -18 -83.6982 -22.6016zM129 269v786h132v-786q0 -75 53.5 -121.5t115.5 -46.5q148 0 307 173v781h132v-1055h-132v174q-140 -138 -243 -170q-49 -15 -102 -15q-115 0 -189 70t-74 210z" />
    <glyph glyph-name="uni01B1" unicode="&#x1b1;" horiz-adv-x="1355" 
d="M1275 1515h-446v-142q139 -64 218.5 -253.5t79.5 -429.5t-116 -411.5t-343 -171.5q-112 0 -199 53t-138 141q-103 179 -103 392.5t67 403.5q33 94 90 168t128 108v142h-433v-142h216q-103 -106 -159 -292q-57 -186 -57 -332q0 -395 213 -614q149 -152 375 -152
q347 0 511 308q96 180 96 423q0 181 -61.5 366.5t-168.5 292.5h230v142z" />
    <glyph glyph-name="uni01B2" unicode="&#x1b2;" horiz-adv-x="1104" 
d="M967.975 1426.48q72.8867 112.074 31.0137 171.868q-15.4883 22.1152 -63.7002 31.6924t-73.1152 6.78809l30.209 98.0605q76.1855 4.5166 136.076 -30.4531q26.709 -15.4785 42.7705 -38.4131q16.0605 -22.9346 19.3447 -57.2578q5.5 -58.4062 -15.748 -111.738
q-21.2471 -53.3311 -36.4795 -78.6465zM25 1515h154l373 -1256l373 1256h154l-450 -1515h-154z" />
    <glyph glyph-name="uni01B3" unicode="&#x1b3;" horiz-adv-x="1122" 
d="M25 1515h154l382 -713l382 713h154l-462 -855v-660h-148v660zM188 1351q-50 124 -123 124q-27 0 -62.5 -34t-47.5 -56l-63 81q40 65 103 94q28 13 56 13t58 -17q51 -29 82.5 -77t43.5 -75z" />
    <glyph glyph-name="uni01B4" unicode="&#x1b4;" horiz-adv-x="905" 
d="M957 1183q-82 0 -139 -82q-37 -52 -53 -87l47 -53q50 124 123 124q27 0 63 -34.5t47 -55.5l63 81q-20 33 -63.5 70t-87.5 37zM25 1055h142l299 -859l280 859h134l-368 -1119q-56 -171 -116 -234.5t-121.5 -79t-124.5 -15.5t-123 8l10 121q36 -17 96 -17t99 15.5t64 39.5
q87 86 108 223z" />
    <glyph glyph-name="uni01B5" unicode="&#x1b5;" horiz-adv-x="1142" 
d="M116 702v92h928v-92h-928zM68 0v107l825 1280h-771v132l952 -4v-123l-794 -1250h788v-142h-1000z" />
    <glyph glyph-name="uni01B6" unicode="&#x1b6;" horiz-adv-x="779" 
d="M122 484v92h524v-92h-524zM25 0v85l560 858h-507v112h676v-74l-568 -861h568v-120h-729z" />
    <glyph glyph-name="uni01B7" unicode="&#x1b7;" horiz-adv-x="1171" 
d="M70 237l101 87q82 -84 117 -111q106 -81 254 -81t252.5 98t104.5 245.5t-72 216.5q-51 49 -103 64q-125 36 -358 36v141l477 455h-721v131l919 -4v-123l-462 -459q-1 -1 -2 -3q152 -3 265 -66q199 -112 199 -378q0 -228 -136 -362.5t-354 -134.5q-286 0 -481 248z" />
    <glyph glyph-name="uni01B8" unicode="&#x1b8;" horiz-adv-x="1171" 
d="M70 486q0 284 225 392q102 49 239 52q-1 2 -2 3l-462 459v123l919 4v-131h-721l477 -455v-141q-187 0 -247 -10q-58 -10 -98 -22q-65 -19 -103.5 -55.5t-61.5 -85.5t-23 -143q0 -148 104.5 -246t243.5 -98q91 0 164 28.5t106.5 57t69.5 64.5l40 42l101 -87
q-195 -248 -481 -248q-218 0 -354 134.5t-136 362.5z" />
    <glyph glyph-name="uni01B9" unicode="&#x1b9;" horiz-adv-x="779" 
d="M780 -137l-78 69q-129 -148 -286 -148q-103 0 -192 97t-89 225t75 192q75 65 169 74t137.5 9t74.5 -3v85l-369 480h507v112h-676v-74l375 -484h-13q-112 0 -221 -61q-69 -39 -118 -120t-49 -215q0 -176 113.5 -301t275.5 -125q124 0 221.5 60t142.5 128z" />
    <glyph glyph-name="uni01BA" unicode="&#x1ba;" horiz-adv-x="779" 
d="M70.7129 -231.041l107.67 0.138672q-7.30566 -45.3711 20.0664 -88.252q27.3711 -42.8809 75.3057 -63.3809q47.9336 -20.5 111.755 -16.6191q63.8203 3.88086 113.214 31.252l53.6709 -69.1387q-167.117 -84.4062 -331.964 -13.9062q-164.848 70.5 -149.718 219.906z
M27 -137l78 69q129 -148 286 -148q103 0 192 97t89 225t-75 192q-75 65 -169 74t-137.5 9t-74.5 -3v85l369 480h-507v112h676v-74l-375 -484h13q112 0 221 -61q69 -39 118 -120t49 -215q0 -176 -113.5 -301t-275.5 -125q-124 0 -221.5 60t-142.5 128z" />
    <glyph glyph-name="uni01BB" unicode="&#x1bb;" horiz-adv-x="1180" 
d="M104 627v92h928v-92h-928zM90 0q1 123 18 187q42 151 230 325q90 83 172 143l182 133q74 54 101 82q61 64 85 120t24 126q0 127 -73 203t-223 76q-83 0 -148 -30.5t-101 -78.5q-72 -96 -76 -198h-148q0 125 69.5 227t181.5 157t233 55t219 -54t156 -149t58 -207
t-51.5 -199.5t-107 -136.5t-85.5 -73l-162 -126q-376 -303 -392 -440h777v-142h-939z" />
    <glyph glyph-name="uni01BC" unicode="&#x1bc;" horiz-adv-x="1053" 
d="M-111 1381v134l981 -3v-131h-614v-450q62 58 160 82q42 10 84 9q197 0 325 -135.5t128 -365t-132 -381.5q-132 -150 -331 -150t-340 146q-72 75 -90 140l98 75q20 -58 78 -117q115 -114 233 -114t214 86q122 110 122 339t-151 313q-73 40 -161 40l-1 1q-87 0 -164 -64
t-84 -113h-136v659h-219z" />
    <glyph glyph-name="uni01BD" unicode="&#x1bd;" horiz-adv-x="870" 
d="M76 963v93h686v-93h-429v-315q26 26 74 45.5t96 19.5q137 0 227 -95.5t90 -256t-92 -266.5q-92 -105 -245 -105t-257 142q-24 32 -31 58l69 52q14 -39 55 -81q79 -81 163 -81t150 60q86 78 86 238t-106 220q-50 28 -112.5 28t-116.5 -45t-59 -79h-95v461h-153z" />
    <glyph glyph-name="uni01BE" unicode="&#x1be;" horiz-adv-x="863" 
d="M95 1056v92h524v-92h-524zM93 201q81 -153 213 -187q52 -14 136 -14t164.5 55t123 143t42.5 179q0 164 -124 312l-104 122q-124 141 -124 235v469h-132v-469q0 -123 123 -269l102 -121q123 -146 123 -261.5t-69 -190.5t-139.5 -75t-112.5 15.5t-65 41.5t-57 83z" />
    <glyph glyph-name="uni01BF" unicode="&#x1bf;" horiz-adv-x="1022" 
d="M267 324q147 52 217 97q139 89 205 180.5t66 214.5q0 248 -225 248q-141 0 -230 -102q-19 -22 -33 -46v-592zM135 0v1171h132v-70q95 87 268.5 87t262.5 -107.5t89 -257.5q0 -354 -509 -577l-111 -46v-200h-132z" />
    <glyph glyph-name="uni01C1" unicode="&#x1c1;" horiz-adv-x="696" 
d="M448 -132v1695h148v-1695h-148zM100 -132v1695h148v-1695h-148z" />
    <glyph glyph-name="uni01C2" unicode="&#x1c2;" horiz-adv-x="348" 
d="M-88 527v92h524v-92h-524zM-88 799v92h524v-92h-524zM100 -132v1695h148v-1695h-148z" />
    <glyph glyph-name="uni01C3" unicode="&#x1c3;" horiz-adv-x="334" 
d="M92 1446h150l-23 -1146h-104zM92 0v150h150v-150h-150z" />
    <glyph glyph-name="uni01C4" unicode="&#x1c4;" horiz-adv-x="2356" 
d="M1590 1876l65 65l157 -157l156 156l66 -64l-222 -222zM1282 0v107l825 1280h-771v132l952 -4v-123l-794 -1250h788v-142h-1000zM283 124h213q328 0 444 279q58 140 58 342q0 359 -138 512q-54 59 -146.5 96.5t-217.5 37.5h-213v-1267zM135 0v1515h361q502 0 614 -446
q36 -144 36 -294t-21 -255q-46 -233 -199 -376.5t-430 -143.5h-361z" />
    <glyph glyph-name="uni01C5" unicode="&#x1c5;" horiz-adv-x="1993" 
d="M1408 1410l65 65l157 -157l156 156l66 -64l-222 -222zM1239 0v85l560 858h-507v112h676v-74l-568 -861h568v-120h-729zM283 124h213q328 0 444 279q58 140 58 342q0 359 -138 512q-54 59 -146.5 96.5t-217.5 37.5h-213v-1267zM135 0v1515h361q502 0 614 -446
q36 -144 36 -294t-21 -255q-46 -233 -199 -376.5t-430 -143.5h-361z" />
    <glyph glyph-name="uni01C6" unicode="&#x1c6;" horiz-adv-x="1763" 
d="M1178 1410l65 65l157 -157l156 156l66 -64l-222 -222zM1009 0v85l560 858h-507v112h676v-74l-568 -861h568v-120h-729zM207 510q1 -178 65 -294t207 -115q95 0 150 49t113 128v525q-106 151 -237 151q-298 0 -298 -444zM75 510q0 147 47.5 273t139.5 204.5t196.5 78.5
t184.5 -54t99 -95v598h132v-1369q0 -30 8.5 -78.5t17.5 -67.5h-133q-25 12 -25 166q-102 -177 -284 -177q-91 0 -166 45.5t-121 120.5q-96 157 -96 355z" />
    <glyph glyph-name="uni01C7" unicode="&#x1c7;" horiz-adv-x="1876" 
d="M956 244l103 53l14 -29q50 -98 152 -142q44 -18 92 -18q122 0 174.5 83.5t52.5 237.5v1086h148v-1086q0 -327 -217 -417q-68 -28 -152.5 -28t-150.5 26.5t-103 59.5t-71 86q-34 52 -42 88zM135 0v1515h148v-1373h672v-142h-820z" />
    <glyph glyph-name="uni01C8" unicode="&#x1c8;" horiz-adv-x="1342" 
d="M1091 1188v150h150v-150h-150zM917 -225q97 0 140 34t43 162v1084h132v-1055q0 -168 -37.5 -229t-65.5 -75q-65 -33 -165 -33h-39zM135 0v1515h148v-1373h672v-142h-820z" />
    <glyph glyph-name="uni01C9" unicode="&#x1c9;" horiz-adv-x="754" 
d="M503 1188v150h150v-150h-150zM329 -225q97 0 140 34t43 162v1084h132v-1055q0 -168 -37.5 -229t-65.5 -75q-65 -33 -165 -33h-39zM129 -2v1517h132v-1517h-132z" />
    <glyph glyph-name="uni01CA" unicode="&#x1ca;" horiz-adv-x="2147" 
d="M1276 244l103 53l14 -29q50 -98 152 -142q44 -18 92 -18q122 0 174.5 83.5t52.5 237.5v1086h148v-1086q0 -327 -217 -417q-68 -28 -152.5 -28t-150.5 26.5t-103 59.5t-71 86q-34 52 -42 88zM128 0v1515h236l611 -1154v1154h148v-1515h-127l-720 1368v-1368h-148z" />
    <glyph glyph-name="uni01CB" unicode="&#x1cb;" horiz-adv-x="1613" 
d="M1362 1188v150h150v-150h-150zM1188 -225q97 0 140 34t43 162v1084h132v-1055q0 -168 -37.5 -229t-65.5 -75q-65 -33 -165 -33h-39zM128 0v1515h236l611 -1154v1154h148v-1515h-127l-720 1368v-1368h-148z" />
    <glyph glyph-name="uni01CC" unicode="&#x1cc;" horiz-adv-x="1332" 
d="M1081 1188v150h150v-150h-150zM907 -225q97 0 140 34t43 162v1084h132v-1055q0 -168 -37.5 -229t-65.5 -75q-65 -33 -165 -33h-39zM120 0v1055h132v-173q88 87 167 135.5t186 48.5t181 -70t74 -210v-786h-132v786q0 75 -53.5 121.5t-115.5 46.5q-148 0 -307 -173v-781
h-132z" />
    <glyph glyph-name="uni01CD" unicode="&#x1cd;" horiz-adv-x="1130" 
d="M343 1876l65 65l157 -157l156 156l66 -64l-222 -222zM346 602h440l-221 787zM25 0l432 1515h216l432 -1515h-154l-130 478h-509l-133 -478h-154z" />
    <glyph glyph-name="uni01CE" unicode="&#x1ce;" horiz-adv-x="928" 
d="M256 1410l65 65l157 -157l156 156l66 -64l-222 -222zM204 254q0 -74 52 -113.5t116 -39.5q110 0 191.5 61.5t117.5 104.5v317q-190 -49 -225 -60q-176 -57 -227 -150q-25 -46 -25 -120zM478 1066q335 0 335 -367v-549q0 -29 11 -79t20 -69h-133q-30 15 -30 168
q-141 -181 -320 -181t-252 132q-37 67 -37 138.5t18 125t56 95.5q79 85 211 131.5t324 84.5q0 158 -57.5 208t-171.5 50t-206 -96q-38 -40 -54 -70l-95 63q112 215 381 215z" />
    <glyph glyph-name="uni01CF" unicode="&#x1cf;" horiz-adv-x="418" 
d="M-13 1876l65 65l157 -157l156 156l66 -64l-222 -222zM135 0v1515h148v-1515h-148z" />
    <glyph glyph-name="uni01D0" unicode="&#x1d0;" horiz-adv-x="462" 
d="M9 1410l65 65l157 -157l156 156l66 -64l-222 -222zM165 -2v1057h132v-1057h-132z" />
    <glyph glyph-name="uni01D1" unicode="&#x1d1;" horiz-adv-x="1263" 
d="M419 1876l65 65l157 -157l156 156l66 -64l-222 -222zM228 739q0 -119 24 -231q22 -113 70 -204q48 -92 130 -144t180 -52q186 0 282 142q121 180 121 505t-121 507q-43 64 -113 105t-160 41t-161.5 -36t-118 -96.5t-77 -145.5t-43.5 -178.5t-13 -212.5zM80 753
q0 115 19 224t62 211t106.5 177.5t159.5 121t211.5 45.5t207.5 -46q168 -85 252.5 -289.5t84.5 -444.5q-1 -439 -227 -652q-123 -116 -315 -116q-111 0 -205 44.5t-158.5 119t-110 174t-66.5 208t-21 223.5z" />
    <glyph glyph-name="uni01D2" unicode="&#x1d2;" horiz-adv-x="972" 
d="M265 1410l65 65l157 -157l156 156l66 -64l-222 -222zM207 528q1 -317 165 -402q50 -26 115 -26t115 26q162 84 163 401q0 427 -279 427t-279 -426zM75 534.5q0 241.5 108.5 386.5t303.5 145t302.5 -146t107.5 -390t-108.5 -393t-303.5 -149t-302.5 152.5t-107.5 394z" />
    <glyph glyph-name="uni01D3" unicode="&#x1d3;" horiz-adv-x="1213" 
d="M388 1876l65 65l157 -157l156 156l66 -64l-222 -222zM135 455v1060h148v-1060q0 -135 66 -229q83 -118 260 -118q87 0 151 28t96 66q79 96 81 253l-6 1060h154v-1060q-1 -163 -89 -293q-121 -178 -387 -178q-319 0 -429 254q-45 104 -45 217z" />
    <glyph glyph-name="uni01D4" unicode="&#x1d4;" horiz-adv-x="979" 
d="M277 1410l65 65l157 -157l156 156l66 -64l-222 -222zM129 269v786h132v-786q0 -75 53.5 -121.5t115.5 -46.5q148 0 307 173v781h132v-1055h-132v174q-140 -138 -243 -170q-49 -15 -102 -15q-115 0 -189 70t-74 210z" />
    <glyph glyph-name="uni01D5" unicode="&#x1d5;" horiz-adv-x="1213" 
d="M345 1926v92h527v-92h-527zM693 1654v150h150v-150h-150zM374 1654v150h150v-150h-150zM135 455v1060h148v-1060q0 -135 66 -229q83 -118 260 -118q87 0 151 28t96 66q79 96 81 253l-6 1060h154v-1060q-1 -163 -89 -293q-121 -178 -387 -178q-319 0 -429 254
q-45 104 -45 217z" />
    <glyph glyph-name="uni01D6" unicode="&#x1d6;" horiz-adv-x="979" 
d="M236 1460v92h527v-92h-527zM583 1188v150h150v-150h-150zM264 1188v150h150v-150h-150zM129 269v786h132v-786q0 -75 53.5 -121.5t115.5 -46.5q148 0 307 173v781h132v-1055h-132v174q-140 -138 -243 -170q-49 -15 -102 -15q-115 0 -189 70t-74 210z" />
    <glyph glyph-name="uni01D7" unicode="&#x1d7;" horiz-adv-x="1213" 
d="M542 1910l295 295l87 -87l-316 -273zM693 1654v150h150v-150h-150zM374 1654v150h150v-150h-150zM135 455v1060h148v-1060q0 -135 66 -229q83 -118 260 -118q87 0 151 28t96 66q79 96 81 253l-6 1060h154v-1060q-1 -163 -89 -293q-121 -178 -387 -178q-319 0 -429 254
q-45 104 -45 217z" />
    <glyph glyph-name="uni01D8" unicode="&#x1d8;" horiz-adv-x="979" 
d="M433 1525l295 295l87 -87l-316 -273zM583 1188v150h150v-150h-150zM264 1188v150h150v-150h-150zM129 269v786h132v-786q0 -75 53.5 -121.5t115.5 -46.5q148 0 307 173v781h132v-1055h-132v174q-140 -138 -243 -170q-49 -15 -102 -15q-115 0 -189 70t-74 210z" />
    <glyph glyph-name="uni01D9" unicode="&#x1d9;" horiz-adv-x="1213" 
d="M386 2148l65 65l157 -157l156 156l66 -64l-222 -222zM693 1654v150h150v-150h-150zM374 1654v150h150v-150h-150zM135 455v1060h148v-1060q0 -135 66 -229q83 -118 260 -118q87 0 151 28t96 66q79 96 81 253l-6 1060h154v-1060q-1 -163 -89 -293q-121 -178 -387 -178
q-319 0 -429 254q-45 104 -45 217z" />
    <glyph glyph-name="uni01DA" unicode="&#x1da;" horiz-adv-x="979" 
d="M277 1682l65 65l157 -157l156 156l66 -64l-222 -222zM583 1188v150h150v-150h-150zM264 1188v150h150v-150h-150zM129 269v786h132v-786q0 -75 53.5 -121.5t115.5 -46.5q148 0 307 173v781h132v-1055h-132v174q-140 -138 -243 -170q-49 -15 -102 -15q-115 0 -189 70
t-74 210z" />
    <glyph glyph-name="uni01DB" unicode="&#x1db;" horiz-adv-x="1213" 
d="M293 2136l87 87l295 -295l-66 -65zM693 1654v150h150v-150h-150zM374 1654v150h150v-150h-150zM135 455v1060h148v-1060q0 -135 66 -229q83 -118 260 -118q87 0 151 28t96 66q79 96 81 253l-6 1060h154v-1060q-1 -163 -89 -293q-121 -178 -387 -178q-319 0 -429 254
q-45 104 -45 217z" />
    <glyph glyph-name="uni01DC" unicode="&#x1dc;" horiz-adv-x="979" 
d="M183 1733l87 87l295 -295l-66 -65zM583 1188v150h150v-150h-150zM264 1188v150h150v-150h-150zM129 269v786h132v-786q0 -75 53.5 -121.5t115.5 -46.5q148 0 307 173v781h132v-1055h-132v174q-140 -138 -243 -170q-49 -15 -102 -15q-115 0 -189 70t-74 210z" />
    <glyph glyph-name="uni01DD" unicode="&#x1dd;" horiz-adv-x="925" 
d="M706 430h-496q2 -107 46 -207q24 -54 72.5 -88t114.5 -34q176 0 233 162q28 79 30 167zM844 555q0 -99 -14 -180.5t-37 -138.5q-64 -159 -200 -217q-71 -30 -135 -30t-109 12q-44 10 -96 46q-174 120 -175 495h634q1 265 -135 363q-67 48 -149 49q-154 0 -262 -191
l-91 63q39 72 102 130q120 110 237 110t199 -43t131 -116t74.5 -163t25.5 -189z" />
    <glyph glyph-name="uni01DE" unicode="&#x1de;" horiz-adv-x="1130" 
d="M302 1926v92h527v-92h-527zM649 1654v150h150v-150h-150zM330 1654v150h150v-150h-150zM346 602h440l-221 787zM25 0l432 1515h216l432 -1515h-154l-130 478h-509l-133 -478h-154z" />
    <glyph glyph-name="uni01DF" unicode="&#x1df;" horiz-adv-x="928" 
d="M214 1460v92h527v-92h-527zM563 1188v150h150v-150h-150zM244 1188v150h150v-150h-150zM204 254q0 -74 52 -113.5t116 -39.5q110 0 191.5 61.5t117.5 104.5v317q-190 -49 -225 -60q-176 -57 -227 -150q-25 -46 -25 -120zM478 1066q335 0 335 -367v-549q0 -29 11 -79
t20 -69h-133q-30 15 -30 168q-141 -181 -320 -181t-252 132q-37 67 -37 138.5t18 125t56 95.5q79 85 211 131.5t324 84.5q0 158 -57.5 208t-171.5 50t-206 -96q-38 -40 -54 -70l-95 63q112 215 381 215z" />
    <glyph glyph-name="uni01E0" unicode="&#x1e0;" horiz-adv-x="1130" 
d="M302 1926v92h527v-92h-527zM490 1654v150h150v-150h-150zM346 602h440l-221 787zM25 0l432 1515h216l432 -1515h-154l-130 478h-509l-133 -478h-154z" />
    <glyph glyph-name="uni01E1" unicode="&#x1e1;" horiz-adv-x="928" 
d="M214 1460v92h527v-92h-527zM403 1188v150h150v-150h-150zM204 254q0 -74 52 -113.5t116 -39.5q110 0 191.5 61.5t117.5 104.5v317q-190 -49 -225 -60q-176 -57 -227 -150q-25 -46 -25 -120zM478 1066q335 0 335 -367v-549q0 -29 11 -79t20 -69h-133q-30 15 -30 168
q-141 -181 -320 -181t-252 132q-37 67 -37 138.5t18 125t56 95.5q79 85 211 131.5t324 84.5q0 158 -57.5 208t-171.5 50t-206 -96q-38 -40 -54 -70l-95 63q112 215 381 215z" />
    <glyph glyph-name="uni01E2" unicode="&#x1e2;" horiz-adv-x="1600" 
d="M712 1654v92h527v-92h-527zM346 602h327v787h-108zM25 0l432 1515h1037v-124h-673v-533h483v-124h-483v-601h711v-133h-859v478h-361l-133 -478h-154z" />
    <glyph glyph-name="uni01E3" unicode="&#x1e3;" horiz-adv-x="1527" 
d="M514 1188v92h527v-92h-527zM815 625h496q-2 107 -46 207q-24 54 -72.5 88t-114.5 34q-176 0 -233 -162q-28 -79 -30 -167zM204 254q0 -74 52 -113.5t113 -39.5q61 1 105 17q124 47 230 176q-26 69 -26 139.5t1.5 104.5t1.5 46q-190 -49 -225 -60q-176 -57 -227 -150
q-25 -46 -25 -120zM72 259.5q0 71.5 18 125t56 95.5q79 85 211 131.5t324 84.5q0 158 -57.5 208t-171.5 50t-206 -96q-38 -40 -54 -70l-95 63q112 215 381 215q221 0 296 -157q104 157 296 157q373 0 373 -553h-634q-1 -265 135 -363q68 -49 136 -49q122 0 190 72.5
t86 118.5l90 -63q-37 -74 -101 -132q-119 -108 -248 -108t-222 64.5t-145 178.5q-163 -243 -355.5 -243t-265.5 132q-37 67 -37 138.5z" />
    <glyph glyph-name="uni01E4" unicode="&#x1e4;" horiz-adv-x="1246" 
d="M734 394v92h524v-92h-524zM639 108q334 0 334 467v16h-337v124h482v-715h-120v192q-113 -156 -239 -192q-56 -16 -148 -16t-187.5 46t-158.5 122t-105.5 178.5t-61 211.5t-18.5 214.5t14 196.5q30 201 116 335q151 244 426 244q141 0 265 -85q145 -99 211 -348l-145 -36
q-1 7 -3 19q0 13 -10 49q-34 130 -116 203.5t-198 73.5t-198 -54t-127 -148q-87 -181 -87 -463.5t80 -434.5q105 -200 331 -200z" />
    <glyph glyph-name="uni01E5" unicode="&#x1e5;" horiz-adv-x="1005" 
d="M562 694v92h524v-92h-524zM238 689q0 -117 70 -194.5t190.5 -77.5t183 79t62.5 192t-61.5 189.5t-178.5 76.5t-191.5 -74t-74.5 -191zM272.5 -299q98.5 -33 158 -33.5t86 -0.5t46 0.5t60.5 4.5t67 10q148 37 148 152q0 60 -40 95.5t-101.5 50.5t-121.5 21.5t-114.5 9
t-65.5 5.5q-106 -40 -139 -59q-82 -48 -82 -135.5t98.5 -120.5zM42 -188q0 54 15 84t45.5 54t53 38.5t61.5 34t47 24.5q-82 17 -124 60t-42 79q0 70 49 114t78 61.5t32 19.5q-60 51 -105.5 133.5t-45.5 181t54.5 185.5t146 136t177.5 49t138.5 -21t112.5 -62
q76 62 131.5 72.5t106.5 12.5v-120h-2q-171 0 -171 -31q51 -94 63.5 -138.5t12.5 -89.5q0 -161 -103.5 -272.5t-268.5 -111.5q-87 0 -178 38q-8 -7 -36 -27q-60 -43 -60 -86.5t37 -58.5q83 -34 205.5 -35t277.5 -38q97 -23 158.5 -92t61.5 -165q0 -286 -479 -286
q-169 0 -301 61q-67 31 -107.5 86.5t-40.5 109.5z" />
    <glyph glyph-name="Gcaron" unicode="&#x1e6;" horiz-adv-x="1246" 
d="M414 1876l65 65l157 -157l156 156l66 -64l-222 -222zM639 108q334 0 334 467v16h-337v124h482v-715h-120v192q-113 -156 -239 -192q-56 -16 -148 -16t-187.5 46t-158.5 122t-105.5 178.5t-61 211.5t-18.5 214.5t14 196.5q30 201 116 335q151 244 426 244q141 0 265 -85
q145 -99 211 -348l-145 -36q-1 7 -3 19q0 13 -10 49q-34 130 -116 203.5t-198 73.5t-198 -54t-127 -148q-87 -181 -87 -463.5t80 -434.5q105 -200 331 -200z" />
    <glyph glyph-name="gcaron" unicode="&#x1e7;" horiz-adv-x="1005" 
d="M295 1412l65 65l157 -157l156 156l66 -64l-222 -222zM238 689q0 -117 70 -194.5t190.5 -77.5t183 79t62.5 192t-61.5 189.5t-178.5 76.5t-191.5 -74t-74.5 -191zM272.5 -299q98.5 -33 158 -33.5t86 -0.5t46 0.5t60.5 4.5t67 10q148 37 148 152q0 60 -40 95.5t-101.5 50.5
t-121.5 21.5t-114.5 9t-65.5 5.5q-106 -40 -139 -59q-82 -48 -82 -135.5t98.5 -120.5zM42 -188q0 54 15 84t45.5 54t53 38.5t61.5 34t47 24.5q-82 17 -124 60t-42 79q0 70 49 114t78 61.5t32 19.5q-60 51 -105.5 133.5t-45.5 181t54.5 185.5t146 136t177.5 49t138.5 -21
t112.5 -62q76 62 131.5 72.5t106.5 12.5v-120h-2q-171 0 -171 -31q51 -94 63.5 -138.5t12.5 -89.5q0 -161 -103.5 -272.5t-268.5 -111.5q-87 0 -178 38q-8 -7 -36 -27q-60 -43 -60 -86.5t37 -58.5q83 -34 205.5 -35t277.5 -38q97 -23 158.5 -92t61.5 -165q0 -286 -479 -286
q-169 0 -301 61q-67 31 -107.5 86.5t-40.5 109.5z" />
    <glyph glyph-name="uni01E8" unicode="&#x1e8;" horiz-adv-x="1140" 
d="M376 1876l65 65l157 -157l156 156l66 -64l-222 -222zM135 0v1515h149v-824l617 824h159l-434 -569l489 -946h-166l-417 822l-248 -327v-495h-149z" />
    <glyph glyph-name="uni01E9" unicode="&#x1e9;" horiz-adv-x="911" 
d="M259 1859l65 65l157 -157l156 156l66 -64l-222 -222zM130 0v1515h141v-971l395 511h158l-276 -359l338 -696h-146l-282 582l-187 -232v-350h-141z" />
    <glyph glyph-name="uni01EA" unicode="&#x1ea;" horiz-adv-x="1263" 
d="M528 -189q0 63 16 94l20 40q8 16 16 26l16 23h90q-79 -96 -79 -183q0 -44 153 -44v-76h-18q-214 0 -214 120zM228 739q0 -119 24 -231q22 -113 70 -204q48 -92 130 -144t180 -52q186 0 282 142q121 180 121 505t-121 507q-43 64 -113 105t-160 41t-161.5 -36t-118 -96.5
t-77 -145.5t-43.5 -178.5t-13 -212.5zM80 753q0 115 19 224t62 211t106.5 177.5t159.5 121t211.5 45.5t207.5 -46q168 -85 252.5 -289.5t84.5 -444.5q-1 -439 -227 -652q-123 -116 -315 -116q-111 0 -205 44.5t-158.5 119t-110 174t-66.5 208t-21 223.5z" />
    <glyph glyph-name="uni01EB" unicode="&#x1eb;" horiz-adv-x="972" 
d="M374 -185q0 63 16 94l20 40q8 16 16 26l16 23h90q-79 -96 -79 -183q0 -44 153 -44v-76h-18q-214 0 -214 120zM207 528q1 -317 165 -402q50 -26 115 -26t115 26q162 84 163 401q0 427 -279 427t-279 -426zM75 534.5q0 241.5 108.5 386.5t303.5 145t302.5 -146t107.5 -390
t-108.5 -393t-303.5 -149t-302.5 152.5t-107.5 394z" />
    <glyph glyph-name="uni01EC" unicode="&#x1ec;" horiz-adv-x="1263" 
d="M378 1654v92h527v-92h-527zM528 -189q0 63 16 94l20 40q8 16 16 26l16 23h90q-79 -96 -79 -183q0 -44 153 -44v-76h-18q-214 0 -214 120zM228 739q0 -119 24 -231q22 -113 70 -204q48 -92 130 -144t180 -52q186 0 282 142q121 180 121 505t-121 507q-43 64 -113 105
t-160 41t-161.5 -36t-118 -96.5t-77 -145.5t-43.5 -178.5t-13 -212.5zM80 753q0 115 19 224t62 211t106.5 177.5t159.5 121t211.5 45.5t207.5 -46q168 -85 252.5 -289.5t84.5 -444.5q-1 -439 -227 -652q-123 -116 -315 -116q-111 0 -205 44.5t-158.5 119t-110 174t-66.5 208
t-21 223.5z" />
    <glyph glyph-name="uni01ED" unicode="&#x1ed;" horiz-adv-x="972" 
d="M224 1188v92h527v-92h-527zM374 -185q0 63 16 94l20 40q8 16 16 26l16 23h90q-79 -96 -79 -183q0 -44 153 -44v-76h-18q-214 0 -214 120zM207 528q1 -317 165 -402q50 -26 115 -26t115 26q162 84 163 401q0 427 -279 427t-279 -426zM75 534.5q0 241.5 108.5 386.5
t303.5 145t302.5 -146t107.5 -390t-108.5 -393t-303.5 -149t-302.5 152.5t-107.5 394z" />
    <glyph glyph-name="uni01EE" unicode="&#x1ee;" horiz-adv-x="1171" 
d="M353 1876l65 65l157 -157l156 156l66 -64l-222 -222zM70 237l101 87q82 -84 117 -111q106 -81 254 -81t252.5 98t104.5 245.5t-72 216.5q-51 49 -103 64q-125 36 -358 36v141l477 455h-721v131l919 -4v-123l-462 -459q-1 -1 -2 -3q152 -3 265 -66q199 -112 199 -378
q0 -228 -136 -362.5t-354 -134.5q-286 0 -481 248z" />
    <glyph glyph-name="uni01EF" unicode="&#x1ef;" horiz-adv-x="779" 
d="M194 1410l65 65l157 -157l156 156l66 -64l-222 -222zM27 -137l78 69q129 -148 286 -148q103 0 192 97t89 225t-75 192q-75 65 -169 74t-137.5 9t-74.5 -3v85l369 480h-507v112h676v-74l-375 -484h13q112 0 221 -61q69 -39 118 -120t49 -215q0 -176 -113.5 -301
t-275.5 -125q-124 0 -221.5 60t-142.5 128z" />
    <glyph glyph-name="uni01F0" unicode="&#x1f0;" horiz-adv-x="362" 
d="M-37 1410l65 65l157 -157l156 156l66 -64l-222 -222zM-63 -225q97 0 140 34t43 162v1084h132v-1055q0 -168 -37.5 -229t-65.5 -75q-65 -33 -165 -33h-39z" />
    <glyph glyph-name="uni01F1" unicode="&#x1f1;" horiz-adv-x="2356" 
d="M1282 0v107l825 1280h-771v132l952 -4v-123l-794 -1250h788v-142h-1000zM283 124h213q328 0 444 279q58 140 58 342q0 359 -138 512q-54 59 -146.5 96.5t-217.5 37.5h-213v-1267zM135 0v1515h361q502 0 614 -446q36 -144 36 -294t-21 -255q-46 -233 -199 -376.5
t-430 -143.5h-361z" />
    <glyph glyph-name="uni01F2" unicode="&#x1f2;" horiz-adv-x="1993" 
d="M1239 0v85l560 858h-507v112h676v-74l-568 -861h568v-120h-729zM283 124h213q328 0 444 279q58 140 58 342q0 359 -138 512q-54 59 -146.5 96.5t-217.5 37.5h-213v-1267zM135 0v1515h361q502 0 614 -446q36 -144 36 -294t-21 -255q-46 -233 -199 -376.5t-430 -143.5h-361
z" />
    <glyph glyph-name="uni01F3" unicode="&#x1f3;" horiz-adv-x="1763" 
d="M1009 0v85l560 858h-507v112h676v-74l-568 -861h568v-120h-729zM207 510q1 -178 65 -294t207 -115q95 0 150 49t113 128v525q-106 151 -237 151q-298 0 -298 -444zM75 510q0 147 47.5 273t139.5 204.5t196.5 78.5t184.5 -54t99 -95v598h132v-1369q0 -30 8.5 -78.5
t17.5 -67.5h-133q-25 12 -25 166q-102 -177 -284 -177q-91 0 -166 45.5t-121 120.5q-96 157 -96 355z" />
    <glyph glyph-name="uni01F4" unicode="&#x1f4;" horiz-adv-x="1246" 
d="M570 1719l295 295l87 -87l-316 -273zM639 108q334 0 334 467v16h-337v124h482v-715h-120v192q-113 -156 -239 -192q-56 -16 -148 -16t-187.5 46t-158.5 122t-105.5 178.5t-61 211.5t-18.5 214.5t14 196.5q30 201 116 335q151 244 426 244q141 0 265 -85q145 -99 211 -348
l-145 -36q-1 7 -3 19q0 13 -10 49q-34 130 -116 203.5t-198 73.5t-198 -54t-127 -148q-87 -181 -87 -463.5t80 -434.5q105 -200 331 -200z" />
    <glyph glyph-name="uni01F5" unicode="&#x1f5;" horiz-adv-x="1005" 
d="M472 1255l295 295l87 -87l-316 -273zM238 689q0 -117 70 -194.5t190.5 -77.5t183 79t62.5 192t-61.5 189.5t-178.5 76.5t-191.5 -74t-74.5 -191zM272.5 -299q98.5 -33 158 -33.5t86 -0.5t46 0.5t60.5 4.5t67 10q148 37 148 152q0 60 -40 95.5t-101.5 50.5t-121.5 21.5
t-114.5 9t-65.5 5.5q-106 -40 -139 -59q-82 -48 -82 -135.5t98.5 -120.5zM42 -188q0 54 15 84t45.5 54t53 38.5t61.5 34t47 24.5q-82 17 -124 60t-42 79q0 70 49 114t78 61.5t32 19.5q-60 51 -105.5 133.5t-45.5 181t54.5 185.5t146 136t177.5 49t138.5 -21t112.5 -62
q76 62 131.5 72.5t106.5 12.5v-120h-2q-171 0 -171 -31q51 -94 63.5 -138.5t12.5 -89.5q0 -161 -103.5 -272.5t-268.5 -111.5q-87 0 -178 38q-8 -7 -36 -27q-60 -43 -60 -86.5t37 -58.5q83 -34 205.5 -35t277.5 -38q97 -23 158.5 -92t61.5 -165q0 -286 -479 -286
q-169 0 -301 61q-67 31 -107.5 86.5t-40.5 109.5z" />
    <glyph glyph-name="uni01F6" unicode="&#x1f6;" horiz-adv-x="1834" 
d="M1576 355q0 237 -77 700h148q78 -452 79 -719q0 -169 -112 -258t-271.5 -89t-241.5 66q-58 47 -78 97q-34 85 -42.5 166t-8.5 203t-1 213h-688v-734h-148v1515h148v-657h688v657h148v-1020q0 -157 11.5 -201t23.5 -72q19 -47 67 -77.5t106 -30.5t88 6q70 15 115 67
q46 53 46 168z" />
    <glyph glyph-name="uni01F7" unicode="&#x1f7;" horiz-adv-x="1079" 
d="M588 1408q-211 0 -305 -159v-925q206 145 296 226q284 256 284 562q-1 153 -65 218q-28 29 -82 53.5t-128 24.5zM135 0v1515h148v-80q86 97 291.5 97t321 -102.5t115.5 -286.5q0 -475 -491 -804q-106 -71 -237 -139v-200h-148z" />
    <glyph glyph-name="uni01F8" unicode="&#x1f8;" horiz-adv-x="1251" 
d="M309 1927l87 87l295 -295l-66 -65zM128 0v1515h236l611 -1154v1154h148v-1515h-127l-720 1368v-1368h-148z" />
    <glyph glyph-name="uni01F9" unicode="&#x1f9;" horiz-adv-x="970" 
d="M174 1461l87 87l295 -295l-66 -65zM120 0v1055h132v-173q88 87 167 135.5t186 48.5t181 -70t74 -210v-786h-132v786q0 75 -53.5 121.5t-115.5 46.5q-148 0 -307 -173v-781h-132z" />
    <glyph glyph-name="Aringacute" unicode="&#x1fa;" horiz-adv-x="1130" 
d="M421 2215l295 295l87 -87l-316 -273zM407 1752q0 -65 46 -111.5t111.5 -46.5t112 46.5t46.5 111.5t-46.5 111.5t-112 46.5t-111.5 -46.5t-46 -111.5zM311 1752q0 106 74.5 180.5t180 74.5t180.5 -74.5t75 -180.5t-75 -180.5t-180.5 -74.5t-180 74.5t-74.5 180.5zM346 602
h440l-221 787zM25 0l432 1515h216l432 -1515h-154l-130 478h-509l-133 -478h-154z" />
    <glyph glyph-name="aringacute" unicode="&#x1fb;" horiz-adv-x="928" 
d="M410 1888l295 295l87 -87l-316 -273zM318 1413q0 -65 46.5 -111.5t111.5 -46.5t111.5 46.5t46.5 111.5t-46.5 111.5t-111.5 46.5t-111.5 -46.5t-46.5 -111.5zM222 1413q0 106 74.5 180.5t180.5 74.5t180.5 -74.5t74.5 -180.5t-74.5 -180.5t-180.5 -74.5t-180.5 74.5
t-74.5 180.5zM204 254q0 -74 52 -113.5t116 -39.5q110 0 191.5 61.5t117.5 104.5v317q-190 -49 -225 -60q-176 -57 -227 -150q-25 -46 -25 -120zM478 1066q335 0 335 -367v-549q0 -29 11 -79t20 -69h-133q-30 15 -30 168q-141 -181 -320 -181t-252 132q-37 67 -37 138.5
t18 125t56 95.5q79 85 211 131.5t324 84.5q0 158 -57.5 208t-171.5 50t-206 -96q-38 -40 -54 -70l-95 63q112 215 381 215z" />
    <glyph glyph-name="AEacute" unicode="&#x1fc;" horiz-adv-x="1600" 
d="M910 1719l295 295l87 -87l-316 -273zM346 602h327v787h-108zM25 0l432 1515h1037v-124h-673v-533h483v-124h-483v-601h711v-133h-859v478h-361l-133 -478h-154z" />
    <glyph glyph-name="aeacute" unicode="&#x1fd;" horiz-adv-x="1527" 
d="M712 1253l295 295l87 -87l-316 -273zM815 625h496q-2 107 -46 207q-24 54 -72.5 88t-114.5 34q-176 0 -233 -162q-28 -79 -30 -167zM204 254q0 -74 52 -113.5t113 -39.5q61 1 105 17q124 47 230 176q-26 69 -26 139.5t1.5 104.5t1.5 46q-190 -49 -225 -60
q-176 -57 -227 -150q-25 -46 -25 -120zM72 259.5q0 71.5 18 125t56 95.5q79 85 211 131.5t324 84.5q0 158 -57.5 208t-171.5 50t-206 -96q-38 -40 -54 -70l-95 63q112 215 381 215q221 0 296 -157q104 157 296 157q373 0 373 -553h-634q-1 -265 135 -363q68 -49 136 -49
q122 0 190 72.5t86 118.5l90 -63q-37 -74 -101 -132q-119 -108 -248 -108t-222 64.5t-145 178.5q-163 -243 -355.5 -243t-265.5 132q-37 67 -37 138.5z" />
    <glyph glyph-name="Oslashacute" unicode="&#x1fe;" horiz-adv-x="1251" 
d="M560 1736l295 295l87 -87l-316 -273zM387 204q101 -96 244 -96q89 0 160 39.5t115 102.5q126 182 127 532q0 226 -81 401zM218 732.5q0 -240.5 85 -410.5l568 984q-97 102 -240 102q-257 0 -357 -278q-56 -157 -56 -397.5zM70 733q0 135 19 244t62 211t106.5 177.5
t159.5 121t214 45.5q174 0 306 -112l74 129l114 -66l-97 -167q75 -111 114 -260.5t38.5 -284.5t-19 -243t-61.5 -208t-105.5 -174t-156 -118t-207.5 -44q-175 0 -308 110l-76 -132l-115 66l97 168q-78 109 -118.5 255.5t-40.5 281.5z" />
    <glyph glyph-name="oslashacute" unicode="&#x1ff;" horiz-adv-x="1022" 
d="M445 1289l295 295l87 -87l-316 -273zM357 152q65 -52 143 -52t128 26q90 47 126 157t36 268t-50 264zM232 528q0 -152 41 -257l375 649q-58 34 -136 34q-280 0 -280 -426zM100 536q0 240 108.5 385t303.5 145q107 0 193 -48l48 84l114 -66l-60 -106q115 -148 115 -396
t-108.5 -397t-301.5 -149q-119 0 -213 63l-50 -87l-115 66l68 118q-102 148 -102 388z" />
    <glyph glyph-name="uni0200" unicode="&#x200;" horiz-adv-x="1130" 
d="M586 1927l87 87l295 -295l-66 -65zM233 1927l87 87l295 -295l-66 -65zM346 602h440l-221 787zM25 0l432 1515h216l432 -1515h-154l-130 478h-509l-133 -478h-154z" />
    <glyph glyph-name="uni0201" unicode="&#x201;" horiz-adv-x="928" 
d="M510 1461l87 87l295 -295l-66 -65zM157 1461l87 87l295 -295l-66 -65zM204 254q0 -74 52 -113.5t116 -39.5q110 0 191.5 61.5t117.5 104.5v317q-190 -49 -225 -60q-176 -57 -227 -150q-25 -46 -25 -120zM478 1066q335 0 335 -367v-549q0 -29 11 -79t20 -69h-133
q-30 15 -30 168q-141 -181 -320 -181t-252 132q-37 67 -37 138.5t18 125t56 95.5q79 85 211 131.5t324 84.5q0 158 -57.5 208t-171.5 50t-206 -96q-38 -40 -54 -70l-95 63q112 215 381 215z" />
    <glyph glyph-name="uni0202" unicode="&#x202;" horiz-adv-x="1130" 
d="M359 1694q65 135 206 135t206 -135l-69 -40q-18 42 -57 69t-80 27t-80 -27t-57 -69zM346 602h440l-221 787zM25 0l432 1515h216l432 -1515h-154l-130 478h-509l-133 -478h-154z" />
    <glyph glyph-name="uni0203" unicode="&#x203;" horiz-adv-x="928" 
d="M272 1228q65 135 206 135t206 -135l-69 -40q-18 42 -57 69t-80 27t-80 -27t-57 -69zM204 254q0 -74 52 -113.5t116 -39.5q110 0 191.5 61.5t117.5 104.5v317q-190 -49 -225 -60q-176 -57 -227 -150q-25 -46 -25 -120zM478 1066q335 0 335 -367v-549q0 -29 11 -79t20 -69
h-133q-30 15 -30 168q-141 -181 -320 -181t-252 132q-37 67 -37 138.5t18 125t56 95.5q79 85 211 131.5t324 84.5q0 158 -57.5 208t-171.5 50t-206 -96q-38 -40 -54 -70l-95 63q112 215 381 215z" />
    <glyph glyph-name="uni0204" unicode="&#x204;" 
d="M578 1927l87 87l295 -295l-66 -65zM225 1927l87 87l295 -295l-66 -65zM135 0v1515h821v-124h-673v-533h483v-124h-483v-601h711v-133h-859z" />
    <glyph glyph-name="uni0205" unicode="&#x205;" horiz-adv-x="925" 
d="M516 1461l87 87l295 -295l-66 -65zM163 1461l87 87l295 -295l-66 -65zM213 625h496q-2 107 -46 207q-24 54 -72.5 88t-114.5 34q-176 0 -233 -162q-28 -79 -30 -167zM75 500q0 99 14 180.5t37 138.5q64 159 200 217q71 30 135 30t109 -12q44 -10 96 -46
q174 -120 175 -495h-634q-1 -265 135 -363q67 -48 149 -49q154 0 262 191l91 -63q-39 -72 -102 -130q-120 -110 -237 -110t-199 43t-131 116t-74.5 163t-25.5 189z" />
    <glyph glyph-name="uni0206" unicode="&#x206;" 
d="M339 1694q65 135 206 135t206 -135l-69 -40q-18 42 -57 69t-80 27t-80 -27t-57 -69zM135 0v1515h821v-124h-673v-533h483v-124h-483v-601h711v-133h-859z" />
    <glyph glyph-name="uni0207" unicode="&#x207;" horiz-adv-x="925" 
d="M269 1228q65 135 206 135t206 -135l-69 -40q-18 42 -57 69t-80 27t-80 -27t-57 -69zM213 625h496q-2 107 -46 207q-24 54 -72.5 88t-114.5 34q-176 0 -233 -162q-28 -79 -30 -167zM75 500q0 99 14 180.5t37 138.5q64 159 200 217q71 30 135 30t109 -12q44 -10 96 -46
q174 -120 175 -495h-634q-1 -265 135 -363q67 -48 149 -49q154 0 262 191l91 -63q-39 -72 -102 -130q-120 -110 -237 -110t-199 43t-131 116t-74.5 163t-25.5 189z" />
    <glyph glyph-name="uni0208" unicode="&#x208;" horiz-adv-x="418" 
d="M250 1927l87 87l295 -295l-66 -65zM-103 1927l87 87l295 -295l-66 -65zM135 0v1515h148v-1515h-148z" />
    <glyph glyph-name="uni0209" unicode="&#x209;" horiz-adv-x="462" 
d="M220 1461l87 87l295 -295l-66 -65zM-133 1461l87 87l295 -295l-66 -65zM165 -2v1057h132v-1057h-132z" />
    <glyph glyph-name="uni020A" unicode="&#x20a;" horiz-adv-x="418" 
d="M3 1694q65 135 206 135t206 -135l-69 -40q-18 42 -57 69t-80 27t-80 -27t-57 -69zM135 0v1515h148v-1515h-148z" />
    <glyph glyph-name="uni020B" unicode="&#x20b;" horiz-adv-x="462" 
d="M25 1228q65 135 206 135t206 -135l-69 -40q-18 42 -57 69t-80 27t-80 -27t-57 -69zM165 -2v1057h132v-1057h-132z" />
    <glyph glyph-name="uni020C" unicode="&#x20c;" horiz-adv-x="1263" 
d="M678 1927l87 87l295 -295l-66 -65zM325 1927l87 87l295 -295l-66 -65zM228 739q0 -119 24 -231q22 -113 70 -204q48 -92 130 -144t180 -52q186 0 282 142q121 180 121 505t-121 507q-43 64 -113 105t-160 41t-161.5 -36t-118 -96.5t-77 -145.5t-43.5 -178.5t-13 -212.5z
M80 753q0 115 19 224t62 211t106.5 177.5t159.5 121t211.5 45.5t207.5 -46q168 -85 252.5 -289.5t84.5 -444.5q-1 -439 -227 -652q-123 -116 -315 -116q-111 0 -205 44.5t-158.5 119t-110 174t-66.5 208t-21 223.5z" />
    <glyph glyph-name="uni020D" unicode="&#x20d;" horiz-adv-x="972" 
d="M530 1461l87 87l295 -295l-66 -65zM177 1461l87 87l295 -295l-66 -65zM207 528q1 -317 165 -402q50 -26 115 -26t115 26q162 84 163 401q0 427 -279 427t-279 -426zM75 534.5q0 241.5 108.5 386.5t303.5 145t302.5 -146t107.5 -390t-108.5 -393t-303.5 -149t-302.5 152.5
t-107.5 394z" />
    <glyph glyph-name="uni020E" unicode="&#x20e;" horiz-adv-x="1263" 
d="M435 1694q65 135 206 135t206 -135l-69 -40q-18 42 -57 69t-80 27t-80 -27t-57 -69zM228 739q0 -119 24 -231q22 -113 70 -204q48 -92 130 -144t180 -52q186 0 282 142q121 180 121 505t-121 507q-43 64 -113 105t-160 41t-161.5 -36t-118 -96.5t-77 -145.5t-43.5 -178.5
t-13 -212.5zM80 753q0 115 19 224t62 211t106.5 177.5t159.5 121t211.5 45.5t207.5 -46q168 -85 252.5 -289.5t84.5 -444.5q-1 -439 -227 -652q-123 -116 -315 -116q-111 0 -205 44.5t-158.5 119t-110 174t-66.5 208t-21 223.5z" />
    <glyph glyph-name="uni020F" unicode="&#x20f;" horiz-adv-x="972" 
d="M281 1228q65 135 206 135t206 -135l-69 -40q-18 42 -57 69t-80 27t-80 -27t-57 -69zM207 528q1 -317 165 -402q50 -26 115 -26t115 26q162 84 163 401q0 427 -279 427t-279 -426zM75 534.5q0 241.5 108.5 386.5t303.5 145t302.5 -146t107.5 -390t-108.5 -393t-303.5 -149
t-302.5 152.5t-107.5 394z" />
    <glyph glyph-name="uni0210" unicode="&#x210;" horiz-adv-x="1093" 
d="M590 1927l87 87l295 -295l-66 -65zM237 1927l87 87l295 -295l-66 -65zM283 816h376q105 0 183 70t78 224q0 206 -222 264q-66 17 -144 17h-271v-575zM135 0v1515h510q239 0 358 -186q65 -101 65 -223t-68 -240q-68 -116 -224 -150l286 -716h-162l-276 692h-341v-692h-148
z" />
    <glyph glyph-name="uni0211" unicode="&#x211;" horiz-adv-x="639" 
d="M380 1461l87 87l295 -295l-66 -65zM27 1461l87 87l295 -295l-66 -65zM120 0v1055h132v-284q47 104 72 143q98 152 254 152q12 0 36 -2v-112q-68 -9 -113 -25t-88 -53q-75 -63 -161 -247v-627h-132z" />
    <glyph glyph-name="uni0212" unicode="&#x212;" horiz-adv-x="1093" 
d="M184 1694q65 135 206 135t206 -135l-69 -40q-18 42 -57 69t-80 27t-80 -27t-57 -69zM283 816h376q105 0 183 70t78 224q0 206 -222 264q-66 17 -144 17h-271v-575zM135 0v1515h510q239 0 358 -186q65 -101 65 -223t-68 -240q-68 -116 -224 -150l286 -716h-162l-276 692
h-341v-692h-148z" />
    <glyph glyph-name="uni0213" unicode="&#x213;" horiz-adv-x="639" 
d="M161 1228q65 135 206 135t206 -135l-69 -40q-18 42 -57 69t-80 27t-80 -27t-57 -69zM120 0v1055h132v-284q47 104 72 143q98 152 254 152q12 0 36 -2v-112q-68 -9 -113 -25t-88 -53q-75 -63 -161 -247v-627h-132z" />
    <glyph glyph-name="uni0214" unicode="&#x214;" horiz-adv-x="1213" 
d="M636 1927l87 87l295 -295l-66 -65zM283 1927l87 87l295 -295l-66 -65zM135 455v1060h148v-1060q0 -135 66 -229q83 -118 260 -118q87 0 151 28t96 66q79 96 81 253l-6 1060h154v-1060q-1 -163 -89 -293q-121 -178 -387 -178q-319 0 -429 254q-45 104 -45 217z" />
    <glyph glyph-name="uni0215" unicode="&#x215;" horiz-adv-x="979" 
d="M548 1461l87 87l295 -295l-66 -65zM195 1461l87 87l295 -295l-66 -65zM129 269v786h132v-786q0 -75 53.5 -121.5t115.5 -46.5q148 0 307 173v781h132v-1055h-132v174q-140 -138 -243 -170q-49 -15 -102 -15q-115 0 -189 70t-74 210z" />
    <glyph glyph-name="uni0216" unicode="&#x216;" horiz-adv-x="1213" 
d="M404 1694q65 135 206 135t206 -135l-69 -40q-18 42 -57 69t-80 27t-80 -27t-57 -69zM135 455v1060h148v-1060q0 -135 66 -229q83 -118 260 -118q87 0 151 28t96 66q79 96 81 253l-6 1060h154v-1060q-1 -163 -89 -293q-121 -178 -387 -178q-319 0 -429 254
q-45 104 -45 217z" />
    <glyph glyph-name="uni0217" unicode="&#x217;" horiz-adv-x="979" 
d="M293 1228q65 135 206 135t206 -135l-69 -40q-18 42 -57 69t-80 27t-80 -27t-57 -69zM129 269v786h132v-786q0 -75 53.5 -121.5t115.5 -46.5q148 0 307 173v781h132v-1055h-132v174q-140 -138 -243 -170q-49 -15 -102 -15q-115 0 -189 70t-74 210z" />
    <glyph glyph-name="Scommaaccent" unicode="&#x218;" horiz-adv-x="1033" 
d="M436 -538l87 250h-65v150h150v-150q-27 -57 -76 -152t-52 -98h-44zM40 368l137 48q1 0 4.5 -17t13 -44t25.5 -60q33 -69 117 -128t224.5 -59t209.5 77t69 189.5t-43.5 177t-152.5 109.5q-31 13 -84 31l-95 33q-246 82 -332 210q-59 88 -59 218.5t112 252.5
q52 56 134.5 91t173 35t160.5 -24q114 -40 188 -144q34 -46 49 -84l45 -115l-130 -50q-2 5 -9.5 31.5t-13 43.5t-19.5 47q-23 52 -55.5 85.5t-79.5 59.5t-130 26q-123 0 -200 -72.5t-77 -198t68 -178.5q54 -43 122 -67l51 -20l147 -46q233 -72 319 -211q59 -95 59 -211
t-62 -224q-112 -196 -372 -196q-222 0 -374 151q-85 84 -132 212z" />
    <glyph glyph-name="scommaaccent" unicode="&#x219;" horiz-adv-x="878" 
d="M372 -533l87 250h-65v150h150v-150q-27 -57 -76 -152t-52 -98h-44zM80 200l99 64q53 -82 118 -122.5t161 -40.5t152 48.5t56 112.5q0 114 -76 158t-148 62t-114 32q-98 34 -166 100t-68 182.5t93.5 193t251.5 76.5t276 -123q22 -23 37 -45l-91 -68q-7 7 -28 29.5
t-27 28.5l-26 21q-18 17 -30 21l-34 12q-32 12 -108 12t-131 -43.5t-55 -95.5q0 -92 64.5 -133t141 -64t101 -31t66 -24.5t65.5 -31.5q75 -48 106.5 -103.5t31.5 -135.5q0 -133 -101 -218t-234 -85t-223.5 50.5t-159.5 160.5z" />
    <glyph glyph-name="uni021A" unicode="&#x21a;" 
d="M445 -522l87 250h-65v150h150v-150q-27 -57 -76 -152t-52 -98h-44zM25 1391v124h1012v-124h-432v-1391h-148v1391h-432z" />
    <glyph glyph-name="uni021B" unicode="&#x21b;" horiz-adv-x="606" 
d="M309 -535l87 250h-65v150h150v-150q-27 -57 -76 -152t-52 -98h-44zM36 943v112h178v385h132v-385h242v-112h-242v-669q0 -101 31 -138t102 -37q29 0 69 5t40 6v-99q-66 -24 -128.5 -24t-85.5 3q-22 4 -56 20q-104 51 -104 264v669h-178z" />
    <glyph glyph-name="uni021C" unicode="&#x21c;" horiz-adv-x="1171" 
d="M132 1290l56 62q72 78 133 109q129 66 242.5 66t211.5 -51t157.5 -138.5t59.5 -188.5q0 -159 -99 -276q-44 -52 -89 -81q122 -74 179 -165q129 -205 -28 -429q-50 -72 -168.5 -166.5t-209.5 -147.5l-167 -98q-28 -17 -41 -24l-44 134l208 126q157 95 227 157.5t90 92.5
q88 125 16 270q-76 146 -244 146q-32 0 -82 -30l-171 -97v141q227 129 265 152q104 64 160 135t56.5 168.5t-90 162t-199 64.5t-192.5 -57t-141 -130z" />
    <glyph glyph-name="uni021D" unicode="&#x21d;" horiz-adv-x="1171" 
d="M959 746q-1 -228 -188 -362l41 -14q58 -20 83 -38q64 -48 88.5 -100t24.5 -133.5t-52 -158.5q-52 -78 -128 -132q-204 -147 -481 -218l-44 122q252 67 427 181q147 97 147 211q-1 62 -35 110q-56 78 -155 78.5t-180 -48.5l-171 -103v141l247 150l75 51q67 47 119 113.5
t52 139t-42 118.5q-79 86 -238 86h-2q-161 0 -315 -199l-96 93l39 43q179 194 397 195q170 0 278.5 -87.5t108.5 -238.5z" />
    <glyph glyph-name="uni021E" unicode="&#x21e;" horiz-adv-x="1254" 
d="M405 1876l65 65l157 -157l156 156l66 -64l-222 -222zM135 0v1515h148v-657h688v657h148v-1515h-148v734h-688v-734h-148z" />
    <glyph glyph-name="uni021F" unicode="&#x21f;" horiz-adv-x="979" 
d="M277 1859l65 65l157 -157l156 156l66 -64l-222 -222zM129 0v1515h132v-633q147 142 243 170q48 14 102 14q115 0 189 -70t74 -210v-786h-132v786q0 75 -53.5 121.5t-115.5 46.5q-148 0 -307 -173v-781h-132z" />
    <glyph glyph-name="uni0220" unicode="&#x220;" horiz-adv-x="1149" 
d="M128 0v1491h147v-220q93 92 216 162.5t241 70.5t204 -76t85 -238v-1601h-147v1601q0 85 -60.5 136.5t-141.5 51.5t-202.5 -70t-194.5 -150v-1158h-147z" />
    <glyph glyph-name="uni0221" unicode="&#x221;" horiz-adv-x="984" 
d="M207 510q1 -178 65 -293.5t207 -115.5q95 0 150 49t113 128v525q-106 151 -237 151q-298 0 -298 -444zM580 -255q48 128 162 224q-4 47 -4 91.5t2 69.5t2 36q-102 -177 -284 -177q-91 0 -166 45.5t-121 120.5q-96 157 -96 355q0 147 47.5 273t139.5 204.5t196.5 78.5
t184.5 -54t99 -95v598h132v-1369q0 -58 1 -105q49 11 85 11q87 0 134 -50.5t47 -117t-46.5 -116t-116.5 -49.5q-126 1 -177 73q-21 30 -36 68q-73 -81 -106 -157zM882 -59q3 -27 6 -47q14 -74 73 -73q37 0 59.5 18.5t22.5 43.5t-21.5 49t-62 24t-77.5 -15z" />
    <glyph glyph-name="uni0222" unicode="&#x222;" horiz-adv-x="972" 
d="M239.5 266q24.5 -64 54.5 -94q65 -68 193 -68q163 0 216.5 97.5t53.5 225.5t-12.5 191t-45.5 106q-59 78 -215.5 78t-212.5 -80t-56 -236t24.5 -220zM67 458q0 299 182 409q-60 34 -103 88.5t-43 115.5q0 172 77 359l131 -41q-67 -171 -67 -325q0 -41 42 -75
q82 -64 210 -64t195 116q34 59 34 112q-1 53 -11 101q-14 60 -56 159l-34 80l141 22l30 -71q63 -145 71.5 -203t8.5 -112t-49.5 -142t-104.5 -119q184 -111 184 -411q0 -232 -109 -353t-309.5 -121t-310 122.5t-109.5 352.5z" />
    <glyph glyph-name="uni0223" unicode="&#x223;" horiz-adv-x="972" 
d="M185 397q1 -227 117 -281q48 -22 119 -22q143 0 188.5 83t45.5 235.5t-51 218.5t-186 66t-184 -68t-49 -232zM54 397q0 259 158 356q-127 71 -127 188q0 82 35 149.5t86 107.5l94 -64q-72 -83 -80.5 -126.5t-8.5 -89.5t69 -79t137 -33q155 2 211 132q14 32 14 62
q0 130 -117 251l89 75q161 -122 161 -329q0 -77 -46.5 -144.5t-101.5 -98.5q159 -96 159 -358q0 -202 -95 -307t-270 -105t-271 106.5t-96 306.5z" />
    <glyph glyph-name="uni0224" unicode="&#x224;" horiz-adv-x="1142" 
d="M821.938 -153.489q132.709 16.1963 151.601 86.7061q6.9873 26.0781 -16.666 69.168q-23.6523 43.0898 -41.7969 60.375l94.54 39.8838q52.4316 -55.46 64.1377 -123.817q5.31055 -30.4102 -1.93555 -57.4551q-7.24609 -27.0439 -31.4297 -51.6201
q-41.209 -41.7529 -95.7227 -59.7539q-54.5146 -18 -83.6982 -22.6016zM68 0v107l825 1280h-771v132l952 -4v-123l-794 -1250h788v-142h-1000z" />
    <glyph glyph-name="uni0225" unicode="&#x225;" horiz-adv-x="779" 
d="M25 0v85l560 858h-507v112h676v-74l-568 -861h568v-120h-729zM497.938 -144.489q132.709 16.1963 151.601 86.7061q6.9873 26.0781 -16.666 69.168q-23.6523 43.0898 -41.7969 60.375l94.54 39.8838q52.4316 -55.46 64.1377 -123.817q5.31055 -30.4102 -1.93555 -57.4551
q-7.24609 -27.0439 -31.4297 -51.6201q-41.209 -41.7529 -95.7227 -59.7539q-54.5146 -18 -83.6982 -22.6016z" />
    <glyph glyph-name="uni0226" unicode="&#x226;" horiz-adv-x="1130" 
d="M490 1654v150h150v-150h-150zM346 602h440l-221 787zM25 0l432 1515h216l432 -1515h-154l-130 478h-509l-133 -478h-154z" />
    <glyph glyph-name="uni0227" unicode="&#x227;" horiz-adv-x="928" 
d="M403 1188v150h150v-150h-150zM204 254q0 -74 52 -113.5t116 -39.5q110 0 191.5 61.5t117.5 104.5v317q-190 -49 -225 -60q-176 -57 -227 -150q-25 -46 -25 -120zM478 1066q335 0 335 -367v-549q0 -29 11 -79t20 -69h-133q-30 15 -30 168q-141 -181 -320 -181t-252 132
q-37 67 -37 138.5t18 125t56 95.5q79 85 211 131.5t324 84.5q0 158 -57.5 208t-171.5 50t-206 -96q-38 -40 -54 -70l-95 63q112 215 381 215z" />
    <glyph glyph-name="uni0228" unicode="&#x228;" 
d="M446 -217q153 0 153 44q0 87 -79 183h90q8 -14 12 -18q13 -16 20 -31l11 -21q25 -50 25 -113q0 -120 -214 -120h-18v76zM135 0v1515h821v-124h-673v-533h483v-124h-483v-601h711v-133h-859z" />
    <glyph glyph-name="uni0229" unicode="&#x229;" horiz-adv-x="925" 
d="M372 -228q153 0 153 44q0 87 -79 183h90q8 -14 12 -18q13 -16 20 -31l11 -21q25 -50 25 -113q0 -120 -214 -120h-18v76zM213 625h496q-2 107 -46 207q-24 54 -72.5 88t-114.5 34q-176 0 -233 -162q-28 -79 -30 -167zM75 500q0 99 14 180.5t37 138.5q64 159 200 217
q71 30 135 30t109 -12q44 -10 96 -46q174 -120 175 -495h-634q-1 -265 135 -363q67 -48 149 -49q154 0 262 191l91 -63q-39 -72 -102 -130q-120 -110 -237 -110t-199 43t-131 116t-74.5 163t-25.5 189z" />
    <glyph glyph-name="uni022A" unicode="&#x22a;" horiz-adv-x="1263" 
d="M378 1926v92h527v-92h-527zM725 1654v150h150v-150h-150zM406 1654v150h150v-150h-150zM228 739q0 -119 24 -231q22 -113 70 -204q48 -92 130 -144t180 -52q186 0 282 142q121 180 121 505t-121 507q-43 64 -113 105t-160 41t-161.5 -36t-118 -96.5t-77 -145.5
t-43.5 -178.5t-13 -212.5zM80 753q0 115 19 224t62 211t106.5 177.5t159.5 121t211.5 45.5t207.5 -46q168 -85 252.5 -289.5t84.5 -444.5q-1 -439 -227 -652q-123 -116 -315 -116q-111 0 -205 44.5t-158.5 119t-110 174t-66.5 208t-21 223.5z" />
    <glyph glyph-name="uni022B" unicode="&#x22b;" horiz-adv-x="972" 
d="M224 1460v92h527v-92h-527zM571 1188v150h150v-150h-150zM252 1188v150h150v-150h-150zM207 528q1 -317 165 -402q50 -26 115 -26t115 26q162 84 163 401q0 427 -279 427t-279 -426zM75 534.5q0 241.5 108.5 386.5t303.5 145t302.5 -146t107.5 -390t-108.5 -393
t-303.5 -149t-302.5 152.5t-107.5 394z" />
    <glyph glyph-name="uni022C" unicode="&#x22c;" horiz-adv-x="1263" 
d="M379 1973v92h527v-92h-527zM338 1721q61 130 175 130q82 0 140 -56.5t121 -56.5t100 86l69 -40q-62 -130 -175 -130q-80 0 -139.5 56.5t-122 56.5t-99.5 -86zM228 739q0 -119 24 -231q22 -113 70 -204q48 -92 130 -144t180 -52q186 0 282 142q121 180 121 505t-121 507
q-43 64 -113 105t-160 41t-161.5 -36t-118 -96.5t-77 -145.5t-43.5 -178.5t-13 -212.5zM80 753q0 115 19 224t62 211t106.5 177.5t159.5 121t211.5 45.5t207.5 -46q168 -85 252.5 -289.5t84.5 -444.5q-1 -439 -227 -652q-123 -116 -315 -116q-111 0 -205 44.5t-158.5 119
t-110 174t-66.5 208t-21 223.5z" />
    <glyph glyph-name="uni022D" unicode="&#x22d;" horiz-adv-x="972" 
d="M216 1507v92h527v-92h-527zM184 1255q61 130 175 130q82 0 140 -56.5t121 -56.5t100 86l69 -40q-62 -130 -175 -130q-80 0 -139.5 56.5t-122 56.5t-99.5 -86zM207 528q1 -317 165 -402q50 -26 115 -26t115 26q162 84 163 401q0 427 -279 427t-279 -426zM75 534.5
q0 241.5 108.5 386.5t303.5 145t302.5 -146t107.5 -390t-108.5 -393t-303.5 -149t-302.5 152.5t-107.5 394z" />
    <glyph glyph-name="uni022E" unicode="&#x22e;" horiz-adv-x="1263" 
d="M566 1654v150h150v-150h-150zM228 739q0 -119 24 -231q22 -113 70 -204q48 -92 130 -144t180 -52q186 0 282 142q121 180 121 505t-121 507q-43 64 -113 105t-160 41t-161.5 -36t-118 -96.5t-77 -145.5t-43.5 -178.5t-13 -212.5zM80 753q0 115 19 224t62 211t106.5 177.5
t159.5 121t211.5 45.5t207.5 -46q168 -85 252.5 -289.5t84.5 -444.5q-1 -439 -227 -652q-123 -116 -315 -116q-111 0 -205 44.5t-158.5 119t-110 174t-66.5 208t-21 223.5z" />
    <glyph glyph-name="uni022F" unicode="&#x22f;" horiz-adv-x="972" 
d="M412 1188v150h150v-150h-150zM207 528q1 -317 165 -402q50 -26 115 -26t115 26q162 84 163 401q0 427 -279 427t-279 -426zM75 534.5q0 241.5 108.5 386.5t303.5 145t302.5 -146t107.5 -390t-108.5 -393t-303.5 -149t-302.5 152.5t-107.5 394z" />
    <glyph glyph-name="uni0230" unicode="&#x230;" horiz-adv-x="1263" 
d="M378 1926v92h527v-92h-527zM566 1654v150h150v-150h-150zM228 739q0 -119 24 -231q22 -113 70 -204q48 -92 130 -144t180 -52q186 0 282 142q121 180 121 505t-121 507q-43 64 -113 105t-160 41t-161.5 -36t-118 -96.5t-77 -145.5t-43.5 -178.5t-13 -212.5zM80 753
q0 115 19 224t62 211t106.5 177.5t159.5 121t211.5 45.5t207.5 -46q168 -85 252.5 -289.5t84.5 -444.5q-1 -439 -227 -652q-123 -116 -315 -116q-111 0 -205 44.5t-158.5 119t-110 174t-66.5 208t-21 223.5z" />
    <glyph glyph-name="uni0231" unicode="&#x231;" horiz-adv-x="972" 
d="M224 1460v92h527v-92h-527zM412 1188v150h150v-150h-150zM207 528q1 -317 165 -402q50 -26 115 -26t115 26q162 84 163 401q0 427 -279 427t-279 -426zM75 534.5q0 241.5 108.5 386.5t303.5 145t302.5 -146t107.5 -390t-108.5 -393t-303.5 -149t-302.5 152.5t-107.5 394z
" />
    <glyph glyph-name="uni0232" unicode="&#x232;" horiz-adv-x="1122" 
d="M298 1654v92h527v-92h-527zM25 1515h154l382 -713l382 713h154l-462 -855v-660h-148v660z" />
    <glyph glyph-name="uni0233" unicode="&#x233;" horiz-adv-x="905" 
d="M189 1188v92h527v-92h-527zM25 1055h142l299 -859l280 859h134l-368 -1119q-56 -171 -116 -234.5t-121.5 -79t-124.5 -15.5t-123 8l10 121q36 -17 96 -17t99 15.5t64 39.5q87 86 108 223z" />
    <glyph glyph-name="uni0234" unicode="&#x234;" horiz-adv-x="392" 
d="M-6 -151q69 57 134 94q-3 41 -3 91l4 90v1391h132v-1411q0 -60 1 -105q44 11 85 11q86 0 133.5 -52t47.5 -119.5t-47 -119.5t-116 -52q-69 1 -112 21q-82 39 -111 155q-52 -34 -107 -84zM266 -98q4 -44 21 -88q18 -45 58.5 -45t62.5 21.5t22 47t-22 51t-61 25.5t-81 -12z
" />
    <glyph glyph-name="uni0235" unicode="&#x235;" horiz-adv-x="970" 
d="M120 0v1055h132v-173q88 87 167 135.5t186 48.5t181 -70t74 -210v-640q0 -62 1 -107q37 13 71 13q100 0 147.5 -52t47.5 -119.5t-47 -119.5t-116 -52q-127 0 -178 75q-18 27 -31 60q-39 -40 -58 -71l-79 54q34 59 96 116l15 14q-5 52 -5 119l4 90v620q0 75 -53.5 121.5
t-115.5 46.5q-148 0 -307 -173v-781h-132zM866 -66q14 -123 78 -123q40 0 62.5 21.5t22.5 47t-22 51t-60.5 25.5t-80.5 -22z" />
    <glyph glyph-name="uni0236" unicode="&#x236;" horiz-adv-x="606" 
d="M370 95q26 -102 82 -102q90 0 90 52q0 22 -25 44t-65 22t-82 -16zM229 113q-17 73 -17 159.5t2 107.5v563h-178v112h178v385h132v-385h242v-112h-242v-583q0 -100 8 -173q50 19 118.5 19.5t118 -48.5t49.5 -113.5t-49.5 -109t-122.5 -44.5q-136 1 -190 95q-11 19 -20 40
l-28 -24q-25 -22 -52 -50l-29 -31l-41 90q6 5 39 35t62 52z" />
    <glyph glyph-name="uni0237" unicode="&#x237;" horiz-adv-x="362" 
d="M-63 -225q97 0 140 34t43 162v1084h132v-1055q0 -168 -37.5 -229t-65.5 -75q-65 -33 -165 -33h-39z" />
    <glyph glyph-name="uni0238" unicode="&#x238;" horiz-adv-x="1616" 
d="M874 278q101 -138 178 -164q40 -13 98 -13q60 -1 112 31q146 88 147 378q0 444 -298 444q-131 0 -237 -151v-525zM207 510q1 -178 65 -293.5t207 -115.5q95 0 150 49t113 128v525q-106 151 -237 151q-298 0 -298 -444zM75 510q0 147 47.5 273t139.5 204.5t196.5 78.5
t184.5 -54t99 -95v598h132v-598q19 41 99 95t172 54q180 0 288 -154.5t108 -401.5q-1 -145 -57 -276q-103 -240 -326 -245q-146 3 -250 129q-20 25 -34 48q0 -154 -25 -166h-82q-25 12 -25 166q-102 -177 -284 -177q-91 0 -166 45.5t-121 120.5q-96 157 -96 355z" />
    <glyph glyph-name="uni0239" unicode="&#x239;" horiz-adv-x="996" 
d="M886 254q46 -66 112 -110q65 -44 125 -43q60 -1 100 11q93 26 151.5 128t58.5 329.5t-116 329.5q-62 55 -156 55q-126 0 -220 -106q-24 -28 -55 -69v-525zM754 -411v1466h132v-164q24 45 79 90q103 85 217 85q210 0 320 -230q63 -132 63 -289q0 -275 -135 -439
q-98 -119 -261 -119q-92 0 -178 55.5t-105 95.5v-551h-132zM269 234q27 -50 67 -80q68 -53 152 -53h3q156 0 263 153v525q-60 82 -104 115q-77 60 -171 60q-95 0 -157 -55q-116 -102 -115.5 -329.5t62.5 -335.5zM75 543q-1 79 15 153q32 153 127 261.5t239.5 108.5
t261.5 -127q24 -26 36 -48l17 164h115v-1466h-132v551q-19 -40 -105 -95.5t-172.5 -55.5t-154 32t-112.5 86.5t-76 127t-45 151t-14 157.5z" />
    <glyph glyph-name="uni023A" unicode="&#x23a;" horiz-adv-x="1130" 
d="M213.043 -92.7568l602.383 1650.68l107.585 9.40625l-601.387 -1650.59zM346 602h440l-221 787zM25 0l432 1515h216l432 -1515h-154l-130 478h-509l-133 -478h-154z" />
    <glyph glyph-name="uni023B" unicode="&#x23b;" horiz-adv-x="1174" 
d="M70 -38l744 1592h108l-743 -1592h-109zM932 1046q-51 362 -314 362q-390 0 -390 -649q0 -278 82 -454q44 -93 122 -145t171 -52q226 0 313 186q41 88 44 169l146 -23q-4 -11 -18.5 -54t-24.5 -70t-32.5 -73.5t-44.5 -77.5q-131 -181 -347 -181q-189 0 -305 90
q-254 196 -254 702q0 226 76 414q86 214 256 296q92 46 188 46t163.5 -24.5t113.5 -63.5q99 -84 143.5 -182t57.5 -150l6 -24v-1z" />
    <glyph glyph-name="uni023C" unicode="&#x23c;" horiz-adv-x="926" 
d="M16 -236l744 1592h108l-743 -1592h-109zM75 520q0 546 425 546q104 0 176 -50q108 -76 150 -203l-106 -48q-2 20 -21.5 59t-41.5 64t-63.5 45.5t-93.5 20.5q-293 0 -293 -425q0 -206 77.5 -317t215.5 -111h3q92 0 150 67t79 118l9 22l104 -50q0 -21 -38.5 -78.5t-76 -96
t-99 -66.5t-131.5 -28q-218 0 -321.5 139.5t-103.5 391.5z" />
    <glyph glyph-name="uni023D" unicode="&#x23d;" horiz-adv-x="980" 
d="M-229 693v92h928v-92h-928zM135 0v1515h148v-1373h672v-142h-820z" />
    <glyph glyph-name="uni023E" unicode="&#x23e;" 
d="M120 51l744 1592h108l-743 -1592h-109zM25 1391v124h1012v-124h-432v-1391h-148v1391h-432z" />
    <glyph glyph-name="uni023F" unicode="&#x23f;" horiz-adv-x="878" 
d="M175.215 106.262q130.284 60.3672 217.607 -12.915q62.8115 -52.7109 70.9229 -133.273t56.3691 -121.06q48.2568 -40.498 131.876 1.59277l27.1436 -74.9941q-131.051 -59.7246 -217.607 12.915q-61.2793 51.4258 -70.54 132.952t-57.1348 121.702
q-47.875 40.1768 -131.494 -1.91406zM80 200l99 64q53 -82 118 -122.5t161 -40.5t152 48.5t56 112.5q0 114 -76 158t-148 62t-114 32q-98 34 -166 100t-68 182.5t93.5 193t251.5 76.5t276 -123q22 -23 37 -45l-91 -68q-7 7 -28 29.5t-27 28.5l-26 21q-18 17 -30 21l-34 12
q-32 12 -108 12t-131 -43.5t-55 -95.5q0 -92 64.5 -133t141 -64t101 -31t66 -24.5t65.5 -31.5q75 -48 106.5 -103.5t31.5 -135.5q0 -133 -101 -218t-234 -85t-223.5 50.5t-159.5 160.5z" />
    <glyph glyph-name="uni0240" unicode="&#x240;" horiz-adv-x="779" 
d="M25 0h136q65 0 128 -58l54 -48q68 -57 149 -57h3q171 0 259 187l-99 57q-52 -123 -151 -123q-67 0 -119 57l-47 48q-58 57 -152 57l568 861v74h-676v-112h507l-560 -858v-85z" />
    <glyph glyph-name="uni0241" unicode="&#x241;" horiz-adv-x="863" 
d="M93 1314q81 153 213 187q52 14 136 14t164.5 -55t123 -143t42.5 -179q0 -164 -124 -312l-104 -122q-124 -141 -124 -235v-469h-132v469q0 123 123 269l102 121q123 146 123 261.5t-69 190.5t-139.5 75t-112.5 -15.5t-65 -41.5t-57 -83z" />
    <glyph glyph-name="uni0242" unicode="&#x242;" horiz-adv-x="863" 
d="M93 903q81 153 213 187q52 14 136 14t164.5 -55t123 -143t42.5 -179t-36 -171t-88 -142l-104 -120q-124 -143 -124 -236v-59h-132v59q0 124 123 270l102 120q123 145 123 261t-69 191t-139.5 75t-112.5 -15.5t-65 -41.5t-57 -83z" />
    <glyph glyph-name="uni0243" unicode="&#x243;" horiz-adv-x="1132" 
d="M-46 411v92h524v-92h-524zM283 850l325 3q140 1 212 71q30 30 52.5 88.5t22.5 139.5q0 117 -73.5 178t-213.5 61h-325v-541zM283 124h325q162 0 238 68q32 28 55 84.5t23 133.5q0 142 -87 229t-229 87h-325v-602zM135 0v1515h473q183 0 302 -104.5t119 -258.5
q0 -254 -178 -326q-31 -12 -77 -26q164 -42 246 -197q44 -85 44 -193q0 -187 -117 -298.5t-339 -111.5h-473z" />
    <glyph glyph-name="uni0244" unicode="&#x244;" horiz-adv-x="1213" 
d="M29.0059 697v92h1149.97v-92h-1149.97zM135 455v1060h148v-1060q0 -135 66 -229q83 -118 260 -118q87 0 151 28t96 66q79 96 81 253l-6 1060h154v-1060q-1 -163 -89 -293q-121 -178 -387 -178q-319 0 -429 254q-45 104 -45 217z" />
    <glyph glyph-name="uni0245" unicode="&#x245;" horiz-adv-x="1104" 
d="M1079 0h-154l-373 1256l-373 -1256h-154l450 1515h154z" />
    <glyph glyph-name="uni0246" unicode="&#x246;" 
d="M174.043 -71.7568l602.383 1650.68l107.585 9.40625l-601.387 -1650.59zM135 0v1515h821v-124h-673v-533h483v-124h-483v-601h711v-133h-859z" />
    <glyph glyph-name="uni0247" unicode="&#x247;" horiz-adv-x="925" 
d="M43 -257l744 1592h108l-743 -1592h-109zM213 625h496q-2 107 -46 207q-24 54 -72.5 88t-114.5 34q-176 0 -233 -162q-28 -79 -30 -167zM75 500q0 99 14 180.5t37 138.5q64 159 200 217q71 30 135 30t109 -12q44 -10 96 -46q174 -120 175 -495h-634q-1 -265 135 -363
q67 -48 149 -49q154 0 262 191l91 -63q-39 -72 -102 -130q-120 -110 -237 -110t-199 43t-131 116t-74.5 163t-25.5 189z" />
    <glyph glyph-name="uni0248" unicode="&#x248;" horiz-adv-x="896" 
d="M424 693v92h524v-92h-524zM25 244l103 53l14 -29q50 -98 152 -142q44 -18 92 -18q122 0 174.5 83.5t52.5 237.5v1086h148v-1086q0 -327 -217 -417q-68 -28 -152.5 -28t-150.5 26.5t-103 59.5t-71 86q-34 52 -42 88z" />
    <glyph glyph-name="uni0249" unicode="&#x249;" horiz-adv-x="362" 
d="M-81 694v92h524v-92h-524zM111 1188v150h150v-150h-150zM-63 -225q97 0 140 34t43 162v1084h132v-1055q0 -168 -37.5 -229t-65.5 -75q-65 -33 -165 -33h-39z" />
    <glyph glyph-name="uni024A" unicode="&#x24a;" horiz-adv-x="1619" 
d="M240 794q0 -158 28.5 -276.5t74.5 -193t108.5 -124t125.5 -69.5t130 -19.5t138.5 42t121.5 94.5t96 118v750q-92 125 -138 171q-116 116 -252.5 116t-236.5 -87.5t-148 -225.5t-48 -296zM92 779q0 113 22 218.5t68 201t109.5 168.5t154 116.5t175 43.5t147.5 -20
q107 -34 185.5 -105t109.5 -125l25 234h123v-1511q0 -209 80 -281q31 -28 91.5 -53t144.5 -26v-141q-158 1 -282 55.5t-161 203.5q-21 85 -21 243v202q-25 -51 -145 -133q-120 -83 -248 -83t-223.5 46t-160.5 123.5t-109.5 181t-64.5 216t-20 225.5z" />
    <glyph glyph-name="uni024B" unicode="&#x24b;" horiz-adv-x="1128" 
d="M269 234q27 -50 67 -80q68 -53 152 -53h3q156 0 263 153v525q-60 82 -104 115q-77 60 -171 60q-95 0 -157 -55q-116 -102 -115.5 -329.5t62.5 -335.5zM75 543q-1 79 15 153q32 153 127 261.5t239.5 108.5t261.5 -127q24 -26 36 -48l17 164h115v-1057q0 -145 56 -196
q33 -28 136 -31v-123q-69 0 -144 20.5t-112.5 59.5t-52.5 100.5t-15 168.5v143q-19 -40 -105 -95.5t-172.5 -55.5t-154 32t-112.5 86.5t-76 127t-45 151t-14 157.5z" />
    <glyph glyph-name="uni024C" unicode="&#x24c;" horiz-adv-x="1093" 
d="M-152 692v123.996h928v-123.996h-928zM283 816h376q105 0 183 70t78 224q0 206 -222 264q-66 17 -144 17h-271v-575zM135 0v1515h510q239 0 358 -186q65 -101 65 -223t-68 -240q-68 -116 -224 -150l286 -716h-162l-276 692h-341v-692h-148z" />
    <glyph glyph-name="uni024D" unicode="&#x24d;" horiz-adv-x="639" 
d="M-40 472v92h524v-92h-524zM120 0v1055h132v-284q47 104 72 143q98 152 254 152q12 0 36 -2v-112q-68 -9 -113 -25t-88 -53q-75 -63 -161 -247v-627h-132z" />
    <glyph glyph-name="uni024E" unicode="&#x24e;" horiz-adv-x="1122" 
d="M92 1124v111.996h928v-111.996h-928zM25 1515h154l382 -713l382 713h154l-462 -855v-660h-148v660z" />
    <glyph glyph-name="uni024F" unicode="&#x24f;" horiz-adv-x="905" 
d="M338 564l128 -368l120 368h-248zM-12 564v112h173l-136 379h142l132 -379h324l123 379h134l-125 -379h161v-112h-197l-207 -628q-56 -171 -116 -234.5t-121.5 -79t-124.5 -15.5t-123 8l10 121q36 -17 96 -17t99 15.5t64 39.5q87 86 108 223l-203 567h-213z" />
    <glyph glyph-name="uni0250" unicode="&#x250;" horiz-adv-x="928" 
d="M712 801q0 74 -52 113.5t-116 39.5q-110 0 -191.5 -61.5t-117.5 -104.5v-317q190 49 225 60q176 57 227 150q25 46 25 120zM438 -11q-335 0 -335 367v549q0 29 -11 79t-20 69h133q30 -15 30 -168q141 181 320 181t252 -132q37 -67 37 -138.5t-18 -125t-56 -95.5
q-79 -85 -211 -131.5t-324 -84.5q0 -158 57.5 -208t171.5 -50t206 96q38 40 54 70l95 -63q-112 -215 -381 -215z" />
    <glyph glyph-name="uni0253" unicode="&#x253;" horiz-adv-x="994" 
d="M416.883 1475.55q-52.707 62.8164 -152.16 53.7695q-63.6172 -5.08203 -100.713 -15.3242l-10.3916 -70.0742q127.129 41.4072 174.051 -14.5146q17.3545 -20.6836 14.0645 -70.4385q-3.28906 -49.7549 -12.3057 -71.6807l102.544 3.80664
q12.4248 36.5342 12.8086 93.6426q0.383789 57.1074 -27.8975 90.8135zM252 278q101 -138 178 -164q40 -13 98 -13q60 -1 112 31q146 88 147 378q0 444 -298 444q-131 0 -237 -151v-525zM94 0q26 55 26 146v1369h132v-598q19 41 99 95t172 54q180 0 288 -154.5t108 -401.5
q-1 -145 -57 -276q-103 -240 -326 -245q-146 3 -250 129q-20 25 -34 48q0 -154 -25 -166h-133z" />
    <glyph glyph-name="uni0254" unicode="&#x254;" horiz-adv-x="926" 
d="M845 535q0 -546 -425 -546q-104 0 -176 50q-108 76 -150 203l106 48q2 -20 21.5 -59t41.5 -64t63.5 -45.5t93.5 -20.5q293 0 293 425q0 206 -77.5 317t-215.5 111h-3q-92 0 -150 -67t-79 -118l-9 -22l-104 50q0 21 38.5 78.5t76 96t99 66.5t131.5 28q218 0 321.5 -139.5
t103.5 -391.5z" />
    <glyph glyph-name="uni0255" unicode="&#x255;" horiz-adv-x="926" 
d="M495 101h29q28 -1 86 25q96 42 95 100q0 20 -23 46q-17 10 -36 10t-49 -14t-43 -38q-35 -61 -59 -129zM75 520q0 546 425 546q104 0 176 -50q108 -76 150 -203l-106 -48q-2 20 -21.5 59t-41.5 64t-63.5 45.5t-93.5 20.5q-293 0 -293 -426q0 -345 192 -412q66 196 150 238
q49 24 73 24t48.5 -0.5t67 -24.5t62.5 -64t20 -64.5t-5.5 -56.5t-39.5 -76.5t-106.5 -73.5t-168.5 -29q-19 0 -37 1q-8 -34 -13 -70l-94 32q5 27 11 53q-121 31 -189 123q-104 140 -103 392z" />
    <glyph glyph-name="uni0256" unicode="&#x256;" horiz-adv-x="984" 
d="M870.456 120.467q-18.7021 -132.388 44.5137 -168.888q23.3809 -13.5 71.123 -1.80469q47.7412 11.6943 69.1338 24.7471l14.0557 -101.648q-67.1387 -36.291 -136.194 -29.9062q-30.748 2.74121 -54.9941 16.7412q-24.248 14 -41.7266 43.7227
q-29.6641 50.6152 -32.9424 107.935t-0.168945 86.7021zM207 510q1 -178 65 -294t207 -115q95 0 150 49t113 128v525q-106 151 -237 151q-298 0 -298 -444zM75 510q0 147 47.5 273t139.5 204.5t196.5 78.5t184.5 -54t99 -95v598h132v-1369q0 -30 8.5 -78.5t17.5 -67.5h-133
q-25 12 -25 166q-102 -177 -284 -177q-91 0 -166 45.5t-121 120.5q-96 157 -96 355z" />
    <glyph glyph-name="uni0257" unicode="&#x257;" horiz-adv-x="984" 
d="M862.021 1611.97q-71.0098 -41 -79.3701 -140.515q-6.04004 -63.5332 -2.39551 -101.845l67.2002 -22.3994q-18.7021 132.388 44.5137 168.888q23.3809 13.5 71.8057 1.62207t68.4512 -24.5645l14.0557 101.648q-33.8193 18.5791 -89.9893 28.8721t-94.2715 -11.707z
M207 510q1 -178 65 -294t207 -115q95 0 150 49t113 128v525q-106 151 -237 151q-298 0 -298 -444zM75 510q0 147 47.5 273t139.5 204.5t196.5 78.5t184.5 -54t99 -95v598h132v-1369q0 -30 8.5 -78.5t17.5 -67.5h-133q-25 12 -25 166q-102 -177 -284 -177q-91 0 -166 45.5
t-121 120.5q-96 157 -96 355z" />
    <glyph glyph-name="uni0258" unicode="&#x258;" horiz-adv-x="925" 
d="M210 625h496q-6 235 -150 305q-48 24 -113.5 24t-114 -34t-72.5 -88q-44 -100 -46 -207zM75 229l91 63q108 -191 262 -191q81 0 134.5 38.5t82.5 82.5q67 102 67 291h-634q0 375 174 495q85 58 192 58q185 0 292.5 -145t107.5 -419q0 -205 -100 -354q-49 -73 -131 -116
t-166 -43q-150 0 -241.5 83.5t-130.5 156.5z" />
    <glyph glyph-name="uni0259" unicode="&#x259;" horiz-adv-x="925" 
d="M706 430h-496q2 -107 46 -207q24 -54 72.5 -88t114.5 -34q176 0 233 162q28 79 30 167zM844 555q0 -99 -14 -180.5t-37 -138.5q-64 -159 -200 -217q-71 -30 -135 -30t-109 12q-44 10 -96 46q-174 120 -175 495h634q1 265 -135 363q-67 48 -149 49q-154 0 -262 -191
l-91 63q39 72 102 130q120 110 237 110t199 -43t131 -116t74.5 -163t25.5 -189z" />
    <glyph glyph-name="uni0292" unicode="&#x292;" horiz-adv-x="779" 
d="M27 -137l78 69q129 -148 286 -148q103 0 192 97t89 225t-75 192q-75 65 -169 74t-137.5 9t-74.5 -3v85l369 480h-507v112h676v-74l-375 -484h13q112 0 221 -61q69 -39 118 -120t49 -215q0 -176 -113.5 -301t-275.5 -125q-124 0 -221.5 60t-142.5 128z" />
    <glyph glyph-name="caron" unicode="&#x2c7;" horiz-adv-x="624" 
d="M90 1354l65 65l157 -157l156 156l66 -64l-222 -222z" />
    <glyph glyph-name="breve" unicode="&#x2d8;" horiz-adv-x="530" 
d="M59 1250l69 40q18 -42 57 -69t80 -27t80 27t57 69l69 -40q-65 -135 -206 -135t-206 135z" />
    </font>
</defs>
</svg>
