<?xml version="1.0" standalone="no"?>
<!DOCTYPE svg PUBLIC "-//W3C//DTD SVG 1.1//EN" "http://www.w3.org/Graphics/SVG/1.1/DTD/svg11.dtd" >
<svg>
<metadata>
Created by FontForge 20120731 at Sat Jul 12 06:48:42 2014
 By World Wide Web Server
Copyright (c) 2011, Dario Manuel Muhafara (http://www.tipo.net.ar), with Reserved Font Name "Overlock".
</metadata>
<defs>
<font id="OverlockSC-Regular" horiz-adv-x="535" >
  <font-face 
    font-family="Overlock SC"
    font-weight="400"
    font-stretch="normal"
    units-per-em="1000"
    panose-1="2 0 5 6 3 0 0 2 0 4"
    ascent="800"
    descent="-200"
    x-height="519"
    cap-height="666"
    bbox="-130 -253 1074 899"
    underline-thickness="20"
    underline-position="-113"
    unicode-range="U+0020-FB02"
  />
<missing-glyph horiz-adv-x="230" 
 />
    <glyph glyph-name=".notdef" horiz-adv-x="230" 
 />
    <glyph glyph-name=".null" horiz-adv-x="0" 
 />
    <glyph glyph-name="nonmarkingreturn" horiz-adv-x="333" 
 />
    <glyph glyph-name="space" unicode=" " horiz-adv-x="230" 
 />
    <glyph glyph-name="exclam" unicode="!" horiz-adv-x="261" 
d="M121 -10q-25 0 -43 18t-18 45t18 45.5t43 18.5t42.5 -18.5t17.5 -45.5t-17.5 -45t-42.5 -18zM160 522q0 -21 -9 -83.5t-9 -115.5v-33q0 -59 16 -91q-20 -10 -37 -10q-40 0 -41 37q-1 10 -1 83.5t-4 141.5t-14 99q28 10 52 10q47 0 47 -38z" />
    <glyph glyph-name="quotedbl" unicode="&#x22;" horiz-adv-x="345" 
d="M50 698q0 18 13.5 28.5t33.5 10.5q18 0 30 -11t12 -35q0 -42 -19 -167q-4 -24 -12 -33.5t-23 -9.5q-12 0 -24 4q3 18 3 40q0 61 -7 112t-7 61zM216 698q0 18 13.5 28.5t33.5 10.5q18 0 30 -11t12 -35q0 -42 -19 -167q-4 -24 -12 -33.5t-23 -9.5q-12 0 -24 4q3 18 3 40
q0 61 -7 112t-7 61z" />
    <glyph glyph-name="numbersign" unicode="#" 
d="M206 272q93 0 119 1q6 36 15 116q-26 1 -85 1h-31q-13 -73 -18 -118zM392 613q31 0 31 -32q0 -2 -24 -137q118 5 136 6q-1 -22 -2.5 -33.5t-13 -23t-32.5 -11.5q-5 0 -19.5 1t-38 2t-41.5 2q-9 -54 -17 -114q91 4 140 7q-1 -17 -2 -25.5t-5 -20t-14.5 -16.5t-26.5 -5
q-5 0 -20 1t-38.5 2t-41.5 2q-10 -87 -10 -112q0 -21 4 -57q-14 -8 -32 -8q-30 0 -30 33q0 15 21 146q-26 1 -85 1h-32q-11 -99 -11 -115q0 -21 4 -57q-14 -8 -32 -8q-30 0 -30 33q0 15 21 146q-83 -4 -134 -18q-3 10 -3 32q0 40 63 40q52 0 83 -1l15 116q-83 -4 -134 -18
q-3 10 -3 33q0 40 63 40l81 -1q2 15 6.5 52.5t7.5 67.5t4 47q14 3 27 3q31 0 31 -32q0 -7 -25 -139h114q1 9 9 76.5t9 91.5q14 3 27 3z" />
    <glyph glyph-name="dollar" unicode="$" 
d="M133 427q0 -39 26.5 -61t75.5 -37v193q-45 -2 -73.5 -26t-28.5 -69zM395 152q0 42 -30 62t-89 36v-206q51 2 85 29.5t34 78.5zM395 458q-14 24 -47.5 41t-72.5 22v-203q23 -6 26.5 -7t25 -7t26.5 -8.5t23 -9.5t23.5 -12t18 -13.5t17 -17.5t11.5 -20t9 -24.5t2 -28.5
q0 -87 -51 -129.5t-130 -49.5q2 -40 4 -57l-15 -2q-29 0 -29 27v31q-71 2 -123.5 25t-52.5 55q0 17 11 27t33 20q15 -27 52 -46.5t80 -24.5v213q-29 7 -49.5 14t-44.5 20.5t-38 29.5t-24 42.5t-10 59.5q0 65 45.5 103.5t119.5 47.5q-2 52 -4 74q11 3 17 3q27 0 27 -27v-47
q62 0 115.5 -21t53.5 -58q0 -33 -49 -42z" />
    <glyph glyph-name="percent" unicode="%" horiz-adv-x="794" 
d="M608 -10q-63 0 -100 39.5t-37 106.5t37 106.5t100 39.5q62 0 99 -39.5t37 -106.5t-37 -106.5t-99 -39.5zM684 130q0 42 -20 75t-56 33q-34 0 -56.5 -26t-22.5 -65q0 -44 20.5 -78t57.5 -34q35 0 56 27t21 68zM181 16l264 337q91 116 140 187q15 -2 28.5 -12.5t13.5 -21.5
q0 -9 -10 -23l-264 -338q-87 -111 -140 -187q-42 13 -42 35q0 10 10 23zM187 209q-63 0 -100 39.5t-37 106.5t37 106.5t100 39.5q62 0 99 -39.5t37 -106.5t-37 -106.5t-99 -39.5zM263 349q0 42 -20 75t-56 33q-34 0 -56.5 -26t-22.5 -65q0 -44 20.5 -78t57.5 -34q35 0 56 27
t21 68z" />
    <glyph glyph-name="ampersand" unicode="&#x26;" horiz-adv-x="506" 
d="M153 408q0 -29 42 -101q37 28 53.5 51.5t16.5 56.5q0 24 -13 40.5t-40 16.5q-59 0 -59 -64zM232 51q35 0 65 16q-73 70 -133 153q-34 -31 -34 -73q0 -44 28.5 -70t73.5 -26zM378 242q42 0 42 -52q0 -60 -26 -104q42 -27 80 -28q2 -10 2 -23q0 -18 -11.5 -30t-35.5 -12
q-41 0 -87 35q-51 -35 -118 -35q-69 0 -121 38.5t-52 108.5q0 43 20.5 70.5t61.5 55.5q-23 40 -33 59q-22 47 -22 77q0 57 40 91t101 34q57 0 89 -31t32 -73q0 -31 -9 -56t-29 -45t-35.5 -31.5t-43.5 -29.5q59 -82 119 -137q6 17 6 40q0 34 -12 65q28 13 42 13z" />
    <glyph glyph-name="quotesingle" unicode="'" horiz-adv-x="239" 
d="M60 698q0 18 13.5 28.5t33.5 10.5q18 0 30 -11t12 -35q0 -42 -19 -167q-4 -24 -12 -33.5t-23 -9.5q-12 0 -24 4q3 18 3 40q0 61 -7 112t-7 61z" />
    <glyph glyph-name="parenleft" unicode="(" horiz-adv-x="343" 
d="M90 266q0 83 20.5 171t48.5 150.5t58 103t50 40.5q17 0 33 -23q-62 -70 -100 -194.5t-38 -247.5q0 -135 39 -256t99 -190q-16 -23 -33 -23q-19 0 -48.5 39.5t-58.5 101.5t-49.5 151.5t-20.5 176.5z" />
    <glyph glyph-name="parenright" unicode=")" horiz-adv-x="320" 
d="M230 266q0 -87 -20.5 -176.5t-49.5 -151.5t-58.5 -101.5t-48.5 -39.5q-17 0 -33 23q60 69 99 190t39 256q0 123 -38 247.5t-100 194.5q16 23 33 23q20 0 50 -40.5t58 -103t48.5 -150.5t20.5 -171z" />
    <glyph glyph-name="asterisk" unicode="*" horiz-adv-x="406" 
d="M241 704q0 -10 -13 -99q20 13 104 74q29 -25 29 -54q0 -10 -5 -18t-18 -15t-23.5 -11.5t-34 -13.5t-37.5 -14q22 -23 104 -95q-23 -41 -55 -41q-13 0 -25 13.5t-34.5 49.5t-31.5 50q-13 -18 -26.5 -40.5t-28 -47.5t-21.5 -37q-19 7 -34.5 21t-15.5 31q0 12 14.5 28.5
t51.5 52.5q12 11 19 18q-32 14 -125 46q4 23 16 41.5t31 18.5q9 0 20 -5.5t37.5 -23.5t37.5 -25q-2 27 -15 130q17 5 32 5q47 0 47 -39z" />
    <glyph glyph-name="plus" unicode="+" 
d="M296 280q118 0 187 8q3 -9 3 -30q0 -18 -10 -30t-26 -12q-17 0 -73.5 3.5t-81.5 3.5q0 -109 8 -197q-15 -3 -30 -3q-17 0 -29.5 9.5t-12.5 26.5q0 8 3 64.5t4 100.5q-99 -1 -186 -8q-3 15 -3 30q0 16 9 29t27 13q8 0 60.5 -3t93.5 -4q0 128 -8 197q9 3 30 3q18 0 30 -10
t12 -26q0 -17 -3.5 -78.5t-3.5 -86.5z" />
    <glyph glyph-name="comma" unicode="," horiz-adv-x="227" 
d="M107 -22q0 49 -49 59q-10 16 -10 33q0 21 17 35.5t41 14.5q26 0 44.5 -23t18.5 -71q0 -63 -34.5 -116t-81.5 -53q-26 0 -26 30q0 8 1 12h5q32 0 53 24t21 55z" />
    <glyph glyph-name="hyphen" unicode="-" horiz-adv-x="230" 
d="M225 267q0 -17 -10 -28t-26 -11q-6 0 -31.5 2.5t-45.5 2.5q-47 0 -84 -8q-3 15 -3 30q0 16 8.5 27.5t27.5 11.5q1 0 30.5 -2t52.5 -2q47 0 78 7q3 -9 3 -30z" />
    <glyph glyph-name="period" unicode="." horiz-adv-x="231" 
d="M111 -10q-25 0 -43 18t-18 45t18 45.5t43 18.5t42.5 -18.5t17.5 -45.5t-17.5 -45t-42.5 -18z" />
    <glyph glyph-name="slash" unicode="/" horiz-adv-x="258" 
d="M129 113q-22 -146 -30 -232q-13 -3 -24 -3q-33 0 -33 28q0 7 94 601q22 146 30 232l21 3q36 0 36 -27z" />
    <glyph glyph-name="zero" unicode="0" horiz-adv-x="525" 
d="M262 -10q-100 0 -158.5 66t-58.5 176q0 112 58.5 177.5t158.5 65.5t159 -65.5t59 -177.5q0 -110 -59 -176t-159 -66zM422 221q0 76 -42.5 137t-117.5 61q-70 0 -114.5 -50.5t-44.5 -120.5q0 -80 42.5 -141t115.5 -61q72 0 116.5 50.5t44.5 124.5z" />
    <glyph glyph-name="one" unicode="1" horiz-adv-x="347" 
d="M227 54q38 0 84 4q4 -12 4 -22q0 -38 -39 -38q-6 0 -50 1t-87 1q-56 0 -87 -1q-5 15 -5 24q0 34 58 34h48q0 13 1 77t1 116q0 88 -3 163q-83 -10 -104 -14q-2 10 -2 17q0 37 39 43q96 16 103 16q15 0 27.5 -9t12.5 -29q0 -6 -2 -38t-4 -81t-2 -95v-34q0 -91 7 -135z" />
    <glyph glyph-name="two" unicode="2" horiz-adv-x="482" 
d="M126 61q78 0 214 8q64 2 106 13q12 -17 12 -36q0 -42 -72 -45q-78 -3 -165 -3q-66 0 -144 2q-46 0 -46 45q0 8 1 12q16 11 71 45.5t83 55t66.5 52.5t56 62.5t17.5 60.5q0 37 -27.5 61t-71.5 24q-32 0 -67 -23t-57 -58q-36 5 -36 31q0 35 54 71t120 36q72 0 115 -35
t43 -90q0 -69 -68 -147t-205 -142z" />
    <glyph glyph-name="three" unicode="3" horiz-adv-x="426" 
d="M95 207q93 0 139.5 35t46.5 83q0 38 -27.5 66.5t-71.5 28.5q-35 0 -68.5 -21t-53.5 -60q-19 0 -31 10t-12 23q0 34 51.5 68.5t117.5 34.5q77 0 120.5 -42.5t43.5 -100.5q0 -40 -24.5 -75.5t-71.5 -54.5q54 -17 84.5 -60.5t30.5 -98.5q0 -89 -66 -145.5t-180 -56.5
q-50 0 -76.5 14.5t-26.5 36.5q0 29 33 37q30 -30 83 -30q76 0 119 36.5t43 93.5q0 60 -45 94.5t-123 34.5q-19 0 -27.5 6t-8.5 29z" />
    <glyph glyph-name="four" unicode="4" horiz-adv-x="500" 
d="M77 114q53 -3 107 -3q60 0 114 3q0 124 3 281q-98 -98 -224 -281zM296 462q13 12 50 12q7 0 25 -2q0 -3 -2.5 -39.5t-4.5 -101t-2 -134.5v-80q74 6 98 17q8 -18 8 -36q0 -29 -20 -36q-23 -8 -85 -9q0 -144 19 -204q-18 -8 -37 -8q-29 0 -39 13t-10 44q0 42 2 154
q-204 0 -259 7q-22 3 -22 41q0 11 2 25q42 67 138 184.5t139 152.5z" />
    <glyph glyph-name="five" unicode="5" horiz-adv-x="447" 
d="M311 395q-74 0 -179 6l-14 -161q31 5 80 5q95 0 149 -48t54 -137q0 -98 -66.5 -158.5t-184.5 -60.5q-56 0 -86.5 14.5t-30.5 36.5q0 29 33 37q32 -30 89 -30q82 0 128.5 41t46.5 106q0 62 -41.5 104t-126.5 42q-52 0 -89 -5q-10 10 -10 44q0 14 13 236q28 -2 192 -2
q68 0 107 8q10 -15 10 -34q0 -44 -74 -44z" />
    <glyph glyph-name="six" unicode="6" horiz-adv-x="488" 
d="M243 -10q-102 0 -150 69t-48 177q0 94 35.5 181t110.5 147t173 60q41 0 41 -33q0 -10 -4 -28q-28 4 -41 4q-79 0 -136 -49t-82.5 -119t-25.5 -147q0 -206 134 -206q58 0 89 45t31 108q0 72 -31.5 109.5t-81.5 37.5q-28 0 -55 -12q-10 16 -10 29q0 15 16 24q28 14 66 14
q87 0 128 -52.5t41 -132.5q0 -89 -53 -157.5t-147 -68.5z" />
    <glyph glyph-name="seven" unicode="7" horiz-adv-x="422" 
d="M325 401q-155 -5 -255 -5q-77 0 -77 44q0 14 10 34q49 -8 112 -8q225 0 277 2q8 -16 8 -37q0 -20 -6 -38q-17 -54 -92.5 -206.5t-143.5 -276.5q-19 -35 -34.5 -52t-33.5 -17q-32 0 -64 39q85 87 169.5 242.5t129.5 278.5z" />
    <glyph glyph-name="eight" unicode="8" horiz-adv-x="504" 
d="M361 494q0 32 -32.5 53t-77.5 21t-77.5 -21t-32.5 -53q0 -75 131 -126q48 25 68.5 54t20.5 72zM251 46q61 0 97.5 35t36.5 81q0 54 -36.5 86t-112.5 64q-59 -25 -89 -59.5t-30 -90.5q0 -46 36.5 -81t97.5 -35zM252 -10q-100 0 -153.5 49.5t-53.5 118.5q0 70 35.5 109.5
t103.5 69.5q-57 28 -85.5 63.5t-28.5 92.5q0 58 53 94.5t128 36.5q86 0 134 -40t48 -96q0 -43 -28.5 -81.5t-83.5 -63.5q64 -31 101 -73.5t37 -111.5t-53.5 -118.5t-153.5 -49.5z" />
    <glyph glyph-name="nine" unicode="9" horiz-adv-x="488" 
d="M245 475q102 0 150 -69t48 -177q0 -94 -35.5 -181t-110.5 -147t-173 -60q-41 0 -41 33q0 10 4 28q28 -4 41 -4q79 0 136 49t82.5 119t25.5 147q0 206 -134 206q-58 0 -89 -45t-31 -108q0 -72 31.5 -109.5t81.5 -37.5q28 0 55 12q10 -16 10 -29q0 -15 -16 -24
q-28 -14 -66 -14q-87 0 -128 52.5t-41 132.5q0 89 53 157.5t147 68.5z" />
    <glyph glyph-name="colon" unicode=":" horiz-adv-x="231" 
d="M111 -10q-25 0 -43 18t-18 45t18 45.5t43 18.5t42.5 -18.5t17.5 -45.5t-17.5 -45t-42.5 -18zM111 351q-25 0 -43 18t-18 45t18 45.5t43 18.5t42.5 -18.5t17.5 -45.5t-17.5 -45t-42.5 -18z" />
    <glyph glyph-name="semicolon" unicode=";" horiz-adv-x="246" 
d="M108 351q-25 0 -43 18t-18 45t18 45.5t43 18.5t42.5 -18.5t17.5 -45.5t-17.5 -45t-42.5 -18zM107 -22q0 49 -49 59q-10 16 -10 33q0 21 17 35.5t41 14.5q26 0 44.5 -23t18.5 -71q0 -63 -34.5 -116t-81.5 -53q-26 0 -26 30q0 8 1 12h5q32 0 53 24t21 55z" />
    <glyph glyph-name="less" unicode="&#x3c;" 
d="M182 251q37 -37 217 -199q-18 -34 -49 -34q-14 0 -25 11l-219 222l219 210q13 11 25 11q15 0 28.5 -10.5t20.5 -23.5q-17 -15 -70 -60.5t-98.5 -84.5t-48.5 -42z" />
    <glyph glyph-name="equal" unicode="=" 
d="M466 158q0 -18 -10 -30t-26 -12t-71.5 4t-84.5 4q-114 0 -202 -8q-3 15 -3 30q0 16 9 29t27 13q3 0 63 -3.5t104 -3.5q130 0 191 7q3 -9 3 -30zM466 358q0 -18 -10 -30t-26 -12t-71.5 4t-84.5 4q-114 0 -202 -8q-3 15 -3 30q0 16 9 29t27 13q3 0 63 -3.5t104 -3.5
q130 0 191 7q3 -9 3 -30z" />
    <glyph glyph-name="greater" unicode="&#x3e;" 
d="M337 251q-3 3 -48.5 42t-98.5 84.5t-70 60.5q7 13 20.5 23.5t28.5 10.5q12 0 25 -11l219 -210l-219 -222q-11 -11 -25 -11q-31 0 -49 34q180 162 217 199z" />
    <glyph glyph-name="question" unicode="?" horiz-adv-x="325" 
d="M150 -9q-25 0 -43 18t-18 45t18 45.5t43 18.5t42.5 -18.5t17.5 -45.5t-17.5 -45t-42.5 -18zM188 200q-26 -10 -39 -10q-45 0 -45 54q0 29 20 58t43.5 48.5t43.5 47.5t20 56q0 24 -18.5 37.5t-45.5 13.5q-30 0 -57.5 -18.5t-34.5 -47.5q-50 7 -50 43t38.5 57.5t91.5 21.5
q58 0 104 -25t46 -78q0 -33 -13 -59.5t-32 -44t-38 -32.5t-32 -33.5t-13 -39.5q0 -20 11 -49z" />
    <glyph glyph-name="at" unicode="@" horiz-adv-x="861" 
d="M350 95q-42 0 -69.5 32.5t-27.5 93.5q0 89 46.5 152.5t114.5 63.5q79 0 133 -40q-32 -122 -32 -191q0 -48 34 -48q31 0 60.5 45t29.5 118q0 90 -47.5 140t-144.5 50q-117 0 -193 -94.5t-76 -206.5q0 -85 49 -141t144 -56q46 0 83.5 17t51.5 46q47 -16 47 -42
q0 -34 -53 -58t-125 -24q-130 0 -197.5 73t-67.5 181q0 65 24.5 128.5t68 115.5t111.5 84.5t148 32.5q113 0 180.5 -62.5t67.5 -159.5q0 -96 -58 -166t-118 -70q-58 0 -74 67q-46 -81 -110 -81zM455 228q3 20 8 68.5t8 64.5q-31 25 -62 25q-41 0 -67.5 -40.5t-26.5 -106.5
q0 -39 13 -64.5t37 -25.5q22 0 46.5 20t43.5 59z" />
    <glyph glyph-name="A" unicode="A" horiz-adv-x="551" 
d="M388 268q-34 89 -103 301q-9 -23 -46 -128t-65 -173q78 -2 122 -2q62 0 92 2zM275 207q-26 0 -126 2q-67 -169 -84 -230q-33 7 -46.5 16t-13.5 24q0 12 42.5 112t103.5 254.5t96 274.5q19 3 42 3q25 0 35 -8.5t21 -44.5q63 -203 112 -330q78 -204 112 -270
q-28 -20 -48 -20q-32 0 -43 27q-19 49 -69 192q-112 -2 -134 -2z" />
    <glyph glyph-name="B" unicode="B" horiz-adv-x="547" 
d="M224 612q-24 0 -68 -4q4 -84 4 -225q32 -2 55 -2q186 0 186 114q0 117 -177 117zM272 51q65 0 109 36.5t44 99.5q0 70 -49.5 107t-121.5 37q-65 0 -95 -5q0 -80 -13 -239q19 -15 55.5 -25.5t70.5 -10.5zM69 53q16 114 16 334q0 186 -13 274q74 12 159 12q109 0 178 -40
t69 -132q0 -100 -87 -139q111 -47 111 -171q0 -95 -61.5 -148t-150.5 -53q-145 0 -221 63z" />
    <glyph glyph-name="C" unicode="C" horiz-adv-x="602" 
d="M514 134q44 -18 44 -49q0 -36 -57 -65.5t-141 -29.5q-141 0 -226 94.5t-85 247.5q0 160 85 250.5t230 90.5q78 0 131 -31.5t53 -77.5q0 -41 -57 -50q-19 49 -60 73.5t-87 24.5q-94 0 -153.5 -74.5t-59.5 -185.5q0 -128 60 -214.5t168 -86.5q48 0 89.5 21t65.5 62z" />
    <glyph glyph-name="D" unicode="D" horiz-adv-x="635" 
d="M66 53q14 91 16 336q0 175 -13 272q60 12 155 12q78 0 140 -17t113.5 -54.5t80 -105.5t28.5 -163q0 -150 -80 -246.5t-228 -96.5q-136 0 -212 63zM153 608q4 -69 4 -163q0 -222 -14 -358q54 -36 133 -36q63 0 109 24t70.5 64.5t35.5 83.5t11 90q0 149 -74 224t-211 75
q-22 0 -64 -4z" />
    <glyph glyph-name="E" unicode="E" horiz-adv-x="486" 
d="M151 599q4 -44 4 -212h79q84 0 120 4q4 -8 4 -26q0 -23 -10.5 -31t-33.5 -9q-26 -1 -71 -1h-88q0 -218 7 -262q44 -2 71 -2q168 0 215 23q8 -20 8 -44q0 -18 -9 -26q-18 -15 -162 -15q-128 0 -158 2q-29 1 -39 14t-10 43q0 16 1 74t1 93v200q0 143 -14 233q107 9 218 9
q144 0 162 -15q9 -8 9 -26q0 -24 -8 -44q-57 21 -186 21q-53 0 -110 -3z" />
    <glyph glyph-name="F" unicode="F" horiz-adv-x="455" 
d="M155 314v-111q0 -135 19 -198q-18 -8 -47 -8t-39 13t-10 44q0 16 1 79t1 98v193q0 143 -14 233q107 9 218 9q144 0 162 -15q9 -8 9 -26q0 -24 -8 -44q-57 21 -186 21q-53 0 -110 -3q4 -44 4 -119v-103h79q83 0 120 4q4 -8 4 -26q0 -29 -16 -35t-74 -6h-113z" />
    <glyph glyph-name="G" unicode="G" horiz-adv-x="615" 
d="M558 85q0 -36 -57 -65.5t-141 -29.5q-141 0 -226 94.5t-85 247.5q0 160 85 250.5t230 90.5q78 0 131 -31.5t53 -77.5q0 -41 -57 -50q-19 49 -60 73.5t-87 24.5q-94 0 -153.5 -74.5t-59.5 -185.5q0 -128 60 -214.5t167 -86.5q80 0 129 48q-2 125 -7 202q17 3 36 3
q49 0 49 -38l-3 -64q-4 -64 -4 -117z" />
    <glyph glyph-name="H" unicode="H" horiz-adv-x="627" 
d="M73 231v200q0 141 -7 232q17 3 41 3q49 0 49 -38q0 -5 -2 -40.5t-4 -90t-2 -106.5q48 -2 162 -2q109 0 157 2v51q-1 144 -7 221q17 3 41 3q49 0 49 -38q0 -6 -2 -40.5t-4 -86t-2 -97.5v-201q0 -135 19 -198q-18 -8 -47 -8t-39 13t-10 44q0 16 1 79t1 98v101
q-51 -2 -157 -2q-114 0 -162 2v-129q0 -135 19 -198q-18 -8 -47 -8t-39 13t-10 44q0 16 1 79t1 98z" />
    <glyph glyph-name="I" unicode="I" horiz-adv-x="221" 
d="M73 231v200q0 141 -7 232q17 3 41 3q49 0 49 -38q0 -6 -2 -40.5t-4 -86t-2 -97.5v-201q0 -135 19 -198q-18 -8 -47 -8t-39 13t-10 44q0 16 1 79t1 98z" />
    <glyph glyph-name="J" unicode="J" horiz-adv-x="222" 
d="M3 -119q-37 0 -41 57q33 7 54 18.5t33 24t17.5 39.5t6.5 49t1 67q0 21 -0.5 131.5t-0.5 163.5q0 141 -7 232q17 3 41 3q49 0 49 -38q0 -5 -2 -37t-4 -79.5t-2 -90.5v-310q0 -55 -12 -98t-29.5 -67t-39 -39.5t-37 -20.5t-27.5 -5z" />
    <glyph glyph-name="K" unicode="K" horiz-adv-x="515" 
d="M100 666q56 0 56 -38q0 -5 -2 -43t-4 -97t-2 -114q86 69 168 152.5t100 137.5q52 -9 52 -38t-70 -103t-164 -153q111 -185 183 -273q12 -15 19 -21.5t21 -13.5t31 -7q12 0 23 3q4 -14 4 -25q0 -21 -17 -32t-42 -11q-43 0 -90 51q-22 24 -51 63.5t-49 69.5t-52 80t-42 65
q-17 -13 -24 -18v-98q0 -135 19 -198q-16 -8 -48 -8q-28 0 -38 13.5t-10 43.5q0 16 1 79t1 98v200q0 141 -7 232q20 3 34 3z" />
    <glyph glyph-name="L" unicode="L" horiz-adv-x="429" 
d="M73 224v207q0 141 -7 232q17 3 41 3q49 0 49 -38q0 -6 -2 -40.5t-4 -86t-2 -97.5v-90q0 -208 7 -252q42 -2 66 -2q156 0 201 23q7 -21 7 -44q0 -18 -9 -26q-17 -15 -153 -15q-120 0 -150 2q-27 1 -36.5 14t-9.5 43q0 16 1 74t1 93z" />
    <glyph glyph-name="M" unicode="M" horiz-adv-x="797" 
d="M712 436v-233q0 -135 19 -198q-18 -8 -47 -8t-39 13t-10 44q0 7 0.5 70t1 179.5t0.5 254.5q-92 -185 -201 -556q-12 -4 -27 -4q-39 0 -50 26q-24 54 -90.5 240.5t-118.5 291.5v-353q0 -135 19 -198q-18 -8 -37 -8q-29 0 -39 13t-10 44q0 16 1 79t1 98v252q0 112 -19 176
q32 8 58 8q42 0 71 -48q39 -68 79 -166t62.5 -165.5t63.5 -195.5q31 124 83.5 268t117.5 259q27 48 73 48q34 0 56 -8q-18 -60 -18 -223z" />
    <glyph glyph-name="N" unicode="N" horiz-adv-x="629" 
d="M551 1q-16 -4 -33 -4q-34 0 -52 27q-41 63 -142 241.5t-173 286.5q-1 -38 -1 -349q0 -135 19 -198q-18 -8 -37 -8q-29 0 -39 13t-10 44q0 16 1 79t1 98v200q0 167 -19 228q19 8 47 8q20 0 31.5 -7t24.5 -22q50 -57 144 -213t172 -306q-3 36 -4.5 114t-1.5 138v60
q0 141 -7 232q17 3 31 3q49 0 49 -38q0 -6 -2 -40.5t-4 -86t-2 -97.5v-171q0 -141 7 -232z" />
    <glyph glyph-name="O" unicode="O" horiz-adv-x="712" 
d="M355 -10q-140 0 -223 93t-83 248q0 157 83 249.5t223 92.5q141 0 224.5 -92.5t83.5 -249.5q0 -155 -83.5 -248t-224.5 -93zM579 313q0 56 -12.5 107t-37.5 95t-70 70.5t-103 26.5q-103 0 -164 -70.5t-61 -179.5q0 -59 12.5 -112t37.5 -99t69.5 -73t103.5 -27
q108 0 166.5 72.5t58.5 189.5z" />
    <glyph glyph-name="P" unicode="P" horiz-adv-x="504" 
d="M254 304q68 0 106.5 39.5t38.5 106.5q0 92 -43 127t-134 35q-26 0 -72 -4q4 -58 4 -204v-75q44 -25 100 -25zM79 231v200q0 138 -13 230q74 12 149 12q268 0 268 -216q0 -104 -62.5 -159t-146.5 -55q-71 0 -120 32v-72q0 -135 19 -198q-18 -8 -47 -8t-39 13t-10 44
q0 16 1 79t1 98z" />
    <glyph glyph-name="Q" unicode="Q" horiz-adv-x="712" 
d="M579 313q0 56 -12.5 107t-37.5 95t-70 70.5t-103 26.5q-103 0 -164 -70.5t-61 -179.5q0 -59 12.5 -112t37.5 -99t69.5 -73t103.5 -27q108 0 166.5 72.5t58.5 189.5zM325 -9q-127 10 -201.5 101.5t-74.5 238.5q0 157 83 249.5t223 92.5q141 0 224.5 -92.5t83.5 -249.5
q0 -146 -74.5 -237t-201.5 -102q12 -44 42.5 -66t71.5 -22q40 0 61 8t49 30q10 -6 19.5 -21t9.5 -25q0 -25 -40.5 -39t-91.5 -14q-73 0 -121.5 40t-61.5 108z" />
    <glyph glyph-name="R" unicode="R" horiz-adv-x="530" 
d="M425 84q26 -29 64 -29q12 0 27 3q9 -18 9 -30q0 -38 -75 -38q-19 0 -38 9t-38 31t-32.5 39t-33 53t-27.5 51.5t-27 57t-22 47.5q-28 4 -28 22q0 9 5 27q28 -5 47 -5q67 0 105 39.5t38 107.5q0 80 -42 111.5t-129 31.5q-32 0 -78 -4q4 -58 4 -204v-201q0 -135 19 -198
q-18 -8 -47 -8t-39 13t-10 44q0 16 1 79t1 98v200q0 138 -13 230q74 12 149 12q268 0 268 -199q0 -82 -45 -132.5t-119 -64.5q0 -1 17 -37t23.5 -48t20.5 -39t24.5 -43t20.5 -26z" />
    <glyph glyph-name="S" unicode="S" horiz-adv-x="518" 
d="M401 533q-17 33 -61 54.5t-91 21.5q-51 0 -85.5 -28t-34.5 -82q0 -41 25.5 -67.5t63.5 -37t83 -25.5t83 -31t63.5 -55t25.5 -97q0 -52 -20 -91.5t-54 -61.5t-73.5 -32.5t-83.5 -10.5q-78 0 -137.5 27.5t-59.5 66.5q0 13 8.5 23.5t16.5 15.5t26 14q19 -37 68.5 -60.5
t100.5 -23.5q56 0 96 30.5t40 87.5q0 47 -35.5 74.5t-86 41.5t-101 31t-86 57.5t-35.5 107.5q0 92 60.5 141t154.5 49q69 0 127.5 -24t58.5 -66q0 -40 -57 -50z" />
    <glyph glyph-name="T" unicode="T" horiz-adv-x="465" 
d="M196 231v200q0 93 -3 171q-142 0 -190 -4q-3 9 -3 27q0 20 10.5 27t33.5 8q25 1 107 1h118q158 0 193 3q3 -9 3 -26q0 -20 -10.5 -27t-33.5 -8q-31 -1 -143 -1q-7 -143 -7 -198v-201q0 -135 19 -198q-18 -8 -47 -8t-39 13t-10 44q0 16 1 79t1 98z" />
    <glyph glyph-name="U" unicode="U" horiz-adv-x="644" 
d="M72 658q20 8 45 8q29 0 42.5 -11.5t13.5 -39.5q0 -43 -7.5 -189.5t-7.5 -227.5q0 -70 40.5 -107t93.5 -37q49 0 103 24t88 56q0 7 0.5 34.5t0.5 94v168.5q0 141 -7 232q17 3 41 3q49 0 49 -38q0 -2 -2 -37t-4 -109.5t-2 -172.5q0 -155 3 -207.5t16 -96.5q-18 -8 -47 -8
q-28 0 -38.5 12.5t-10.5 46.5v11q-40 -34 -96 -55.5t-103 -21.5q-94 0 -148.5 44.5t-54.5 157.5q0 59 4.5 160t4.5 149q0 95 -17 157z" />
    <glyph glyph-name="V" unicode="V" horiz-adv-x="558" 
d="M463 667q28 6 42 6q23 0 33 -11t10 -38q0 -110 -70 -294.5t-143 -277.5q-25 -33 -42 -44t-40 -11q-11 0 -33 2q-32 161 -109 369t-131 261q42 37 72 37q31 0 49 -43q39 -89 92 -253t83 -285q59 66 125 241.5t66 290.5q0 36 -4 50z" />
    <glyph glyph-name="W" unicode="W" horiz-adv-x="942" 
d="M837 667q28 6 42 6q22 0 32.5 -9.5t10.5 -33.5q0 -116 -65.5 -299.5t-136.5 -278.5q-25 -33 -40.5 -44t-37.5 -11q-12 0 -32 2q-39 210 -125 441q-32 -111 -79.5 -219.5t-92.5 -168.5q-25 -33 -40.5 -44t-37.5 -11q-11 0 -31 2q-29 160 -101.5 368.5t-122.5 261.5
q41 37 73 37q29 0 47 -43q37 -87 84 -249t76 -289q54 65 114 240.5t60 290.5q0 36 -4 51q28 6 42 6q22 0 32.5 -9.5t10.5 -33.5q0 -29 -5 -57q66 -104 156 -488q54 66 114.5 241t60.5 290q0 36 -4 51z" />
    <glyph glyph-name="X" unicode="X" horiz-adv-x="576" 
d="M25 43q0 59 222 302q-147 236 -217 281q38 47 74 47q21 0 51 -42q64 -92 145 -226q56 68 100 146.5t50 120.5q71 -14 71 -56q0 -27 -58 -109.5t-127 -160.5q156 -266 234 -313q-38 -43 -69 -43q-24 0 -52 39q-59 78 -166 256q-57 -55 -116 -147t-73 -148q-69 13 -69 53z
" />
    <glyph glyph-name="Y" unicode="Y" horiz-adv-x="501" 
d="M496 627q0 -25 -76 -141.5t-133 -184.5v-85q0 -146 19 -211q-18 -8 -47 -8t-39 13t-10 44q1 92 2 178v62q-145 273 -222 325q3 4 12.5 15t13 14l10.5 9t13 8t14 2q25 0 48 -34q60 -87 160 -272q48 63 102.5 168.5t56.5 142.5q76 -5 76 -45z" />
    <glyph glyph-name="Z" unicode="Z" 
d="M499 648q16 -18 16 -40q0 -24 -17 -46l-404 -505q36 -4 81 -4q194 0 316 32q10 -26 10 -42q0 -23 -17 -31t-55 -12q-60 -6 -156 -6q-139 0 -229 12q-18 24 -18 50q0 32 25 63l377 481q-47 6 -122 6q-141 0 -250 -27q-10 24 -10 42q0 28 29 36q42 10 127 10q184 0 297 -19
z" />
    <glyph glyph-name="bracketleft" unicode="[" horiz-adv-x="380" 
d="M216 664v-798q38 2 80 2q25 0 34.5 -8.5t9.5 -26.5q0 -12 -4 -23h-186v910h186q4 -8 4 -23q0 -20 -11 -27.5t-33 -7.5q-43 0 -80 2z" />
    <glyph glyph-name="backslash" unicode="\" horiz-adv-x="258" 
d="M129 113q-94 587 -94 602q0 27 36 27q12 0 21 -3q8 -86 30 -232q94 -594 94 -601q0 -28 -33 -28q-11 0 -24 3q-8 86 -30 232z" />
    <glyph glyph-name="bracketright" unicode="]" horiz-adv-x="350" 
d="M154 -134v798q-37 -2 -80 -2q-22 0 -33 7.5t-11 27.5q0 14 4 23h186v-910h-186q-4 11 -4 23q0 18 9.5 26.5t34.5 8.5q42 0 80 -2z" />
    <glyph glyph-name="asciicircum" unicode="^" horiz-adv-x="470" 
d="M236 582q-154 -165 -184 -165q-11 0 -27 16q23 39 94.5 119t115.5 123q44 -43 115.5 -123t94.5 -119q-16 -16 -26 -16q-6 0 -17 6.5t-25.5 19t-28.5 25t-32 31t-29.5 30.5t-28.5 30t-22 23z" />
    <glyph glyph-name="underscore" unicode="_" 
d="M535 -110q0 -18 -10 -30t-26 -12q-15 0 -69 4t-82 4h-143q-114 0 -202 -8q-3 15 -3 30q0 16 9 29t27 13q3 0 63 -3.5t104 -3.5h142q127 0 187 7q3 -9 3 -30z" />
    <glyph glyph-name="grave" unicode="`" horiz-adv-x="201" 
d="M-15 702q37 -41 78 -72.5t59 -46t18 -29.5t-16 -29q-28 21 -76.5 48t-73 45t-24.5 38q0 26 35 46z" />
    <glyph glyph-name="a" unicode="a" horiz-adv-x="467" 
d="M311 211q-19 45 -81 213q-50 -144 -79 -212q60 -2 92 -2q47 0 68 1zM227 157q-21 0 -97 2q-5 -12 -21.5 -53t-26.5 -68.5t-17 -53.5q-59 8 -59 31q0 10 9.5 33t33 76.5t44.5 107.5q78 201 102 282q16 3 37 3q22 0 31 -6.5t20 -35.5q8 -21 43.5 -116.5t55.5 -146.5
q48 -118 94 -205q-28 -14 -45 -14q-30 0 -41 20q-6 14 -59 146q-86 -2 -104 -2z" />
    <glyph glyph-name="b" unicode="b" horiz-adv-x="488" 
d="M203 470l-51 -3q3 -47 3 -166q24 -2 42 -2q139 0 139 84q0 87 -133 87zM239 46q50 0 83.5 27t33.5 75q0 52 -37.5 79.5t-91.5 27.5q-48 0 -72 -4q0 -81 -11 -177q38 -28 95 -28zM70 41q13 89 13 260q0 147 -10 214q56 9 133 9q91 0 149 -31t58 -103q0 -78 -72 -108
q91 -36 91 -134q0 -73 -51 -114t-126 -41q-122 0 -185 48z" />
    <glyph glyph-name="c" unicode="c" horiz-adv-x="516" 
d="M433 113q39 -16 39 -45q0 -30 -47 -52.5t-118 -22.5q-117 0 -188 73t-71 192q0 125 70.5 195.5t192.5 70.5q65 0 109 -24.5t44 -60.5q0 -37 -55 -46q-14 37 -46.5 56.5t-68.5 19.5q-73 0 -120 -56t-47 -139q0 -97 47 -162t132 -65q38 0 72.5 17t54.5 49z" />
    <glyph glyph-name="d" unicode="d" horiz-adv-x="552" 
d="M70 41q11 67 13 262q0 134 -10 212q48 9 129 9q65 0 116.5 -13t95 -42.5t67 -82.5t23.5 -127q0 -116 -67 -191t-190 -75q-115 0 -177 48zM152 467q3 -40 3 -123q0 -170 -11 -269q41 -27 104 -27q49 0 85 18t55 48.5t27.5 63t8.5 67.5q0 112 -57.5 168.5t-164.5 56.5
q-7 0 -15 -0.5t-18.5 -1.5t-16.5 -1z" />
    <glyph glyph-name="e" unicode="e" horiz-adv-x="447" 
d="M163 460q3 -24 3 -155h64q67 0 96 3q3 -8 3 -22q0 -20 -8.5 -27.5t-26.5 -8.5q-21 -1 -57 -1h-71q0 -161 6 -194q36 -2 58 -2q132 0 173 18q7 -18 7 -38q0 -16 -8 -23q-15 -11 -136 -11q-24 0 -77 0.5t-55 0.5q-25 1 -33.5 11t-8.5 33q0 14 1 61.5t1 74.5v153
q0 114 -12 179q98 7 183 7q121 0 136 -12q8 -7 8 -23q0 -20 -7 -38q-48 16 -150 16q-39 0 -89 -2z" />
    <glyph glyph-name="f" unicode="f" horiz-adv-x="409" 
d="M166 241v-85q0 -105 16 -154q-20 -6 -44 -6q-27 0 -36.5 10t-9.5 33q0 13 1 62t1 76v157q0 113 -12 178q98 7 183 7q121 0 136 -12q8 -7 8 -23q0 -20 -7 -38q-48 16 -150 16q-33 0 -89 -2q3 -27 3 -100v-63h64q67 0 96 3q3 -8 3 -23q0 -25 -13 -30.5t-59 -5.5h-91z" />
    <glyph glyph-name="g" unicode="g" horiz-adv-x="528" 
d="M472 66q0 -28 -47.5 -50.5t-117.5 -22.5q-117 0 -188 73t-71 192q0 125 70.5 195.5t192.5 70.5q65 0 109 -24.5t44 -60.5q0 -37 -55 -46q-15 38 -47 57t-68 19q-73 0 -120 -56t-47 -139q0 -97 46.5 -162t129.5 -65q60 0 100 31q-2 91 -6 161q16 2 34 2q47 0 47 -29
q0 -1 -3 -52.5t-3 -93.5z" />
    <glyph glyph-name="h" unicode="h" horiz-adv-x="586" 
d="M97 180v156q0 104 -6 180q18 3 38 3q47 0 47 -30q0 -4 -2 -32t-3.5 -70t-1.5 -80q42 -1 126 -1q81 0 122 1v32q-1 105 -6 177q18 3 38 3q47 0 47 -30q0 -4 -2 -31t-3.5 -67t-1.5 -76v-157q0 -105 16 -154q-15 -6 -44 -6q-27 0 -36.5 10t-9.5 34q0 12 1 61t1 77v74
q-42 -1 -123 -1q-84 0 -125 1v-96q0 -105 16 -154q-15 -6 -44 -6q-27 0 -36.5 10t-9.5 34q0 12 1 61t1 77z" />
    <glyph glyph-name="i" unicode="i" horiz-adv-x="268" 
d="M98 180v156q0 104 -6 180q18 3 38 3q47 0 47 -30q0 -4 -1.5 -31t-3.5 -67t-2 -76v-157q0 -105 16 -154q-15 -6 -44 -6q-27 0 -36.5 10t-9.5 34q0 12 1 61t1 77z" />
    <glyph glyph-name="j" unicode="j" horiz-adv-x="258" 
d="M43 -92q-31 0 -33 54q60 12 74 38t14 98q0 30 -0.5 113.5t-0.5 124.5q0 119 -6 180q17 3 39 3q46 0 46 -30q0 -4 -1.5 -28.5t-3 -61.5t-1.5 -71v-242q0 -51 -14.5 -88.5t-36.5 -55.5t-41 -26t-35 -8z" />
    <glyph glyph-name="k" unicode="k" horiz-adv-x="460" 
d="M225 279q85 -139 135 -200q29 -31 62 -31q10 0 19 2q7 -11 7 -24q0 -16 -16 -25t-39 -9q-48 0 -84 40q-16 18 -36.5 46t-35 49.5t-38.5 57.5t-32 49l-7 -5v-71q0 -105 16 -154q-15 -6 -44 -6q-27 0 -36.5 10t-9.5 34q0 12 1 61t1 77v156q0 104 -6 180q18 3 38 3
q47 0 47 -30q0 -4 -1.5 -31t-3.5 -69.5t-2 -82.5q61 43 121.5 106t74.5 106q50 -7 50 -35q0 -21 -56.5 -84.5t-124.5 -119.5z" />
    <glyph glyph-name="l" unicode="l" horiz-adv-x="387" 
d="M88 174v162q0 104 -6 181q16 2 39 2q46 0 46 -30q0 -4 -1.5 -31t-3.5 -67t-2 -76v-69q0 -158 6 -191q34 -2 53 -2q125 0 162 18q6 -19 6 -38q0 -16 -7 -23q-15 -11 -129 -11q-22 0 -72.5 0.5t-53.5 0.5q-23 1 -31 11t-8 33q0 12 1 57t1 73z" />
    <glyph glyph-name="m" unicode="m" horiz-adv-x="714" 
d="M617 340v-182q0 -105 15 -155q-13 -5 -41 -5t-37.5 10t-9.5 34q0 27 0.5 150.5t0.5 220.5q-66 -137 -153 -412q-12 -3 -32 -3q-31 2 -40 20q-22 45 -73 183t-87 212v-255q0 -105 16 -155q-20 -5 -36 -5q-26 0 -35 10t-9 34q0 12 0.5 61t0.5 77v196q0 88 -15 138
q30 6 52 6q41 0 64 -38q32 -50 63.5 -124.5t49.5 -127t48 -146.5q61 243 159 399q22 37 64 37q24 0 50 -6q-15 -47 -15 -174z" />
    <glyph glyph-name="n" unicode="n" horiz-adv-x="578" 
d="M486 0q-20 -2 -31 -2q-34 0 -48 20q-30 46 -113 184t-136 215q2 -75 2 -236q0 -132 16 -178q-18 -5 -35 -5q-27 0 -36 10t-9 34q0 12 0.5 61t0.5 77v156q0 130 -15 178q18 6 43 6q31 0 52 -23q39 -40 114 -158t132 -223q-5 72 -5 215q0 108 -6 186q16 2 29 2q46 0 46 -30
q0 -4 -1.5 -31t-3 -67t-1.5 -76v-134q0 -117 5 -181z" />
    <glyph glyph-name="o" unicode="o" horiz-adv-x="606" 
d="M302 -7q-116 0 -185 72t-69 193q0 122 69 194t185 72q117 0 186.5 -72t69.5 -194q0 -121 -69.5 -193t-186.5 -72zM478 244q0 57 -16 106t-57.5 84t-101.5 35q-81 0 -128.5 -53t-47.5 -135q0 -60 16 -111t57 -87t102 -36q84 0 130 54.5t46 142.5z" />
    <glyph glyph-name="p" unicode="p" horiz-adv-x="457" 
d="M241 240q52 0 81 29.5t29 79.5q0 69 -32.5 95t-101.5 26q-4 0 -55 -3q3 -66 3 -151v-60q32 -16 76 -16zM92 180v156q0 108 -10 179q54 9 125 9q224 0 224 -170q0 -83 -50.5 -126t-118.5 -43q-59 0 -97 25v-55q0 -103 16 -152q-18 -5 -44 -5q-27 0 -36.5 10t-9.5 34
q0 12 0.5 61t0.5 77z" />
    <glyph glyph-name="q" unicode="q" horiz-adv-x="605" 
d="M478 244q0 91 -43.5 158t-132.5 67q-81 0 -128.5 -53t-47.5 -135q0 -60 16 -111t57 -87t102 -36q84 0 130.5 54.5t46.5 142.5zM271 -7q-104 9 -163.5 79.5t-59.5 185.5q0 123 68 194.5t186 71.5q117 0 186 -72t69 -194q0 -114 -61.5 -185t-165.5 -79q20 -56 92 -56
q20 0 36.5 5.5t25.5 12t24 18.5q31 -22 31 -46t-32 -37t-78 -13q-59 0 -102.5 29t-55.5 86z" />
    <glyph glyph-name="r" unicode="r" horiz-adv-x="496" 
d="M390 70q22 -22 48 -22q5 0 21 2q7 -14 7 -26q0 -31 -65 -31q-29 0 -56 21.5t-52 62t-38.5 68t-32.5 70.5q-19 4 -19 20q0 10 7 30q22 -5 38 -5q46 0 75 28.5t29 77.5q0 58 -32 81t-98 23q-6 0 -60 -3q4 -46 4 -157v-154q0 -104 15 -153q-17 -5 -44 -5t-36.5 10t-9.5 34
q0 12 1 61t1 77v156q0 110 -11 179q54 9 126 9q224 0 224 -157q0 -62 -35.5 -101t-94.5 -52q61 -117 88 -144z" />
    <glyph glyph-name="s" unicode="s" horiz-adv-x="454" 
d="M342 404q-14 28 -49 46.5t-73 18.5q-40 0 -68.5 -20.5t-28.5 -59.5q0 -31 21 -50.5t52.5 -27.5t68 -19t68 -23.5t52.5 -43t21 -75.5q0 -81 -56.5 -119t-137.5 -38q-66 0 -116.5 22t-50.5 54q0 25 45 47q16 -30 56.5 -49t83.5 -19q44 0 76.5 21.5t32.5 61.5q0 35 -29 55.5
t-70.5 30.5t-83 23.5t-70.5 46t-29 85.5q0 74 51 113t130 39q58 0 106.5 -19.5t48.5 -54.5q0 -36 -51 -46z" />
    <glyph glyph-name="t" unicode="t" horiz-adv-x="418" 
d="M174 180v156q0 46 -2 124q-117 0 -155 -3q-2 5 -2 25q0 18 8.5 25t27.5 7q8 0 39.5 0.5t51.5 0.5h97q133 0 162 2q2 -10 2 -24q0 -33 -36 -33h-116q0 -11 -1.5 -37.5t-2.5 -54.5t-1 -53v-157q0 -105 16 -154q-15 -6 -44 -6q-27 0 -36.5 10t-9.5 34q0 12 1 61t1 77z" />
    <glyph glyph-name="u" unicode="u" horiz-adv-x="580" 
d="M86 513q18 6 42 6q27 0 39.5 -9t12.5 -31q0 -33 -6.5 -145t-6.5 -175q0 -53 31 -80t73 -27q38 0 80 18t68 42q0 5 0.5 25.5t0.5 70.5v128q0 104 -6 180q16 3 39 3q46 0 46 -30q0 -1 -1.5 -28.5t-3.5 -85.5t-2 -134q0 -121 2.5 -162t13.5 -76q-17 -5 -44 -5q-26 0 -36 9.5
t-10 35.5v12q-33 -27 -78 -44.5t-83 -17.5q-76 0 -120.5 34t-44.5 122q0 46 3.5 124.5t3.5 116.5q0 76 -13 123z" />
    <glyph glyph-name="v" unicode="v" horiz-adv-x="502" 
d="M402 519q16 5 37 5q25 0 34 -9t9 -34q0 -84 -57 -225t-119 -217q-23 -27 -37 -34t-42 -7q-12 0 -21 2q-26 125 -89 286.5t-107 203.5q32 28 65 28q15 0 25 -9t23 -34q29 -61 71 -183.5t66 -210.5q54 69 99.5 193t45.5 215q0 18 -3 30z" />
    <glyph glyph-name="w" unicode="w" horiz-adv-x="809" 
d="M709 519q16 5 39 5q22 0 31.5 -8t9.5 -28q0 -88 -55.5 -231.5t-114.5 -216.5q-20 -25 -35 -33.5t-35 -8.5t-29 2q-28 134 -91 297q-58 -166 -132 -257q-20 -25 -35 -33.5t-35 -8.5q-19 0 -29 2q-24 124 -85 286t-103 204q32 29 64 29q28 0 44 -34q31 -66 70.5 -187
t63.5 -217q50 66 94 190t44 209q0 28 -3 39q16 5 39 5q22 0 31.5 -8t9.5 -28q0 -27 -9 -74q57 -107 116 -333q49 67 93.5 190.5t44.5 208.5q0 28 -3 39z" />
    <glyph glyph-name="x" unicode="x" horiz-adv-x="497" 
d="M31 33q0 55 185 235q-135 187 -180 221q32 35 67 35q25 0 50 -34q33 -41 111 -167q41 47 74.5 104.5t41.5 96.5q71 -9 71 -44q0 -26 -48.5 -88.5t-106.5 -120.5q137 -208 194 -244q-32 -34 -63 -34q-27 0 -49 29q-58 73 -131 193q-48 -52 -91 -115.5t-55 -106.5
q-70 6 -70 40z" />
    <glyph glyph-name="y" unicode="y" horiz-adv-x="424" 
d="M416 484q0 -24 -57 -106t-108 -141v-75q0 -106 15 -158q-15 -6 -44 -6q-27 0 -36 10t-9 34q0 3 0.5 53.5t0.5 84.5v53q-117 208 -178 247q34 40 60 40q25 0 44 -27q62 -87 123 -201q40 55 79 130t41 102q69 -4 69 -40z" />
    <glyph glyph-name="z" unicode="z" horiz-adv-x="471" 
d="M433 505q13 -15 13 -31q0 -19 -14 -36l-328 -389q28 -2 58 -2q158 0 262 25q8 -24 8 -36q0 -20 -14.5 -26.5t-45.5 -9.5q-44 -4 -132 -4q-113 0 -193 8q-15 20 -15 39q0 26 20 49l306 370q-27 3 -91 3q-117 0 -207 -21q-8 22 -8 37q0 24 23 31q34 8 106 8q147 0 252 -15z
" />
    <glyph glyph-name="braceleft" unicode="{" horiz-adv-x="426" 
d="M182 286q25 -9 47 -42t22 -64v-199q0 -21 1.5 -30t8.5 -18.5t22.5 -12.5t43.5 -3q25 0 36.5 -7.5t11.5 -27.5q0 -15 -4 -23q-13 -1 -36 -1q-87 0 -119 26.5t-32 84.5v209q0 30 -29 56.5t-85 26.5v50q56 0 85.5 27t29.5 57v209q0 58 31.5 84.5t118.5 26.5q23 0 36 -1
q4 -8 4 -23q0 -20 -11.5 -27.5t-36.5 -7.5q-52 0 -64.5 -13t-12.5 -51v-199q0 -31 -21.5 -64.5t-46.5 -42.5z" />
    <glyph glyph-name="bar" unicode="|" 
d="M237 136v308q0 236 -8 289q16 3 30 3q46 0 46 -38q0 -4 -1.5 -53.5t-3.5 -131t-2 -162.5v-308q0 -236 8 -289q-16 -3 -30 -3q-46 0 -46 38q0 4 2 53.5t3.5 131t1.5 162.5z" />
    <glyph glyph-name="braceright" unicode="}" horiz-adv-x="404" 
d="M223 286q-25 9 -46.5 42.5t-21.5 64.5v199q0 20 -1.5 29.5t-9 19t-23 12.5t-43.5 3q-25 0 -36.5 7.5t-11.5 27.5q0 15 4 23q13 1 36 1q87 0 118.5 -26.5t31.5 -84.5v-209q0 -30 29.5 -57t85.5 -27v-50q-56 0 -85 -26.5t-29 -56.5v-209q0 -58 -32 -84.5t-119 -26.5
q-23 0 -36 1q-4 8 -4 23q0 20 11.5 27.5t36.5 7.5q28 0 43.5 3t22.5 12.5t8.5 18.5t1.5 30v199q0 31 22 64t47 42z" />
    <glyph glyph-name="asciitilde" unicode="~" horiz-adv-x="546" 
d="M40 267q0 62 98 62q51 0 130.5 -20t116.5 -20q66 0 102 35q19 -25 19 -49q0 -32 -36 -47t-85 -15q-31 0 -107 20t-117 20q-66 0 -102 -35q-19 25 -19 49z" />
    <glyph glyph-name="exclamdown" unicode="&#xa1;" horiz-adv-x="261" 
d="M140 526q25 0 43 -18t18 -45t-18 -45.5t-43 -18.5t-42.5 18.5t-17.5 45.5t17.5 45t42.5 18zM101 -6q0 21 9 83.5t9 115.5v33q0 59 -16 91q20 10 37 10q40 0 41 -37q1 -10 1 -83.5t4 -141.5t14 -99q-28 -10 -52 -10q-47 0 -47 38z" />
    <glyph glyph-name="cent" unicode="&#xa2;" 
d="M272 50v361q-57 -15 -93 -60t-36 -121t36 -121t93 -59zM434 348q-24 33 -50 51t-67 18h-6v-373h10q64 0 113 69q43 -10 43 -44q0 -38 -54 -59.5t-104 -21.5h-8q1 -34 5 -84l-15 -2q-29 0 -29 27v62q-88 13 -146.5 72.5t-58.5 168.5q0 105 58.5 164.5t145.5 72.5
q0 39 -4 95q11 3 17 3q27 0 27 -27v-67h8q50 0 104 -21.5t54 -59.5q0 -34 -43 -44z" />
    <glyph glyph-name="sterling" unicode="&#xa3;" 
d="M408 337q4 -8 4 -23q0 -22 -12.5 -28.5t-39.5 -6.5q-42 0 -66 1q3 -15 3 -30q0 -92 -150 -195q23 -3 84 -3q134 0 220 32q15 -22 15 -40q0 -23 -27 -34q-36 -13 -146 -13q-150 0 -216 12q-9 12 -9 29q0 7 1 11q70 36 109.5 88t39.5 97q0 20 -9 49q-64 0 -111 -4
q-3 9 -3 16q0 23 31 25q10 0 35 1.5t32 1.5q-5 10 -16 30t-16.5 31t-10.5 27.5t-5 30.5q0 51 43.5 94.5t110.5 43.5q29 0 53.5 -14.5t24.5 -40.5t-34 -42q-22 34 -67 34q-27 0 -46 -14.5t-19 -41.5q0 -18 10 -39t28.5 -49.5t27.5 -46.5q88 5 131 11z" />
    <glyph glyph-name="yen" unicode="&#xa5;" 
d="M297 236v-53q107 0 164 5l2 -15q0 -29 -27 -29h-139q2 -102 18 -146q-16 -8 -38 -8q-49 0 -49 49q1 48 1 105h-22q-85 0 -141 -5q-3 11 -3 17q0 27 27 27h140v50l-6 11h-17q-85 0 -141 -5q-3 10 -3 17q0 27 27 27h113q-39 72 -68 118q-60 95 -112 135q25 40 58 40
q20 0 42 -34q80 -118 153 -252q44 59 94 156.5t52 132.5q4 1 14 1q47 0 47 -39q0 -20 -48.5 -106.5t-97.5 -151.5q64 0 124 5l2 -15q0 -29 -27 -29h-131z" />
    <glyph glyph-name="brokenbar" unicode="&#xa6;" 
d="M237 534v30q0 117 -8 170q16 3 30 3q46 0 46 -38q0 -5 -3.5 -72t-3.5 -99v-39q0 -120 8 -192q-16 -3 -30 -3q-46 0 -46 38q0 5 3.5 87t3.5 115zM237 -9v31q0 117 -8 170q16 3 30 3q46 0 46 -38q0 -5 -3.5 -71.5t-3.5 -99.5v-40q0 -120 8 -192q-16 -3 -30 -3q-46 0 -46 38
q0 5 3.5 87t3.5 115z" />
    <glyph glyph-name="section" unicode="&#xa7;" horiz-adv-x="445" 
d="M115 351q0 -40 33 -65t89.5 -50t83.5 -48q14 23 14 55q0 33 -22.5 56.5t-51.5 35t-68.5 30.5t-63.5 41q-14 -22 -14 -55zM55 333q0 64 47 106q-25 49 -25 93q0 62 46 101t121 39q47 0 92 -21t45 -58q0 -31 -45 -42q-11 29 -45 47t-71 18q-36 0 -60 -17.5t-24 -52.5
t19 -60.5t48 -39.5t62.5 -31t62.5 -33.5t48 -47.5t19 -73q0 -62 -46 -106q26 -43 26 -87q0 -61 -46 -103.5t-128 -42.5q-61 0 -108.5 23t-47.5 57q0 29 45 42q23 -65 133 -65q40 0 65 18.5t25 59.5q0 39 -26.5 66t-64.5 43.5t-76 34t-64.5 50.5t-26.5 82z" />
    <glyph glyph-name="dieresis" unicode="&#xa8;" horiz-adv-x="257" 
d="M216 521q-21 0 -36 15t-15 39q0 22 16 37.5t37 15.5q20 0 35 -15.5t15 -37.5q0 -23 -16 -38.5t-36 -15.5zM38 521q-21 0 -36 15t-15 39q0 22 16 37.5t37 15.5q20 0 35 -15.5t15 -37.5q0 -23 -16 -38.5t-36 -15.5z" />
    <glyph glyph-name="copyright" unicode="&#xa9;" horiz-adv-x="888" 
d="M617 157q0 -24 -37 -41.5t-87 -17.5q-38 0 -73.5 11.5t-67 36t-50.5 69t-19 103.5q0 113 62.5 171.5t141.5 58.5q27 0 55.5 -8t52 -27.5t23.5 -45.5q0 -34 -43 -40q-9 31 -36.5 46.5t-58.5 15.5q-48 0 -80.5 -44t-32.5 -115q0 -90 40 -131.5t95 -41.5q59 0 86 38
q29 -16 29 -38zM750 320q0 132 -79.5 214.5t-193.5 82.5q-116 0 -195.5 -82t-79.5 -215t79.5 -215t195.5 -82q114 0 193.5 82t79.5 215zM822 320q0 -150 -100.5 -252t-244.5 -102q-147 0 -247 101.5t-100 252.5q0 152 100 253t247 101q145 0 245 -101t100 -253z" />
    <glyph glyph-name="ordfeminine" unicode="&#xaa;" horiz-adv-x="317" 
d="M177 278q87 0 127 7q3 -10 3 -20q0 -18 -9.5 -28.5t-26.5 -10.5q-10 0 -47 4t-56 4q-77 0 -135 -8q-3 12 -3 25t9 23.5t27 10.5q2 0 42 -3.5t69 -3.5zM170 458h35q-15 34 -41 110q-27 -77 -41 -109q19 -1 47 -1zM162 424q-32 0 -52 1q-31 -78 -33 -86q-41 4 -41 16
q0 5 5 17t17 39.5t23 56.5q41 104 53 146q20 2 25 2q19 0 27 -3.5t16 -18.5q4 -10 22 -60t29 -76q27 -64 50 -107q-19 -7 -28 -7q-26 0 -31 15t-26 66q-24 -1 -56 -1z" />
    <glyph glyph-name="guillemotleft" unicode="&#xab;" horiz-adv-x="474" 
d="M308 235q35 -43 70.5 -96t35.5 -67q0 -13 -20 -28q-66 55 -165 191q99 136 165 191q20 -15 20 -28q0 -14 -35.5 -67t-70.5 -96zM119 235q35 -43 70.5 -96t35.5 -67q0 -13 -20 -28q-66 55 -165 191q99 136 165 191q20 -15 20 -28q0 -14 -35.5 -67t-70.5 -96z" />
    <glyph glyph-name="logicalnot" unicode="&#xac;" 
d="M447 324l2 -222q0 -28 -9 -39.5t-35 -11.5q-18 0 -34 8q17 56 17 177v36h-231q-56 0 -100 -15q-7 17 -7 30q0 37 42 37h355z" />
    <glyph glyph-name="registered" unicode="&#xae;" horiz-adv-x="607" 
d="M498 440q0 82 -49 132.5t-120 50.5q-72 0 -121 -50.5t-49 -132.5t49 -132.5t121 -50.5q71 0 120 50.5t49 132.5zM557 440q0 -99 -66.5 -166t-161.5 -67q-97 0 -163 67t-66 166q0 100 66 166.5t163 66.5q95 0 161.5 -67t66.5 -166zM410 360q8 -8 22 -8q2 -4 2 -11
q0 -18 -24 -18q-27 0 -44 25q-3 5 -23.5 32.5t-27.5 39.5q-12 0 -22 3v-26q0 -44 8 -67q-9 -5 -30 -5q-31 0 -31 23q0 3 1 26t1 34v69q0 52 -4 81q62 5 81 5q108 0 108 -72q0 -54 -64 -67q20 -34 47 -64zM320 445q24 0 40.5 11t16.5 35q0 40 -62 40q-7 0 -23 -2q1 -10 1 -80
q20 -4 27 -4z" />
    <glyph glyph-name="macron" unicode="&#xaf;" horiz-adv-x="272" 
d="M272 588q0 -37 -30 -37q-3 0 -20.5 1.5t-44 3t-49.5 1.5h-22q-60 0 -104 -6q-2 10 -2 27q0 37 30 37q3 0 43 -3t59 -3h22q66 0 116 6q2 -13 2 -27z" />
    <glyph glyph-name="degree" unicode="&#xb0;" horiz-adv-x="406" 
d="M110 547q0 -46 23 -75t66 -29t67 30.5t24 77.5q0 45 -22.5 74.5t-64.5 29.5q-44 0 -68.5 -31t-24.5 -77zM48 547q0 67 43.5 111.5t112.5 44.5q65 0 107 -43.5t42 -107.5q0 -69 -43 -113t-111 -44q-66 0 -108.5 43t-42.5 109z" />
    <glyph glyph-name="plusminus" unicode="&#xb1;" 
d="M456 48q0 -18 -10 -30t-26 -12t-71.5 4t-84.5 4q-114 0 -202 -8q-3 15 -3 30q0 16 9 29t27 13q3 0 63 -3.5t104 -3.5q130 0 191 7q3 -9 3 -30zM296 320q108 0 177 8q3 -9 3 -30q0 -18 -10 -30t-26 -12q-17 0 -68.5 3.5t-76.5 3.5q0 -59 8 -147q-15 -3 -30 -3
q-17 0 -29.5 9.5t-12.5 26.5q0 6 3 38t4 77q-87 -1 -176 -8q-3 15 -3 30q0 16 9 29t27 13q7 0 54.5 -3t89.5 -4q0 88 -8 157q9 3 30 3q18 0 30 -10t12 -26q0 -17 -3.5 -58.5t-3.5 -66.5z" />
    <glyph glyph-name="twosuperior" unicode="&#xb2;" horiz-adv-x="450" 
d="M105 549q-32 3 -32 28q0 31 45.5 63.5t100.5 32.5q61 0 98 -34t37 -88q0 -63 -57 -136t-173 -140q29 -1 85 -1q109 0 163 24q13 -20 13 -40q0 -17 -23 -26q-32 -12 -136 -12q-74 0 -124 2q-42 0 -42 40q0 14 1 17q112 66 170 136.5t58 127.5q0 35 -23 57t-60 22
q-26 0 -55 -21t-46 -52z" />
    <glyph glyph-name="threesuperior" unicode="&#xb3;" horiz-adv-x="424" 
d="M166 472q58 5 86.5 23t28.5 59q0 33 -17 50.5t-59 17.5q-54 0 -98 -53q-32 6 -32 32q0 19 21 35q49 37 113 37q69 0 103 -29t34 -78q0 -80 -86 -108q48 -15 71 -45.5t23 -68.5q0 -54 -44 -95t-126 -41q-49 0 -86.5 17t-37.5 45q0 21 28 30q39 -41 102 -41q44 0 71.5 22.5
t27.5 62.5q0 90 -118 90q-8 0 -12.5 1t-8 6.5t-3.5 15.5q0 9 1 14q11 0 18 1z" />
    <glyph glyph-name="acute" unicode="&#xb4;" horiz-adv-x="201" 
d="M226 619q-22 -16 -79.5 -49.5t-70.5 -45.5q-16 14 -16 29q0 17 16 29.5t57.5 43.5t82.5 76q35 -20 35 -46q0 -20 -25 -37z" />
    <glyph glyph-name="mu" unicode="&#xb5;" horiz-adv-x="513" 
d="M69 132q0 3 1.5 72.5t1.5 104.5q0 91 -17 151q20 8 39 8q26 0 37.5 -11.5t11.5 -39.5q0 -36 -3 -137.5t-3 -121.5q0 -54 26.5 -83t68.5 -29q72 0 135 55q-1 43 -1 131q0 146 -7 233q16 3 34 3q45 0 45 -38q0 -4 -2 -81t-2 -146q0 -127 19 -198q-20 -8 -37 -8
q-46 0 -46 50q-30 -25 -72 -41t-82 -16q-55 0 -89 30q-8 -34 -8 -71q0 -90 37 -194q-18 -8 -40 -8q-29 0 -39 13t-10 44q0 138 2 328z" />
    <glyph glyph-name="paragraph" unicode="&#xb6;" horiz-adv-x="483" 
d="M405 514h-22q-13 -152 -13 -348q0 -25 2 -108t2 -133q0 -24 -10 -37.5t-39 -13.5q-19 0 -39 8q17 48 17 227q0 265 10 405q-46 0 -55 2q-10 -91 -10 -281q0 -17 -45 -17q-65 0 -111.5 48.5t-46.5 125.5q0 84 51.5 133.5t128.5 49.5q6 0 62 -2t84 -2q56 0 87 1
q5 -15 5 -24q0 -34 -58 -34z" />
    <glyph glyph-name="periodcentered" unicode="&#xb7;" horiz-adv-x="201" 
d="M101 197q-25 0 -43 18t-18 45t18 45.5t43 18.5t42.5 -18.5t17.5 -45.5t-17.5 -45t-42.5 -18z" />
    <glyph glyph-name="cedilla" unicode="&#xb8;" horiz-adv-x="155" 
d="M92 32l37 -5q-18 -54 -18 -57t0.5 -6t2.5 -5t3 -4t4.5 -4.5t5 -3.5t5.5 -3.5t6 -3.5q47 -27 47 -73q0 -38 -34.5 -68.5t-85.5 -30.5q-35 0 -35 25q0 16 13 29q15 -9 31 -9q50 0 50 40q0 23 -30.5 48.5t-30.5 44.5q0 33 29 86z" />
    <glyph glyph-name="onesuperior" unicode="&#xb9;" horiz-adv-x="383" 
d="M233 268q38 0 76 4q4 -12 4 -20q0 -34 -35 -34q-6 0 -46 1t-78 1q-50 0 -78 -1q-5 13 -5 21q0 31 53 31h43q0 12 1 78t1 113q0 88 -3 155q-68 -11 -90 -19q-6 12 -6 24q0 29 34 37q65 14 94 14q36 0 36 -34q0 -5 -2 -36t-3.5 -77.5t-1.5 -88.5v-47q0 -81 6 -122z" />
    <glyph glyph-name="ordmasculine" unicode="&#xba;" horiz-adv-x="310" 
d="M157 346q-57 0 -92 36.5t-35 96.5q0 61 35 97.5t92 36.5q58 0 93 -36.5t35 -97.5t-35 -97t-93 -36zM232 471q0 44 -20 73.5t-55 29.5t-54 -23.5t-19 -63.5q0 -44 19.5 -73t53.5 -29q35 0 55 23.5t20 62.5zM170 278q87 0 127 7q3 -10 3 -20q0 -18 -9.5 -28.5t-26.5 -10.5
q-10 0 -47 4t-56 4q-77 0 -135 -8q-3 12 -3 25t9 23.5t27 10.5q2 0 42 -3.5t69 -3.5z" />
    <glyph glyph-name="guillemotright" unicode="&#xbb;" horiz-adv-x="474" 
d="M146 235q-35 43 -70.5 96t-35.5 67q0 13 20 28q66 -55 165 -191q-99 -136 -165 -191q-20 15 -20 28q0 14 35.5 67t70.5 96zM335 235q-35 43 -70.5 96t-35.5 67q0 13 20 28q66 -55 165 -191q-99 -136 -165 -191q-20 15 -20 28q0 14 35.5 67t70.5 96z" />
    <glyph glyph-name="onequarter" unicode="&#xbc;" horiz-adv-x="914" 
d="M231 -57l292 585q64 128 99 212q18 0 33.5 -8t15.5 -23q0 -5 -21 -49q-17 -35 -54 -108.5t-101 -201t-123 -246.5q-64 -128 -98 -211q-20 0 -34.5 8t-14.5 22q0 8 6 20zM562 185q33 -2 149 -2q0 79 2 189q-9 -10 -34.5 -37t-37.5 -41t-34.5 -43.5t-44.5 -65.5zM709 441
q12 11 45 11q6 0 22 -2q0 -2 -2 -36.5t-4 -96t-2 -129.5q48 3 68 12q8 -16 8 -32q0 -25 -18 -31q-16 -6 -58 -7q0 -81 16 -132q-16 -8 -31 -8q-26 0 -35 12t-9 40q0 16 1 39t1 48q-134 0 -184 7q-19 1 -19 36q0 17 1 23q35 59 96.5 134t103.5 112zM233 268q38 0 76 4
q4 -12 4 -20q0 -34 -35 -34q-6 0 -46 1t-78 1q-50 0 -78 -1q-5 13 -5 21q0 31 53 31h43q0 12 1 78t1 113q0 88 -3 155q-68 -11 -90 -19q-6 12 -6 24q0 29 34 37q65 14 94 14q36 0 36 -34q0 -5 -2 -36t-3.5 -77.5t-1.5 -88.5v-47q0 -81 6 -122z" />
    <glyph glyph-name="onehalf" unicode="&#xbd;" horiz-adv-x="965" 
d="M232 -57l292 585q64 128 99 212q18 0 33.5 -8t15.5 -23q0 -5 -21 -49q-17 -35 -54 -108.5t-101 -201t-123 -246.5q-64 -128 -98 -211q-20 0 -34.5 8t-14.5 22q0 8 6 20zM620 328q-32 3 -32 28q0 31 45.5 63.5t100.5 32.5q61 0 98 -34t37 -88q0 -63 -57 -136t-173 -140
q29 -1 85 -1q109 0 163 24q13 -19 13 -40q0 -17 -23 -26q-32 -12 -136 -12q-74 0 -124 2q-42 0 -42 40q0 14 1 17q112 66 170 136.5t58 127.5q0 35 -23 57t-60 22q-26 0 -55 -21t-46 -52zM233 268q38 0 76 4q4 -12 4 -20q0 -34 -35 -34q-6 0 -46 1t-78 1q-50 0 -78 -1
q-5 13 -5 21q0 31 53 31h43q0 12 1 78t1 113q0 88 -3 155q-68 -11 -90 -19q-6 12 -6 24q0 29 34 37q65 14 94 14q36 0 36 -34q0 -5 -2 -36t-3.5 -77.5t-1.5 -88.5v-47q0 -81 6 -122z" />
    <glyph glyph-name="threequarters" unicode="&#xbe;" horiz-adv-x="938" 
d="M166 472q58 5 86.5 23t28.5 59q0 33 -17 50.5t-59 17.5q-54 0 -98 -53q-32 6 -32 32q0 19 21 35q49 37 113 37q69 0 103 -29t34 -78q0 -80 -86 -108q48 -15 71 -45.5t23 -68.5q0 -54 -44 -95t-126 -41q-49 0 -86.5 17t-37.5 45q0 21 28 30q39 -41 102 -41q44 0 71.5 22.5
t27.5 62.5q0 90 -118 90q-8 0 -12.5 1t-8 6.5t-3.5 15.5q0 9 1 14q11 0 18 1zM586 185q33 -2 149 -2q0 79 2 189q-9 -10 -34.5 -37t-37.5 -41t-34.5 -43.5t-44.5 -65.5zM733 441q12 11 45 11q6 0 22 -2q0 -2 -2 -36.5t-4 -96t-2 -129.5q48 3 68 12q8 -16 8 -32
q0 -25 -18 -31q-16 -6 -58 -7q0 -81 16 -132q-16 -8 -31 -8q-26 0 -35 12t-9 40q0 16 1 39t1 48q-134 0 -184 7q-19 1 -19 36q0 17 1 23q35 59 96.5 134t103.5 112zM255 -57l292 585q64 128 99 212q18 0 33.5 -8t15.5 -23q0 -5 -21 -49q-17 -35 -54 -108.5t-101 -201
t-123 -246.5q-64 -128 -98 -211q-20 0 -34.5 8t-14.5 22q0 8 6 20z" />
    <glyph glyph-name="questiondown" unicode="&#xbf;" horiz-adv-x="325" 
d="M175 526q25 0 43 -18t18 -45t-18 -45.5t-43 -18.5t-42.5 18.5t-17.5 45.5t17.5 45t42.5 18zM137 317q26 10 39 10q45 0 45 -54q0 -29 -20 -58t-43.5 -48.5t-43.5 -47.5t-20 -56q0 -24 18.5 -37.5t45.5 -13.5q30 0 57.5 18.5t34.5 47.5q50 -7 50 -43t-38.5 -57.5
t-91.5 -21.5q-58 0 -104 25t-46 78q0 33 13 59.5t32 44t38 32.5t32 33.5t13 39.5q0 20 -11 49z" />
    <glyph glyph-name="Agrave" unicode="&#xc0;" horiz-adv-x="551" 
d="M197 894q37 -41 78 -72.5t59 -46t18 -29.5t-16 -29q-28 21 -76.5 48t-73 45t-24.5 38q0 26 35 46zM388 268q-34 89 -103 301q-9 -23 -46 -128t-65 -173q78 -2 122 -2q62 0 92 2zM275 207q-26 0 -126 2q-67 -169 -84 -230q-33 7 -46.5 16t-13.5 24q0 12 42.5 112
t103.5 254.5t96 274.5q19 3 42 3q25 0 35 -8.5t21 -44.5q63 -203 112 -330q78 -204 112 -270q-28 -20 -48 -20q-32 0 -43 27q-19 49 -69 192q-112 -2 -134 -2z" />
    <glyph glyph-name="Aacute" unicode="&#xc1;" horiz-adv-x="551" 
d="M401 811q-22 -16 -79.5 -49.5t-70.5 -45.5q-16 14 -16 29q0 17 16 29.5t57.5 43.5t82.5 76q35 -20 35 -46q0 -20 -25 -37zM388 268q-34 89 -103 301q-9 -23 -46 -128t-65 -173q78 -2 122 -2q62 0 92 2zM275 207q-26 0 -126 2q-67 -169 -84 -230q-33 7 -46.5 16t-13.5 24
q0 12 42.5 112t103.5 254.5t96 274.5q19 3 42 3q25 0 35 -8.5t21 -44.5q63 -203 112 -330q78 -204 112 -270q-28 -20 -48 -20q-32 0 -43 27q-19 49 -69 192q-112 -2 -134 -2z" />
    <glyph glyph-name="Acircumflex" unicode="&#xc2;" horiz-adv-x="551" 
d="M303 871q47 -30 88.5 -67.5t41.5 -64.5q0 -18 -23 -28q-19 24 -46 46t-45 33l-18 10q-6 -5 -18.5 -15.5t-20 -16.5t-18.5 -14.5t-18.5 -14t-15 -10.5t-13.5 -7.5t-10 -2.5q-12 0 -25 18q64 77 141 134zM388 268q-34 89 -103 301q-9 -23 -46 -128t-65 -173q78 -2 122 -2
q62 0 92 2zM275 207q-26 0 -126 2q-67 -169 -84 -230q-33 7 -46.5 16t-13.5 24q0 12 42.5 112t103.5 254.5t96 274.5q19 3 42 3q25 0 35 -8.5t21 -44.5q63 -203 112 -330q78 -204 112 -270q-28 -20 -48 -20q-32 0 -43 27q-19 49 -69 192q-112 -2 -134 -2z" />
    <glyph glyph-name="Atilde" unicode="&#xc3;" horiz-adv-x="551" 
d="M388 268q-34 89 -103 301q-9 -23 -46 -128t-65 -173q78 -2 122 -2q62 0 92 2zM275 207q-26 0 -126 2q-67 -169 -84 -230q-33 7 -46.5 16t-13.5 24q0 12 42.5 112t103.5 254.5t96 274.5q19 3 42 3q25 0 35 -8.5t21 -44.5q63 -203 112 -330q78 -204 112 -270
q-28 -20 -48 -20q-32 0 -43 27q-19 49 -69 192q-112 -2 -134 -2zM438 798q0 -28 -31 -54t-66 -26q-21 0 -58.5 22.5t-55.5 22.5t-59 -42q-16 7 -16 21q0 27 31.5 53.5t66.5 26.5q18 0 57 -22.5t56 -22.5q23 0 59 42q16 -6 16 -21z" />
    <glyph glyph-name="Adieresis" unicode="&#xc4;" horiz-adv-x="551" 
d="M388 268q-34 89 -103 301q-9 -23 -46 -128t-65 -173q78 -2 122 -2q62 0 92 2zM275 207q-26 0 -126 2q-67 -169 -84 -230q-33 7 -46.5 16t-13.5 24q0 12 42.5 112t103.5 254.5t96 274.5q19 3 42 3q25 0 35 -8.5t21 -44.5q63 -203 112 -330q78 -204 112 -270
q-28 -20 -48 -20q-32 0 -43 27q-19 49 -69 192q-112 -2 -134 -2zM364 712q-21 0 -36 15t-15 39q0 22 16 37.5t37 15.5q20 0 35 -15.5t15 -37.5q0 -23 -16 -38.5t-36 -15.5zM186 712q-21 0 -36 15t-15 39q0 22 16 37.5t37 15.5q20 0 35 -15.5t15 -37.5q0 -23 -16 -38.5
t-36 -15.5z" />
    <glyph glyph-name="Aring" unicode="&#xc5;" horiz-adv-x="551" 
d="M298 712q-40 0 -64.5 24.5t-24.5 64.5t24.5 64.5t64.5 24.5q39 0 63 -24.5t24 -64.5t-24 -64.5t-63 -24.5zM343 796q0 27 -12 44t-33 17q-22 0 -34.5 -14t-12.5 -38q0 -26 12.5 -43t34.5 -17q21 0 33 13.5t12 37.5zM388 268q-34 89 -103 301q-9 -23 -46 -128t-65 -173
q78 -2 122 -2q62 0 92 2zM275 207q-26 0 -126 2q-67 -169 -84 -230q-33 7 -46.5 16t-13.5 24q0 12 42.5 112t103.5 254.5t96 274.5q19 3 42 3q25 0 35 -8.5t21 -44.5q63 -203 112 -330q78 -204 112 -270q-28 -20 -48 -20q-32 0 -43 27q-19 49 -69 192q-112 -2 -134 -2z" />
    <glyph glyph-name="AE" unicode="&#xc6;" horiz-adv-x="764" 
d="M353 578q-15 -29 -67 -136.5t-88 -173.5q78 -2 120 -2h40v158q0 79 -5 154zM429 599q4 -44 4 -212h79q84 0 120 4q4 -8 4 -26q0 -23 -10.5 -31t-33.5 -9q-26 -1 -71 -1h-88q0 -218 7 -262q44 -2 71 -2q168 0 215 23q8 -20 8 -44q0 -18 -9 -26q-18 -15 -162 -15
q-128 0 -158 2q-29 1 -39 14t-10 43q0 34 2 150h-68q-24 0 -124 2q-88 -169 -107 -219q-59 9 -59 41q0 9 23 52t66 120t65 118q98 182 160 333q119 12 248 12q144 0 162 -15q9 -8 9 -26q0 -24 -8 -44q-57 21 -186 21q-53 0 -110 -3z" />
    <glyph glyph-name="Ccedilla" unicode="&#xc7;" horiz-adv-x="602" 
d="M514 134q44 -18 44 -49q0 -35 -54.5 -64t-135.5 -31q-4 -16 -4 -20q0 -3 0.5 -6t2.5 -5t3 -4t4.5 -4.5t5 -3.5t5.5 -3.5t6 -3.5q47 -27 47 -73q0 -38 -34.5 -68.5t-85.5 -30.5q-35 0 -35 25q0 16 13 29q15 -9 31 -9q50 0 50 40q0 23 -30.5 48.5t-30.5 44.5q0 17 11 46
q-127 10 -202.5 103t-75.5 237q0 160 85 250.5t230 90.5q78 0 131 -31.5t53 -77.5q0 -41 -57 -50q-19 49 -60 73.5t-87 24.5q-94 0 -153.5 -74.5t-59.5 -185.5q0 -128 60 -214.5t168 -86.5q48 0 89.5 21t65.5 62z" />
    <glyph glyph-name="Egrave" unicode="&#xc8;" horiz-adv-x="486" 
d="M135 899q37 -41 78 -72.5t59 -46t18 -29.5t-16 -29q-28 21 -76.5 48t-73 45t-24.5 38q0 26 35 46zM151 599q4 -44 4 -212h79q84 0 120 4q4 -8 4 -26q0 -23 -10.5 -31t-33.5 -9q-26 -1 -71 -1h-88q0 -218 7 -262q44 -2 71 -2q168 0 215 23q8 -20 8 -44q0 -18 -9 -26
q-18 -15 -162 -15q-128 0 -158 2q-29 1 -39 14t-10 43q0 16 1 74t1 93v200q0 143 -14 233q107 9 218 9q144 0 162 -15q9 -8 9 -26q0 -24 -8 -44q-57 21 -186 21q-53 0 -110 -3z" />
    <glyph glyph-name="Eacute" unicode="&#xc9;" horiz-adv-x="486" 
d="M376 816q-22 -16 -79.5 -49.5t-70.5 -45.5q-16 14 -16 29q0 17 16 29.5t57.5 43.5t82.5 76q35 -20 35 -46q0 -20 -25 -37zM151 599q4 -44 4 -212h79q84 0 120 4q4 -8 4 -26q0 -23 -10.5 -31t-33.5 -9q-26 -1 -71 -1h-88q0 -218 7 -262q44 -2 71 -2q168 0 215 23
q8 -20 8 -44q0 -18 -9 -26q-18 -15 -162 -15q-128 0 -158 2q-29 1 -39 14t-10 43q0 16 1 74t1 93v200q0 143 -14 233q107 9 218 9q144 0 162 -15q9 -8 9 -26q0 -24 -8 -44q-57 21 -186 21q-53 0 -110 -3z" />
    <glyph glyph-name="Ecircumflex" unicode="&#xca;" horiz-adv-x="486" 
d="M251 869q47 -30 88.5 -67.5t41.5 -64.5q0 -18 -23 -28q-19 24 -46 46.5t-45 32.5l-18 10q-6 -5 -18.5 -15.5t-20 -16.5t-18.5 -14.5t-18.5 -14t-15 -10.5t-13.5 -7.5t-10 -2.5q-12 0 -25 18q64 77 141 134zM151 599q4 -44 4 -212h79q84 0 120 4q4 -8 4 -26
q0 -23 -10.5 -31t-33.5 -9q-26 -1 -71 -1h-88q0 -218 7 -262q44 -2 71 -2q168 0 215 23q8 -20 8 -44q0 -18 -9 -26q-18 -15 -162 -15q-128 0 -158 2q-29 1 -39 14t-10 43q0 16 1 74t1 93v200q0 143 -14 233q107 9 218 9q144 0 162 -15q9 -8 9 -26q0 -24 -8 -44
q-57 21 -186 21q-53 0 -110 -3z" />
    <glyph glyph-name="Edieresis" unicode="&#xcb;" horiz-adv-x="486" 
d="M151 599q4 -44 4 -212h79q84 0 120 4q4 -8 4 -26q0 -23 -10.5 -31t-33.5 -9q-26 -1 -71 -1h-88q0 -218 7 -262q44 -2 71 -2q168 0 215 23q8 -20 8 -44q0 -18 -9 -26q-18 -15 -162 -15q-128 0 -158 2q-29 1 -39 14t-10 43q0 16 1 74t1 93v200q0 143 -14 233q107 9 218 9
q144 0 162 -15q9 -8 9 -26q0 -24 -8 -44q-57 21 -186 21q-53 0 -110 -3zM331 712q-21 0 -36 15t-15 39q0 22 16 37.5t37 15.5q20 0 35 -15.5t15 -37.5q0 -23 -16 -38.5t-36 -15.5zM153 712q-21 0 -36 15t-15 39q0 22 16 37.5t37 15.5q20 0 35 -15.5t15 -37.5
q0 -23 -16 -38.5t-36 -15.5z" />
    <glyph glyph-name="Igrave" unicode="&#xcc;" horiz-adv-x="221" 
d="M73 231v200q0 141 -7 232q17 3 41 3q49 0 49 -38q0 -6 -2 -40.5t-4 -86t-2 -97.5v-201q0 -135 19 -198q-18 -8 -47 -8t-39 13t-10 44q0 16 1 79t1 98zM1 899q37 -41 78 -72.5t59 -46t18 -29.5t-16 -29q-28 21 -76.5 48t-73 45t-24.5 38q0 26 35 46z" />
    <glyph glyph-name="Iacute" unicode="&#xcd;" horiz-adv-x="221" 
d="M73 231v200q0 141 -7 232q17 3 41 3q49 0 49 -38q0 -6 -2 -40.5t-4 -86t-2 -97.5v-201q0 -135 19 -198q-18 -8 -47 -8t-39 13t-10 44q0 16 1 79t1 98zM242 816q-22 -16 -79.5 -49.5t-70.5 -45.5q-16 14 -16 29q0 17 16 29.5t57.5 43.5t82.5 76q35 -20 35 -46
q0 -20 -25 -37z" />
    <glyph glyph-name="Icircumflex" unicode="&#xce;" horiz-adv-x="221" 
d="M73 231v200q0 141 -7 232q17 3 41 3q49 0 49 -38q0 -6 -2 -40.5t-4 -86t-2 -97.5v-201q0 -135 19 -198q-18 -8 -47 -8t-39 13t-10 44q0 16 1 79t1 98zM117 869q47 -30 88.5 -67.5t41.5 -64.5q0 -18 -23 -28q-19 24 -46 46.5t-45 32.5l-18 10q-6 -5 -18.5 -15.5t-20 -16.5
t-18.5 -14.5t-18.5 -14t-15 -10.5t-13.5 -7.5t-10 -2.5q-12 0 -25 18q64 77 141 134z" />
    <glyph glyph-name="Idieresis" unicode="&#xcf;" horiz-adv-x="221" 
d="M73 231v200q0 141 -7 232q17 3 41 3q49 0 49 -38q0 -6 -2 -40.5t-4 -86t-2 -97.5v-201q0 -135 19 -198q-18 -8 -47 -8t-39 13t-10 44q0 16 1 79t1 98zM18 712q-21 0 -36 15t-15 39q0 22 16 37.5t37 15.5q20 0 35 -15.5t15 -37.5q0 -23 -16 -38.5t-36 -15.5zM196 712
q-21 0 -36 15t-15 39q0 22 16 37.5t37 15.5q20 0 35 -15.5t15 -37.5q0 -23 -16 -38.5t-36 -15.5z" />
    <glyph glyph-name="Eth" unicode="&#xd0;" horiz-adv-x="635" 
d="M153 608q4 -69 4 -163v-58h64q83 0 114 4q4 -12 4 -26q0 -20 -9 -29.5t-35 -10.5q-33 -1 -139 -1q-3 -139 -13 -237q54 -36 133 -36q63 0 109 24t70.5 64.5t35.5 83.5t11 90q0 149 -74 224t-211 75q-22 0 -64 -4zM66 53q13 84 15 271q-58 0 -93 -4q-4 12 -4 26
q0 20 9 29.5t35 10.5q6 0 24.5 0.5t29.5 0.5q0 177 -13 274q60 12 155 12q78 0 140 -17t113.5 -54.5t80 -105.5t28.5 -163q0 -150 -80 -246.5t-228 -96.5q-136 0 -212 63z" />
    <glyph glyph-name="Ntilde" unicode="&#xd1;" horiz-adv-x="618" 
d="M551 1q-16 -4 -33 -4q-34 0 -52 27q-41 63 -142 241.5t-173 286.5q-1 -38 -1 -349q0 -135 19 -198q-18 -8 -37 -8q-29 0 -39 13t-10 44q0 16 1 79t1 98v200q0 167 -19 228q19 8 47 8q20 0 31.5 -7t24.5 -22q50 -57 144 -213t172 -306q-3 36 -4.5 114t-1.5 138v60
q0 141 -7 232q17 3 31 3q49 0 49 -38q0 -6 -2 -40.5t-4 -86t-2 -97.5v-171q0 -141 7 -232zM457 803q0 -28 -31 -54t-66 -26q-21 0 -58.5 22.5t-55.5 22.5t-59 -42q-16 7 -16 21q0 27 31.5 53.5t66.5 26.5q18 0 57 -22.5t56 -22.5q23 0 59 42q16 -6 16 -21z" />
    <glyph glyph-name="Ograve" unicode="&#xd2;" horiz-adv-x="712" 
d="M240 899q37 -41 78 -72.5t59 -46t18 -29.5t-16 -29q-28 21 -76.5 48t-73 45t-24.5 38q0 26 35 46zM355 -10q-140 0 -223 93t-83 248q0 157 83 249.5t223 92.5q141 0 224.5 -92.5t83.5 -249.5q0 -155 -83.5 -248t-224.5 -93zM579 313q0 56 -12.5 107t-37.5 95t-70 70.5
t-103 26.5q-103 0 -164 -70.5t-61 -179.5q0 -59 12.5 -112t37.5 -99t69.5 -73t103.5 -27q108 0 166.5 72.5t58.5 189.5z" />
    <glyph glyph-name="Oacute" unicode="&#xd3;" horiz-adv-x="712" 
d="M481 816q-22 -16 -79.5 -49.5t-70.5 -45.5q-16 14 -16 29q0 17 16 29.5t57.5 43.5t82.5 76q35 -20 35 -46q0 -20 -25 -37zM355 -10q-140 0 -223 93t-83 248q0 157 83 249.5t223 92.5q141 0 224.5 -92.5t83.5 -249.5q0 -155 -83.5 -248t-224.5 -93zM579 313
q0 56 -12.5 107t-37.5 95t-70 70.5t-103 26.5q-103 0 -164 -70.5t-61 -179.5q0 -59 12.5 -112t37.5 -99t69.5 -73t103.5 -27q108 0 166.5 72.5t58.5 189.5z" />
    <glyph glyph-name="Ocircumflex" unicode="&#xd4;" horiz-adv-x="712" 
d="M356 868q47 -30 88.5 -67.5t41.5 -64.5q0 -18 -23 -28q-19 24 -46 46t-45 32l-18 11q-6 -5 -18.5 -15.5t-20 -16.5t-18.5 -14.5t-18.5 -14t-15 -10.5t-13.5 -7.5t-10 -2.5q-12 0 -25 18q64 77 141 134zM355 -10q-140 0 -223 93t-83 248q0 157 83 249.5t223 92.5
q141 0 224.5 -92.5t83.5 -249.5q0 -155 -83.5 -248t-224.5 -93zM579 313q0 56 -12.5 107t-37.5 95t-70 70.5t-103 26.5q-103 0 -164 -70.5t-61 -179.5q0 -59 12.5 -112t37.5 -99t69.5 -73t103.5 -27q108 0 166.5 72.5t58.5 189.5z" />
    <glyph glyph-name="Otilde" unicode="&#xd5;" horiz-adv-x="712" 
d="M499 803q0 -28 -31 -54t-66 -26q-21 0 -58.5 22.5t-55.5 22.5t-59 -42q-16 7 -16 21q0 27 31.5 53.5t66.5 26.5q18 0 57 -22.5t56 -22.5q23 0 59 42q16 -6 16 -21zM355 -10q-140 0 -223 93t-83 248q0 157 83 249.5t223 92.5q141 0 224.5 -92.5t83.5 -249.5
q0 -155 -83.5 -248t-224.5 -93zM579 313q0 56 -12.5 107t-37.5 95t-70 70.5t-103 26.5q-103 0 -164 -70.5t-61 -179.5q0 -59 12.5 -112t37.5 -99t69.5 -73t103.5 -27q108 0 166.5 72.5t58.5 189.5z" />
    <glyph glyph-name="Odieresis" unicode="&#xd6;" horiz-adv-x="712" 
d="M355 -10q-140 0 -223 93t-83 248q0 157 83 249.5t223 92.5q141 0 224.5 -92.5t83.5 -249.5q0 -155 -83.5 -248t-224.5 -93zM579 313q0 56 -12.5 107t-37.5 95t-70 70.5t-103 26.5q-103 0 -164 -70.5t-61 -179.5q0 -59 12.5 -112t37.5 -99t69.5 -73t103.5 -27
q108 0 166.5 72.5t58.5 189.5zM444 712q-21 0 -36 15t-15 39q0 22 16 37.5t37 15.5q20 0 35 -15.5t15 -37.5q0 -23 -16 -38.5t-36 -15.5zM266 712q-21 0 -36 15t-15 39q0 22 16 37.5t37 15.5q20 0 35 -15.5t15 -37.5q0 -23 -16 -38.5t-36 -15.5z" />
    <glyph glyph-name="multiply" unicode="&#xd7;" 
d="M307 252q110 -110 166 -155q-22 -37 -51 -37q-13 0 -23 10q-13 13 -65 69.5t-68 72.5q-99 -97 -155 -166q-38 26 -38 51q0 13 10 23l143 133q-125 120 -165 155q24 38 50 38q13 0 24 -11q6 -6 27.5 -29.5t52.5 -56.5t52 -56q110 110 155 166q14 -8 25.5 -22t11.5 -29
q0 -13 -10 -23q-13 -13 -69.5 -65t-72.5 -68z" />
    <glyph glyph-name="Oslash" unicode="&#xd8;" horiz-adv-x="712" 
d="M579 313q0 142 -67 226l-256 -464q42 -24 98 -24q108 0 166.5 72.5t58.5 189.5zM131 362q0 -168 82 -254l259 469q-49 35 -116 35q-103 0 -164 -70.5t-61 -179.5zM135 -33l42 76q-128 90 -128 288q0 157 83 249.5t223 92.5q83 0 149 -34q35 66 53 105q17 -1 31.5 -9.5
t14.5 -21.5q0 -9 -6 -20l-47 -85q113 -91 113 -277q0 -155 -83.5 -248t-224.5 -93q-71 0 -130 25q-31 -58 -50 -99q-46 6 -46 32q0 7 6 19z" />
    <glyph glyph-name="Ugrave" unicode="&#xd9;" horiz-adv-x="644" 
d="M209 899q37 -41 78 -72.5t59 -46t18 -29.5t-16 -29q-28 21 -76.5 48t-73 45t-24.5 38q0 26 35 46zM72 658q20 8 45 8q29 0 42.5 -11.5t13.5 -39.5q0 -43 -7.5 -189.5t-7.5 -227.5q0 -70 40.5 -107t93.5 -37q49 0 103 24t88 56q0 7 0.5 34.5t0.5 94v168.5q0 141 -7 232
q17 3 41 3q49 0 49 -38q0 -2 -2 -37t-4 -109.5t-2 -172.5q0 -155 3 -207.5t16 -96.5q-18 -8 -47 -8q-28 0 -38.5 12.5t-10.5 46.5v11q-40 -34 -96 -55.5t-103 -21.5q-94 0 -148.5 44.5t-54.5 157.5q0 59 4.5 160t4.5 149q0 95 -17 157z" />
    <glyph glyph-name="Uacute" unicode="&#xda;" horiz-adv-x="644" 
d="M450 816q-22 -16 -79.5 -49.5t-70.5 -45.5q-16 14 -16 29q0 17 16 29.5t57.5 43.5t82.5 76q35 -20 35 -46q0 -20 -25 -37zM72 658q20 8 45 8q29 0 42.5 -11.5t13.5 -39.5q0 -43 -7.5 -189.5t-7.5 -227.5q0 -70 40.5 -107t93.5 -37q49 0 103 24t88 56q0 7 0.5 34.5t0.5 94
v168.5q0 141 -7 232q17 3 41 3q49 0 49 -38q0 -2 -2 -37t-4 -109.5t-2 -172.5q0 -155 3 -207.5t16 -96.5q-18 -8 -47 -8q-28 0 -38.5 12.5t-10.5 46.5v11q-40 -34 -96 -55.5t-103 -21.5q-94 0 -148.5 44.5t-54.5 157.5q0 59 4.5 160t4.5 149q0 95 -17 157z" />
    <glyph glyph-name="Ucircumflex" unicode="&#xdb;" horiz-adv-x="644" 
d="M325 869q47 -30 88.5 -67.5t41.5 -64.5q0 -18 -23 -28q-19 24 -46 46.5t-45 32.5l-18 10q-6 -5 -18.5 -15.5t-20 -16.5t-18.5 -14.5t-18.5 -14t-15 -10.5t-13.5 -7.5t-10 -2.5q-12 0 -25 18q64 77 141 134zM72 658q20 8 45 8q29 0 42.5 -11.5t13.5 -39.5
q0 -43 -7.5 -189.5t-7.5 -227.5q0 -70 40.5 -107t93.5 -37q49 0 103 24t88 56q0 7 0.5 34.5t0.5 94v168.5q0 141 -7 232q17 3 41 3q49 0 49 -38q0 -2 -2 -37t-4 -109.5t-2 -172.5q0 -155 3 -207.5t16 -96.5q-18 -8 -47 -8q-28 0 -38.5 12.5t-10.5 46.5v11q-40 -34 -96 -55.5
t-103 -21.5q-94 0 -148.5 44.5t-54.5 157.5q0 59 4.5 160t4.5 149q0 95 -17 157z" />
    <glyph glyph-name="Udieresis" unicode="&#xdc;" horiz-adv-x="644" 
d="M72 658q20 8 45 8q29 0 42.5 -11.5t13.5 -39.5q0 -43 -7.5 -189.5t-7.5 -227.5q0 -70 40.5 -107t93.5 -37q49 0 103 24t88 56q0 7 0.5 34.5t0.5 94v168.5q0 141 -7 232q17 3 41 3q49 0 49 -38q0 -2 -2 -37t-4 -109.5t-2 -172.5q0 -155 3 -207.5t16 -96.5q-18 -8 -47 -8
q-28 0 -38.5 12.5t-10.5 46.5v11q-40 -34 -96 -55.5t-103 -21.5q-94 0 -148.5 44.5t-54.5 157.5q0 59 4.5 160t4.5 149q0 95 -17 157zM410 712q-21 0 -36 15t-15 39q0 22 16 37.5t37 15.5q20 0 35 -15.5t15 -37.5q0 -23 -16 -38.5t-36 -15.5zM232 712q-21 0 -36 15t-15 39
q0 22 16 37.5t37 15.5q20 0 35 -15.5t15 -37.5q0 -23 -16 -38.5t-36 -15.5z" />
    <glyph glyph-name="Yacute" unicode="&#xdd;" horiz-adv-x="501" 
d="M372 816q-22 -16 -79.5 -49.5t-70.5 -45.5q-16 14 -16 29q0 17 16 29.5t57.5 43.5t82.5 76q35 -20 35 -46q0 -20 -25 -37zM496 627q0 -25 -76 -141.5t-133 -184.5v-85q0 -146 19 -211q-18 -8 -47 -8t-39 13t-10 44q1 92 2 178v62q-145 273 -222 325q3 4 12.5 15t13 14
l10.5 9t13 8t14 2q25 0 48 -34q60 -87 160 -272q48 63 102.5 168.5t56.5 142.5q76 -5 76 -45z" />
    <glyph glyph-name="Thorn" unicode="&#xde;" horiz-adv-x="512" 
d="M248 189q68 0 106.5 39.5t38.5 106.5q0 92 -43 127t-134 35q-23 0 -67 -4q-1 -28 -1 -155v-124q44 -25 100 -25zM107 666q49 0 49 -38q0 -4 -0.5 -13.5t-1.5 -27.5t-2 -32q32 3 57 3q268 0 268 -216q0 -104 -62.5 -159t-146.5 -55q-71 0 -120 32q0 -93 19 -155
q-18 -8 -47 -8t-39 13t-10 44q0 16 1 79t1 98v200q0 141 -7 232q17 3 41 3z" />
    <glyph glyph-name="germandbls" unicode="&#xdf;" horiz-adv-x="520" 
d="M151 491v-295q0 -39 0.5 -88.5t0.5 -58.5q0 -28 -10.5 -40t-38.5 -12q-20 0 -38 8q20 67 20 197v262q0 103 51.5 156t122.5 53q58 0 98 -29t40 -81q0 -37 -13 -65t-31.5 -44t-37.5 -28t-32 -26.5t-13 -31.5q0 -21 21 -41t51 -38.5t60.5 -39t51.5 -52.5t21 -70
q0 -54 -41 -95.5t-100 -41.5q-46 0 -81.5 23t-35.5 57q0 29 45 42q6 -32 29.5 -49t50.5 -17q25 0 44 20.5t19 48.5q0 31 -20 56.5t-48.5 44.5t-57.5 38.5t-49 47.5t-20 62q0 26 18.5 48.5t40 37t40 39.5t18.5 54q0 35 -20.5 54.5t-53.5 19.5q-42 0 -72 -31.5t-30 -94.5z" />
    <glyph glyph-name="agrave" unicode="&#xe0;" horiz-adv-x="476" 
d="M128 747q37 -41 78 -72.5t59 -46t18 -29.5t-16 -29q-28 21 -76.5 48t-73 45t-24.5 38q0 26 35 46zM311 211q-19 45 -81 213q-50 -144 -79 -212q60 -2 92 -2q47 0 68 1zM227 157q-21 0 -97 2q-5 -12 -21.5 -53t-26.5 -68.5t-17 -53.5q-59 8 -59 31q0 10 9.5 33t33 76.5
t44.5 107.5q78 201 102 282q16 3 37 3q22 0 31 -6.5t20 -35.5q8 -21 43.5 -116.5t55.5 -146.5q48 -118 94 -205q-28 -14 -45 -14q-30 0 -41 20q-6 14 -59 146q-86 -2 -104 -2z" />
    <glyph glyph-name="aacute" unicode="&#xe1;" horiz-adv-x="476" 
d="M345 664q-22 -16 -79.5 -49.5t-70.5 -45.5q-16 14 -16 29q0 17 16 29.5t57.5 43.5t82.5 76q35 -20 35 -46q0 -20 -25 -37zM311 211q-19 45 -81 213q-50 -144 -79 -212q60 -2 92 -2q47 0 68 1zM227 157q-21 0 -97 2q-5 -12 -21.5 -53t-26.5 -68.5t-17 -53.5q-59 8 -59 31
q0 10 9.5 33t33 76.5t44.5 107.5q78 201 102 282q16 3 37 3q22 0 31 -6.5t20 -35.5q8 -21 43.5 -116.5t55.5 -146.5q48 -118 94 -205q-28 -14 -45 -14q-30 0 -41 20q-6 14 -59 146q-86 -2 -104 -2z" />
    <glyph glyph-name="acircumflex" unicode="&#xe2;" horiz-adv-x="476" 
d="M235 724q47 -30 88.5 -67.5t41.5 -64.5q0 -18 -23 -28q-19 24 -46 46t-45 32l-18 11q-6 -5 -18.5 -15.5t-20 -16.5t-18.5 -14.5t-18.5 -14t-15 -10.5t-13.5 -7.5t-10 -2.5q-12 0 -25 18q64 77 141 134zM311 211q-19 45 -81 213q-50 -144 -79 -212q60 -2 92 -2q47 0 68 1z
M227 157q-21 0 -97 2q-5 -12 -21.5 -53t-26.5 -68.5t-17 -53.5q-59 8 -59 31q0 10 9.5 33t33 76.5t44.5 107.5q78 201 102 282q16 3 37 3q22 0 31 -6.5t20 -35.5q8 -21 43.5 -116.5t55.5 -146.5q48 -118 94 -205q-28 -14 -45 -14q-30 0 -41 20q-6 14 -59 146q-86 -2 -104 -2
z" />
    <glyph glyph-name="atilde" unicode="&#xe3;" horiz-adv-x="476" 
d="M381 655q0 -28 -31 -54t-66 -26q-21 0 -58.5 22.5t-55.5 22.5t-59 -42q-16 7 -16 21q0 27 31.5 53.5t66.5 26.5q18 0 57 -22.5t56 -22.5q23 0 59 42q16 -6 16 -21zM311 211q-19 45 -81 213q-50 -144 -79 -212q60 -2 92 -2q47 0 68 1zM227 157q-21 0 -97 2
q-5 -12 -21.5 -53t-26.5 -68.5t-17 -53.5q-59 8 -59 31q0 10 9.5 33t33 76.5t44.5 107.5q78 201 102 282q16 3 37 3q22 0 31 -6.5t20 -35.5q8 -21 43.5 -116.5t55.5 -146.5q48 -118 94 -205q-28 -14 -45 -14q-30 0 -41 20q-6 14 -59 146q-86 -2 -104 -2z" />
    <glyph glyph-name="adieresis" unicode="&#xe4;" horiz-adv-x="476" 
d="M311 211q-19 45 -81 213q-50 -144 -79 -212q60 -2 92 -2q47 0 68 1zM227 157q-21 0 -97 2q-5 -12 -21.5 -53t-26.5 -68.5t-17 -53.5q-59 8 -59 31q0 10 9.5 33t33 76.5t44.5 107.5q78 201 102 282q16 3 37 3q22 0 31 -6.5t20 -35.5q8 -21 43.5 -116.5t55.5 -146.5
q48 -118 94 -205q-28 -14 -45 -14q-30 0 -41 20q-6 14 -59 146q-86 -2 -104 -2zM319 562q-21 0 -36 15t-15 39q0 22 16 37.5t37 15.5q20 0 35 -15.5t15 -37.5q0 -23 -16 -38.5t-36 -15.5zM141 562q-21 0 -36 15t-15 39q0 22 16 37.5t37 15.5q20 0 35 -15.5t15 -37.5
q0 -23 -16 -38.5t-36 -15.5z" />
    <glyph glyph-name="aring" unicode="&#xe5;" horiz-adv-x="476" 
d="M230 565q-40 0 -64.5 24.5t-24.5 64.5t24.5 64.5t64.5 24.5q39 0 63 -24.5t24 -64.5t-24 -64.5t-63 -24.5zM275 649q0 27 -12 44t-33 17q-22 0 -34.5 -14t-12.5 -38q0 -26 12.5 -43t34.5 -17q21 0 33 13.5t12 37.5zM311 211q-19 45 -81 213q-50 -144 -79 -212
q60 -2 92 -2q47 0 68 1zM227 157q-21 0 -97 2q-5 -12 -21.5 -53t-26.5 -68.5t-17 -53.5q-59 8 -59 31q0 10 9.5 33t33 76.5t44.5 107.5q78 201 102 282q16 3 37 3q22 0 31 -6.5t20 -35.5q8 -21 43.5 -116.5t55.5 -146.5q48 -118 94 -205q-28 -14 -45 -14q-30 0 -41 20
q-6 14 -59 146q-86 -2 -104 -2z" />
    <glyph glyph-name="ae" unicode="&#xe6;" horiz-adv-x="649" 
d="M296 157h-51q-21 0 -97 2q-81 -144 -95 -175q-53 10 -53 39q0 11 27.5 55.5t96.5 163.5t142 267q41 10 201 10q121 0 136 -12q8 -7 8 -23q0 -20 -7 -38q-48 16 -150 16q-39 0 -89 -2q3 -24 3 -155h64q67 0 96 3q3 -7 3 -22q0 -20 -8.5 -27.5t-26.5 -8.5q-21 -1 -57 -1
h-71q0 -161 6 -194q36 -2 58 -2q132 0 173 18q7 -18 7 -38q0 -16 -8 -23q-15 -11 -136 -11q-23 0 -76.5 0.5t-55.5 0.5q-25 1 -33.5 11t-8.5 33q0 27 2 113zM296 210v123q0 31 -2 89q-81 -153 -115 -210q60 -2 91 -2h26z" />
    <glyph glyph-name="ccedilla" unicode="&#xe7;" horiz-adv-x="522" 
d="M433 113q39 -16 39 -45t-43 -51t-110 -24q-5 -15 -5 -23q0 -3 0.5 -6t2.5 -5t3 -4t4.5 -4.5t5 -3.5t5.5 -3.5t6 -3.5q47 -27 47 -73q0 -38 -34.5 -68.5t-85.5 -30.5q-35 0 -35 25q0 16 13 29q15 -9 31 -9q50 0 50 40q0 23 -30.5 48.5t-30.5 44.5q0 16 12 49
q-106 9 -168 80.5t-62 182.5q0 125 70.5 195.5t192.5 70.5q65 0 109 -24.5t44 -60.5q0 -37 -55 -46q-14 37 -46.5 56.5t-68.5 19.5q-73 0 -120 -56t-47 -139q0 -97 47 -162t132 -65q38 0 72.5 17t54.5 49z" />
    <glyph glyph-name="egrave" unicode="&#xe8;" horiz-adv-x="447" 
d="M136 747q37 -41 78 -72.5t59 -46t18 -29.5t-16 -29q-28 21 -76.5 48t-73 45t-24.5 38q0 26 35 46zM163 460q3 -24 3 -155h64q67 0 96 3q3 -8 3 -22q0 -20 -8.5 -27.5t-26.5 -8.5q-21 -1 -57 -1h-71q0 -161 6 -194q36 -2 58 -2q132 0 173 18q7 -18 7 -38q0 -16 -8 -23
q-15 -11 -136 -11q-24 0 -77 0.5t-55 0.5q-25 1 -33.5 11t-8.5 33q0 14 1 61.5t1 74.5v153q0 114 -12 179q98 7 183 7q121 0 136 -12q8 -7 8 -23q0 -20 -7 -38q-48 16 -150 16q-39 0 -89 -2z" />
    <glyph glyph-name="eacute" unicode="&#xe9;" horiz-adv-x="447" 
d="M377 664q-22 -16 -79.5 -49.5t-70.5 -45.5q-16 14 -16 29q0 17 16 29.5t57.5 43.5t82.5 76q35 -20 35 -46q0 -20 -25 -37zM163 460q3 -24 3 -155h64q67 0 96 3q3 -8 3 -22q0 -20 -8.5 -27.5t-26.5 -8.5q-21 -1 -57 -1h-71q0 -161 6 -194q36 -2 58 -2q132 0 173 18
q7 -18 7 -38q0 -16 -8 -23q-15 -11 -136 -11q-24 0 -77 0.5t-55 0.5q-25 1 -33.5 11t-8.5 33q0 14 1 61.5t1 74.5v153q0 114 -12 179q98 7 183 7q121 0 136 -12q8 -7 8 -23q0 -20 -7 -38q-48 16 -150 16q-39 0 -89 -2z" />
    <glyph glyph-name="ecircumflex" unicode="&#xea;" horiz-adv-x="447" 
d="M242 724q47 -30 88.5 -67.5t41.5 -64.5q0 -18 -23 -28q-19 24 -46 46t-45 32l-18 11q-6 -5 -18.5 -15.5t-20 -16.5t-18.5 -14.5t-18.5 -14t-15 -10.5t-13.5 -7.5t-10 -2.5q-12 0 -25 18q64 77 141 134zM163 460q3 -24 3 -155h64q67 0 96 3q3 -8 3 -22q0 -20 -8.5 -27.5
t-26.5 -8.5q-21 -1 -57 -1h-71q0 -161 6 -194q36 -2 58 -2q132 0 173 18q7 -18 7 -38q0 -16 -8 -23q-15 -11 -136 -11q-24 0 -77 0.5t-55 0.5q-25 1 -33.5 11t-8.5 33q0 14 1 61.5t1 74.5v153q0 114 -12 179q98 7 183 7q121 0 136 -12q8 -7 8 -23q0 -20 -7 -38
q-48 16 -150 16q-39 0 -89 -2z" />
    <glyph glyph-name="edieresis" unicode="&#xeb;" horiz-adv-x="447" 
d="M322 562q-21 0 -36 15t-15 39q0 22 16 37.5t37 15.5q20 0 35 -15.5t15 -37.5q0 -23 -16 -38.5t-36 -15.5zM144 562q-21 0 -36 15t-15 39q0 22 16 37.5t37 15.5q20 0 35 -15.5t15 -37.5q0 -23 -16 -38.5t-36 -15.5zM163 460q3 -24 3 -155h64q67 0 96 3q3 -8 3 -22
q0 -20 -8.5 -27.5t-26.5 -8.5q-21 -1 -57 -1h-71q0 -161 6 -194q36 -2 58 -2q132 0 173 18q7 -18 7 -38q0 -16 -8 -23q-15 -11 -136 -11q-24 0 -77 0.5t-55 0.5q-25 1 -33.5 11t-8.5 33q0 14 1 61.5t1 74.5v153q0 114 -12 179q98 7 183 7q121 0 136 -12q8 -7 8 -23
q0 -20 -7 -38q-48 16 -150 16q-39 0 -89 -2z" />
    <glyph glyph-name="igrave" unicode="&#xec;" horiz-adv-x="268" 
d="M98 180v156q0 104 -6 180q18 3 38 3q47 0 47 -30q0 -4 -1.5 -31t-3.5 -67t-2 -76v-157q0 -105 16 -154q-15 -6 -44 -6q-27 0 -36.5 10t-9.5 34q0 12 1 61t1 77zM39 747q37 -41 78 -72.5t59 -46t18 -29.5t-16 -29q-28 21 -76.5 48t-73 45t-24.5 38q0 26 35 46z" />
    <glyph glyph-name="iacute" unicode="&#xed;" horiz-adv-x="268" 
d="M98 180v156q0 104 -6 180q18 3 38 3q47 0 47 -30q0 -4 -1.5 -31t-3.5 -67t-2 -76v-157q0 -105 16 -154q-15 -6 -44 -6q-27 0 -36.5 10t-9.5 34q0 12 1 61t1 77zM240 664q-22 -16 -79.5 -49.5t-70.5 -45.5q-16 14 -16 29q0 17 16 29.5t57.5 43.5t82.5 76q35 -20 35 -46
q0 -20 -25 -37z" />
    <glyph glyph-name="icircumflex" unicode="&#xee;" horiz-adv-x="268" 
d="M98 180v156q0 104 -6 180q18 3 38 3q47 0 47 -30q0 -4 -1.5 -31t-3.5 -67t-2 -76v-157q0 -105 16 -154q-15 -6 -44 -6q-27 0 -36.5 10t-9.5 34q0 12 1 61t1 77zM138 724q47 -30 88.5 -67.5t41.5 -64.5q0 -18 -23 -28q-19 24 -46 46t-45 32l-18 11q-6 -5 -18.5 -15.5
t-20 -16.5t-18.5 -14.5t-18.5 -14t-15 -10.5t-13.5 -7.5t-10 -2.5q-12 0 -25 18q64 77 141 134z" />
    <glyph glyph-name="idieresis" unicode="&#xef;" horiz-adv-x="268" 
d="M98 180v156q0 104 -6 180q18 3 38 3q47 0 47 -30q0 -4 -1.5 -31t-3.5 -67t-2 -76v-157q0 -105 16 -154q-15 -6 -44 -6q-27 0 -36.5 10t-9.5 34q0 12 1 61t1 77zM222 562q-21 0 -36 15t-15 39q0 22 16 37.5t37 15.5q20 0 35 -15.5t15 -37.5q0 -23 -16 -38.5t-36 -15.5z
M44 562q-21 0 -36 15t-15 39q0 22 16 37.5t37 15.5q20 0 35 -15.5t15 -37.5q0 -23 -16 -38.5t-36 -15.5z" />
    <glyph glyph-name="eth" unicode="&#xf0;" horiz-adv-x="534" 
d="M39 41q10 62 12 208q-35 0 -68 -3q-3 8 -3 22q0 20 8.5 27.5t26.5 8.5q7 0 19 0.5t18 0.5q0 132 -10 210q48 9 129 9q65 0 116.5 -13t95 -42.5t67 -82.5t23.5 -127q0 -116 -67 -191t-190 -75q-115 0 -177 48zM124 305h40q67 0 96 3q3 -8 3 -22q0 -20 -8.5 -27.5
t-26.5 -8.5q-21 -1 -57 -1h-48q-4 -121 -10 -174q41 -27 104 -27q49 0 85 18t55 48.5t27.5 63t8.5 67.5q0 112 -57.5 168.5t-164.5 56.5q-7 0 -15 -0.5t-18.5 -1.5t-16.5 -1q3 -40 3 -123v-39z" />
    <glyph glyph-name="ntilde" unicode="&#xf1;" horiz-adv-x="569" 
d="M486 0q-20 -2 -31 -2q-34 0 -48 20q-30 46 -113 184t-136 215q2 -75 2 -236q0 -132 16 -178q-18 -5 -35 -5q-27 0 -36 10t-9 34q0 12 0.5 61t0.5 77v156q0 130 -15 178q18 6 43 6q31 0 52 -23q39 -40 114 -158t132 -223q-5 72 -5 215q0 108 -6 186q16 2 29 2q46 0 46 -30
q0 -4 -1.5 -31t-3 -67t-1.5 -76v-134q0 -117 5 -181zM427 655q0 -28 -31 -54t-66 -26q-21 0 -58.5 22.5t-55.5 22.5t-59 -42q-16 7 -16 21q0 27 31.5 53.5t66.5 26.5q18 0 57 -22.5t56 -22.5q23 0 59 42q16 -6 16 -21z" />
    <glyph glyph-name="ograve" unicode="&#xf2;" horiz-adv-x="606" 
d="M186 747q37 -41 78 -72.5t59 -46t18 -29.5t-16 -29q-28 21 -76.5 48t-73 45t-24.5 38q0 26 35 46zM302 -7q-116 0 -185 72t-69 193q0 122 69 194t185 72q117 0 186.5 -72t69.5 -194q0 -121 -69.5 -193t-186.5 -72zM478 244q0 57 -16 106t-57.5 84t-101.5 35
q-81 0 -128.5 -53t-47.5 -135q0 -60 16 -111t57 -87t102 -36q84 0 130 54.5t46 142.5z" />
    <glyph glyph-name="oacute" unicode="&#xf3;" horiz-adv-x="606" 
d="M417 664q-22 -16 -79.5 -49.5t-70.5 -45.5q-16 14 -16 29q0 17 16 29.5t57.5 43.5t82.5 76q35 -20 35 -46q0 -20 -25 -37zM302 -7q-116 0 -185 72t-69 193q0 122 69 194t185 72q117 0 186.5 -72t69.5 -194q0 -121 -69.5 -193t-186.5 -72zM478 244q0 57 -16 106t-57.5 84
t-101.5 35q-81 0 -128.5 -53t-47.5 -135q0 -60 16 -111t57 -87t102 -36q84 0 130 54.5t46 142.5z" />
    <glyph glyph-name="ocircumflex" unicode="&#xf4;" horiz-adv-x="606" 
d="M309 724q47 -30 88.5 -67.5t41.5 -64.5q0 -18 -23 -28q-19 24 -46 46t-45 32l-18 11q-6 -5 -18.5 -15.5t-20 -16.5t-18.5 -14.5t-18.5 -14t-15 -10.5t-13.5 -7.5t-10 -2.5q-12 0 -25 18q64 77 141 134zM302 -7q-116 0 -185 72t-69 193q0 122 69 194t185 72
q117 0 186.5 -72t69.5 -194q0 -121 -69.5 -193t-186.5 -72zM478 244q0 57 -16 106t-57.5 84t-101.5 35q-81 0 -128.5 -53t-47.5 -135q0 -60 16 -111t57 -87t102 -36q84 0 130 54.5t46 142.5z" />
    <glyph glyph-name="otilde" unicode="&#xf5;" horiz-adv-x="606" 
d="M446 655q0 -28 -31 -54t-66 -26q-21 0 -58.5 22.5t-55.5 22.5t-59 -42q-16 7 -16 21q0 27 31.5 53.5t66.5 26.5q18 0 57 -22.5t56 -22.5q23 0 59 42q16 -6 16 -21zM302 -7q-116 0 -185 72t-69 193q0 122 69 194t185 72q117 0 186.5 -72t69.5 -194q0 -121 -69.5 -193
t-186.5 -72zM478 244q0 57 -16 106t-57.5 84t-101.5 35q-81 0 -128.5 -53t-47.5 -135q0 -60 16 -111t57 -87t102 -36q84 0 130 54.5t46 142.5z" />
    <glyph glyph-name="odieresis" unicode="&#xf6;" horiz-adv-x="606" 
d="M392 562q-21 0 -36 15t-15 39q0 22 16 37.5t37 15.5q20 0 35 -15.5t15 -37.5q0 -23 -16 -38.5t-36 -15.5zM214 562q-21 0 -36 15t-15 39q0 22 16 37.5t37 15.5q20 0 35 -15.5t15 -37.5q0 -23 -16 -38.5t-36 -15.5zM302 -7q-116 0 -185 72t-69 193q0 122 69 194t185 72
q117 0 186.5 -72t69.5 -194q0 -121 -69.5 -193t-186.5 -72zM478 244q0 57 -16 106t-57.5 84t-101.5 35q-81 0 -128.5 -53t-47.5 -135q0 -60 16 -111t57 -87t102 -36q84 0 130 54.5t46 142.5z" />
    <glyph glyph-name="divide" unicode="&#xf7;" 
d="M466 258q0 -18 -10 -30t-26 -12t-71.5 4t-84.5 4q-114 0 -202 -8q-3 15 -3 30q0 16 9 29t27 13q3 0 63 -3.5t104 -3.5q130 0 191 7q3 -9 3 -30zM271 367q-23 0 -39 16t-16 41q0 24 16 40.5t39 16.5t38.5 -16.5t15.5 -40.5q0 -25 -15.5 -41t-38.5 -16zM271 23
q-23 0 -39 16t-16 41q0 24 16 40.5t39 16.5t38.5 -16.5t15.5 -40.5q0 -25 -15.5 -41t-38.5 -16z" />
    <glyph glyph-name="oslash" unicode="&#xf8;" horiz-adv-x="606" 
d="M127 281q0 -116 55 -181l196 352q-32 17 -75 17q-81 0 -128.5 -53t-47.5 -135zM478 244q0 109 -56 174l-196 -354q32 -17 76 -17q84 0 130 54.5t46 142.5zM109 -33l39 70q-100 70 -100 221q0 122 69 194t185 72q55 0 106 -19q19 36 48 98q17 -1 31.5 -9t14.5 -22
q0 -6 -6 -20l-40 -72q102 -72 102 -222q0 -121 -69.5 -193t-186.5 -72q-54 0 -105 18l-2 -3q-19 -33 -46 -92q-46 6 -46 32q0 7 6 19z" />
    <glyph glyph-name="ugrave" unicode="&#xf9;" horiz-adv-x="580" 
d="M162 747q37 -41 78 -72.5t59 -46t18 -29.5t-16 -29q-28 21 -76.5 48t-73 45t-24.5 38q0 26 35 46zM86 513q18 6 42 6q27 0 39.5 -9t12.5 -31q0 -33 -6.5 -145t-6.5 -175q0 -53 31 -80t73 -27q38 0 80 18t68 42q0 5 0.5 25.5t0.5 70.5v128q0 104 -6 180q16 3 39 3
q46 0 46 -30q0 -1 -1.5 -28.5t-3.5 -85.5t-2 -134q0 -121 2.5 -162t13.5 -76q-17 -5 -44 -5q-26 0 -36 9.5t-10 35.5v12q-33 -27 -78 -44.5t-83 -17.5q-76 0 -120.5 34t-44.5 122q0 46 3.5 124.5t3.5 116.5q0 76 -13 123z" />
    <glyph glyph-name="uacute" unicode="&#xfa;" horiz-adv-x="580" 
d="M426 664q-22 -16 -79.5 -49.5t-70.5 -45.5q-16 14 -16 29q0 17 16 29.5t57.5 43.5t82.5 76q35 -20 35 -46q0 -20 -25 -37zM86 513q18 6 42 6q27 0 39.5 -9t12.5 -31q0 -33 -6.5 -145t-6.5 -175q0 -53 31 -80t73 -27q38 0 80 18t68 42q0 5 0.5 25.5t0.5 70.5v128
q0 104 -6 180q16 3 39 3q46 0 46 -30q0 -1 -1.5 -28.5t-3.5 -85.5t-2 -134q0 -121 2.5 -162t13.5 -76q-17 -5 -44 -5q-26 0 -36 9.5t-10 35.5v12q-33 -27 -78 -44.5t-83 -17.5q-76 0 -120.5 34t-44.5 122q0 46 3.5 124.5t3.5 116.5q0 76 -13 123z" />
    <glyph glyph-name="ucircumflex" unicode="&#xfb;" horiz-adv-x="580" 
d="M303 724q47 -30 88.5 -67.5t41.5 -64.5q0 -18 -23 -28q-19 24 -46 46t-45 32l-18 11q-6 -5 -18.5 -15.5t-20 -16.5t-18.5 -14.5t-18.5 -14t-15 -10.5t-13.5 -7.5t-10 -2.5q-12 0 -25 18q64 77 141 134zM86 513q18 6 42 6q27 0 39.5 -9t12.5 -31q0 -33 -6.5 -145
t-6.5 -175q0 -53 31 -80t73 -27q38 0 80 18t68 42q0 5 0.5 25.5t0.5 70.5v128q0 104 -6 180q16 3 39 3q46 0 46 -30q0 -1 -1.5 -28.5t-3.5 -85.5t-2 -134q0 -121 2.5 -162t13.5 -76q-17 -5 -44 -5q-26 0 -36 9.5t-10 35.5v12q-33 -27 -78 -44.5t-83 -17.5q-76 0 -120.5 34
t-44.5 122q0 46 3.5 124.5t3.5 116.5q0 76 -13 123z" />
    <glyph glyph-name="udieresis" unicode="&#xfc;" horiz-adv-x="580" 
d="M386 562q-21 0 -36 15t-15 39q0 22 16 37.5t37 15.5q20 0 35 -15.5t15 -37.5q0 -23 -16 -38.5t-36 -15.5zM208 562q-21 0 -36 15t-15 39q0 22 16 37.5t37 15.5q20 0 35 -15.5t15 -37.5q0 -23 -16 -38.5t-36 -15.5zM86 513q18 6 42 6q27 0 39.5 -9t12.5 -31
q0 -33 -6.5 -145t-6.5 -175q0 -53 31 -80t73 -27q38 0 80 18t68 42q0 5 0.5 25.5t0.5 70.5v128q0 104 -6 180q16 3 39 3q46 0 46 -30q0 -1 -1.5 -28.5t-3.5 -85.5t-2 -134q0 -121 2.5 -162t13.5 -76q-17 -5 -44 -5q-26 0 -36 9.5t-10 35.5v12q-33 -27 -78 -44.5t-83 -17.5
q-76 0 -120.5 34t-44.5 122q0 46 3.5 124.5t3.5 116.5q0 76 -13 123z" />
    <glyph glyph-name="yacute" unicode="&#xfd;" horiz-adv-x="424" 
d="M356 664q-22 -16 -79.5 -49.5t-70.5 -45.5q-16 14 -16 29q0 17 16 29.5t57.5 43.5t82.5 76q35 -20 35 -46q0 -20 -25 -37zM416 484q0 -24 -57 -106t-108 -141v-75q0 -106 15 -158q-15 -6 -44 -6q-27 0 -36 10t-9 34q0 3 0.5 53.5t0.5 84.5v53q-117 208 -178 247
q34 40 60 40q25 0 44 -27q62 -87 123 -201q40 55 79 130t41 102q69 -4 69 -40z" />
    <glyph glyph-name="thorn" unicode="&#xfe;" horiz-adv-x="469" 
d="M88 180v156q0 104 -6 180q18 3 38 3q47 0 47 -30q0 -3 -0.5 -10.5t-1.5 -21.5t-2 -26q14 1 39 1q224 0 224 -170q0 -83 -50.5 -126t-118.5 -43q-55 0 -97 25q2 -71 16 -114q-15 -6 -44 -6q-27 0 -36.5 10t-9.5 34q0 12 1 61t1 77zM236 148q52 0 81 29.5t29 79.5
q0 69 -32.5 95t-101.5 26q-3 0 -51 -3q-1 -19 -1 -60v-151q32 -16 76 -16z" />
    <glyph glyph-name="ydieresis" unicode="&#xff;" horiz-adv-x="424" 
d="M303 562q-21 0 -36 15t-15 39q0 22 16 37.5t37 15.5q20 0 35 -15.5t15 -37.5q0 -23 -16 -38.5t-36 -15.5zM125 562q-21 0 -36 15t-15 39q0 22 16 37.5t37 15.5q20 0 35 -15.5t15 -37.5q0 -23 -16 -38.5t-36 -15.5zM416 484q0 -24 -57 -106t-108 -141v-75q0 -106 15 -158
q-15 -6 -44 -6q-27 0 -36 10t-9 34q0 3 0.5 53.5t0.5 84.5v53q-117 208 -178 247q34 40 60 40q25 0 44 -27q62 -87 123 -201q40 55 79 130t41 102q69 -4 69 -40z" />
    <glyph glyph-name="dotlessi" unicode="&#x131;" horiz-adv-x="213" 
d="M100 468q47 0 47 -38q0 -5 -2 -40.5t-4 -87.5t-2 -99q0 -135 19 -198q-18 -8 -38 -8q-29 0 -39 13t-10 44q0 16 1 79t1 98q0 143 -7 234q16 3 34 3z" />
    <glyph glyph-name="Lslash" unicode="&#x141;" horiz-adv-x="429" 
d="M73 333v98q0 141 -7 232q17 3 41 3q49 0 49 -38q0 -5 -2 -40.5t-4 -90t-2 -106.5q71 56 130 109q32 -16 32 -38q0 -14 -15 -25l-147 -113q0 -218 7 -262q42 -2 66 -2q156 0 201 23q7 -21 7 -44q0 -18 -9 -26q-17 -15 -153 -15q-120 0 -150 2q-27 1 -36.5 14t-9.5 43
q0 16 1 74t1 93v41q-18 -14 -47 -39t-39 -34q-32 19 -32 39q0 12 15 24z" />
    <glyph glyph-name="lslash" unicode="&#x142;" horiz-adv-x="414" 
d="M-14 175l104 79v82q0 104 -6 181q16 2 39 2q46 0 46 -30q0 -4 -1.5 -31t-3.5 -68.5t-2 -80.5q53 41 132 111q32 -16 32 -38q0 -14 -15 -25l-149 -116q0 -154 6 -186q34 -2 53 -2q125 0 162 18q6 -19 6 -38q0 -16 -7 -23q-15 -11 -129 -11q-22 0 -72.5 0.5t-53.5 0.5
q-23 1 -31 11t-8 33q0 10 0.5 56t0.5 85q-6 -4 -20 -16.5t-34 -29.5t-32 -27q-32 19 -32 39q0 12 15 24z" />
    <glyph glyph-name="OE" unicode="&#x152;" horiz-adv-x="880" 
d="M354 51q68 0 118 30q0 18 1 66.5t1 76.5v200q0 75 -5 155q-49 33 -113 33q-103 0 -164 -70.5t-61 -179.5q0 -59 12.5 -112t37.5 -99t69.5 -73t103.5 -27zM545 599q4 -44 4 -212h79q84 0 120 4q4 -8 4 -26q0 -23 -10.5 -31t-33.5 -9q-26 -1 -71 -1h-88q0 -218 7 -262
q44 -2 71 -2q168 0 215 23q8 -20 8 -44q0 -18 -9 -26q-18 -15 -162 -15h-42q-122 0 -166 11q-55 -19 -116 -19q-140 0 -223 93t-83 248q0 157 83 249.5t223 92.5q54 0 105 -16q107 9 218 9q144 0 162 -15q9 -8 9 -26q0 -24 -8 -44q-57 21 -186 21q-53 0 -110 -3z" />
    <glyph glyph-name="oe" unicode="&#x153;" horiz-adv-x="844" 
d="M315 47q82 0 128 52t48 136v17q-3 89 -46 153t-129 64q-81 0 -128.5 -53t-47.5 -135q0 -60 16 -111t57 -87t102 -36zM560 460q3 -24 3 -155h64q67 0 96 3q3 -7 3 -22q0 -20 -8.5 -27.5t-26.5 -8.5q-21 -1 -57 -1h-71q0 -161 6 -194q36 -2 58 -2q133 0 173 18q7 -18 7 -38
q0 -16 -8 -23q-15 -11 -136 -11q-23 0 -76 0.5t-56 0.5q-25 1 -33.5 11t-8.5 33v8q-68 -59 -174 -59q-116 0 -185 72t-69 193q0 122 69 194t185 72q102 0 170 -57l-6 45q98 7 183 7q121 0 136 -12q8 -7 8 -23q0 -20 -7 -38q-48 16 -150 16q-39 0 -89 -2z" />
    <glyph glyph-name="Scaron" unicode="&#x160;" horiz-adv-x="518" 
d="M276 716q-47 30 -88.5 67.5t-41.5 64.5q0 18 23 28q19 -24 46 -46t45 -32l18 -11q6 5 18.5 15.5t20 16.5t18.5 14.5t18.5 14t15 10.5t13.5 7.5t10 2.5q12 0 25 -18q-64 -77 -141 -134zM401 533q-17 33 -61 54.5t-91 21.5q-51 0 -85.5 -28t-34.5 -82q0 -38 19 -63
t49.5 -38t67 -22.5t73 -21.5t67 -30t49.5 -53t19 -85q0 -52 -20 -91.5t-54 -61.5t-73.5 -32.5t-83.5 -10.5q-78 0 -137.5 27.5t-59.5 66.5q0 13 8.5 23.5t16.5 15.5t26 14q19 -37 68.5 -60.5t100.5 -23.5q56 0 96 30.5t40 87.5q0 50 -35.5 78.5t-86 42t-101 29.5t-86 55.5
t-35.5 106.5q0 92 60.5 141t154.5 49q69 0 127.5 -24t58.5 -66q0 -40 -57 -50z" />
    <glyph glyph-name="scaron" unicode="&#x161;" horiz-adv-x="454" 
d="M230 564q-47 30 -88.5 67.5t-41.5 64.5q0 18 23 28q19 -24 46 -46t45 -32l18 -11q6 5 18.5 15.5t20 16.5t18.5 14.5t18.5 14t15 10.5t13.5 7.5t10 2.5q12 0 25 -18q-64 -77 -141 -134zM342 404q-14 28 -49 46.5t-73 18.5q-40 0 -68.5 -20.5t-28.5 -59.5q0 -31 21 -50.5
t52.5 -27.5t68 -19t68 -23.5t52.5 -43t21 -75.5q0 -81 -56.5 -119t-137.5 -38q-66 0 -116.5 22t-50.5 54q0 25 45 47q16 -30 56.5 -49t83.5 -19q44 0 76.5 21.5t32.5 61.5q0 35 -29 55.5t-70.5 30.5t-83 23.5t-70.5 46t-29 85.5q0 74 51 113t130 39q58 0 106.5 -19.5
t48.5 -54.5q0 -36 -51 -46z" />
    <glyph glyph-name="Ydieresis" unicode="&#x178;" horiz-adv-x="501" 
d="M496 627q0 -25 -76 -141.5t-133 -184.5v-85q0 -146 19 -211q-18 -8 -47 -8t-39 13t-10 44q1 92 2 178v62q-145 273 -222 325q3 4 12.5 15t13 14l10.5 9t13 8t14 2q25 0 48 -34q60 -87 160 -272q48 63 102.5 168.5t56.5 142.5q76 -5 76 -45zM338 712q-21 0 -36 15t-15 39
q0 22 16 37.5t37 15.5q20 0 35 -15.5t15 -37.5q0 -23 -16 -38.5t-36 -15.5zM160 712q-21 0 -36 15t-15 39q0 22 16 37.5t37 15.5q20 0 35 -15.5t15 -37.5q0 -23 -16 -38.5t-36 -15.5z" />
    <glyph glyph-name="Zcaron" unicode="&#x17d;" 
d="M297 716q-47 30 -88.5 67.5t-41.5 64.5q0 18 23 28q19 -24 46 -46t45 -32l18 -11q6 5 18.5 15.5t20 16.5t18.5 14.5t18.5 14t15 10.5t13.5 7.5t10 2.5q12 0 25 -18q-64 -77 -141 -134zM499 648q16 -18 16 -40q0 -24 -17 -46l-404 -505q36 -4 81 -4q194 0 316 32
q10 -26 10 -42q0 -23 -17 -31t-55 -12q-60 -6 -156 -6q-139 0 -229 12q-18 24 -18 50q0 32 25 63l377 481q-47 6 -122 6q-141 0 -250 -27q-10 24 -10 42q0 28 29 36q42 10 127 10q184 0 297 -19z" />
    <glyph glyph-name="zcaron" unicode="&#x17e;" horiz-adv-x="471" 
d="M244 564q-47 30 -88.5 67.5t-41.5 64.5q0 18 23 28q19 -24 46 -46t45 -32l18 -11q6 5 18.5 15.5t20 16.5t18.5 14.5t18.5 14t15 10.5t13.5 7.5t10 2.5q12 0 25 -18q-64 -77 -141 -134zM433 505q13 -15 13 -31q0 -19 -14 -36l-328 -389q28 -2 58 -2q158 0 262 25
q8 -24 8 -36q0 -20 -14.5 -26.5t-45.5 -9.5q-44 -4 -132 -4q-113 0 -193 8q-15 20 -15 39q0 26 20 49l306 370q-27 3 -91 3q-117 0 -207 -21q-8 22 -8 37q0 24 23 31q34 8 106 8q147 0 252 -15z" />
    <glyph glyph-name="florin" unicode="&#x192;" 
d="M280 336l-13 -206q-8 -121 -44.5 -185.5t-127.5 -64.5q-42 0 -62.5 15t-20.5 37q0 16 14 31t41 19q13 -47 50 -47q43 0 58 34t20 114l16 254q-30 -1 -63 -4q-3 9 -3 16q0 25 31 25q3 0 16.5 0.5t20.5 0.5q4 56 14 96.5t30 75t55.5 52t85.5 17.5q45 0 67 -15t22 -37
q0 -16 -14 -31t-41 -19q-14 47 -57 47q-50 0 -67.5 -34t-22.5 -114l-2 -34q89 5 135 12q4 -8 4 -23q0 -22 -12.5 -28.5t-39.5 -6.5q-13 0 -28 0.5t-33 1.5t-29 1z" />
    <glyph glyph-name="circumflex" unicode="&#x2c6;" horiz-adv-x="277" 
d="M139 679q47 -30 88.5 -67.5t41.5 -64.5q0 -18 -23 -28q-19 24 -46 46.5t-45 32.5l-18 10q-6 -5 -18.5 -15.5t-20 -16.5t-18.5 -14.5t-18.5 -14t-15 -10.5t-13.5 -7.5t-10 -2.5q-12 0 -25 18q64 77 141 134z" />
    <glyph glyph-name="caron" unicode="&#x2c7;" horiz-adv-x="277" 
d="M156 519q-47 30 -88.5 67.5t-41.5 64.5q0 18 23 28q19 -24 46 -46t45 -33l18 -10q6 5 18.5 15.5t20 16.5t18.5 14.5t18.5 14t15 10.5t13.5 7.5t10 2.5q12 0 25 -18q-64 -77 -141 -134z" />
    <glyph glyph-name="breve" unicode="&#x2d8;" horiz-adv-x="272" 
d="M136 599q43 0 64.5 21.5t34.5 66.5q37 -3 37 -30q0 -39 -38.5 -81t-97.5 -42t-97.5 42t-38.5 81q0 27 37 30q13 -45 34.5 -66.5t64.5 -21.5z" />
    <glyph glyph-name="dotaccent" unicode="&#x2d9;" horiz-adv-x="103" 
d="M51 521q-21 0 -36 15t-15 39q0 22 16 37.5t37 15.5q20 0 35 -15.5t15 -37.5q0 -23 -16 -38.5t-36 -15.5z" />
    <glyph glyph-name="ring" unicode="&#x2da;" horiz-adv-x="153" 
d="M109 610q0 23 -9.5 37.5t-26.5 14.5q-38 0 -38 -43q0 -22 10.5 -36.5t27.5 -14.5q36 0 36 42zM73 520q-42 0 -68.5 26t-26.5 69t26.5 69t68.5 26t67.5 -26t25.5 -69t-25.5 -69t-67.5 -26z" />
    <glyph glyph-name="ogonek" unicode="&#x2db;" horiz-adv-x="470" 
d="M328 15l27 -8q-56 -28 -76.5 -60t-20.5 -71q0 -26 13 -40.5t33 -14.5q35 0 57 34q23 -14 23 -30q0 -18 -27.5 -31t-61.5 -13q-41 0 -69.5 21.5t-28.5 66.5q0 51 33.5 85t97.5 61z" />
    <glyph glyph-name="tilde" unicode="&#x2dc;" horiz-adv-x="286" 
d="M286 610q0 -28 -31 -54t-66 -26q-21 0 -58.5 22.5t-55.5 22.5t-59 -42q-16 7 -16 21q0 27 31.5 53.5t66.5 26.5q18 0 57 -22.5t56 -22.5q23 0 59 42q16 -6 16 -21z" />
    <glyph glyph-name="hungarumlaut" unicode="&#x2dd;" horiz-adv-x="401" 
d="M173 619q-23 -16 -80 -50t-70 -45q-16 14 -16 29q0 17 17.5 31t59 45t79.5 73q35 -20 35 -46q0 -21 -25 -37zM363 619q-23 -16 -80 -50t-70 -45q-16 14 -16 29q0 17 17.5 31t59 45t79.5 73q35 -20 35 -46q0 -21 -25 -37z" />
    <glyph glyph-name="pi" unicode="&#x3c0;" horiz-adv-x="512" 
d="M10 426q0 12 2.5 19.5t14.5 14.5t35 7q2 0 32 -0.5t81 -1t105 -0.5h71q90 0 133 19q8 -14 8 -31q0 -23 -12 -32t-40 -9h-51q-7 -161 -7 -243v-31q0 -90 19 -133q-18 -8 -38 -8q-28 0 -38.5 12t-10.5 40q0 13 1 85t1 110q0 126 1 169q-24 1 -68 1h-76v-170q0 -38 1 -110
t1 -85q0 -28 -9 -40t-34 -12q-18 0 -34 8q19 43 19 133v31q0 51 -1.5 107t-3.5 93.5t-2 43.5q-52 -2 -92 -18q-8 16 -8 31z" />
    <glyph glyph-name="endash" unicode="&#x2013;" horiz-adv-x="595" 
d="M565 267q0 -18 -10 -30t-26 -12q-15 0 -69 4t-82 4h-143q-114 0 -202 -8q-3 15 -3 30q0 16 9 29t27 13q3 0 63 -3.5t104 -3.5h142q127 0 187 7q3 -9 3 -30z" />
    <glyph glyph-name="emdash" unicode="&#x2014;" horiz-adv-x="755" 
d="M725 267q0 -17 -10 -28t-26 -11q-8 0 -40.5 2.5t-59.5 2.5h-445q-62 0 -111 -8q-3 15 -3 30q0 16 8.5 27.5t27.5 11.5q2 0 39.5 -2t67.5 -2h445q63 0 104 7q3 -9 3 -30z" />
    <glyph glyph-name="quoteleft" unicode="&#x2018;" horiz-adv-x="177" 
d="M79 619q0 -49 49 -59q10 -16 10 -33q0 -21 -17 -35.5t-41 -14.5q-26 0 -44.5 23t-18.5 71q0 63 34.5 116t81.5 53q26 0 26 -30q0 -8 -1 -12h-5q-32 0 -53 -24t-21 -55z" />
    <glyph glyph-name="quoteright" unicode="&#x2019;" horiz-adv-x="244" 
d="M122 598q0 49 -49 59q-10 16 -10 33q0 21 17 35.5t41 14.5q26 0 44.5 -23t18.5 -71q0 -63 -34.5 -116t-81.5 -53q-26 0 -26 30q0 8 1 12h5q32 0 53 24t21 55z" />
    <glyph glyph-name="quotesinglbase" unicode="&#x201a;" horiz-adv-x="218" 
d="M106 -22q0 49 -49 59q-10 16 -10 33q0 21 17 35.5t41 14.5q26 0 44.5 -23t18.5 -71q0 -63 -34.5 -116t-81.5 -53q-26 0 -26 30q0 8 1 12h5q32 0 53 24t21 55z" />
    <glyph glyph-name="quotedblleft" unicode="&#x201c;" horiz-adv-x="409" 
d="M289 617q0 -49 49 -59q10 -16 10 -33q0 -21 -17 -35.5t-41 -14.5q-26 0 -44.5 23t-18.5 71q0 63 34.5 116t81.5 53q26 0 26 -30q0 -8 -1 -12h-5q-32 0 -53 -24t-21 -55zM92 617q0 -49 49 -59q10 -16 10 -33q0 -21 -17 -35.5t-41 -14.5q-26 0 -44.5 23t-18.5 71
q0 63 34.5 116t81.5 53q26 0 26 -30q0 -8 -1 -12h-5q-32 0 -53 -24t-21 -55z" />
    <glyph glyph-name="quotedblright" unicode="&#x201d;" horiz-adv-x="455" 
d="M130 598q0 49 -49 59q-10 16 -10 33q0 21 17 35.5t41 14.5q26 0 44.5 -23t18.5 -71q0 -63 -34.5 -116t-81.5 -53q-26 0 -26 30q0 8 1 12h5q32 0 53 24t21 55zM323 598q0 49 -49 59q-10 16 -10 33q0 21 17 35.5t41 14.5q26 0 44.5 -23t18.5 -71q0 -63 -34.5 -116
t-81.5 -53q-26 0 -26 30q0 8 1 12h5q32 0 53 24t21 55z" />
    <glyph glyph-name="quotedblbase" unicode="&#x201e;" horiz-adv-x="411" 
d="M106 -22q0 49 -49 59q-10 16 -10 33q0 21 17 35.5t41 14.5q26 0 44.5 -23t18.5 -71q0 -63 -34.5 -116t-81.5 -53q-26 0 -26 30q0 8 1 12h5q32 0 53 24t21 55zM299 -22q0 49 -49 59q-10 16 -10 33q0 21 17 35.5t41 14.5q26 0 44.5 -23t18.5 -71q0 -63 -34.5 -116
t-81.5 -53q-26 0 -26 30q0 8 1 12h5q32 0 53 24t21 55z" />
    <glyph glyph-name="dagger" unicode="&#x2020;" horiz-adv-x="455" 
d="M45 459q0 47 38 47q5 0 18.5 -2.5t38.5 -6t58 -4.5q0 14 -13 174q27 6 43 6t42 -6q-13 -160 -13 -174q70 1 145 24q8 -18 8 -38q0 -29 -13 -39t-44 -10q-17 0 -46 3t-50 3q3 -163 7.5 -270.5t7.5 -146t3 -48.5q0 -17 -12 -36.5t-24 -30.5l-12 -10q-47 38 -47 77
q0 10 3 48.5t7.5 146t7.5 271.5q-37 -1 -85 -6t-65 -6q-3 16 -3 34z" />
    <glyph glyph-name="daggerdbl" unicode="&#x2021;" horiz-adv-x="456" 
d="M271 281q0 -19 -6 -69t-7 -81q37 1 85 6t65 6q3 -16 3 -34q0 -47 -38 -47q-5 0 -18.5 2.5t-38.5 6t-58 4.5q0 -14 13 -174q-27 -6 -43 -6t-42 6q13 160 13 174q-70 -1 -145 -24q-8 18 -8 38q0 29 13 39t44 10q17 0 46 -3t50 -3q-1 30 -8 79t-7 70q0 22 6.5 73.5t7.5 82.5
q-37 -1 -85 -6t-65 -6q-3 16 -3 34q0 47 38 47q5 0 18.5 -2.5t38.5 -6t58 -4.5q0 14 -13 174q27 6 43 6t42 -6q-13 -160 -13 -174q70 1 145 24q8 -18 8 -38q0 -29 -13 -39t-44 -10q-17 0 -46 3t-50 3q1 -32 7.5 -83.5t6.5 -71.5z" />
    <glyph glyph-name="bullet" unicode="&#x2022;" horiz-adv-x="268" 
d="M135 155q-46 0 -78 32t-32 81q0 48 32.5 81.5t77.5 33.5t76.5 -33.5t31.5 -81.5q0 -49 -31.5 -81t-76.5 -32z" />
    <glyph glyph-name="ellipsis" unicode="&#x2026;" horiz-adv-x="765" 
d="M103 -10q-25 0 -43 18t-18 45t18 45.5t43 18.5t42.5 -18.5t17.5 -45.5t-17.5 -45t-42.5 -18zM665 -10q-25 0 -43 18t-18 45t18 45.5t43 18.5t42.5 -18.5t17.5 -45.5t-17.5 -45t-42.5 -18zM384 -10q-25 0 -43 18t-18 45t18 45.5t43 18.5t42.5 -18.5t17.5 -45.5t-17.5 -45
t-42.5 -18z" />
    <glyph glyph-name="perthousand" unicode="&#x2030;" horiz-adv-x="1124" 
d="M938 -10q-63 0 -100 39.5t-37 106.5t37 106.5t100 39.5q62 0 99 -39.5t37 -106.5t-37 -106.5t-99 -39.5zM1014 130q0 42 -20 75t-56 33q-34 0 -56.5 -26t-22.5 -65q0 -44 20.5 -78t57.5 -34q35 0 56 27t21 68zM608 -10q-63 0 -100 39.5t-37 106.5t37 106.5t100 39.5
q62 0 99 -39.5t37 -106.5t-37 -106.5t-99 -39.5zM684 130q0 42 -20 75t-56 33q-34 0 -56.5 -26t-22.5 -65q0 -44 20.5 -78t57.5 -34q35 0 56 27t21 68zM181 16l264 337q91 116 140 187q15 -2 28.5 -12.5t13.5 -21.5q0 -9 -10 -23l-264 -338q-87 -111 -140 -187
q-42 13 -42 35q0 10 10 23zM187 209q-63 0 -100 39.5t-37 106.5t37 106.5t100 39.5q62 0 99 -39.5t37 -106.5t-37 -106.5t-99 -39.5zM263 349q0 42 -20 75t-56 33q-34 0 -56.5 -26t-22.5 -65q0 -44 20.5 -78t57.5 -34q35 0 56 27t21 68z" />
    <glyph glyph-name="guilsinglleft" unicode="&#x2039;" horiz-adv-x="285" 
d="M119 235q35 -43 70.5 -96t35.5 -67q0 -13 -20 -28q-66 55 -165 191q99 136 165 191q20 -15 20 -28q0 -14 -35.5 -67t-70.5 -96z" />
    <glyph glyph-name="guilsinglright" unicode="&#x203a;" horiz-adv-x="285" 
d="M146 235q-35 43 -70.5 96t-35.5 67q0 13 20 28q66 -55 165 -191q-99 -136 -165 -191q-20 15 -20 28q0 14 35.5 67t70.5 96z" />
    <glyph glyph-name="fraction" unicode="&#x2044;" horiz-adv-x="292" 
d="M-84 -57l292 585q64 128 99 212q17 -2 24 -5q25 -8 25 -26q0 -7 -6 -19l-292 -585q-67 -134 -99 -212l-21 3q-28 10 -28 27q0 8 6 20z" />
    <glyph glyph-name="Euro" unicode="&#x20ac;" 
d="M97 286q0 21 1 31q-21 -1 -71 -5q-3 10 -3 17q0 27 27 27h52q20 113 98 168.5t180 55.5q132 0 132 -48q0 -32 -22 -45q-49 37 -116 37q-66 0 -123.5 -43t-76.5 -125h115q104 0 162 5l2 -15q0 -29 -27 -29h-258q-1 -11 -1 -32q0 -20 1 -29h57q168 0 226 5l2 -15
q0 -29 -27 -29h-252q18 -83 75.5 -126.5t124.5 -43.5q66 0 116 36q22 -13 22 -45q0 -48 -132 -48q-104 0 -181.5 55t-97.5 172q-21 -1 -75 -5q-3 10 -3 17q0 27 27 27h47q-1 9 -1 30z" />
    <glyph glyph-name="trademark" unicode="&#x2122;" horiz-adv-x="861" 
d="M783 552v-150q0 -63 12 -105q-18 -6 -35 -6q-21 0 -28 9t-7 30q0 28 0.5 92.5t0.5 134.5q-48 -107 -96 -262q-8 -3 -22 -3q-26 0 -34 19q-14 34 -35 88.5t-36.5 93t-28.5 62.5v-153q0 -63 12 -105q-18 -6 -30 -6q-21 0 -28 9t-7 30q0 7 0.5 31.5t0.5 74.5v120q0 49 -9 94
q24 6 39 6q28 0 46 -31q51 -90 104 -240q41 124 105 240q17 31 47 31q18 0 38 -8q-9 -38 -9 -96zM131 652h125q84 0 112 3q4 -16 4 -22q0 -29 -29 -29h-78v-192q0 -74 13 -115q-22 -6 -36 -6q-21 0 -28 9t-7 30v274q-67 0 -103 -3q-4 12 -4 23q0 16 7.5 21.5t23.5 6.5z" />
    <glyph glyph-name="Omega" unicode="&#x2126;" horiz-adv-x="836" 
d="M418 677q129 0 217.5 -85.5t88.5 -220.5q0 -195 -195 -311h181q21 29 56 102q3 1 7 1q18 0 18 -16q0 -27 -27 -147h-221q-58 0 -58 60q0 2 3 32q153 92 153 269q-1 115 -59.5 187.5t-163.5 72.5t-163.5 -72.5t-59.5 -187.5q0 -177 153 -269q3 -15 3 -33q0 -59 -58 -59
h-221q-27 120 -27 147q0 16 18 16q4 0 7 -1q35 -73 56 -102h181q-195 116 -195 311q0 135 88.5 220.5t217.5 85.5z" />
    <glyph glyph-name="partialdiff" unicode="&#x2202;" horiz-adv-x="519" 
d="M266 346q-62 0 -103.5 -50.5t-41.5 -127.5q0 -53 25.5 -87.5t76.5 -34.5q52 0 90 39t55 92.5t21 118.5q-62 50 -123 50zM105 598q-10 21 -10 38q0 37 57 37q154 0 230.5 -93t76.5 -257q0 -62 -13.5 -119t-40 -106t-74 -78.5t-108.5 -29.5q-84 0 -128.5 56t-44.5 136
q0 94 56.5 156.5t139.5 62.5q75 0 145 -55q-2 127 -53 197t-143 70q-41 0 -90 -15z" />
    <glyph glyph-name="Delta" unicode="&#x2206;" horiz-adv-x="663" 
d="M110 70q63 -10 209 -10q142 0 203 10q-164 384 -200 485q-122 -273 -212 -485zM40 40q24 55 81 180t98 218.5t76 182.5q9 22 42 22q8 0 26 -3q169 -396 260 -600q0 -40 -28 -40h-527q-28 0 -28 40z" />
    <glyph glyph-name="product" unicode="&#x220f;" horiz-adv-x="683" 
d="M679 635q0 -39 -38 -39l-112 4q0 -6 -2.5 -44t-4 -84.5t-1.5 -89.5v-179q0 -135 19 -198q-18 -8 -47 -8t-39 13t-10 44q0 16 1 79t1 98v371h-29q-141 0 -190 -1v-370q0 -35 1 -98t1 -79q0 -31 -9 -44t-35 -13t-42 8q19 63 19 198v179q0 44 -1.5 90t-4 85t-2.5 43
q-79 -3 -126 -13q-8 14 -8 38q0 23 13 31t44 8q16 0 79 -1t98 -1h190q134 0 232 6q3 -14 3 -33z" />
    <glyph glyph-name="summation" unicode="&#x2211;" horiz-adv-x="629" 
d="M456 598l-308 1l158 -278q4 -8 4 -15q0 -15 -24 -54l-151 -243h363q21 29 56 102q3 1 7 1q18 0 18 -16q0 -32 -29 -158h-510q-6 0 -10 5t-4 9l-1 5l211 329l-200 344q0 12 6 20t16 8h447q23 -102 23 -132q0 -16 -18 -16q-4 0 -7 1q-29 61 -47 87z" />
    <glyph glyph-name="minus" unicode="&#x2212;" 
d="M466 257q0 -18 -10 -30t-26 -12t-71.5 4t-84.5 4q-114 0 -202 -8q-3 15 -3 30q0 16 9 29t27 13q3 0 63 -3.5t104 -3.5q130 0 191 7q3 -9 3 -30z" />
    <glyph glyph-name="radical" unicode="&#x221a;" horiz-adv-x="557" 
d="M161 481l179 -389l124 645q7 1 19 1q31 0 31 -22q0 -2 -141 -714q-4 -20 -14 -27t-29 -7h-6l-210 451q-18 -7 -67 -35q-17 8 -17 24q0 12 11 19q66 40 120 54z" />
    <glyph glyph-name="infinity" unicode="&#x221e;" horiz-adv-x="733" 
d="M633 264q0 41 -26.5 65t-64.5 24q-24 0 -51.5 -15.5t-42 -28.5t-37.5 -36l-9 -9q83 -96 139 -96q40 0 66 27t26 69zM192 168q25 0 53.5 15.5t45.5 30.5t42 41q-11 15 -27.5 33t-52 41.5t-67.5 23.5q-37 0 -61.5 -28t-24.5 -68q0 -36 26.5 -62.5t65.5 -26.5zM188 408
q51 0 92.5 -27.5t87.5 -78.5q35 35 55 52.5t56 35.5t72 18q61 0 101.5 -41.5t40.5 -104.5q0 -68 -45 -108t-107 -40q-43 0 -83.5 24t-92.5 78q-29 -30 -52 -49t-58.5 -36t-70.5 -17q-61 0 -102.5 42t-41.5 104q0 64 42.5 106t105.5 42z" />
    <glyph glyph-name="integral" unicode="&#x222b;" horiz-adv-x="296" 
d="M106 400q0 339 156 339q29 0 46.5 -15t17.5 -38q0 -20 -17 -33.5t-36 -15.5q-18 47 -48 47q-44 0 -44 -136q0 -67 4.5 -195.5t4.5 -182.5q0 -183 -39 -264t-117 -81q-29 0 -46.5 15t-17.5 38q0 20 17 33.5t36 15.5q18 -47 48 -47q51 0 51 152q0 62 -8 181t-8 187z" />
    <glyph glyph-name="approxequal" unicode="&#x2248;" 
d="M515 166q0 -29 -35.5 -60.5t-85.5 -31.5q-46 0 -93 19.5t-86.5 39t-66.5 19.5q-26 0 -46.5 -11t-29.5 -22t-21 -30q-32 9 -32 33q0 29 35.5 60.5t85.5 31.5q57 0 135 -39t111 -39q26 0 46.5 11t29.5 22t21 30q32 -9 32 -33zM515 366q0 -29 -35.5 -60.5t-85.5 -31.5
q-46 0 -93 19.5t-86.5 39t-66.5 19.5q-26 0 -46.5 -11t-29.5 -22t-21 -30q-32 9 -32 33q0 29 35.5 60.5t85.5 31.5q57 0 135 -39t111 -39q26 0 46.5 11t29.5 22t21 30q32 -9 32 -33z" />
    <glyph glyph-name="notequal" unicode="&#x2260;" 
d="M466 158q0 -18 -10 -30t-26 -12t-71.5 4t-84.5 4h-52l-3 -6q-53 -96 -87 -166q-46 6 -46 32q0 7 6 19l67 119q-22 -1 -87 -6q-3 15 -3 30q0 16 9 29t27 13q5 0 18 -1t33.5 -2t37.5 -2l79 141q-113 0 -201 -8q-3 15 -3 30q0 16 9 29t27 13q3 0 63 -3.5t104 -3.5h33
q51 93 91 177q17 -1 31.5 -9t14.5 -22q0 -9 -6 -20l-70 -125q60 2 97 6q3 -9 3 -30q0 -18 -10 -30t-26 -12q-20 0 -98 6l-78 -141h18q130 0 191 7q3 -9 3 -30z" />
    <glyph glyph-name="lessequal" unicode="&#x2264;" 
d="M414 51q0 -18 -10 -30t-26 -12t-51.5 2.5t-64.5 2.5q-64 0 -152 -8q-3 15 -3 25q0 16 9 29t27 13q9 0 55.5 -2t61.5 -2q90 0 151 7q3 -9 3 -25zM191 300q17 -14 102.5 -72t100.5 -69q-7 -16 -20 -27.5t-29 -11.5q-12 0 -27 13l-212 167l212 167q17 13 27 13
q15 0 29 -11.5t20 -27.5q-17 -13 -66.5 -47t-91.5 -63t-45 -31z" />
    <glyph glyph-name="greaterequal" unicode="&#x2265;" 
d="M105 51q0 16 3 25q61 -7 151 -7q15 0 61.5 2t55.5 2q18 0 27 -13t9 -29q0 -10 -3 -25q-88 8 -152 8q-29 0 -64.5 -2.5t-51.5 -2.5t-26 12t-10 30zM328 300q-3 2 -45 31t-91.5 63t-66.5 47q6 16 20 27.5t29 11.5q10 0 27 -13l212 -167l-212 -167q-15 -13 -27 -13
q-16 0 -29 11.5t-20 27.5q15 11 100.5 69t102.5 72z" />
    <glyph glyph-name="lozenge" unicode="&#x25ca;" horiz-adv-x="512" 
d="M414 343l-158 296l-158 -296l158 -296zM35 343l176 325q10 18 45 18q36 0 45 -18l176 -325l-176 -325q-12 -18 -45 -18q-35 0 -45 18z" />
    <glyph glyph-name="apple" unicode="&#xf8ff;" horiz-adv-x="816" 
d="M713 162q8 -30 11 -45q12 -55 12 -111q0 -7 -7 -7h-26q-6 0 -6 6q0 7 7 7h19q0 47 -18 125l-5 22q-4 20 -22 36t-47 19q-43 4 -98 22q-14 5 -15 7q-1 6 -2.5 26t-2.5 27q-27 0 -53 13q-3 1 -3 7t7 6q1 0 17.5 -6.5t40.5 -6.5q20 0 27 7q4 5 12.5 59.5t15.5 69.5
q4 13 4 65q0 46 -4 66q-18 97 -130 97q-84 0 -131 -42.5t-47 -118.5q0 -65 22.5 -109.5t61.5 -54.5q6 -2 6 -8t-3 -52.5t-4 -48.5q-2 -2 -4 -2q-26 0 -87 -23q-53 -21 -75 -24q-56 -8 -68 -54l-7 -29q-14 -60 -17 -95h142q7 0 7 -6q0 -7 -7 -7h-149q-7 0 -7 7q3 42 18 102
l8 30q4 24 25.5 43.5t53.5 23.5q22 3 81 25q52 19 75 20q4 56 5 86q-43 14 -66.5 60.5t-23.5 115.5q0 83 50 129.5t141 46.5q121 0 145 -109q3 -18 3 -52q0 -60 -5 -87q-13 -32 -18 -82q-5 -39 -16 -52q-8 -9 -30 -11q1 -9 2.5 -25.5t1.5 -19.5q61 -18 104 -23
q31 -3 52 -22.5t27 -42.5zM507 563l5 -5l-18 -28l-13 11zM515 558l5 5l26 -22l-13 -11zM517 574h-7l-5 31h17zM509 572l-3 -7l-31 7l6 15zM520 565l-2 7l28 15l6 -15z" />
    <glyph glyph-name="fi" unicode="&#xfb01;" horiz-adv-x="669" 
d="M166 241v-85q0 -105 16 -154q-20 -6 -44 -6q-27 0 -36.5 10t-9.5 33q0 13 1 62t1 76v157q0 113 -12 178q98 7 183 7q121 0 136 -12q8 -7 8 -23q0 -20 -7 -38q-48 16 -150 16q-33 0 -89 -2q3 -27 3 -100v-63h64q67 0 96 3q3 -8 3 -23q0 -25 -13 -30.5t-59 -5.5h-91z
M499 180v156q0 104 -6 180q18 3 38 3q47 0 47 -30q0 -4 -2 -31t-3.5 -67t-1.5 -76v-157q0 -105 16 -154q-15 -6 -44 -6q-27 0 -36.5 10t-9.5 34q0 12 1 61t1 77z" />
    <glyph glyph-name="fl" unicode="&#xfb02;" horiz-adv-x="788" 
d="M166 241v-85q0 -105 16 -154q-20 -6 -44 -6q-27 0 -36.5 10t-9.5 33q0 13 1 62t1 76v157q0 113 -12 178q98 7 183 7q121 0 136 -12q8 -7 8 -23q0 -20 -7 -38q-48 16 -150 16q-33 0 -89 -2q3 -27 3 -100v-63h64q67 0 96 3q3 -8 3 -23q0 -25 -13 -30.5t-59 -5.5h-91z
M489 174v162q0 104 -6 181q16 2 39 2q46 0 46 -30q0 -4 -2 -31t-3.5 -67t-1.5 -76v-69q0 -158 6 -191q34 -2 53 -2q124 0 162 18q6 -20 6 -38q0 -16 -7 -23q-15 -11 -129 -11q-22 0 -72.5 0.5t-53.5 0.5q-23 1 -31 11t-8 33q0 12 1 57t1 73z" />
    <glyph glyph-name="J_alt" horiz-adv-x="285" 
d="M170 666q49 0 49 -38q0 -5 -2 -37t-4 -79.5t-2 -90.5q0 -58 0.5 -144.5t1 -150t0.5 -66.5q0 -97 -55 -149.5t-152 -52.5q-54 0 -95 17.5t-41 43.5q0 27 30 48q49 -49 124 -49q47 0 79 32t32 102q0 3 0.5 117.5t0.5 261.5q0 141 -7 232q17 3 41 3z" />
    </font>
</defs>
</svg>
